<svg preserveAspectRatio="none" width="100%" height="100%" overflow="visible" style="display: block;" viewBox="0 0 43.7479 43.7479" fill="none" xmlns="http://www.w3.org/2000/svg">
<g id="Group 762">
<mask id="mask0_0_12" style="mask-type:alpha" maskUnits="userSpaceOnUse" x="0" y="0" width="44" height="44">
<path id="Rectangle 647" d="M-1.44245e-05 -6.59321e-05H43.7478V43.7478H-1.44245e-05V-6.59321e-05Z" fill="var(--fill-0, black)"/>
</mask>
<g mask="url(#mask0_0_12)">
<path id="Path 580" d="M32.3609 19.1293C32.7911 16.204 30.5713 14.6209 27.5084 13.5712L28.5064 9.59622L26.0973 8.99395L25.1337 12.8657C24.497 12.7108 23.8431 12.5559 23.1892 12.4183L24.1529 8.52934L21.7438 7.92708L20.763 11.8848C20.2295 11.7644 19.7133 11.6439 19.2143 11.5235V11.5063L15.876 10.6803L15.2393 13.2614C15.2393 13.2614 17.0289 13.6744 16.9945 13.6916C17.9753 13.9325 18.1474 14.5864 18.113 15.1027L16.9773 19.6283C17.0461 19.6455 17.1321 19.6627 17.2354 19.7143C17.1494 19.6971 17.0633 19.6799 16.9773 19.6455L15.3942 25.9779C15.2737 26.2704 14.964 26.7178 14.2929 26.5458C14.3101 26.5802 12.5377 26.1156 12.5377 26.1156L11.3332 28.886L14.4822 29.6776C15.0672 29.8324 15.6351 29.9701 16.2029 30.125L15.2049 34.1343L17.614 34.7366L18.612 30.7616C19.2659 30.9337 19.9198 31.1058 20.5393 31.2607L19.5584 35.2184L21.9675 35.8207L22.9655 31.8113C27.0954 32.5857 30.1928 32.2759 31.4833 28.5418C32.533 25.5477 31.4317 23.8097 29.2635 22.674C30.8639 22.3127 32.0512 21.263 32.3609 19.1293V19.1293ZM26.8373 26.8727C26.0973 29.8668 21.0383 28.2493 19.4036 27.8363L20.7286 22.5192C22.3633 22.9322 27.6288 23.7409 26.8373 26.8727V26.8727ZM27.5944 19.0776C26.9061 21.8137 22.7074 20.4198 21.348 20.0757L22.5526 15.2575C23.912 15.6017 28.2999 16.2384 27.5944 19.0776Z" fill="var(--fill-0, white)"/>
</g>
</g>
</svg>
