<svg preserveAspectRatio="none" width="100%" height="100%" overflow="visible" style="display: block;" viewBox="0 0 119.139 22.2058" fill="none" xmlns="http://www.w3.org/2000/svg">
<g id="Group 1">
<mask id="mask0_0_4" style="mask-type:alpha" maskUnits="userSpaceOnUse" x="0" y="0" width="120" height="23">
<path id="Rectangle 2" d="M0 0H119.139V22.2058H0V0Z" fill="var(--fill-0, black)"/>
</mask>
<g mask="url(#mask0_0_4)">
<path id="Path 1" d="M9.27488e-05 11.1031C9.27488e-05 4.63179 4.96863 0.000619656 11.6547 0.000619656C15.3657 0.000619656 18.4634 1.3501 20.4876 3.8037L17.298 6.74801C15.8565 5.09184 14.0469 4.23308 11.9 4.23308C7.88228 4.23308 5.02997 7.05471 5.02997 11.1031C5.02997 15.1516 7.88228 17.9732 11.9 17.9732C14.0469 17.9732 15.8565 17.1145 17.298 15.4276L20.4876 18.3719C18.4634 20.8562 15.3657 22.2057 11.624 22.2057C4.96863 22.2057 9.27488e-05 17.5745 9.27488e-05 11.1031Z" fill="var(--fill-0, #39079E)"/>
<path id="Path 2" d="M95.6454 11.1026C95.6454 4.72327 100.614 9.10231e-05 107.392 9.10231e-05C114.139 9.10231e-05 119.139 4.6926 119.139 11.1026C119.139 17.5126 114.139 22.2052 107.392 22.2052C100.614 22.2052 95.6454 17.482 95.6454 11.1026V11.1026ZM114.109 11.1026C114.109 7.02351 111.226 4.23255 107.392 4.23255C103.558 4.23255 100.675 7.02351 100.675 11.1026C100.675 15.1817 103.558 17.9727 107.392 17.9727C111.226 17.9727 114.109 15.1817 114.109 11.1026Z" fill="var(--fill-0, #39079E)"/>
<path id="Path 3" d="M36.3275 14.9363C39.1185 13.7402 40.744 11.3786 40.744 8.15824C40.744 3.34305 37.1556 0.368064 31.4203 0.368064H22.1273V4.4165H27.0958H27.4856H31.1443C34.1806 4.4165 35.7141 5.79665 35.7141 8.15824C35.7141 10.4892 34.1806 11.9 31.1443 11.9H28.1139V11.9015H22.1273V21.837H27.0958V15.8564H31.4203H31.6657L35.8061 21.837H41.1427L36.3275 14.9363Z" fill="var(--fill-0, #39079E)"/>
<path id="Path 4" d="M81.9578 0.368527L79.0157 4.41697H84.2334V21.8375H89.2019V4.41697H96.072V0.368527H81.9578Z" fill="var(--fill-0, #39079E)"/>
<path id="Path 5" d="M68.7874 0.368064H60.6905H59.4944H55.814L50.0787 9.90643L44.3434 0.368064H39.0682L47.3798 14.1696V21.837H52.3483V14.2309L58.2541 4.4165H59.4944H63.1598H64.4629H64.7756H68.5114C71.5477 4.4165 73.0812 5.79665 73.0812 8.15824C73.0812 10.4892 71.5477 11.8693 68.5114 11.8693H64.7756H64.4629H59.4944V21.837H64.4629V15.9177H68.7874C74.5227 15.9177 78.1111 12.9428 78.1111 8.15824C78.1111 3.34305 74.5227 0.368064 68.7874 0.368064Z" fill="var(--fill-0, #39079E)"/>
</g>
</g>
</svg>
