<svg preserveAspectRatio="none" width="100%" height="100%" overflow="visible" style="display: block;" viewBox="0 0 51.2182 39.7998" fill="none" xmlns="http://www.w3.org/2000/svg">
<g id="Group 758">
<mask id="mask0_0_15" style="mask-type:alpha" maskUnits="userSpaceOnUse" x="0" y="0" width="52" height="40">
<path id="Rectangle 645" d="M0 0H51.2182V39.7998H0V0Z" fill="var(--fill-0, black)"/>
</mask>
<g mask="url(#mask0_0_15)">
<path id="Path 562" d="M8.7756 35.7259C8.62879 35.5787 8.45464 35.4643 8.25295 35.3827C8.05126 35.3011 7.83034 35.2602 7.59058 35.2602C7.46361 35.2602 7.33178 35.2711 7.19489 35.293C7.05801 35.3148 6.92415 35.3535 6.79293 35.4088C6.66171 35.4643 6.53677 35.5408 6.41831 35.6384C6.29985 35.7362 6.19677 35.8594 6.1095 36.008C5.96836 35.7747 5.7772 35.5919 5.53602 35.4592C5.29484 35.3266 5.01884 35.2602 4.70861 35.2602C4.60412 35.2602 4.49639 35.2697 4.38481 35.2885C4.27344 35.3075 4.16267 35.3403 4.05271 35.3869C3.94255 35.4337 3.83745 35.4971 3.73742 35.5773C3.63718 35.6575 3.54626 35.7587 3.46445 35.8812V35.3695H2.58419V39.5586H3.47275V37.2368C3.47275 37.059 3.5011 36.9008 3.5574 36.7623C3.6139 36.6238 3.68943 36.508 3.78399 36.4146C3.87836 36.3213 3.98913 36.2506 4.11609 36.2026C4.24306 36.1544 4.37853 36.1303 4.52231 36.1303C4.8214 36.1303 5.05346 36.2251 5.2185 36.4146C5.38354 36.6042 5.46616 36.8753 5.46616 37.2279V39.5586H6.35493V37.2368C6.35493 37.059 6.38307 36.9008 6.43957 36.7623C6.49587 36.6238 6.5714 36.508 6.66597 36.4146C6.76033 36.3213 6.8711 36.2506 6.99807 36.2026C7.12503 36.1544 7.2605 36.1303 7.40448 36.1303C7.70337 36.1303 7.93543 36.2251 8.10067 36.4146C8.26571 36.6042 8.34813 36.8753 8.34813 37.2279V39.5586H9.2369V36.9263C9.2369 36.6813 9.1966 36.4569 9.11621 36.2528C9.03582 36.0487 8.92221 35.8731 8.7756 35.7259Z" fill="var(--fill-0, #161615)"/>
<path id="Path 563" d="M13.4625 35.8768C13.3167 35.6903 13.1359 35.5408 12.9202 35.4286C12.7046 35.3165 12.4464 35.2602 12.1463 35.2602C11.8518 35.2602 11.5779 35.3148 11.3241 35.4242C11.0706 35.5335 10.8491 35.6858 10.6595 35.8812C10.47 36.0764 10.3214 36.3089 10.2134 36.5786C10.1057 36.8482 10.0516 37.1434 10.0516 37.464C10.0516 37.7849 10.1057 38.08 10.2134 38.3495C10.3214 38.6192 10.47 38.8517 10.6595 39.0471C10.8491 39.2423 11.0706 39.3946 11.3241 39.5039C11.5779 39.6133 11.8518 39.668 12.1463 39.668C12.4464 39.668 12.7046 39.6125 12.9202 39.5017C13.1359 39.3912 13.3167 39.2423 13.4625 39.0558V39.5586H14.3764V35.3695H13.4625V35.8768ZM13.4275 37.9976C13.3663 38.1608 13.2803 38.3023 13.1695 38.4218C13.0587 38.5413 12.9261 38.6352 12.7716 38.7037C12.6171 38.7723 12.445 38.8065 12.2556 38.8065C12.0574 38.8065 11.8802 38.7709 11.7243 38.6994C11.5683 38.6279 11.4363 38.5317 11.3286 38.4109C11.2207 38.2898 11.1376 38.1478 11.0793 37.9844C11.021 37.8212 10.9918 37.6478 10.9918 37.464C10.9918 37.2805 11.021 37.107 11.0793 36.9437C11.1376 36.7805 11.2207 36.6384 11.3286 36.5175C11.4363 36.3964 11.5683 36.3002 11.7243 36.2287C11.8802 36.1574 12.0574 36.1216 12.2556 36.1216C12.445 36.1216 12.6171 36.156 12.7716 36.2245C12.9261 36.2929 13.0587 36.3869 13.1695 36.5066C13.2803 36.626 13.3663 36.7674 13.4275 36.9306C13.4886 37.094 13.5192 37.2716 13.5192 37.464C13.5192 37.6565 13.4886 37.8343 13.4275 37.9976Z" fill="var(--fill-0, #161615)"/>
<path id="Path 564" d="M18.5774 37.4577C18.3208 37.258 17.9636 37.1248 17.5059 37.0575L17.0732 36.9919C16.9768 36.9773 16.8865 36.9607 16.8021 36.9417C16.7174 36.9229 16.6445 36.8973 16.5834 36.8652C16.5222 36.8332 16.4734 36.7922 16.4369 36.7426C16.4005 36.6932 16.3823 36.6321 16.3823 36.559C16.3823 36.4103 16.4515 36.2901 16.5898 36.1983C16.7283 36.1066 16.9229 36.0606 17.1736 36.0606C17.3049 36.0606 17.4339 36.0722 17.5606 36.0956C17.6876 36.1189 17.8077 36.1481 17.9215 36.1829C18.0351 36.218 18.1385 36.2566 18.2319 36.299C18.325 36.3411 18.4038 36.3814 18.468 36.419L18.8615 35.7064C18.643 35.5665 18.3878 35.458 18.0962 35.3806C17.8048 35.3035 17.4944 35.2648 17.1649 35.2648C16.8966 35.2648 16.6563 35.2962 16.4434 35.3588C16.2306 35.4215 16.0492 35.5104 15.8991 35.6254C15.7489 35.7407 15.6336 35.8812 15.5536 36.0475C15.4733 36.2137 15.4334 36.4002 15.4334 36.6072C15.4334 36.9454 15.5536 37.2187 15.794 37.4271C16.0346 37.6355 16.3879 37.7717 16.8545 37.8359L17.2917 37.8929C17.5424 37.9277 17.7261 37.984 17.8427 38.0611C17.9593 38.1385 18.0177 38.2367 18.0177 38.3564C18.0177 38.5137 17.9375 38.6383 17.7771 38.7302C17.6167 38.8219 17.3792 38.8679 17.0643 38.8679C16.8924 38.8679 16.7387 38.8563 16.603 38.8328C16.4675 38.8096 16.3436 38.7781 16.2314 38.7389C16.119 38.6996 16.0186 38.6544 15.9297 38.6034C15.8408 38.5524 15.7584 38.4977 15.6826 38.4394L15.2584 39.1259C15.4101 39.2394 15.5688 39.3314 15.7351 39.4015C15.9011 39.4713 16.0645 39.526 16.2247 39.5653C16.3851 39.6048 16.5368 39.6309 16.6795 39.6441C16.8223 39.6572 16.9476 39.6637 17.0556 39.6637C17.3559 39.6637 17.6248 39.6303 17.8623 39.5632C18.1001 39.4962 18.2997 39.4021 18.4615 39.281C18.6233 39.1601 18.7471 39.0159 18.8331 38.8482C18.9192 38.6806 18.9621 38.4963 18.9621 38.295C18.9621 37.9366 18.8339 37.6573 18.5774 37.4577Z" fill="var(--fill-0, #161615)"/>
<path id="Path 565" d="M27.1343 35.8703C26.9608 35.6763 26.7524 35.5262 26.509 35.4199C26.2656 35.3134 25.9981 35.2602 25.7067 35.2602C25.3975 35.2602 25.1156 35.3134 24.8604 35.4199C24.6053 35.5262 24.386 35.6763 24.2023 35.8703C24.0187 36.0641 23.8759 36.2966 23.7738 36.5677C23.6718 36.8388 23.6207 37.1377 23.6207 37.4642C23.6207 37.7965 23.6732 38.0982 23.7783 38.3693C23.8832 38.6405 24.0302 38.8721 24.2197 39.0645C24.4093 39.2569 24.6353 39.4057 24.8975 39.5104C25.1599 39.6155 25.4487 39.668 25.7634 39.668C26.0811 39.668 26.3836 39.6242 26.6708 39.5368C26.9579 39.4493 27.2297 39.2962 27.4863 39.0777L27.0316 38.4262C26.8567 38.566 26.6635 38.6747 26.4521 38.7519C26.2407 38.8292 26.0301 38.8677 25.8203 38.8677C25.6715 38.8677 25.5287 38.8474 25.3918 38.8065C25.2547 38.7656 25.1308 38.7025 25.02 38.6164C24.9093 38.5303 24.8145 38.4204 24.7357 38.2861C24.6571 38.1521 24.6031 37.9903 24.5741 37.8007H27.6699C27.6758 37.7483 27.68 37.693 27.6831 37.6347C27.6859 37.5764 27.6873 37.518 27.6873 37.4597C27.6873 37.1333 27.6385 36.8352 27.5409 36.5655C27.4433 36.2959 27.3077 36.0641 27.1343 35.8703V35.8703ZM24.5784 37.1055C24.6016 36.9541 24.6426 36.8147 24.7009 36.688C24.7592 36.5612 24.8341 36.4519 24.9261 36.3599C25.018 36.2682 25.1271 36.1975 25.2539 36.1479C25.3809 36.0983 25.5259 36.0736 25.6891 36.0736C25.9805 36.0736 26.2182 36.1639 26.4019 36.3447C26.5855 36.5256 26.702 36.7791 26.7516 37.1055H24.5784Z" fill="var(--fill-0, #161615)"/>
<path id="Path 566" d="M39.276 35.8768C39.1302 35.6903 38.9496 35.5408 38.7339 35.4286C38.5183 35.3165 38.2601 35.2602 37.96 35.2602C37.6656 35.2602 37.3914 35.3148 37.1379 35.4242C36.8843 35.5335 36.6628 35.6858 36.4733 35.8812C36.2837 36.0764 36.1349 36.3089 36.0271 36.5786C35.9194 36.8482 35.8653 37.1434 35.8653 37.464C35.8653 37.7849 35.9194 38.08 36.0271 38.3495C36.1349 38.6192 36.2837 38.8517 36.4733 39.0471C36.6628 39.2423 36.8843 39.3946 37.1379 39.5039C37.3914 39.6133 37.6656 39.668 37.96 39.668C38.2601 39.668 38.5183 39.6125 38.7339 39.5017C38.9496 39.3912 39.1302 39.2423 39.276 39.0558V39.5586H40.1901V35.3695H39.276V35.8768ZM39.2412 37.9976C39.18 38.1608 39.094 38.3023 38.9832 38.4218C38.8723 38.5413 38.7398 38.6352 38.5851 38.7037C38.4308 38.7723 38.2587 38.8065 38.0691 38.8065C37.8711 38.8065 37.6939 38.7709 37.538 38.6994C37.3821 38.6279 37.25 38.5317 37.1423 38.4109C37.0344 38.2898 36.9513 38.1478 36.893 37.9844C36.8347 37.8212 36.8056 37.6478 36.8056 37.464C36.8056 37.2805 36.8347 37.107 36.893 36.9437C36.9513 36.7805 37.0344 36.6384 37.1423 36.5175C37.25 36.3964 37.3821 36.3002 37.538 36.2287C37.6939 36.1574 37.8711 36.1216 38.0691 36.1216C38.2587 36.1216 38.4308 36.156 38.5851 36.2245C38.7398 36.2929 38.8723 36.3869 38.9832 36.5066C39.094 36.626 39.18 36.7674 39.2412 36.9306C39.3024 37.094 39.3329 37.2716 39.3329 37.464C39.3329 37.6565 39.3024 37.8343 39.2412 37.9976Z" fill="var(--fill-0, #161615)"/>
<path id="Path 567" d="M22.4962 38.7236C22.349 38.7789 22.204 38.8067 22.0611 38.8067C21.9677 38.8067 21.881 38.7923 21.8009 38.7629C21.7207 38.7339 21.6508 38.688 21.5911 38.6252C21.5313 38.5626 21.4839 38.4816 21.4489 38.3826C21.4139 38.2836 21.3965 38.1639 21.3965 38.024V36.2007H22.8642V35.3698H21.3965V34.1016H20.4781V35.3698H19.643V36.2007H20.4781V38.0414C20.4781 38.5983 20.61 39.0085 20.8738 39.2724C21.1377 39.5362 21.5072 39.6681 21.9825 39.6681C22.2478 39.6681 22.4859 39.6274 22.6973 39.5458C22.837 39.4917 22.9666 39.4301 23.0879 39.3621L22.7755 38.5969C22.687 38.6442 22.5943 38.6868 22.4962 38.7236Z" fill="var(--fill-0, #161615)"/>
<path id="Path 568" d="M30.7471 35.2602C30.4906 35.2602 30.2589 35.307 30.0517 35.4001C29.8448 35.4935 29.6715 35.718 29.5315 35.9191V35.3695H28.7017V39.5586H29.5402V37.2542C29.5402 37.0764 29.5649 36.9174 29.6145 36.7775C29.6642 36.6376 29.7326 36.5195 29.8201 36.4233C29.9076 36.3271 30.0125 36.2542 30.135 36.2046C30.2573 36.1552 30.3913 36.1303 30.5371 36.1303C30.6481 36.1303 30.7674 36.1435 30.8958 36.1698C30.9612 36.1832 31.0223 36.1996 31.0794 36.219L31.3496 35.3446C31.2763 35.3215 31.2019 35.3015 31.1254 35.2885C31.013 35.2697 30.8871 35.2602 30.7471 35.2602Z" fill="var(--fill-0, #161615)"/>
<path id="Path 569" d="M43.4515 35.2602C43.1949 35.2602 42.9632 35.307 42.7561 35.4001C42.5491 35.4935 42.3758 35.718 42.2359 35.9191V35.3695H41.406V39.5586H42.2446V37.2542C42.2446 37.0764 42.2693 36.9174 42.3189 36.7775C42.3685 36.6376 42.437 36.5195 42.5244 36.4233C42.6119 36.3271 42.7168 36.2542 42.8393 36.2046C42.9616 36.1552 43.0957 36.1303 43.2415 36.1303C43.3524 36.1303 43.4717 36.1435 43.6001 36.1698C43.6655 36.1832 43.7267 36.1996 43.7838 36.219L44.0539 35.3446C43.9806 35.3215 43.9063 35.3015 43.8297 35.2885C43.7173 35.2697 43.5914 35.2602 43.4515 35.2602Z" fill="var(--fill-0, #161615)"/>
<path id="Path 570" d="M47.7204 33.6669V35.8767C47.5746 35.6902 47.3937 35.5408 47.1781 35.4286C46.9624 35.3164 46.7042 35.2601 46.4041 35.2601C46.1097 35.2601 45.8357 35.3148 45.5822 35.4241C45.3285 35.5335 45.1069 35.6858 44.9174 35.8812C44.7278 36.0764 44.5792 36.3089 44.4715 36.5786C44.3636 36.8481 44.3095 37.1434 44.3095 37.4639C44.3095 37.7849 44.3636 38.0799 44.4715 38.3494C44.5792 38.6192 44.7278 38.8516 44.9174 39.047C45.1069 39.2423 45.3285 39.3945 45.5822 39.5039C45.8357 39.6132 46.1097 39.6679 46.4041 39.6679C46.7042 39.6679 46.9624 39.6124 47.1781 39.5017C47.3937 39.3911 47.5746 39.2423 47.7204 39.0558V39.5586H48.6343V33.6669H47.7204ZM47.6853 37.9975C47.6242 38.1607 47.5381 38.3023 47.4274 38.4217C47.3166 38.5412 47.184 38.6352 47.0295 38.7036C46.8749 38.7722 46.7028 38.8065 46.5135 38.8065C46.3152 38.8065 46.138 38.7708 45.9821 38.6994C45.8262 38.6279 45.6942 38.5317 45.5864 38.4108C45.4785 38.2897 45.3955 38.1478 45.3372 37.9843C45.2788 37.8211 45.2497 37.6478 45.2497 37.4639C45.2497 37.2804 45.2788 37.1069 45.3372 36.9437C45.3955 36.7805 45.4785 36.6383 45.5864 36.5174C45.6942 36.3963 45.8262 36.3001 45.9821 36.2287C46.138 36.1574 46.3152 36.1215 46.5135 36.1215C46.7028 36.1215 46.8749 36.156 47.0295 36.2244C47.184 36.2929 47.3166 36.3868 47.4274 36.5065C47.5381 36.626 47.6242 36.7673 47.6853 36.9305C47.7465 37.0939 47.7771 37.2715 47.7771 37.4639C47.7771 37.6565 47.7465 37.8343 47.6853 37.9975Z" fill="var(--fill-0, #161615)"/>
<path id="Path 571" d="M32.9344 36.4952C33.0508 36.3773 33.1893 36.2854 33.3497 36.2198C33.5101 36.1542 33.6836 36.1214 33.8701 36.1214C34.0755 36.1214 34.2662 36.1542 34.4426 36.2198C34.6131 36.2832 34.7607 36.3717 34.8861 36.4843L35.3261 35.7524C35.1613 35.6204 34.9754 35.5127 34.7686 35.4282C34.4932 35.3161 34.1937 35.2602 33.8701 35.2602C33.5465 35.2602 33.247 35.3161 32.9714 35.4282C32.696 35.5404 32.4585 35.6949 32.2588 35.8918C32.0592 36.0886 31.9024 36.3213 31.7888 36.5892C31.675 36.8575 31.6181 37.1489 31.6181 37.4638C31.6181 37.7787 31.675 38.07 31.7888 38.3383C31.9024 38.6065 32.0592 38.8389 32.2588 39.0358C32.4585 39.2326 32.696 39.3871 32.9714 39.4993C33.247 39.6115 33.5465 39.6676 33.8701 39.6676C34.1937 39.6676 34.4932 39.6115 34.7686 39.4993C34.9754 39.415 35.1613 39.3071 35.3261 39.1753L34.8861 38.4434C34.7607 38.5558 34.6131 38.6443 34.4426 38.7077C34.2662 38.7733 34.0755 38.8061 33.8701 38.8061C33.6836 38.8061 33.5101 38.7733 33.3497 38.7077C33.1893 38.6423 33.0508 38.5504 32.9344 38.4323C32.8177 38.3142 32.7258 38.1729 32.6588 38.0083C32.5918 37.8435 32.5583 37.662 32.5583 37.4638C32.5583 37.2655 32.5918 37.0841 32.6588 36.9194C32.7258 36.7546 32.8177 36.6133 32.9344 36.4952Z" fill="var(--fill-0, #161615)"/>
<path id="Path 572" d="M50.5593 38.9445C50.62 38.9445 50.6771 38.9559 50.7304 38.9784C50.7838 39.0008 50.8302 39.0314 50.8697 39.0701C50.9094 39.1088 50.9406 39.1539 50.9636 39.2056C50.9863 39.2574 50.9977 39.3127 50.9977 39.3716C50.9977 39.4299 50.9863 39.4852 50.9636 39.537C50.9406 39.5891 50.9094 39.6346 50.8697 39.6735C50.8302 39.7126 50.7838 39.7434 50.7304 39.7659C50.6771 39.7883 50.62 39.7997 50.5593 39.7997C50.4971 39.7997 50.439 39.7883 50.3851 39.7659C50.3313 39.7434 50.2845 39.7126 50.2448 39.6735C50.2053 39.6346 50.1741 39.5891 50.1516 39.537C50.1292 39.4852 50.1178 39.4299 50.1178 39.3716C50.1178 39.3127 50.1292 39.2574 50.1516 39.2056C50.1741 39.1539 50.2053 39.1088 50.2448 39.0701C50.2845 39.0314 50.3313 39.0008 50.3851 38.9784C50.439 38.9559 50.4971 38.9445 50.5593 38.9445V38.9445ZM50.5593 39.6808C50.6018 39.6808 50.6417 39.6727 50.6791 39.6565C50.7164 39.6403 50.749 39.6183 50.7765 39.5905C50.8041 39.5626 50.826 39.5298 50.8417 39.4925C50.8576 39.455 50.8654 39.4147 50.8654 39.3716C50.8654 39.3291 50.8576 39.289 50.8417 39.2513C50.826 39.2137 50.8041 39.1809 50.7765 39.1533C50.749 39.1258 50.7164 39.1039 50.6791 39.0877C50.6417 39.0715 50.6018 39.0634 50.5593 39.0634C50.5155 39.0634 50.4748 39.0715 50.437 39.0877C50.3993 39.1039 50.3665 39.1258 50.3385 39.1533C50.3106 39.1809 50.2887 39.2137 50.2729 39.2513C50.2571 39.289 50.2492 39.3291 50.2492 39.3716C50.2492 39.4147 50.2571 39.455 50.2729 39.4925C50.2887 39.5298 50.3106 39.5626 50.3385 39.5905C50.3665 39.6183 50.3993 39.6403 50.437 39.6565C50.4748 39.6727 50.5155 39.6808 50.5593 39.6808V39.6808ZM50.584 39.1823C50.636 39.1823 50.6755 39.194 50.7024 39.2171C50.7293 39.2402 50.7427 39.2712 50.7427 39.3099C50.7427 39.3402 50.7332 39.3655 50.7138 39.3854C50.6945 39.4054 50.6664 39.4186 50.6295 39.4249L50.7476 39.5609H50.62L50.5145 39.4287H50.5024V39.5609H50.3956V39.1823H50.584ZM50.5024 39.2746V39.3441H50.5822C50.5985 39.3441 50.6113 39.3414 50.62 39.3364C50.6289 39.3313 50.6334 39.3224 50.6334 39.3099C50.6334 39.2977 50.6289 39.2888 50.62 39.2831C50.6113 39.2774 50.5985 39.2746 50.5822 39.2746H50.5024Z" fill="var(--fill-0, #161615)"/>
<path id="Path 573" d="M19.5855 15.7877C19.5855 10.7689 21.9301 6.30056 25.5805 3.40887C22.8887 1.27656 19.4883 0 15.7877 0C7.06844 0 0 7.06844 0 15.7877C0 24.5069 7.06844 31.5753 15.7877 31.5753C19.4883 31.5753 22.8887 30.2988 25.5805 28.1664C21.9301 25.2748 19.5855 20.8064 19.5855 15.7877Z" fill="var(--fill-0, #D90010)"/>
<path id="Path 574" d="M19.5856 15.788C19.5856 20.8067 21.9301 25.2751 25.5806 28.1667C29.2308 25.2751 31.5753 20.8067 31.5753 15.788C31.5753 10.7692 29.2308 6.30088 25.5806 3.40919C21.9301 6.30088 19.5856 10.7692 19.5856 15.788Z" fill="var(--fill-0, #E54800)"/>
<path id="Path 575" d="M50.0906 24.3272V23.865H49.9037V23.7381H50.4156V23.865H50.2287V24.3272H50.0906ZM51.0802 24.3272V23.9185L50.9476 24.2711H50.8014L50.6688 23.9193V24.3272H50.5306V23.7381H50.7285L50.8749 24.1153L51.0203 23.7381H51.2183V24.3272H51.0802Z" fill="var(--fill-0, #F78B00)"/>
<path id="Path 576" d="M35.3733 0.000106287C31.6726 0.000106287 28.2723 1.27666 25.5806 3.40898C29.2309 6.30087 31.5754 10.769 31.5754 15.7878C31.5754 20.8065 29.2309 25.2749 25.5806 28.1665C28.2723 30.2989 31.6726 31.5754 35.3733 31.5754C44.0925 31.5754 51.161 24.507 51.161 15.7878C51.161 7.06855 44.0925 0.000106287 35.3733 0.000106287Z" fill="var(--fill-0, #F78B00)"/>
</g>
</g>
</svg>
