<svg preserveAspectRatio="none" width="100%" height="100%" overflow="visible" style="display: block;" viewBox="0 0 78.7666 25.4358" fill="none" xmlns="http://www.w3.org/2000/svg">
<g id="Group 759">
<mask id="mask0_0_35" style="mask-type:alpha" maskUnits="userSpaceOnUse" x="0" y="0" width="79" height="26">
<path id="Path 578" d="M23.2217 0.449523L16.5967 17.1954L13.9168 2.95682C13.6023 1.36734 12.3605 0.449523 10.9818 0.449523H0.151379L0 1.16396C2.22331 1.64641 4.74938 2.42453 6.27948 3.25712C7.21637 3.76572 7.48344 4.21032 7.79112 5.41889L12.8666 25.0524H19.5935L29.9058 0.449523H23.2217ZM32.6377 0.449523L27.3726 25.0524H33.7376L39.0002 0.449523H32.6377ZM69.1281 7.09576L71.0561 16.3345H65.7765L69.1281 7.09576ZM68.1943 0.449523C66.9734 0.449523 65.9448 1.1615 65.4861 2.25408L55.9375 25.0524H62.6169L63.9461 21.3796H72.1086L72.8797 25.0524H78.7666L73.6295 0.449523H68.1943ZM51.4884 0C45.1969 0 40.7715 3.34481 40.7362 8.13172C40.6912 11.6747 43.8939 13.6522 46.3064 14.8278C48.7851 16.0339 49.6177 16.8074 49.6082 17.8859C49.5891 19.5369 47.6307 20.2655 45.7975 20.2938C42.5998 20.3433 40.7408 19.4304 39.2627 18.7397L38.1107 24.1303C39.5937 24.8139 42.3398 25.4096 45.1877 25.4358C51.8718 25.4358 56.2452 22.1365 56.2686 17.0203C56.2947 10.5279 47.2876 10.1683 47.3495 7.26622C47.3704 6.38625 48.2104 5.4472 50.0506 5.20844C50.961 5.08783 53.4754 4.99552 56.3255 6.30809L57.4442 1.09289C55.9113 0.534751 53.9413 0 51.4884 0Z" fill="var(--fill-0, black)"/>
</mask>
<g mask="url(#mask0_0_35)">
<path id="Path 577" d="M-6.82246 25.2439L0.595473 -2.20268L85.5891 0.192727L78.1712 27.6393L-6.82246 25.2439Z" fill="url(#paint0_linear_0_35)"/>
</g>
</g>
<defs>
<linearGradient id="paint0_linear_0_35" x1="4.72659e-05" y1="25.4365" x2="0.30773" y2="25.4365" gradientUnits="userSpaceOnUse">
<stop stop-color="#222357"/>
<stop offset="1" stop-color="#254AA5"/>
</linearGradient>
</defs>
</svg>
