<svg preserveAspectRatio="none" width="100%" height="100%" overflow="visible" style="display: block;" viewBox="0 0 399.013 302.211" fill="none" xmlns="http://www.w3.org/2000/svg">
<g id="Group 173">
<mask id="mask0_0_83" style="mask-type:alpha" maskUnits="userSpaceOnUse" x="0" y="0" width="400" height="303">
<path id="Rectangle 93" d="M0 0H399.013V302.211H0V0Z" fill="var(--fill-0, black)"/>
</mask>
<g mask="url(#mask0_0_83)">
<path id="Path 510" d="M138.176 76.8088L56.7984 123.792L45.307 117.158L126.685 70.1745L138.176 76.8088Z" fill="var(--fill-0, white)"/>
<path id="Path 511" d="M155.256 86.9465L105.185 115.856L98.1137 111.773L148.186 82.8643L155.256 86.9465Z" fill="var(--fill-0, white)"/>
<path id="Path 512" d="M167.538 93.497L117.466 122.406L110.396 118.324L160.467 89.4148L167.538 93.497Z" fill="var(--fill-0, white)"/>
<path id="Path 513" d="M179.82 100.047L129.748 128.956L122.678 124.874L172.75 95.9649L179.82 100.047Z" fill="var(--fill-0, white)"/>
<path id="Path 514" d="M259.117 186.823L209.045 215.732L201.974 211.649L252.046 182.74L259.117 186.823Z" fill="var(--fill-0, white)"/>
<path id="Rectangle 92" d="M126.378 70.7059L126.992 69.6422L319.345 180.697L318.731 181.761L126.378 70.7059Z" fill="var(--fill-0, white)"/>
<path id="Path 515" d="M157.255 4.67734L156.468 3.54182L160.477 1.26418C160.552 1.22013 160.628 1.17696 160.704 1.13512L160.707 1.1338C164.234 -0.792357 169.373 -0.321059 175.095 2.98243C185.73 9.12252 194.351 22.7215 194.351 33.3565C194.351 37.8202 192.832 41.0519 190.283 42.8459L190.282 42.8468C189.904 43.1132 189.502 43.3476 189.08 43.5498L185.599 45.5865L184.829 44.4769C181.973 44.5047 178.647 43.5453 175.095 41.495C164.46 35.3549 155.839 21.756 155.839 11.1209C155.839 8.55212 156.342 6.3912 157.255 4.67734Z" fill="var(--fill-0, #FF9D4D)"/>
<path id="Path 516" d="M165.482 0.30868C166.781 0.30868 168.168 0.517021 169.607 0.928415C169.74 0.965855 169.873 1.00594 170.007 1.04734L170.036 1.05571C171.453 1.49662 172.923 2.13353 174.407 2.94883C174.509 3.00565 174.612 3.06335 174.718 3.12414C174.793 3.1651 174.867 3.20782 174.94 3.25011C176.073 3.9042 177.209 4.6596 178.315 5.49648C178.403 5.56255 178.491 5.6295 178.578 5.69646C179.634 6.51088 180.678 7.4081 181.677 8.36303L181.707 8.39166L181.908 8.58503C182.845 9.49327 183.759 10.4663 184.625 11.4767C184.692 11.5551 184.759 11.6335 184.826 11.7141C185.659 12.699 186.461 13.7367 187.212 14.8004C187.271 14.8832 187.33 14.9669 187.388 15.0511C188.126 16.1108 188.822 17.2098 189.458 18.3198C189.509 18.407 189.558 18.4946 189.609 18.584C190.249 19.7191 190.835 20.8811 191.348 22.0382C191.39 22.1315 191.432 22.2249 191.472 22.3196C192.006 23.5476 192.466 24.7805 192.838 25.9909C192.868 26.0887 192.898 26.1865 192.927 26.286C193.326 27.6272 193.622 28.9513 193.807 30.2207C193.822 30.3291 193.837 30.437 193.851 30.5471C193.978 31.5086 194.042 32.4539 194.042 33.3564C194.042 33.8858 194.021 34.4047 193.977 34.9002C193.967 35.024 193.955 35.1469 193.941 35.2698C193.581 38.5389 192.261 41.0667 190.124 42.5806L190.123 42.581L190.104 42.5943C189.742 42.8488 189.353 43.077 188.925 43.2836L185.69 45.1758L185.084 44.3011L184.99 44.1663L184.827 44.168L184.709 44.1685C181.853 44.1685 178.581 43.1514 175.249 41.2275C164.716 35.1464 156.147 21.6409 156.147 11.1212C156.147 8.66035 156.611 6.54083 157.527 4.82213L157.616 4.65608L157.509 4.50147L156.915 3.64389L160.633 1.53053C160.7 1.49133 160.768 1.45257 160.836 1.41469L160.84 1.41337L160.855 1.40456C162.186 0.67735 163.743 0.30868 165.482 0.30868V0.30868ZM165.482 -8.6013e-05C163.687 -8.6013e-05 162.075 0.386202 160.707 1.13367L160.704 1.13499C160.627 1.17684 160.552 1.22044 160.477 1.26405L156.468 3.54214L157.255 4.67722C156.342 6.39107 155.839 8.55199 155.839 11.1212C155.839 21.7558 164.46 35.3552 175.095 41.4949C178.596 43.5166 181.88 44.4772 184.709 44.4772C184.749 44.4772 184.79 44.4768 184.829 44.4768L185.598 45.5863L189.08 43.5501C189.502 43.3475 189.903 43.1131 190.282 42.8471L190.283 42.8462C192.446 41.324 193.867 38.7684 194.248 35.3032C194.262 35.1786 194.274 35.0526 194.285 34.9258C194.329 34.4205 194.351 33.8977 194.351 33.3564C194.351 32.4265 194.285 31.4747 194.157 30.507C194.144 30.3969 194.128 30.2872 194.112 30.1767C193.923 28.8715 193.622 27.54 193.223 26.1979C193.193 26.0966 193.163 25.9953 193.132 25.8944C192.753 24.6647 192.291 23.4283 191.756 22.1967C191.714 22.1016 191.673 22.0069 191.63 21.9122C191.11 20.7423 190.524 19.5786 189.877 18.4321C189.827 18.3427 189.776 18.2532 189.724 18.1643C189.084 17.0468 188.388 15.947 187.641 14.8744C187.583 14.7899 187.523 14.7049 187.463 14.6207C186.71 13.5535 185.907 12.5144 185.062 11.5146C184.995 11.4344 184.926 11.3547 184.859 11.2758C183.989 10.2597 183.074 9.28537 182.123 8.36303C182.046 8.2886 181.969 8.2146 181.891 8.14016C180.887 7.18171 179.843 6.28183 178.766 5.452C178.678 5.38417 178.589 5.31633 178.5 5.24938C177.395 4.41382 176.257 3.65358 175.095 2.98275C175.02 2.93958 174.944 2.89642 174.869 2.85413C174.764 2.79467 174.659 2.73565 174.555 2.67839C173.018 1.83313 171.525 1.19358 170.099 0.752229H170.098C169.962 0.710385 169.826 0.669862 169.691 0.631542C168.206 0.206492 166.794 -8.6013e-05 165.482 -8.6013e-05Z" fill="var(--fill-0, #FFE840)"/>
<path id="Path 517" d="M151.934 13.3745C151.934 24.0095 160.555 37.608 171.19 43.7485C181.825 49.8882 190.447 46.2447 190.447 35.6096C190.447 24.9746 181.825 11.3757 171.19 5.23556C160.555 -0.90453 151.934 2.73944 151.934 13.3745Z" fill="var(--fill-0, #FFD071)"/>
<path id="Path 518" d="M151.934 13.3745C151.934 24.0095 160.555 37.608 171.19 43.7485C181.825 49.8882 190.447 46.2447 190.447 35.6096C190.447 24.9746 181.825 11.3757 171.19 5.23556C160.555 -0.90453 151.934 2.73944 151.934 13.3745Z" fill="var(--fill-0, #FFE840)"/>
<path id="Path 519" d="M158.8 29.5201C155.623 24.508 153.873 19.2727 153.873 14.7786C153.873 10.2845 155.623 7.07 158.8 5.72702C161.978 4.38404 166.203 5.07337 170.697 7.66771C175.191 10.2625 179.416 14.4518 182.593 19.4643C185.771 24.4763 187.521 29.7117 187.521 34.2058C187.521 38.6994 185.771 41.9139 182.593 43.2573C179.416 44.6003 175.191 43.911 170.697 41.3162C166.203 38.7219 161.978 34.5326 158.8 29.5201V29.5201ZM154.799 15.3133C154.799 24.0795 161.931 35.3294 170.697 40.3903C179.463 45.4517 186.595 42.4376 186.595 33.671C186.595 24.9049 179.463 13.655 170.697 8.59401C161.931 3.53262 154.799 6.54717 154.799 15.3133Z" fill="var(--fill-0, #FF9D4D)"/>
<path id="Path 520" d="M169.271 5.72992L169.425 5.99729L174.869 2.85456C174.763 2.79466 174.66 2.73608 174.555 2.67838L169.271 5.72992Z" fill="var(--fill-0, #FFE840)"/>
<path id="Path 521" d="M174.081 7.80096L174.235 8.06833L178.766 5.45196C178.678 5.38413 178.589 5.3163 178.5 5.24979L174.081 7.80096Z" fill="var(--fill-0, #FFE840)"/>
<path id="Path 522" d="M177.43 10.7163L177.584 10.9837L182.123 8.36292C182.046 8.28848 181.968 8.21448 181.891 8.14004L177.43 10.7163Z" fill="var(--fill-0, #FFE840)"/>
<path id="Path 523" d="M180.779 13.6315L180.933 13.8989L185.062 11.5147C184.995 11.4345 184.927 11.3548 184.859 11.2759L180.779 13.6315Z" fill="var(--fill-0, #FFE840)"/>
<path id="Path 524" d="M182.67 17.3883L182.824 17.6556L187.641 14.8745C187.583 14.79 187.523 14.7049 187.463 14.6208L182.67 17.3883Z" fill="var(--fill-0, #FFE840)"/>
<path id="Path 525" d="M184.489 21.2194L184.643 21.4867L189.877 18.4321C189.827 18.3427 189.776 18.2533 189.724 18.1643L184.489 21.2194Z" fill="var(--fill-0, #FFE840)"/>
<path id="Path 526" d="M186.262 25.0115L186.416 25.2788L191.755 22.1965C191.714 22.1013 191.672 22.0071 191.63 21.9119L186.262 25.0115Z" fill="var(--fill-0, #FFE840)"/>
<path id="Path 527" d="M187.166 29.3389L187.32 29.6063L193.223 26.198C193.194 26.0967 193.163 25.9954 193.132 25.8945L187.166 29.3389Z" fill="var(--fill-0, #FFE840)"/>
<path id="Path 528" d="M188.691 33.3062L188.845 33.5736L194.157 30.5066C194.144 30.3969 194.128 30.2868 194.112 30.1762L188.691 33.3062Z" fill="var(--fill-0, #FFE840)"/>
<path id="Path 529" d="M188.464 38.2859L188.618 38.5533L194.248 35.3031C194.262 35.1784 194.274 35.0524 194.285 34.9251L188.464 38.2859Z" fill="var(--fill-0, #FFE840)"/>
<path id="Path 530" d="M164.646 3.54394L164.8 3.81131L170.098 0.752713C169.961 0.710429 169.826 0.669906 169.691 0.631585L164.646 3.54394Z" fill="var(--fill-0, #FFE840)"/>
<path id="Path 531" d="M172.765 24.04V26.6096C172.712 26.574 172.656 26.54 172.601 26.5079L171.191 25.6935V23.292L171.984 23.7501C172.268 23.914 172.528 24.0104 172.765 24.04Z" fill="var(--fill-0, #D1975D)"/>
<path id="Path 532" d="M176.709 28.979C176.188 27.995 175.479 27.1123 174.584 26.3305C175.318 26.4314 175.876 26.2583 176.258 25.8103C176.639 25.3628 176.831 24.7571 176.831 23.9929C176.831 23.5084 176.746 22.9785 176.577 22.4037C176.408 21.8289 176.169 21.2651 175.861 20.7128C175.553 20.16 175.178 19.6389 174.738 19.1496C174.297 18.6598 173.804 18.2585 173.261 17.9449L172.765 17.6582V15.1211L171.19 14.2124V16.749L169.275 15.6435V13.1064L167.701 12.1977V14.7343L164.89 13.1117V28.7535L167.701 30.3762V33.0101L169.275 33.9193V31.2853L171.19 32.3913V35.0248L172.765 35.934V33.2938C173.337 33.6008 173.881 33.829 174.396 33.9774C175.006 34.1527 175.542 34.2056 176.005 34.1347C176.467 34.0642 176.831 33.8554 177.095 33.5088C177.36 33.1621 177.492 32.6582 177.492 31.9971C177.492 30.9695 177.23 29.963 176.709 28.979V28.979ZM171.19 19.3487V19.3487L172.116 19.883C172.351 20.0182 172.566 20.1842 172.765 20.3811C172.976 20.5912 173.168 20.837 173.338 21.1176C173.669 21.6611 173.834 22.2337 173.834 22.8358C173.834 23.4525 173.654 23.8335 173.294 23.9784C173.133 24.0436 172.957 24.0639 172.765 24.0401C172.528 24.0106 172.267 23.9141 171.984 23.7502L169.275 22.1866L167.93 21.41V17.4661L169.275 18.2427L171.19 19.3487ZM174.275 30.3607C174.172 30.551 174.032 30.6867 173.856 30.7686C173.68 30.851 173.471 30.873 173.228 30.836C173.08 30.8131 172.926 30.7677 172.765 30.6986C172.662 30.655 172.555 30.6017 172.447 30.5387L169.275 28.7077L167.93 27.9311V23.8115L172.601 26.508C172.657 26.5401 172.711 26.5741 172.765 26.6097C172.966 26.7445 173.154 26.9053 173.327 27.0925C173.548 27.3299 173.738 27.5907 173.901 27.8748C174.062 28.1593 174.19 28.4575 174.286 28.7693C174.381 29.0816 174.429 29.3776 174.429 29.6564C174.429 29.9357 174.377 30.17 174.275 30.3607Z" fill="var(--fill-0, #FF9D4D)"/>
<path id="Path 533" d="M211.683 64.7654L210.896 63.6299L214.905 61.3522C214.98 61.3082 215.055 61.265 215.131 61.2232L215.134 61.2218C218.661 59.2957 223.801 59.767 229.523 63.0705C240.157 69.2106 248.779 82.8095 248.779 93.4445C248.779 97.9082 247.26 101.14 244.711 102.934L244.71 102.935C244.331 103.201 243.93 103.436 243.508 103.638L240.026 105.675L239.257 104.565C236.401 104.593 233.074 103.633 229.523 101.583C218.888 95.4429 210.266 81.844 210.266 71.209C210.266 68.6402 210.769 66.4793 211.683 64.7654Z" fill="var(--fill-0, #FF9D4D)"/>
<path id="Path 534" d="M219.909 60.3963C221.208 60.3963 222.596 60.6046 224.034 61.016C224.167 61.0539 224.301 61.094 224.435 61.1349L224.462 61.1433C225.879 61.5838 227.349 62.2207 228.834 63.0364C228.937 63.0932 229.04 63.1509 229.146 63.2113C229.22 63.2527 229.294 63.2954 229.368 63.3377C230.501 63.9918 231.636 64.7472 232.743 65.5841C232.83 65.6497 232.918 65.7171 233.006 65.784C234.062 66.5985 235.105 67.4961 236.105 68.4506L236.335 68.6726C237.272 69.5809 238.186 70.5538 239.052 71.5647C239.119 71.6427 239.187 71.7215 239.254 71.8017C240.088 72.7879 240.89 73.8256 241.64 74.888C241.699 74.9708 241.758 75.055 241.816 75.1387C242.554 76.1993 243.25 77.2983 243.885 78.4073C243.936 78.4946 243.986 78.5827 244.036 78.6716C244.677 79.8071 245.262 80.9691 245.776 82.1257C245.818 82.2191 245.859 82.3125 245.9 82.4072C246.434 83.6361 246.893 84.869 247.264 86.0715L247.274 86.1054C247.301 86.1943 247.329 86.2833 247.355 86.3736C247.754 87.7144 248.05 89.0384 248.234 90.3087C248.25 90.4171 248.265 90.5246 248.279 90.6347C248.406 91.5962 248.47 92.541 248.47 93.444C248.47 93.9729 248.448 94.4918 248.404 94.9878C248.394 95.1116 248.382 95.2344 248.368 95.3573C248.008 98.6296 246.687 101.159 244.546 102.672L244.545 102.673L244.532 102.682C244.17 102.936 243.78 103.165 243.352 103.371L240.117 105.263L239.511 104.389L239.418 104.254L239.254 104.256L239.136 104.256C236.28 104.256 233.009 103.239 229.676 101.315C219.144 95.2344 210.575 81.7289 210.575 71.2088C210.575 68.7479 211.039 66.6284 211.955 64.9102L212.043 64.7437L211.936 64.5891L211.342 63.7315L215.061 61.6177C215.128 61.5785 215.195 61.5401 215.263 61.5023L215.266 61.5014L215.282 61.4926C216.614 60.7649 218.171 60.3963 219.909 60.3963V60.3963ZM219.909 60.0875C218.114 60.0875 216.503 60.4738 215.134 61.2217L215.131 61.2226C215.055 61.2649 214.979 61.308 214.905 61.3516L210.896 63.6297L211.683 64.7648C210.769 66.4787 210.266 68.64 210.266 71.2088C210.266 81.8434 218.888 95.4428 229.522 101.582C233.024 103.604 236.307 104.565 239.136 104.565C239.177 104.565 239.217 104.564 239.257 104.564L240.026 105.674L243.508 103.638C243.93 103.435 244.331 103.201 244.709 102.935L244.71 102.934C246.873 101.412 248.294 98.856 248.675 95.3908C248.689 95.2662 248.702 95.1402 248.712 95.0133C248.756 94.5081 248.779 93.9853 248.779 93.444C248.779 92.5141 248.713 91.5623 248.585 90.5946C248.571 90.4845 248.556 90.3748 248.54 90.2642C248.35 88.9591 248.05 87.6276 247.651 86.2855C247.621 86.1842 247.59 86.0833 247.559 85.982C247.181 84.7522 246.719 83.5159 246.183 82.2843C246.142 82.1892 246.1 82.0945 246.057 81.9998C245.538 80.8299 244.951 79.6662 244.304 78.5197C244.254 78.4302 244.204 78.3408 244.152 78.2518C243.511 77.1344 242.816 76.0345 242.069 74.9625C242.01 74.8779 241.951 74.7924 241.891 74.7088C241.137 73.6411 240.335 72.6024 239.489 71.6021C239.422 71.522 239.354 71.4423 239.286 71.3634C238.416 70.3473 237.501 69.3729 236.55 68.4511C236.473 68.3762 236.396 68.3022 236.319 68.2282C235.314 67.2693 234.27 66.3694 233.194 65.5396C233.105 65.4717 233.017 65.4039 232.928 65.337C231.822 64.5014 230.685 63.7416 229.522 63.0703C229.447 63.0272 229.372 62.984 229.296 62.9422C229.192 62.8823 229.087 62.8232 228.983 62.766C227.445 61.9207 225.953 61.2816 224.526 60.8398H224.526C224.389 60.798 224.253 60.7574 224.118 60.7191C222.633 60.2941 221.222 60.0875 219.909 60.0875Z" fill="var(--fill-0, #FFE840)"/>
<path id="Path 535" d="M206.361 73.4621C206.361 84.0972 214.983 97.6956 225.618 103.836C236.253 109.976 244.874 106.332 244.874 95.6973C244.874 85.0622 236.253 71.4637 225.618 65.3232C214.983 59.1835 206.361 62.8271 206.361 73.4621Z" fill="var(--fill-0, #FFD071)"/>
<path id="Path 536" d="M206.361 73.4621C206.361 84.0972 214.983 97.6956 225.618 103.836C236.253 109.976 244.874 106.332 244.874 95.6973C244.874 85.0622 236.253 71.4637 225.618 65.3232C214.983 59.1835 206.361 62.8271 206.361 73.4621Z" fill="var(--fill-0, #FFE840)"/>
<path id="Path 537" d="M213.228 89.6074C210.05 84.5954 208.3 79.36 208.3 74.8659C208.3 70.3723 210.05 67.1573 213.228 65.8144C216.406 64.4714 220.631 65.1607 225.124 67.7555C229.618 70.3498 233.843 74.5391 237.021 79.5516C240.199 84.5637 241.949 89.799 241.949 94.2931C241.949 98.7867 240.199 102.001 237.021 103.345C233.843 104.688 229.618 103.998 225.124 101.404C220.631 98.8092 216.406 94.6199 213.228 89.6074V89.6074ZM209.226 75.4006C209.226 84.1668 216.358 95.4167 225.124 100.478C233.891 105.539 241.022 102.525 241.022 93.7584C241.022 84.9922 233.891 73.7423 225.124 68.6813C216.358 63.62 209.226 66.6345 209.226 75.4006Z" fill="var(--fill-0, #FF9D4D)"/>
<path id="Path 538" d="M223.698 65.8175L223.853 66.0849L229.296 62.9421C229.191 62.8822 229.087 62.8237 228.983 62.766L223.698 65.8175Z" fill="var(--fill-0, #FFE840)"/>
<path id="Path 539" d="M228.509 67.8885L228.663 68.1559L233.194 65.5395C233.106 65.4717 233.017 65.4039 232.928 65.3374L228.509 67.8885Z" fill="var(--fill-0, #FFE840)"/>
<path id="Path 540" d="M231.858 70.8039L232.012 71.0713L236.55 68.4505C236.473 68.3761 236.396 68.3021 236.319 68.2281L231.858 70.8039Z" fill="var(--fill-0, #FFE840)"/>
<path id="Path 541" d="M235.206 73.7189L235.361 73.9862L239.489 71.602C239.422 71.5218 239.354 71.4421 239.286 71.3633L235.206 73.7189Z" fill="var(--fill-0, #FFE840)"/>
<path id="Path 542" d="M237.098 77.4763L237.252 77.7437L242.069 74.9626C242.01 74.878 241.951 74.793 241.891 74.7089L237.098 77.4763Z" fill="var(--fill-0, #FFE840)"/>
<path id="Path 543" d="M238.916 81.3069L239.07 81.5743L244.304 78.5197C244.255 78.4303 244.204 78.3408 244.152 78.2519L238.916 81.3069Z" fill="var(--fill-0, #FFE840)"/>
<path id="Path 544" d="M240.689 85.0993L240.844 85.3666L246.183 82.2843C246.142 82.1891 246.1 82.0949 246.057 81.9997L240.689 85.0993Z" fill="var(--fill-0, #FFE840)"/>
<path id="Path 545" d="M241.593 89.4265L241.747 89.6939L247.651 86.2856C247.622 86.1843 247.59 86.0834 247.559 85.9821L241.593 89.4265Z" fill="var(--fill-0, #FFE840)"/>
<path id="Path 546" d="M243.119 93.3943L243.273 93.6616L248.585 90.5947C248.572 90.485 248.556 90.3749 248.54 90.2648L243.119 93.3943Z" fill="var(--fill-0, #FFE840)"/>
<path id="Path 547" d="M242.891 98.3742L243.046 98.6415L248.675 95.3913C248.689 95.2667 248.701 95.1407 248.712 95.0134L242.891 98.3742Z" fill="var(--fill-0, #FFE840)"/>
<path id="Path 548" d="M219.073 63.6313L219.228 63.8987L224.526 60.8396C224.389 60.7978 224.253 60.7573 224.118 60.7189L219.073 63.6313Z" fill="var(--fill-0, #FFE840)"/>
<path id="Path 549" d="M227.192 84.128V86.6977C227.139 86.662 227.084 86.6281 227.028 86.5959L225.618 85.7815V83.3801L226.411 83.8382C226.695 84.002 226.956 84.0985 227.192 84.128Z" fill="var(--fill-0, #D1975D)"/>
<path id="Path 550" d="M231.137 89.0671C230.615 88.0831 229.907 87.2004 229.011 86.4185C229.745 86.5194 230.303 86.3463 230.686 85.8984C231.067 85.4508 231.258 84.8452 231.258 84.081C231.258 83.5965 231.174 83.0666 231.005 82.4918C230.836 81.917 230.597 81.3532 230.289 80.8008C229.98 80.2481 229.606 79.727 229.165 79.2376C228.725 78.7483 228.233 78.3466 227.689 78.033L227.192 77.7462V75.2096L225.618 74.3004V76.8371L223.703 75.7315V73.1944L222.129 72.2858V74.8224L219.317 73.1997V88.8415L222.129 90.4647V93.0982L223.703 94.0073V91.3733L225.618 92.4793V95.1133L227.192 96.022V93.3819C227.765 93.6889 228.309 93.917 228.824 94.0659C229.433 94.2408 229.969 94.2936 230.432 94.2227C230.894 94.1522 231.258 93.9435 231.523 93.5968C231.787 93.2502 231.919 92.7463 231.919 92.0851C231.919 91.0575 231.658 90.0511 231.137 89.0671V89.0671ZM225.618 79.4367V79.4367L226.544 79.971C226.778 80.1062 226.994 80.2723 227.192 80.4692C227.404 80.6793 227.596 80.925 227.766 81.2056C228.096 81.7492 228.262 82.3222 228.262 82.9243C228.262 83.5405 228.082 83.9215 227.722 84.0664C227.561 84.1316 227.385 84.1519 227.192 84.1281C226.956 84.0986 226.695 84.0021 226.411 83.8383L223.703 82.2746L222.358 81.4981V77.5542L223.703 78.3307L225.618 79.4367ZM228.703 90.4488C228.6 90.6391 228.46 90.7752 228.284 90.8567C228.108 90.939 227.898 90.9611 227.656 90.9241C227.508 90.9012 227.354 90.8558 227.192 90.7866C227.089 90.743 226.983 90.6897 226.874 90.6267L225.618 89.9017L222.358 88.0192V83.8995L227.028 86.5961C227.084 86.6282 227.139 86.6621 227.192 86.6978C227.393 86.8326 227.582 86.9934 227.755 87.1805C227.975 87.418 228.166 87.6787 228.328 87.9632C228.489 88.2474 228.618 88.5455 228.714 88.8578C228.809 89.1697 228.857 89.4657 228.857 89.7445C228.857 90.0237 228.805 90.2581 228.703 90.4488Z" fill="var(--fill-0, #FF9D4D)"/>
<path id="Path 551" d="M155.969 85.452L155.182 84.3165L159.191 82.0389C159.266 81.9948 159.342 81.9517 159.418 81.9098L159.421 81.9085C162.948 79.9823 168.087 80.4537 173.809 83.7571C184.444 89.8972 193.065 103.496 193.065 114.131C193.065 118.595 191.546 121.827 188.997 123.621L188.996 123.621C188.618 123.888 188.216 124.122 187.794 124.324L184.312 126.361L183.543 125.252C180.687 125.279 177.361 124.32 173.809 122.27C163.174 116.13 154.553 102.531 154.553 91.8956C154.553 89.3268 155.056 87.1659 155.969 85.452Z" fill="var(--fill-0, #FF9D4D)"/>
<path id="Path 552" d="M164.195 81.0829C165.494 81.0829 166.882 81.2913 168.32 81.7027C168.454 81.7401 168.587 81.7806 168.721 81.8216L168.748 81.83C170.165 82.2704 171.636 82.9073 173.12 83.7231C173.223 83.7799 173.326 83.8376 173.432 83.8984C173.507 83.9393 173.581 83.9821 173.654 84.0244C174.787 84.6785 175.922 85.4338 177.029 86.2707C177.117 86.3368 177.205 86.4037 177.292 86.4707C178.348 87.2851 179.391 88.1823 180.394 89.1399L180.622 89.3593C181.559 90.2675 182.473 91.2405 183.339 92.2514C183.406 92.3293 183.472 92.4077 183.54 92.4884C184.373 93.4737 185.175 94.5114 185.925 95.5747C185.984 95.6571 186.044 95.7412 186.102 95.8253C186.84 96.8859 187.536 97.9849 188.172 99.0945C188.222 99.1817 188.272 99.2693 188.322 99.3583C188.963 100.494 189.548 101.656 190.062 102.813C190.104 102.906 190.146 102.999 190.186 103.094C190.721 104.323 191.18 105.556 191.552 106.763C191.582 106.862 191.612 106.961 191.641 107.06C192.04 108.401 192.336 109.725 192.521 110.995C192.536 111.103 192.551 111.211 192.565 111.322C192.692 112.282 192.756 113.228 192.756 114.131C192.756 114.66 192.734 115.179 192.691 115.674C192.68 115.799 192.669 115.921 192.654 116.044C192.295 119.314 190.975 121.841 188.837 123.355L188.836 123.356L188.818 123.369C188.455 123.624 188.066 123.851 187.638 124.058L184.403 125.95L183.797 125.075L183.704 124.941L183.54 124.942L183.422 124.943C180.566 124.943 177.295 123.926 173.963 122.002C163.43 115.921 154.861 102.416 154.861 91.8959C154.861 89.4346 155.325 87.3155 156.241 85.5968L156.33 85.4303L156.223 85.2757L155.628 84.4181L159.347 82.3048C159.415 82.2651 159.483 82.2259 159.552 82.1881L159.554 82.1867L159.568 82.1792C160.9 81.4516 162.457 81.0829 164.195 81.0829V81.0829ZM164.195 80.7742C162.401 80.7742 160.789 81.1609 159.421 81.9084L159.418 81.9092C159.341 81.9515 159.266 81.9947 159.191 82.0383L155.182 84.3164L155.969 85.4515C155.056 87.1653 154.552 89.3267 154.552 91.8959C154.552 102.53 163.174 116.129 173.809 122.269C177.31 124.291 180.594 125.251 183.422 125.251C183.463 125.251 183.503 125.251 183.543 125.251L184.312 126.361L187.794 124.324C188.216 124.122 188.617 123.887 188.995 123.621L188.997 123.62C191.159 122.098 192.58 119.543 192.961 116.077C192.976 115.953 192.988 115.827 192.998 115.7C193.042 115.195 193.065 114.672 193.065 114.131C193.065 113.201 192.999 112.249 192.871 111.281C192.857 111.171 192.842 111.061 192.826 110.951C192.636 109.646 192.336 108.314 191.937 106.972C191.907 106.871 191.877 106.77 191.846 106.669C191.467 105.439 191.005 104.203 190.469 102.971C190.428 102.876 190.386 102.782 190.344 102.686C189.824 101.517 189.238 100.353 188.591 99.2068C188.54 99.1169 188.49 99.0275 188.438 98.9385C187.798 97.8211 187.101 96.7212 186.355 95.6491C186.297 95.5646 186.237 95.4791 186.177 95.3954C185.424 94.3277 184.621 93.2891 183.776 92.2888C183.709 92.2086 183.64 92.1289 183.572 92.0501C182.702 91.0339 181.788 90.0596 180.837 89.1377C180.759 89.0628 180.682 88.9888 180.605 88.9149C179.601 87.9559 178.556 87.0561 177.48 86.2262C177.392 86.1584 177.303 86.0906 177.214 86.0236C176.109 85.1881 174.971 84.4283 173.809 83.757C173.733 83.7138 173.658 83.6707 173.583 83.6288C173.477 83.5689 173.373 83.5099 173.269 83.4526C171.731 82.6078 170.239 81.9683 168.812 81.5265H168.812C168.675 81.4846 168.54 81.4441 168.405 81.4058C166.919 80.9812 165.508 80.7742 164.195 80.7742Z" fill="var(--fill-0, #FFE840)"/>
<path id="Path 553" d="M150.648 94.1488C150.648 104.784 159.269 118.383 169.904 124.523C180.539 130.663 189.161 127.019 189.161 116.384C189.161 105.749 180.539 92.15 169.904 86.0104C159.269 79.8698 150.648 83.5138 150.648 94.1488Z" fill="var(--fill-0, #FFD071)"/>
<path id="Path 554" d="M150.648 94.1488C150.648 104.784 159.269 118.383 169.904 124.523C180.539 130.663 189.161 127.019 189.161 116.384C189.161 105.749 180.539 92.15 169.904 86.0104C159.269 79.8698 150.648 83.5138 150.648 94.1488Z" fill="var(--fill-0, #FFE840)"/>
<path id="Path 555" d="M157.514 110.295C154.336 105.282 152.586 100.047 152.586 95.5526C152.586 91.059 154.336 87.844 157.514 86.501C160.692 85.1581 164.917 85.8474 169.41 88.4417C173.904 91.0365 178.129 95.2258 181.307 100.238C184.485 105.25 186.235 110.486 186.235 114.98C186.235 119.474 184.485 122.688 181.307 124.031C178.129 125.374 173.904 124.685 169.41 122.091C164.917 119.496 160.692 115.307 157.514 110.295V110.295ZM153.512 96.0873C153.512 104.853 160.644 116.103 169.41 121.164C178.177 126.226 185.309 123.212 185.309 114.445C185.309 105.679 178.177 94.4294 169.41 89.368C160.644 84.3066 153.512 87.3212 153.512 96.0873Z" fill="var(--fill-0, #FF9D4D)"/>
<path id="Path 556" d="M167.985 86.5042L168.139 86.7715L173.583 83.6288C173.478 83.5689 173.373 83.5103 173.269 83.4526L167.985 86.5042Z" fill="var(--fill-0, #FFE840)"/>
<path id="Path 557" d="M172.795 88.5752L172.949 88.8426L177.48 86.2262C177.392 86.1584 177.303 86.0905 177.214 86.024L172.795 88.5752Z" fill="var(--fill-0, #FFE840)"/>
<path id="Path 558" d="M176.144 91.4911L176.298 91.7584L180.837 89.1381C180.76 89.0632 180.683 88.9892 180.605 88.9152L176.144 91.4911Z" fill="var(--fill-0, #FFE840)"/>
<path id="Path 559" d="M179.493 94.4058L179.647 94.6731L183.775 92.2889C183.708 92.2087 183.641 92.129 183.572 92.0502L179.493 94.4058Z" fill="var(--fill-0, #FFE840)"/>
<path id="Path 560" d="M181.384 98.163L181.538 98.4303L186.355 95.6492C186.297 95.5647 186.237 95.4796 186.177 95.3955L181.384 98.163Z" fill="var(--fill-0, #FFE840)"/>
<path id="Path 561" d="M183.202 101.994L183.357 102.262L188.591 99.207C188.54 99.1176 188.49 99.0282 188.438 98.9392L183.202 101.994Z" fill="var(--fill-0, #FFE840)"/>
<path id="Path 562" d="M184.976 105.786L185.13 106.054L190.469 102.971C190.428 102.876 190.386 102.782 190.344 102.687L184.976 105.786Z" fill="var(--fill-0, #FFE840)"/>
<path id="Path 563" d="M185.879 110.113L186.034 110.381L191.937 106.972C191.908 106.871 191.877 106.77 191.846 106.669L185.879 110.113Z" fill="var(--fill-0, #FFE840)"/>
<path id="Path 564" d="M187.405 114.081L187.559 114.348L192.871 111.282C192.857 111.172 192.842 111.062 192.826 110.951L187.405 114.081Z" fill="var(--fill-0, #FFE840)"/>
<path id="Path 565" d="M187.178 119.061L187.332 119.328L192.962 116.078C192.976 115.954 192.988 115.828 192.999 115.7L187.178 119.061Z" fill="var(--fill-0, #FFE840)"/>
<path id="Path 566" d="M163.36 84.3184L163.514 84.5858L168.812 81.5272C168.675 81.4849 168.54 81.4444 168.405 81.4061L163.36 84.3184Z" fill="var(--fill-0, #FFE840)"/>
<path id="Path 567" d="M171.478 104.815V107.385C171.425 107.349 171.37 107.315 171.314 107.283L169.904 106.469V104.067L170.697 104.525C170.981 104.689 171.242 104.786 171.478 104.815Z" fill="var(--fill-0, #D1975D)"/>
<path id="Path 568" d="M171.16 111.313C171.269 111.376 171.375 111.43 171.478 111.473V116.709L169.904 115.799V110.588L171.16 111.313Z" fill="var(--fill-0, #D1975D)"/>
<path id="Path 569" d="M175.423 109.754C174.901 108.77 174.193 107.887 173.297 107.106C174.031 107.207 174.589 107.033 174.971 106.585C175.353 106.138 175.544 105.532 175.544 104.768C175.544 104.284 175.459 103.754 175.291 103.179C175.122 102.604 174.883 102.04 174.575 101.488C174.266 100.935 173.892 100.414 173.451 99.9248C173.01 99.4354 172.518 99.0337 171.975 98.7201L171.478 98.4333V95.8962L169.904 94.9876V97.5242L167.989 96.4186V93.8816L166.414 92.9729V95.5095L163.603 93.8868V109.529L166.414 111.151V113.785L167.989 114.694V112.06L171.16 113.891C171.267 113.954 171.373 114.013 171.478 114.069C172.051 114.376 172.595 114.604 173.11 114.753C173.719 114.928 174.255 114.981 174.718 114.91C175.181 114.839 175.544 114.631 175.809 114.284C176.073 113.937 176.205 113.433 176.205 112.772C176.205 111.745 175.944 110.738 175.423 109.754V109.754ZM170.83 100.658C171.064 100.793 171.28 100.959 171.478 101.156C171.69 101.366 171.882 101.612 172.052 101.893C172.383 102.436 172.548 103.009 172.548 103.611C172.548 104.228 172.368 104.609 172.008 104.754C171.847 104.819 171.67 104.839 171.478 104.815C171.241 104.786 170.981 104.689 170.697 104.525L167.989 102.962L166.644 102.185V98.2413L169.904 100.124L170.83 100.658ZM172.988 111.136C172.886 111.326 172.746 111.462 172.57 111.544C172.394 111.626 172.184 111.648 171.942 111.611C171.794 111.588 171.64 111.543 171.478 111.474C171.375 111.43 171.269 111.377 171.16 111.314L167.989 109.483L166.644 108.706V104.587L171.314 107.283C171.37 107.315 171.425 107.35 171.478 107.385C171.679 107.52 171.867 107.68 172.041 107.868C172.261 108.105 172.452 108.366 172.614 108.65C172.776 108.934 172.903 109.233 173 109.545C173.095 109.857 173.143 110.153 173.143 110.432C173.143 110.711 173.091 110.945 172.988 111.136Z" fill="var(--fill-0, #FF9D4D)"/>
</g>
</g>
</svg>
