<svg preserveAspectRatio="none" width="100%" height="100%" overflow="visible" style="display: block;" viewBox="0 0 399.013 302.211" fill="none" xmlns="http://www.w3.org/2000/svg">
<g id="Group 169">
<mask id="mask0_0_64" style="mask-type:alpha" maskUnits="userSpaceOnUse" x="0" y="0" width="400" height="303">
<path id="Rectangle 90" d="M0 0H399.013V302.211H0V0Z" fill="var(--fill-0, black)"/>
</mask>
<g mask="url(#mask0_0_64)">
<path id="Path 507" d="M261.385 280.404C255.36 280.404 249.702 279.048 245.41 276.57L6.83605 138.829C3.08681 136.664 0.731195 133.797 0.144495 130.708L2.25121e-05 130.681L0.000462978 113.175C-0.0158342 109.525 2.42743 106.038 6.83605 103.492L121.614 37.2244C130.437 32.1336 144.786 32.134 153.603 37.2244L392.177 174.966C396.761 177.612 399.211 181.258 399 185.057L399.013 185.059V200.651C399.016 204.329 396.587 207.756 392.177 210.301L277.399 276.57C273.224 278.978 267.698 280.339 261.838 280.401C261.688 280.403 261.536 280.404 261.385 280.404V280.404ZM1.44255 129.591L1.49408 130.005C1.84381 132.834 3.99769 135.524 7.55753 137.58L246.131 275.321C250.31 277.734 255.885 279.024 261.823 278.959C267.439 278.899 272.715 277.607 276.678 275.321L391.455 209.051C395.401 206.775 397.573 203.792 397.57 200.651V186.272L397.406 186.243L397.503 185.552C397.987 182.117 395.783 178.713 391.455 176.215L152.882 38.4741C144.462 33.6131 130.759 33.6131 122.335 38.4741L7.55709 104.742C3.29426 107.203 1.08313 110.558 1.49188 113.947L1.60684 114.9L1.44255 114.873V129.591Z" fill="var(--fill-0, #BF89EF)"/>
<path id="Path 508" d="M7.19658 104.117L121.975 37.8492L7.19658 104.117Z" fill="var(--fill-0, #925FC4)"/>
</g>
</g>
</svg>
