<svg preserveAspectRatio="none" width="100%" height="100%" overflow="visible" style="display: block;" viewBox="0 0 399.013 302.211" fill="none" xmlns="http://www.w3.org/2000/svg">
<g id="Group 161">
<mask id="mask0_0_152" style="mask-type:alpha" maskUnits="userSpaceOnUse" x="0" y="0" width="400" height="303">
<path id="Rectangle 86" d="M0 0H399.013V302.211H0V0Z" fill="var(--fill-0, black)"/>
</mask>
<g mask="url(#mask0_0_152)">
<path id="Path 501" d="M398.292 185.665V200.65C398.294 203.917 396.134 207.185 391.816 209.676L277.038 275.945C272.829 278.373 267.344 279.621 261.83 279.68V263.645C267.344 263.586 272.829 262.339 277.038 259.911L391.816 193.641C395.677 191.412 397.811 188.564 398.218 185.652L398.292 185.665Z" fill="var(--fill-0, #634D99)"/>
<path id="Path 502" d="M261.831 263.646V279.681C256.03 279.746 250.195 278.5 245.77 275.946L7.19689 138.205C3.28203 135.945 1.14401 133.049 0.777981 130.094L0.721602 130.083V114.024L0.775779 114.033C1.13079 116.997 3.27102 119.903 7.19689 122.17L245.77 259.912C250.195 262.466 256.03 263.711 261.831 263.646Z" fill="var(--fill-0, #7B5BAA)"/>
<path id="Path 503" d="M398.218 185.653C397.811 188.564 395.677 191.412 391.816 193.641L277.038 259.911C272.829 262.339 267.344 263.587 261.831 263.645C256.03 263.711 250.194 262.465 245.77 259.911L7.19691 122.17C3.27148 119.903 1.13038 116.996 0.775361 114.033L13.7444 116.372L121.976 53.8839C130.611 48.9 144.609 48.9 153.243 53.8839L373.874 181.265L398.218 185.653Z" fill="var(--fill-0, #223954)"/>
</g>
</g>
</svg>
