<svg preserveAspectRatio="none" width="100%" height="100%" overflow="visible" style="display: block;" viewBox="0 0 222.489 348.477" fill="none" xmlns="http://www.w3.org/2000/svg">
<g id="Group 140">
<mask id="mask0_0_40" style="mask-type:alpha" maskUnits="userSpaceOnUse" x="0" y="0" width="223" height="349">
<path id="Rectangle 76" d="M0 0H222.489V348.477H0V0Z" fill="var(--fill-0, black)"/>
</mask>
<g mask="url(#mask0_0_40)">
<path id="Path 458" d="M105.547 148.146L106.947 146.127L99.815 142.075C99.682 141.996 99.5479 141.92 99.4121 141.845L99.4071 141.843C93.1332 138.417 83.9917 139.255 73.813 145.131C54.8952 156.053 39.5596 180.243 39.5596 199.161C39.5596 207.101 42.2617 212.85 46.796 216.042H46.7957L46.7982 216.043C47.4713 216.517 48.1849 216.934 48.9359 217.293L55.1293 220.916L56.4968 218.942C61.5779 218.992 67.4954 217.286 73.813 213.638C92.7307 202.716 108.067 178.526 108.067 159.608C108.067 155.039 107.172 151.195 105.547 148.146Z" fill="var(--fill-0, #FF9D4D)"/>
<path id="Path 459" d="M90.9143 140.374C94.0063 140.374 96.7749 141.031 99.1436 142.325L99.1747 142.341C99.2973 142.408 99.4182 142.478 99.5442 142.552L106.153 146.307L105.096 147.833L104.905 148.108L105.063 148.404C106.692 151.461 107.517 155.231 107.517 159.609C107.517 178.322 92.2749 202.345 73.5391 213.162C67.6115 216.585 61.7926 218.394 56.7119 218.394C56.6415 218.394 56.5721 218.393 56.5023 218.393L56.2113 218.39L56.0454 218.629L54.9679 220.185L49.2125 216.82L49.1934 216.808L49.1729 216.799C48.4512 216.452 47.7583 216.046 47.1144 215.594L47.0852 215.574C43.2793 212.881 40.9298 208.383 40.2901 202.562C40.2652 202.346 40.2439 202.127 40.2256 201.904C40.148 201.026 40.1091 200.103 40.1091 199.161C40.1091 197.555 40.2234 195.873 40.4497 194.16C40.4733 193.968 40.5003 193.776 40.5282 193.584C40.8563 191.324 41.3826 188.969 42.0931 186.582C42.1443 186.407 42.1974 186.232 42.2533 186.049C42.9135 183.907 43.7302 181.714 44.682 179.526C44.7533 179.359 44.8269 179.194 44.902 179.026C45.8154 176.971 46.8568 174.904 47.9984 172.881C48.0854 172.725 48.174 172.569 48.2667 172.41C49.3951 170.44 50.6329 168.485 51.9463 166.598C52.0494 166.449 52.1543 166.3 52.2612 166.15C53.5932 164.262 55.0207 162.416 56.5048 160.661C56.623 160.52 56.7421 160.38 56.8624 160.241C58.4021 158.443 60.0276 156.712 61.6937 155.097C61.8307 154.965 61.9674 154.833 62.1028 154.703C63.8832 153.004 65.7387 151.407 67.6168 149.959C67.7721 149.84 67.9286 149.72 68.0866 149.602C70.0552 148.114 72.0745 146.77 74.0918 145.605C74.2222 145.53 74.3526 145.455 74.4878 145.38C74.6719 145.275 74.8551 145.172 75.0379 145.071C77.6671 143.626 80.2727 142.497 82.784 141.713H82.7843L82.8632 141.689C83.102 141.615 83.3395 141.544 83.5774 141.477C86.1349 140.745 88.6035 140.374 90.9143 140.374V140.374ZM90.9143 139.826C88.5787 139.826 86.0683 140.193 83.4266 140.949C83.1859 141.017 82.9442 141.089 82.7017 141.164H82.7007C80.163 141.949 77.5087 143.087 74.7734 144.59C74.588 144.692 74.4023 144.797 74.2156 144.903C74.0818 144.978 73.9479 145.055 73.8137 145.132C71.7461 146.325 69.7222 147.677 67.7557 149.164C67.5974 149.282 67.4393 149.403 67.2822 149.524C65.3682 151 63.5105 152.601 61.7238 154.306C61.5865 154.438 61.4492 154.57 61.3119 154.702C59.6198 156.343 57.9936 158.076 56.4451 159.883C56.3245 160.024 56.2038 160.165 56.0841 160.308C54.5795 162.087 53.152 163.935 51.8125 165.834C51.7059 165.983 51.5994 166.135 51.4951 166.285C50.1675 168.192 48.9288 170.149 47.79 172.137C47.698 172.295 47.6078 172.454 47.5189 172.614C46.3681 174.653 45.3249 176.722 44.4005 178.803C44.3244 178.973 44.2499 179.14 44.1774 179.309C43.2243 181.5 42.4029 183.7 41.7286 185.887C41.6739 186.067 41.6189 186.247 41.5661 186.427C40.8557 188.815 40.3221 191.183 39.9849 193.505C39.9563 193.701 39.929 193.897 39.9048 194.092C39.6776 195.814 39.5601 197.507 39.5601 199.161C39.5601 200.124 39.5994 201.054 39.6786 201.952C39.6971 202.178 39.7191 202.402 39.7446 202.624C40.422 208.788 42.9497 213.334 46.7965 216.042L46.7987 216.043C47.4717 216.516 48.1856 216.933 48.9354 217.294L55.1298 220.916L56.497 218.942C56.5686 218.943 56.6399 218.943 56.7119 218.943C61.7443 218.943 67.5845 217.235 73.8137 213.638C92.7305 202.717 108.066 178.525 108.066 159.609C108.066 155.039 107.171 151.194 105.548 148.146L106.947 146.126L99.8154 142.074C99.6825 141.997 99.5486 141.92 99.4123 141.845L99.4069 141.843C96.9723 140.513 94.1065 139.826 90.9143 139.826Z" fill="var(--fill-0, #FFE840)"/>
<path id="Path 460" d="M115.012 163.616C115.012 182.534 99.6761 206.724 80.7583 217.646C61.8406 228.568 46.505 222.086 46.505 203.169C46.505 184.251 61.8406 160.061 80.7583 149.139C99.6761 138.217 115.012 144.698 115.012 163.616Z" fill="var(--fill-0, #FFD071)"/>
<path id="Path 461" d="M115.012 163.616C115.012 182.534 99.6761 206.724 80.7583 217.646C61.8406 228.568 46.505 222.086 46.505 203.169C46.505 184.251 61.8406 160.061 80.7583 149.139C99.6761 138.217 115.012 144.698 115.012 163.616Z" fill="var(--fill-0, #FFE840)"/>
<path id="Path 462" d="M81.637 213.32C73.6431 217.935 66.1277 219.161 60.4751 216.772C54.8228 214.383 51.7097 208.665 51.7097 200.671C51.7097 192.677 54.8228 183.365 60.4751 174.449C66.1277 165.533 73.6431 158.081 81.637 153.465C89.631 148.85 97.1464 147.624 102.799 150.013C108.451 152.402 111.564 158.12 111.564 166.114C111.564 174.108 108.451 183.421 102.799 192.337C97.1464 201.253 89.631 208.705 81.637 213.32V213.32ZM81.637 155.112C66.0432 164.115 53.3569 184.127 53.3569 199.72C53.3569 215.314 66.0432 220.676 81.637 211.673C97.2309 202.67 109.917 182.659 109.917 167.065C109.917 151.472 97.2309 146.11 81.637 155.112Z" fill="var(--fill-0, #FF9D4D)"/>
<path id="Path 463" d="M85.827 178.333V182.895C85.7321 182.941 85.635 182.993 85.536 183.05L83.0326 184.495V180.232L84.4406 179.419C84.9444 179.129 85.4069 178.766 85.827 178.333Z" fill="var(--fill-0, #D1975D)"/>
<path id="Path 464" d="M85.262 190.52C85.455 190.409 85.6435 190.286 85.827 190.152V199.444L83.0326 201.058V191.807L85.262 190.52Z" fill="var(--fill-0, #D1975D)"/>
<path id="Path 465" d="M92.8289 179.015C91.9032 178.337 90.6453 178.222 89.0557 178.671C90.3585 177.345 91.3489 175.894 92.0273 174.316C92.7051 172.739 93.0442 171.272 93.0442 169.916C93.0442 169.055 92.8936 168.289 92.5939 167.615C92.2944 166.94 91.8705 166.429 91.3238 166.08C90.7761 165.731 90.1115 165.574 89.3294 165.608C88.5466 165.643 87.6734 165.939 86.709 166.496L85.8273 167.005V162.502L83.0329 164.116V168.618L79.6332 170.581V166.078L76.8388 167.691V172.194L71.8495 175.075V202.839L76.8388 199.959V204.634L79.6332 203.02V198.345L85.2623 195.095C85.4527 194.986 85.6403 194.874 85.8273 194.758C86.8435 194.13 87.8088 193.42 88.7232 192.628C89.8048 191.69 90.7563 190.685 91.578 189.611C92.3984 188.537 93.0442 187.421 93.5136 186.264C93.9831 185.107 94.2172 183.942 94.2172 182.768C94.2172 180.945 93.754 179.693 92.8289 179.015V179.015ZM86.846 171.969C87.4324 172.257 87.7262 172.935 87.7262 174.003C87.7262 175.098 87.4066 176.142 86.7675 177.137C86.4818 177.583 86.1682 177.981 85.8273 178.333C85.4072 178.766 84.9446 179.128 84.4409 179.419L79.6332 182.195L77.2461 183.573V176.573L84.676 172.284C85.092 172.044 85.475 171.895 85.8273 171.838C86.2037 171.777 86.5428 171.821 86.846 171.969V171.969ZM88.508 186.456C88.3254 187.005 88.0775 187.533 87.7648 188.039C87.4522 188.545 87.0801 189.014 86.6506 189.445C86.3879 189.707 86.1142 189.943 85.8273 190.152C85.6438 190.286 85.4553 190.409 85.2623 190.52L77.2461 195.148V187.836L79.6332 186.457L85.5363 183.049C85.6353 182.992 85.7324 182.94 85.8273 182.894C86.1846 182.721 86.518 182.621 86.8262 182.597C87.2171 182.567 87.5555 182.64 87.8431 182.812C88.1299 182.986 88.3571 183.252 88.5278 183.609C88.6965 183.968 88.7817 184.395 88.7817 184.89C88.7817 185.386 88.6896 185.908 88.508 186.456Z" fill="var(--fill-0, #FF9D4D)"/>
<path id="Path 466" d="M84.1732 150.018L83.8985 150.493L74.2156 144.903C74.4023 144.796 74.588 144.692 74.7737 144.59L84.1732 150.018Z" fill="var(--fill-0, #FFE840)"/>
<path id="Path 467" d="M75.6169 153.702L75.3422 154.178L67.2823 149.524C67.4394 149.403 67.5974 149.282 67.7555 149.164L75.6169 153.702Z" fill="var(--fill-0, #FFE840)"/>
<path id="Path 468" d="M69.6598 158.888L69.3851 159.364L61.312 154.703C61.4493 154.57 61.5866 154.438 61.7239 154.306L69.6598 158.888Z" fill="var(--fill-0, #FFE840)"/>
<path id="Path 469" d="M63.7024 164.074L63.4277 164.549L56.0839 160.308C56.2036 160.166 56.3243 160.024 56.445 159.883L63.7024 164.074Z" fill="var(--fill-0, #FFE840)"/>
<path id="Path 470" d="M60.3381 170.756L60.0635 171.232L51.4951 166.285C51.5994 166.134 51.706 165.983 51.8125 165.834L60.3381 170.756Z" fill="var(--fill-0, #FFE840)"/>
<path id="Path 471" d="M58.1752 178.177L57.9006 178.652L47.5188 172.613C47.6077 172.454 47.6976 172.295 47.79 172.137L58.1752 178.177Z" fill="var(--fill-0, #FFE840)"/>
<path id="Path 472" d="M53.9492 184.317L53.6749 184.792L44.1774 179.309C44.25 179.14 44.3244 178.972 44.4002 178.803L53.9492 184.317Z" fill="var(--fill-0, #FFE840)"/>
<path id="Path 473" d="M52.3416 192.014L52.067 192.49L41.5661 186.428C41.6189 186.247 41.6736 186.067 41.7286 185.887L52.3416 192.014Z" fill="var(--fill-0, #FFE840)"/>
<path id="Path 474" d="M49.6281 199.072L49.3535 199.548L39.9047 194.092C39.9289 193.897 39.9562 193.701 39.9848 193.505L49.6281 199.072Z" fill="var(--fill-0, #FFE840)"/>
<path id="Path 475" d="M50.0323 207.93L49.7577 208.406L39.7442 202.624C39.7191 202.402 39.6971 202.178 39.6785 201.952L50.0323 207.93Z" fill="var(--fill-0, #FFE840)"/>
<path id="Path 476" d="M92.3998 146.13L92.1251 146.605L82.7015 141.164C82.944 141.089 83.1857 141.017 83.4261 140.949L92.3998 146.13Z" fill="var(--fill-0, #FFE840)"/>
</g>
</g>
</svg>
