<svg preserveAspectRatio="none" width="100%" height="100%" overflow="visible" style="display: block;" viewBox="0 0 222.489 348.477" fill="none" xmlns="http://www.w3.org/2000/svg">
<g id="Group 158">
<mask id="mask0_0_4" style="mask-type:alpha" maskUnits="userSpaceOnUse" x="0" y="0" width="223" height="349">
<path id="Rectangle 85" d="M0 0H222.489V348.477H0V0Z" fill="var(--fill-0, black)"/>
</mask>
<g mask="url(#mask0_0_4)">
<path id="Path 491" d="M142.684 173.286L128.013 198.372L138.753 197.336L106.895 180.953C105.657 180.316 104.139 180.664 103.301 181.776L103.206 181.903C102.171 183.276 102.414 185.223 103.755 186.3L128.785 206.382C131.495 209.875 136.854 209.607 139.202 205.861L139.525 205.346L154.963 180.724C157.092 177.328 156.028 172.847 152.6 170.77C149.172 168.694 144.707 169.827 142.684 173.286Z" fill="var(--fill-0, #7B5BAA)"/>
<path id="Path 492" d="M172.732 154.561L170.724 149.671L173.625 141.321C176.239 136.849 175.851 131.234 172.648 127.163C169.664 123.371 164.789 121.597 160.065 122.585L154.377 123.774C151.997 124.272 150.498 126.635 151.06 129L151.075 129.064C151.319 130.089 151.371 131.13 151.234 132.158L150.594 136.965C150.061 138.643 149.966 140.43 150.317 142.156L150.727 144.169C151.79 147.454 155.308 149.262 158.598 148.215L159.636 160.699L172.732 154.561Z" fill="var(--fill-0, #FFD0A6)"/>
<path id="Path 493" d="M151.289 131.55L155.241 134.904C155.241 134.904 155.886 137.362 155.47 140.135C155.054 142.906 160.417 146.549 160.417 146.549L163.5 150.492C164.156 151.332 165.189 151.786 166.251 151.702L169.861 151.418C171.836 151.262 173.552 149.994 174.268 148.148C174.919 146.472 175.608 144.531 175.735 143.539C175.865 142.524 176.761 140.468 177.595 138.719C178.686 136.432 178.998 133.841 178.406 131.378C178.051 129.905 177.532 128.374 176.783 127.351C174.896 124.773 174.504 122.058 169.534 120.892C164.564 119.726 156.636 119.363 154.611 120.516C152.587 121.669 152.883 122.395 151.015 125.3C149.148 128.206 151.289 131.55 151.289 131.55Z" fill="var(--fill-0, #89603E)"/>
<path id="Path 494" d="M173.652 154.36L171.657 151.944L159.324 156.955L158.992 161.046L173.652 154.36Z" fill="var(--fill-0, #7B5BAA)"/>
<path id="Path 495" d="M155.685 142.689L156.91 140.909C157.401 140.197 158.588 140.037 159.341 140.58C159.785 140.901 159.965 141.395 159.808 141.858L158.184 146.622L154.59 145.088L155.685 142.689Z" fill="var(--fill-0, #FFD0A6)"/>
<path id="Path 496" d="M169.422 299.439L165.027 300.178L154.134 299.15L155.93 309.836L167.143 310.523C168.846 310.627 170.244 309.197 170.101 307.497L169.422 299.439Z" fill="var(--fill-0, #281A10)"/>
<path id="Path 497" d="M191.625 304.199L191.434 307.463C191.334 309.184 189.909 310.528 188.184 310.528H183.811C182.556 310.528 181.384 311.153 180.685 312.195C179.223 314.373 180.38 317.341 182.93 317.955L184.873 318.422C188.521 319.301 192.328 319.274 195.964 318.346L206.039 315.772C209.312 314.936 210.842 311.17 209.079 308.289L203.454 299.096L191.625 304.199Z" fill="var(--fill-0, #C97453)"/>
<path id="Path 498" d="M191.625 304.199L191.434 307.463C191.334 309.184 189.909 310.528 188.184 310.528H183.811C182.556 310.528 181.384 311.153 180.685 312.195C179.223 314.373 180.38 317.341 182.93 317.955L184.873 318.422C188.521 319.301 192.328 319.274 195.964 318.346L206.039 315.772C209.312 314.936 210.842 311.17 209.079 308.289L203.454 299.096L191.625 304.199Z" fill="var(--fill-0, #281A10)"/>
<path id="Path 499" d="M108.702 176.639L108.94 176.474C109.586 176.025 110.444 176.027 111.088 176.478C111.352 176.664 111.377 177.046 111.139 177.264L109.766 178.522C109.707 178.575 109.637 178.615 109.561 178.636L105.868 179.665C105.624 179.733 105.367 179.609 105.268 179.377L104.745 178.15C104.62 177.859 104.793 177.526 105.102 177.458L108.521 176.718C108.586 176.704 108.647 176.677 108.702 176.639Z" fill="var(--fill-0, #FFD0A6)"/>
</g>
</g>
</svg>
