<svg preserveAspectRatio="none" width="100%" height="100%" overflow="visible" style="display: block;" viewBox="0 0 222.489 348.477" fill="none" xmlns="http://www.w3.org/2000/svg">
<g id="Group 146">
<mask id="mask0_0_68" style="mask-type:alpha" maskUnits="userSpaceOnUse" x="0" y="0" width="223" height="349">
<path id="Rectangle 79" d="M0 0H222.489V348.477H0V0Z" fill="var(--fill-0, black)"/>
</mask>
<g mask="url(#mask0_0_68)">
<path id="Path 479" d="M14.3146 313.69C14.1845 313.69 14.0545 313.656 13.9388 313.586L0.355391 305.444C0.135118 305.312 0 305.074 0 304.817V64.2651C0 64.004 0.139517 63.7627 0.365447 63.6323L110.409 0.0983295C110.639 -0.0352172 110.923 -0.0323891 111.151 0.103986L124.734 8.24656C124.955 8.37854 125.09 8.61703 125.09 8.87376V249.426C125.09 249.687 124.95 249.928 124.724 250.058L14.6801 313.592C14.567 313.658 14.441 313.69 14.3146 313.69V313.69ZM1.46179 304.403L14.3215 312.112L123.628 249.004V9.2876L110.768 1.57897L1.46179 64.6871V304.403Z" fill="var(--fill-0, #BF89EF)"/>
<path id="Path 480" d="M52.6079 78.1468L120.54 38.9259V35.1857L52.6079 74.4066V78.1468Z" fill="var(--fill-0, white)"/>
<path id="Path 481" d="M76.8795 79.019L120.54 53.8054V50.0652L76.8795 75.2788V79.019Z" fill="var(--fill-0, #FFD071)"/>
<path id="Path 482" d="M39.5594 115.375L120.54 68.6849V64.9447L39.5594 111.634V115.375Z" fill="var(--fill-0, #7FC1E2)"/>
<path id="Path 483" d="M142.958 302.559C124.764 313.064 124.764 330.094 142.958 340.598C161.152 351.103 190.65 351.103 208.844 340.598C227.038 330.094 227.038 313.064 208.844 302.559C190.65 292.055 161.152 292.055 142.958 302.559Z" fill="var(--fill-0, #DDE4ED)"/>
<path id="Path 484" d="M106.443 181.704V179.789V174.187L103.135 175.704L100.545 179.804C99.8995 180.826 99.9522 182.141 100.678 183.109L102.975 185.381L106.443 181.704Z" fill="var(--fill-0, #FFD0A6)"/>
<path id="Path 485" d="M144.854 307.738L161.403 313.533C165.456 315.359 170.092 312.466 170.111 308.086V308.037C170.111 308.037 170.095 307.658 170.057 307.484C169.864 306.514 169.154 305.718 168.197 305.392L155.381 300.669C151.941 299.402 148.087 299.874 145.071 301.934H145.07L143.875 302.888C142.093 304.298 142.656 307.102 144.854 307.738Z" fill="var(--fill-0, #281A10)"/>
</g>
</g>
</svg>
