<svg width="652" height="607" viewBox="0 0 652 607" fill="none" xmlns="http://www.w3.org/2000/svg">
<path d="M426.677 105.046L455.513 91.8821L568.14 20.8373H575.035L576.916 76.2105L578.587 158.957L564.378 176.091L556.647 169.196L544.946 89.3747L534.916 86.8672L515.274 127.405L482.468 193.434L465.125 226.031L439.214 216.211L369.005 351.614L301.93 336.778L280.826 379.614L223.572 483.882L215.632 492.45L196.617 482.211L280.826 336.778L295.453 321.106L304.438 322.36L343.304 334.688L369.005 308.569L437.542 197.405L453.423 199.494L498.14 108.181L486.438 102.539L445.901 138.479L426.677 105.046Z" fill="#A26CDC"/>
<mask id="mask0_10339_7478" style="mask-type:alpha" maskUnits="userSpaceOnUse" x="46" y="270" width="130" height="89">
<path d="M46.3311 270.739H175.12V358.129H46.3311V270.739Z" fill="black"/>
</mask>
<g mask="url(#mask0_10339_7478)">
<path d="M175.118 308.313V320.95V320.954V322.701H175.049C174.754 326.345 173.534 329.972 171.387 333.452C171.138 333.858 170.872 334.265 170.595 334.669C167.998 338.454 164.285 342.041 159.448 345.264C159.188 345.438 158.926 345.61 158.659 345.783C157.888 346.276 157.089 346.762 156.26 347.242C153.516 348.826 150.584 350.238 147.508 351.477C147.246 351.581 146.983 351.686 146.72 351.787C143.169 353.173 139.434 354.333 135.573 355.259C135.311 355.327 135.047 355.388 134.785 355.449C131.157 356.292 127.423 356.934 123.634 357.376C123.371 357.409 123.108 357.441 122.845 357.466C119.165 357.873 115.434 358.093 111.699 358.121C111.436 358.125 111.173 358.129 110.91 358.129C107.179 358.136 103.448 357.956 99.7597 357.585C99.4963 357.563 99.2338 357.535 98.9705 357.506C95.1891 357.106 91.4548 356.505 87.8238 355.709C87.5612 355.651 87.2979 355.594 87.0354 355.532C83.1814 354.653 79.4434 353.552 75.8849 352.226C75.6224 352.129 75.3553 352.032 75.0965 351.927C71.5956 350.587 68.2788 349.024 65.1923 347.242C64.7704 346.996 64.3568 346.752 63.9498 346.503C63.6828 346.341 63.4202 346.179 63.1606 346.017C58.4569 343.046 54.7369 339.74 52.0102 336.239C51.7335 335.889 51.4739 335.54 51.2218 335.187C48.3515 331.189 46.7447 326.958 46.4029 322.701H46.3311V308.313H50.1558C50.4872 307.779 50.8433 307.25 51.2218 306.728C51.4739 306.371 51.7365 306.022 52.0102 305.673C53.0119 304.383 54.1497 303.123 55.4213 301.894C56.9773 300.393 58.7307 298.938 60.6898 297.547C62.0872 296.553 63.5893 295.588 65.1923 294.663C90.338 280.145 131.111 280.145 156.26 294.663C157.863 295.588 159.361 296.55 160.758 297.547C162.715 298.938 164.472 300.389 166.028 301.894C167.814 303.62 169.338 305.413 170.595 307.25C170.839 307.603 171.07 307.956 171.293 308.313H175.118Z" fill="#FF9D4D"/>
<path d="M110.725 284.564C127.79 284.564 143.821 288.393 155.866 295.346C157.433 296.25 158.924 297.207 160.302 298.191C162.212 299.549 163.954 300.986 165.48 302.462C167.207 304.13 168.708 305.89 169.947 307.7C170.171 308.023 170.393 308.361 170.624 308.732L170.856 309.102H171.293H174.33V320.954V321.911H174.322L174.264 322.637C173.976 326.189 172.782 329.688 170.714 333.04C170.485 333.416 170.233 333.802 169.945 334.222C167.346 338.01 163.667 341.504 159.01 344.608C158.754 344.778 158.494 344.95 158.234 345.119C157.474 345.605 156.677 346.09 155.866 346.558C153.2 348.098 150.289 349.506 147.199 350.751C146.945 350.852 146.691 350.953 146.433 351.052C142.946 352.413 139.23 353.57 135.375 354.495C135.118 354.561 134.863 354.621 134.606 354.681C131.053 355.507 127.331 356.15 123.519 356.595C123.27 356.626 123.02 356.657 122.759 356.682C119.112 357.085 115.389 357.305 111.689 357.333L111.642 357.334C111.399 357.337 111.155 357.34 110.909 357.34L110.692 357.34C107.053 357.34 103.402 357.159 99.8247 356.799C99.5764 356.778 99.328 356.751 99.0542 356.721C95.305 356.325 91.5835 355.725 87.9936 354.938C87.734 354.881 87.4745 354.824 87.2111 354.763C83.3542 353.884 79.6364 352.781 76.1595 351.486L76.0533 351.447C75.8318 351.365 75.6097 351.283 75.3793 351.19C71.8934 349.856 68.599 348.298 65.5888 346.56C65.1721 346.317 64.7637 346.076 64.3598 345.83C64.0965 345.669 63.8361 345.509 63.5825 345.35C59.0426 342.482 55.3585 339.253 52.6289 335.748C52.385 335.441 52.1344 335.107 51.8629 334.727C49.0973 330.875 47.5249 326.807 47.1898 322.638L47.1315 321.911H47.1202V309.102H50.1566H50.5949L50.8261 308.729C51.144 308.218 51.4926 307.7 51.8666 307.184C52.0963 306.858 52.3469 306.523 52.6341 306.157C53.6073 304.903 54.7294 303.66 55.9697 302.462C57.5189 300.967 59.2611 299.53 61.1476 298.19C62.5398 297.2 64.0336 296.244 65.5873 295.346C77.6309 288.393 93.6608 284.564 110.725 284.564ZM110.725 283.774C94.245 283.774 77.7655 287.404 65.1923 294.663C63.59 295.588 62.0879 296.553 60.6906 297.547C58.7314 298.938 56.9773 300.393 55.4213 301.894C54.1504 303.123 53.0119 304.383 52.011 305.673C51.7372 306.022 51.4739 306.371 51.2218 306.728C50.844 307.25 50.4872 307.779 50.1566 308.313H46.3311V322.701H46.4036C46.7455 326.958 48.3515 331.189 51.2218 335.187C51.4739 335.54 51.7335 335.889 52.011 336.239C54.7369 339.74 58.4577 343.046 63.1614 346.017C63.4202 346.18 63.6835 346.341 63.9498 346.503C64.3568 346.752 64.7712 346.996 65.1923 347.242C68.2788 349.024 71.5956 350.587 75.0965 351.927C75.3561 352.032 75.6224 352.129 75.8857 352.226C79.4434 353.552 83.1822 354.653 87.0361 355.532C87.2987 355.594 87.562 355.651 87.8245 355.709C91.4548 356.505 95.1898 357.106 98.9712 357.506C99.2345 357.535 99.4971 357.563 99.7597 357.585C103.376 357.949 107.033 358.129 110.692 358.129H110.91C111.173 358.129 111.436 358.125 111.699 358.122C115.434 358.093 119.165 357.873 122.846 357.466C123.108 357.441 123.372 357.409 123.634 357.376C127.423 356.934 131.158 356.292 134.785 355.449C135.048 355.388 135.311 355.327 135.573 355.259C139.435 354.333 143.169 353.173 146.721 351.787C146.983 351.686 147.246 351.581 147.509 351.477C150.585 350.238 153.517 348.826 156.26 347.242C157.089 346.763 157.889 346.276 158.659 345.783C158.926 345.61 159.189 345.438 159.448 345.265C164.285 342.041 167.998 338.454 170.595 334.669C170.872 334.265 171.138 333.858 171.388 333.452C173.534 329.972 174.754 326.345 175.05 322.701H175.118V320.954V320.95V308.313H171.293C171.07 307.956 170.84 307.603 170.595 307.25C169.338 305.413 167.815 303.62 166.028 301.894C164.473 300.389 162.715 298.938 160.759 297.547C159.362 296.55 157.864 295.588 156.26 294.663C143.686 287.404 127.206 283.774 110.725 283.774Z" fill="#FFE840"/>
<path d="M156.259 281.628C181.407 296.147 181.407 319.687 156.259 334.206C131.112 348.725 90.3395 348.725 65.1917 334.206C40.0445 319.687 40.0445 296.147 65.1917 281.628C90.3395 267.109 131.112 267.109 156.259 281.628Z" fill="#FFE840"/>
<path d="M166.028 301.894C163.967 295.512 158.634 289.638 150.509 284.949C139.88 278.812 125.752 275.434 110.727 275.434C95.6968 275.434 81.5684 278.812 70.9439 284.949C62.8186 289.638 57.4813 295.512 55.4211 301.894C54.7875 303.86 54.4629 305.874 54.4629 307.915C54.4629 314.161 57.4955 320.139 63.1604 325.286C63.4163 325.524 63.6796 325.754 63.9496 325.981C65.9768 327.727 68.3145 329.366 70.9439 330.886C72.2762 331.653 73.663 332.381 75.0963 333.058C75.3589 333.184 75.6222 333.306 75.8847 333.425C79.346 335.01 83.0877 336.339 87.0351 337.394C87.2985 337.466 87.561 337.538 87.8243 337.607C91.3933 338.522 95.1245 339.223 98.971 339.689C99.2336 339.725 99.4969 339.757 99.7594 339.786C103.332 340.193 107.002 340.398 110.727 340.398H110.91C111.172 340.398 111.436 340.394 111.698 340.39C115.491 340.354 119.218 340.106 122.846 339.645C123.108 339.613 123.371 339.58 123.634 339.541C127.488 339.026 131.222 338.27 134.785 337.297C135.051 337.225 135.314 337.153 135.573 337.074C139.535 335.95 143.273 334.545 146.72 332.881C146.983 332.759 147.249 332.629 147.509 332.496C148.535 331.985 149.536 331.448 150.509 330.886C153.653 329.071 156.379 327.076 158.659 324.948C158.929 324.696 159.192 324.443 159.448 324.188C164.364 319.297 166.986 313.722 166.986 307.915C166.986 305.874 166.662 303.86 166.028 301.894ZM159.448 320.201C159.196 320.536 158.933 320.87 158.659 321.201C156.131 324.249 152.684 327.101 148.319 329.622C148.053 329.777 147.783 329.928 147.509 330.079C147.249 330.224 146.987 330.367 146.72 330.504C143.288 332.334 139.538 333.85 135.573 335.057C135.314 335.136 135.047 335.215 134.785 335.291C131.204 336.339 127.463 337.139 123.634 337.686C123.375 337.726 123.112 337.762 122.846 337.794C119.183 338.288 115.445 338.554 111.698 338.59C111.436 338.594 111.172 338.597 110.91 338.597C107.172 338.604 103.429 338.389 99.7594 337.941C99.4969 337.909 99.2298 337.877 98.971 337.841C95.153 337.347 91.4112 336.605 87.8243 335.619C87.561 335.547 87.2947 335.475 87.0351 335.399C83.0877 334.268 79.3385 332.834 75.8847 331.103C75.6184 330.969 75.3559 330.836 75.0963 330.699C74.4298 330.353 73.7745 329.993 73.1334 329.622C69.3984 327.465 66.3374 325.067 63.9496 322.513C63.6796 322.221 63.4163 321.929 63.1604 321.634C56.6711 314.117 55.846 305.373 60.6904 297.547C63.2547 293.405 67.3996 289.523 73.1334 286.213C93.8603 274.245 127.588 274.245 148.319 286.213C154.053 289.523 158.198 293.405 160.759 297.547C165.297 304.88 164.861 313.019 159.448 320.201Z" fill="#FF9D4D"/>
<path d="M112.786 302.675L118.85 306.176C118.712 306.242 118.577 306.314 118.446 306.389L115.118 308.31L109.451 305.039L111.323 303.959C111.992 303.572 112.48 303.144 112.786 302.675Z" fill="#D1975D"/>
<path d="M130.92 317.435L130.921 317.434L137.135 321.023L140.85 318.878L134.62 315.281C134.674 315.246 134.731 315.213 134.785 315.174C135.059 315.004 135.322 314.827 135.574 314.651C136.456 314.028 137.216 313.38 137.861 312.707C138.883 311.637 139.542 310.556 139.834 309.465C140.13 308.374 140 307.311 139.445 306.27C138.891 305.23 137.835 304.257 136.276 303.357C136.041 303.224 135.807 303.094 135.574 302.972C135.314 302.835 135.051 302.708 134.785 302.586C132.779 301.657 130.643 301.106 128.374 300.926C126.778 300.803 125.202 300.85 123.634 301.066C123.372 301.102 123.108 301.146 122.846 301.193C121.891 301.362 120.944 301.592 120.004 301.888C120.973 300.447 121.121 299.014 120.447 297.58C119.77 296.15 118.531 294.915 116.731 293.874C115.585 293.215 114.252 292.675 112.726 292.254C111.202 291.835 109.635 291.58 108.022 291.49C106.412 291.4 104.809 291.494 103.214 291.774C101.619 292.055 100.182 292.563 98.8994 293.305L97.7287 293.982L91.7421 290.526L88.0273 292.67L94.0117 296.125L89.4957 298.736L83.5083 295.279L79.7935 297.424L85.7786 300.879L79.1487 304.708L87.0354 309.263L87.8245 309.717L98.9712 316.153L99.7597 316.611L110.91 323.046L111.699 323.504L116.054 326.017L122.687 322.189H122.688L128.901 325.776L132.615 323.631L126.402 320.044L126.404 320.043L130.92 317.435ZM118.444 306.389C118.578 306.314 118.711 306.242 118.848 306.177C119.367 305.928 119.936 305.741 120.548 305.626C121.29 305.482 122.057 305.428 122.846 305.457C122.886 305.457 122.929 305.46 122.968 305.46C123.192 305.471 123.411 305.489 123.634 305.51C124.243 305.576 124.855 305.687 125.464 305.849C126.292 306.069 127.042 306.371 127.697 306.749C128.356 307.131 128.856 307.56 129.206 308.039C129.552 308.521 129.732 309.008 129.75 309.498C129.768 309.988 129.613 310.466 129.285 310.938C129.084 311.223 128.821 311.493 128.497 311.745C128.337 311.871 128.155 311.993 127.963 312.112C127.909 312.145 127.859 312.179 127.802 312.212L124.94 313.865L124.837 313.924L123.634 314.619L122.846 315.073L120.321 316.531L117.146 318.364L107.426 312.752L108.463 312.153L110.599 310.92H110.598L110.91 310.74L111.699 310.286L115.117 308.313L118.444 306.389ZM98.9712 300.346L99.7597 299.889L100.144 299.666L100.146 299.667L102.331 298.406C102.457 298.333 102.596 298.28 102.728 298.215C103.174 297.999 103.642 297.814 104.154 297.692C104.86 297.522 105.63 297.447 106.462 297.461C108.036 297.49 109.52 297.893 110.91 298.679C110.943 298.697 110.979 298.718 111.011 298.736C111.263 298.88 111.491 299.028 111.699 299.179C112.693 299.892 113.183 300.648 113.168 301.452C113.161 301.888 113.035 302.295 112.787 302.676C112.542 303.051 112.178 303.403 111.699 303.724C111.58 303.803 111.458 303.883 111.324 303.958L110.91 304.196L109.451 305.038L104.933 307.649L104.932 307.648L103.7 308.361L101.758 309.48L100.682 308.859L99.4784 308.164L98.9712 307.87L96.6957 306.557L92.4542 304.109L93.6324 303.428L95.6274 302.276H95.6267L98.9712 300.346Z" fill="#FF9D4D"/>
<path d="M53.6908 324.829V337.859C53.4133 337.51 53.1544 337.16 52.9023 336.807V323.773C53.1544 324.126 53.417 324.479 53.6908 324.829Z" fill="#FFE840"/>
<path d="M63.9498 333.469V346.503C63.6835 346.34 63.4202 346.179 63.1614 346.016V332.979C63.4202 333.145 63.6835 333.306 63.9498 333.469Z" fill="#FFE840"/>
<path d="M75.8849 339.188V352.226C75.6223 352.129 75.3553 352.032 75.0964 351.927V338.893C75.3553 338.994 75.6223 339.095 75.8849 339.188Z" fill="#FFE840"/>
<path d="M87.8243 342.674V355.708C87.5618 355.651 87.2985 355.593 87.0359 355.532V342.494C87.2985 342.555 87.5618 342.617 87.8243 342.674Z" fill="#FFE840"/>
<path d="M99.7596 344.551V357.585C99.4963 357.563 99.2338 357.535 98.9712 357.506V344.472C99.2338 344.501 99.4963 344.529 99.7596 344.551Z" fill="#FFE840"/>
<path d="M111.698 345.087V358.121C111.436 358.125 111.172 358.129 110.91 358.129V345.095C111.172 345.095 111.436 345.091 111.698 345.087Z" fill="#FFE840"/>
<path d="M123.634 344.342V357.376C123.372 357.408 123.108 357.441 122.846 357.465V344.431C123.108 344.407 123.372 344.374 123.634 344.342Z" fill="#FFE840"/>
<path d="M135.573 342.225V355.259C135.311 355.327 135.047 355.388 134.785 355.449V342.412C135.047 342.351 135.311 342.29 135.573 342.225Z" fill="#FFE840"/>
<path d="M147.509 338.443V351.476C147.246 351.58 146.983 351.685 146.72 351.786V338.748C146.983 338.651 147.246 338.547 147.509 338.443Z" fill="#FFE840"/>
<path d="M159.448 332.23V345.264C159.188 345.437 158.926 345.61 158.659 345.782V332.745C158.926 332.576 159.188 332.403 159.448 332.23Z" fill="#FFE840"/>
<path d="M170.036 321.723V334.757C169.788 335.164 169.521 335.571 169.244 335.974V322.94C169.521 322.537 169.784 322.13 170.036 321.723Z" fill="#FFE840"/>
</g>
<mask id="mask1_10339_7478" style="mask-type:alpha" maskUnits="userSpaceOnUse" x="523" y="320" width="129" height="88">
<path d="M523.139 320.11H651.927V407.5H523.139V320.11Z" fill="black"/>
</mask>
<g mask="url(#mask1_10339_7478)">
<path d="M651.926 357.684V370.321V370.325V372.072H651.857C651.562 375.716 650.341 379.344 648.194 382.823C647.946 383.23 647.68 383.637 647.402 384.04C644.806 387.825 641.092 391.413 636.256 394.635C635.996 394.809 635.733 394.982 635.466 395.154C634.696 395.647 633.896 396.134 633.068 396.613C630.324 398.197 627.392 399.609 624.316 400.849C624.053 400.953 623.791 401.057 623.527 401.158C619.977 402.544 616.241 403.704 612.381 404.63C612.118 404.698 611.855 404.759 611.592 404.821C607.965 405.664 604.231 406.305 600.442 406.748C600.179 406.78 599.916 406.812 599.653 406.837C595.972 407.244 592.241 407.464 588.506 407.493C588.244 407.496 587.98 407.5 587.718 407.5C583.986 407.508 580.255 407.327 576.567 406.956C576.304 406.935 576.041 406.906 575.778 406.877C571.997 406.478 568.262 405.876 564.631 405.08C564.369 405.023 564.106 404.965 563.843 404.904C559.989 404.025 556.251 402.923 552.693 401.597C552.43 401.5 552.163 401.403 551.904 401.298C548.403 399.958 545.086 398.396 542 396.613C541.578 396.368 541.164 396.123 540.757 395.875C540.49 395.712 540.228 395.55 539.968 395.389C535.265 392.417 531.544 389.111 528.818 385.61C528.541 385.261 528.282 384.911 528.029 384.558C525.159 380.561 523.552 376.329 523.21 372.072H523.139V357.684H526.963C527.295 357.151 527.651 356.622 528.029 356.1C528.282 355.743 528.544 355.393 528.818 355.044C529.819 353.754 530.957 352.494 532.229 351.266C533.785 349.764 535.538 348.309 537.497 346.919C538.895 345.925 540.397 344.96 542 344.034C567.146 329.516 607.919 329.516 633.068 344.034C634.67 344.96 636.169 345.922 637.566 346.919C639.522 348.309 641.279 349.761 642.835 351.266C644.622 352.991 646.145 354.784 647.402 356.622C647.647 356.974 647.878 357.327 648.101 357.684H651.926Z" fill="#FF9D4D"/>
<path d="M587.533 333.935C604.597 333.935 620.629 337.764 632.674 344.717C634.24 345.622 635.732 346.578 637.11 347.562C639.02 348.92 640.762 350.357 642.288 351.833C644.014 353.501 645.516 355.261 646.754 357.071C646.979 357.394 647.2 357.733 647.432 358.103L647.664 358.473H648.101H651.137V370.325V371.283H651.13L651.071 372.008C650.783 375.56 649.589 379.059 647.521 382.411C647.292 382.787 647.041 383.174 646.752 383.593C644.153 387.381 640.475 390.876 635.818 393.979C635.561 394.15 635.302 394.321 635.041 394.49C634.281 394.976 633.485 395.461 632.674 395.929C630.008 397.469 627.096 398.877 624.007 400.122C623.753 400.223 623.499 400.324 623.241 400.423C619.754 401.784 616.038 402.942 612.183 403.866C611.926 403.933 611.67 403.993 611.414 404.052C607.86 404.878 604.139 405.521 600.327 405.967C600.078 405.997 599.828 406.028 599.567 406.053C595.92 406.457 592.196 406.676 588.496 406.704L588.45 406.705C588.206 406.708 587.962 406.711 587.716 406.711L587.499 406.712C583.861 406.712 580.21 406.53 576.632 406.17C576.384 406.149 576.136 406.122 575.862 406.092C572.113 405.697 568.391 405.097 564.801 404.309C564.542 404.252 564.282 404.195 564.019 404.134C560.162 403.255 556.444 402.152 552.967 400.858L552.861 400.818C552.639 400.736 552.417 400.654 552.187 400.561C548.701 399.228 545.407 397.669 542.396 395.931C541.98 395.688 541.571 395.447 541.167 395.201C540.904 395.04 540.644 394.88 540.39 394.721C535.85 391.853 532.166 388.625 529.436 385.119C529.193 384.812 528.942 384.478 528.67 384.098C525.905 380.247 524.333 376.179 523.997 372.009L523.939 371.283H523.928V358.473H526.964H527.403L527.634 358.101C527.952 357.589 528.3 357.071 528.674 356.555C528.904 356.229 529.154 355.895 529.442 355.528C530.415 354.274 531.537 353.031 532.777 351.833C534.326 350.338 536.069 348.901 537.955 347.561C539.347 346.572 540.841 345.615 542.395 344.717C554.439 337.764 570.468 333.935 587.533 333.935ZM587.533 333.146C571.053 333.146 554.573 336.775 542 344.034C540.398 344.96 538.896 345.925 537.498 346.919C535.539 348.309 533.785 349.764 532.229 351.266C530.958 352.494 529.819 353.754 528.819 355.044C528.545 355.393 528.282 355.743 528.029 356.1C527.652 356.622 527.295 357.151 526.964 357.684H523.139V372.072H523.211C523.553 376.329 525.159 380.561 528.029 384.558C528.282 384.911 528.541 385.261 528.819 385.61C531.544 389.111 535.265 392.417 539.969 395.389C540.228 395.551 540.491 395.712 540.757 395.875C541.164 396.123 541.579 396.368 542 396.613C545.086 398.396 548.403 399.958 551.904 401.298C552.164 401.403 552.43 401.5 552.693 401.597C556.251 402.923 559.99 404.025 563.844 404.904C564.106 404.965 564.37 405.023 564.632 405.08C568.262 405.876 571.997 406.478 575.779 406.877C576.042 406.906 576.305 406.935 576.567 406.956C580.183 407.32 583.841 407.5 587.499 407.5H587.718C587.981 407.5 588.244 407.496 588.507 407.493C592.241 407.464 595.972 407.244 599.654 406.837C599.916 406.813 600.179 406.78 600.442 406.748C604.231 406.305 607.966 405.664 611.592 404.821C611.856 404.759 612.118 404.698 612.381 404.63C616.242 403.705 619.977 402.544 623.528 401.158C623.791 401.057 624.054 400.953 624.317 400.849C627.393 399.609 630.324 398.197 633.068 396.613C633.897 396.134 634.697 395.647 635.467 395.154C635.733 394.982 635.997 394.809 636.256 394.636C641.092 391.412 644.806 387.825 647.403 384.04C647.68 383.637 647.946 383.23 648.195 382.823C650.341 379.344 651.562 375.716 651.858 372.072H651.926V370.325V370.321V357.684H648.101C647.878 357.327 647.648 356.974 647.403 356.622C646.145 354.784 644.622 352.991 642.836 351.266C641.28 349.761 639.522 348.309 637.567 346.919C636.17 345.922 634.671 344.96 633.068 344.034C620.493 336.775 604.013 333.146 587.533 333.146Z" fill="#FFE840"/>
<path d="M633.067 331C658.215 345.518 658.215 369.059 633.067 383.578C607.92 398.096 567.147 398.096 542 383.578C516.852 369.059 516.852 345.518 542 331C567.147 316.481 607.92 316.481 633.067 331Z" fill="#FFE840"/>
<path d="M642.836 351.265C640.776 344.883 635.442 339.009 627.317 334.32C616.688 328.183 602.56 324.805 587.535 324.805C572.505 324.805 558.377 328.183 547.752 334.32C539.627 339.009 534.289 344.883 532.229 351.265C531.596 353.231 531.271 355.245 531.271 357.287C531.271 363.532 534.304 369.51 539.969 374.657C540.224 374.895 540.488 375.125 540.758 375.352C542.785 377.099 545.123 378.738 547.752 380.258C549.084 381.024 550.471 381.752 551.904 382.429C552.167 382.555 552.43 382.678 552.693 382.797C556.154 384.382 559.896 385.71 563.843 386.766C564.107 386.838 564.369 386.909 564.632 386.978C568.201 387.893 571.933 388.595 575.779 389.06C576.042 389.096 576.305 389.128 576.568 389.157C580.14 389.564 583.81 389.769 587.535 389.769H587.718C587.981 389.769 588.244 389.765 588.506 389.762C592.299 389.726 596.027 389.477 599.654 389.017C599.916 388.984 600.179 388.951 600.442 388.912C604.296 388.397 608.03 387.641 611.593 386.668C611.859 386.596 612.122 386.524 612.381 386.445C616.343 385.321 620.082 383.916 623.528 382.253C623.791 382.13 624.057 382.001 624.317 381.867C625.343 381.356 626.344 380.819 627.317 380.258C630.461 378.442 633.187 376.447 635.467 374.319C635.737 374.067 636 373.815 636.256 373.559C641.172 368.668 643.794 363.093 643.794 357.287C643.794 355.245 643.47 353.231 642.836 351.265ZM636.256 369.572C636.004 369.907 635.741 370.241 635.467 370.573C632.939 373.62 629.492 376.473 625.127 378.993C624.861 379.148 624.591 379.299 624.317 379.451C624.057 379.595 623.795 379.739 623.528 379.875C620.096 381.705 616.347 383.221 612.381 384.428C612.122 384.507 611.855 384.587 611.593 384.662C608.013 385.71 604.271 386.51 600.442 387.057C600.183 387.097 599.92 387.133 599.654 387.165C595.991 387.659 592.253 387.925 588.506 387.961C588.244 387.965 587.981 387.969 587.718 387.969C583.98 387.975 580.237 387.76 576.568 387.313C576.305 387.28 576.038 387.248 575.779 387.212C571.961 386.719 568.219 385.977 564.632 384.99C564.369 384.918 564.103 384.846 563.843 384.77C559.896 383.64 556.147 382.206 552.693 380.474C552.427 380.34 552.164 380.207 551.904 380.07C551.238 379.724 550.583 379.365 549.942 378.993C546.207 376.836 543.146 374.438 540.758 371.884C540.488 371.592 540.224 371.301 539.969 371.005C533.479 363.489 532.654 354.744 537.498 346.918C540.063 342.776 544.208 338.894 549.942 335.584C570.668 323.616 604.396 323.616 625.127 335.584C630.861 338.894 635.006 342.776 637.567 346.918C642.105 354.251 641.669 362.391 636.256 369.572Z" fill="#FF9D4D"/>
<path d="M589.594 352.047L595.658 355.547C595.52 355.613 595.385 355.685 595.254 355.761L591.926 357.682L586.259 354.41L588.131 353.33C588.8 352.944 589.288 352.515 589.594 352.047Z" fill="#D1975D"/>
<path d="M607.728 366.806L607.729 366.806L613.943 370.394L617.658 368.249L611.428 364.652C611.482 364.617 611.539 364.584 611.592 364.545C611.866 364.375 612.129 364.199 612.382 364.022C613.264 363.399 614.024 362.751 614.668 362.078C615.691 361.008 616.35 359.927 616.642 358.836C616.937 357.745 616.808 356.682 616.253 355.642C615.698 354.601 614.643 353.629 613.083 352.728C612.849 352.595 612.615 352.466 612.382 352.343C612.122 352.206 611.859 352.08 611.592 351.958C609.586 351.029 607.45 350.477 605.182 350.297C603.586 350.174 602.009 350.221 600.442 350.438C600.179 350.474 599.916 350.517 599.654 350.564C598.699 350.733 597.752 350.963 596.812 351.259C597.78 349.818 597.929 348.385 597.255 346.951C596.578 345.521 595.339 344.286 593.538 343.245C592.393 342.586 591.06 342.046 589.533 341.625C588.009 341.207 586.443 340.951 584.829 340.861C583.22 340.771 581.617 340.865 580.022 341.145C578.426 341.427 576.989 341.935 575.707 342.676L574.536 343.354L568.55 339.897L564.835 342.042L570.819 345.496L566.303 348.107L560.316 344.651L556.601 346.795L562.586 350.251L555.956 354.079L563.843 358.635L564.632 359.088L575.779 365.524L576.567 365.982L587.718 372.417L588.507 372.875L592.861 375.389L599.495 371.56H599.496L605.709 375.147L609.423 373.002L603.21 369.416L603.212 369.414L607.728 366.806ZM595.252 355.761C595.386 355.685 595.519 355.613 595.656 355.548C596.174 355.299 596.744 355.112 597.356 354.997C598.098 354.853 598.865 354.799 599.654 354.828C599.693 354.828 599.737 354.832 599.775 354.832C599.999 354.842 600.219 354.86 600.442 354.882C601.051 354.947 601.663 355.058 602.272 355.221C603.1 355.44 603.849 355.743 604.505 356.121C605.164 356.503 605.664 356.931 606.013 357.41C606.36 357.893 606.539 358.379 606.557 358.869C606.575 359.359 606.42 359.838 606.093 360.31C605.892 360.594 605.628 360.864 605.304 361.116C605.144 361.242 604.962 361.364 604.771 361.483C604.717 361.516 604.666 361.551 604.61 361.584L601.747 363.236L601.645 363.295L600.442 363.99L599.654 364.444L597.129 365.903L593.953 367.735L584.233 362.124L585.271 361.524L587.406 360.291H587.406L587.718 360.111L588.507 359.657L591.925 357.684L595.252 355.761ZM575.779 349.717L576.567 349.26L576.952 349.037L576.954 349.038L579.138 347.778C579.265 347.704 579.404 347.651 579.536 347.586C579.981 347.37 580.45 347.185 580.961 347.063C581.667 346.893 582.438 346.818 583.27 346.833C584.844 346.861 586.328 347.264 587.718 348.05C587.751 348.068 587.786 348.089 587.819 348.107C588.071 348.251 588.298 348.399 588.507 348.55C589.501 349.263 589.99 350.019 589.976 350.823C589.969 351.259 589.843 351.666 589.595 352.047C589.349 352.422 588.986 352.774 588.507 353.095C588.388 353.175 588.265 353.254 588.132 353.33L587.718 353.567L586.259 354.41L581.741 357.02L581.74 357.02L580.507 357.732L578.566 358.851L577.49 358.23L576.286 357.535L575.779 357.241L573.503 355.928L569.262 353.48L570.44 352.799L572.435 351.647H572.434L575.779 349.717Z" fill="#FF9D4D"/>
<path d="M530.499 374.2V387.23C530.221 386.881 529.963 386.532 529.71 386.179V373.145C529.963 373.498 530.225 373.851 530.499 374.2Z" fill="#FFE840"/>
<path d="M540.757 382.84V395.874C540.491 395.712 540.228 395.55 539.969 395.388V382.35C540.228 382.516 540.491 382.678 540.757 382.84Z" fill="#FFE840"/>
<path d="M552.693 388.56V401.597C552.43 401.5 552.163 401.403 551.904 401.298V388.264C552.163 388.365 552.43 388.466 552.693 388.56Z" fill="#FFE840"/>
<path d="M564.632 392.046V405.08C564.37 405.022 564.106 404.964 563.844 404.903V391.865C564.106 391.927 564.37 391.988 564.632 392.046Z" fill="#FFE840"/>
<path d="M576.567 393.922V406.956C576.304 406.935 576.042 406.906 575.779 406.877V393.843C576.042 393.872 576.304 393.901 576.567 393.922Z" fill="#FFE840"/>
<path d="M588.506 394.459V407.493C588.244 407.496 587.98 407.5 587.718 407.5V394.466C587.98 394.466 588.244 394.462 588.506 394.459Z" fill="#FFE840"/>
<path d="M600.442 393.713V406.747C600.179 406.779 599.916 406.812 599.654 406.837V393.803C599.916 393.778 600.179 393.745 600.442 393.713Z" fill="#FFE840"/>
<path d="M612.381 391.596V404.63C612.118 404.698 611.855 404.759 611.593 404.821V391.783C611.855 391.722 612.118 391.661 612.381 391.596Z" fill="#FFE840"/>
<path d="M624.317 387.814V400.848C624.054 400.952 623.791 401.056 623.528 401.157V388.12C623.791 388.022 624.054 387.918 624.317 387.814Z" fill="#FFE840"/>
<path d="M636.256 381.601V394.635C635.996 394.808 635.734 394.981 635.467 395.154V382.116C635.734 381.947 635.996 381.774 636.256 381.601Z" fill="#FFE840"/>
<path d="M646.844 371.094V384.128C646.596 384.535 646.329 384.942 646.052 385.345V372.311C646.329 371.908 646.592 371.501 646.844 371.094Z" fill="#FFE840"/>
</g>
<mask id="mask2_10339_7478" style="mask-type:alpha" maskUnits="userSpaceOnUse" x="400" y="342" width="130" height="89">
<path d="M400.458 342.991H529.247V430.381H400.458V342.991Z" fill="black"/>
</mask>
<g mask="url(#mask2_10339_7478)">
<path d="M529.245 380.565V393.203V393.206V394.953H529.177C528.882 398.598 527.661 402.225 525.514 405.704C525.266 406.111 525 406.518 524.722 406.921C522.126 410.706 518.412 414.294 513.575 417.516C513.316 417.69 513.053 417.863 512.786 418.036C512.016 418.529 511.216 419.015 510.388 419.494C507.643 421.079 504.712 422.49 501.636 423.73C501.373 423.834 501.111 423.938 500.847 424.039C497.296 425.426 493.561 426.585 489.701 427.511C489.438 427.579 489.175 427.641 488.912 427.702C485.285 428.545 481.551 429.186 477.762 429.629C477.498 429.661 477.236 429.693 476.973 429.719C473.292 430.126 469.561 430.345 465.826 430.374C465.563 430.378 465.3 430.381 465.037 430.381C461.306 430.389 457.575 430.209 453.887 429.838C453.624 429.816 453.361 429.787 453.098 429.758C449.317 429.359 445.582 428.757 441.951 427.961C441.689 427.904 441.425 427.846 441.163 427.785C437.309 426.906 433.571 425.804 430.012 424.479C429.75 424.381 429.483 424.284 429.224 424.179C425.723 422.84 422.406 421.277 419.32 419.494C418.898 419.249 418.484 419.004 418.077 418.756C417.81 418.594 417.548 418.431 417.288 418.27C412.584 415.298 408.864 411.992 406.138 408.491C405.861 408.142 405.601 407.793 405.349 407.439C402.479 403.442 400.872 399.21 400.53 394.953H400.458V380.565H404.283C404.615 380.032 404.971 379.503 405.349 378.981C405.601 378.624 405.864 378.275 406.138 377.925C407.139 376.636 408.277 375.375 409.549 374.147C411.105 372.645 412.858 371.191 414.817 369.8C416.215 368.806 417.717 367.841 419.32 366.915C444.465 352.397 485.239 352.397 510.388 366.915C511.99 367.841 513.489 368.803 514.886 369.8C516.842 371.191 518.599 372.642 520.155 374.147C521.942 375.873 523.465 377.666 524.722 379.503C524.967 379.855 525.198 380.208 525.421 380.565H529.245Z" fill="#FF9D4D"/>
<path d="M464.853 356.816C481.917 356.816 497.949 360.645 509.994 367.598C511.56 368.503 513.052 369.46 514.43 370.443C516.339 371.801 518.082 373.238 519.608 374.715C521.334 376.382 522.835 378.142 524.074 379.952C524.299 380.276 524.52 380.614 524.752 380.984L524.984 381.354H525.421H528.457V393.206V394.164H528.45L528.391 394.889C528.103 398.441 526.909 401.941 524.841 405.293C524.612 405.668 524.361 406.055 524.072 406.474C521.473 410.263 517.794 413.757 513.138 416.86C512.881 417.031 512.622 417.202 512.361 417.371C511.601 417.858 510.805 418.342 509.994 418.811C507.328 420.35 504.416 421.759 501.327 423.003C501.072 423.104 500.819 423.205 500.561 423.304C497.073 424.666 493.358 425.823 489.502 426.747C489.246 426.814 488.99 426.874 488.733 426.934C485.18 427.759 481.459 428.402 477.647 428.848C477.397 428.879 477.148 428.909 476.887 428.935C473.24 429.338 469.516 429.557 465.816 429.585L465.77 429.586C465.526 429.589 465.282 429.592 465.036 429.592L464.819 429.593C461.181 429.593 457.529 429.411 453.952 429.051C453.704 429.03 453.455 429.003 453.182 428.974C449.432 428.578 445.711 427.978 442.121 427.19C441.861 427.133 441.602 427.076 441.339 427.015C437.482 426.136 433.764 425.034 430.287 423.739L430.181 423.699C429.959 423.617 429.737 423.535 429.507 423.442C426.021 422.109 422.726 420.55 419.716 418.812C419.3 418.57 418.891 418.328 418.487 418.082C418.224 417.921 417.964 417.761 417.71 417.602C413.17 414.734 409.486 411.506 406.756 408C406.512 407.693 406.262 407.359 405.99 406.979C403.225 403.128 401.652 399.06 401.317 394.89L401.259 394.164H401.248V381.354H404.284H404.722L404.954 380.982C405.271 380.47 405.62 379.952 405.994 379.436C406.224 379.11 406.474 378.776 406.762 378.409C407.735 377.155 408.857 375.912 410.097 374.715C411.646 373.219 413.389 371.782 415.275 370.442C416.667 369.453 418.161 368.496 419.715 367.598C431.758 360.645 447.788 356.816 464.853 356.816ZM464.853 356.027C448.372 356.027 431.893 359.656 419.32 366.915C417.717 367.841 416.215 368.806 414.818 369.8C412.859 371.191 411.105 372.645 409.549 374.147C408.278 375.375 407.139 376.636 406.138 377.925C405.865 378.275 405.601 378.624 405.349 378.981C404.971 379.503 404.615 380.032 404.284 380.565H400.458V394.953H400.531C400.873 399.21 402.479 403.442 405.349 407.439C405.601 407.793 405.861 408.142 406.138 408.491C408.864 411.992 412.585 415.298 417.289 418.27C417.548 418.432 417.811 418.594 418.077 418.756C418.484 419.004 418.899 419.249 419.32 419.494C422.406 421.277 425.723 422.84 429.224 424.179C429.484 424.284 429.75 424.381 430.013 424.479C433.571 425.804 437.31 426.906 441.164 427.785C441.426 427.846 441.689 427.904 441.952 427.961C445.582 428.757 449.317 429.359 453.099 429.758C453.362 429.787 453.625 429.816 453.887 429.838C457.503 430.201 461.16 430.381 464.819 430.381H465.037C465.301 430.381 465.563 430.378 465.827 430.375C469.561 430.345 473.292 430.126 476.973 429.719C477.236 429.694 477.499 429.661 477.762 429.629C481.551 429.186 485.286 428.545 488.912 427.702C489.176 427.641 489.438 427.579 489.701 427.511C493.562 426.586 497.296 425.426 500.848 424.039C501.111 423.938 501.374 423.834 501.636 423.73C504.712 422.49 507.644 421.079 510.388 419.494C511.217 419.015 512.016 418.529 512.787 418.036C513.053 417.863 513.317 417.69 513.575 417.517C518.412 414.293 522.126 410.706 524.723 406.921C525 406.518 525.266 406.111 525.515 405.704C527.661 402.225 528.882 398.598 529.177 394.953H529.245V393.206V393.203V380.565H525.421C525.198 380.208 524.967 379.855 524.723 379.503C523.465 377.666 521.942 375.873 520.156 374.147C518.6 372.642 516.842 371.191 514.887 369.8C513.489 368.803 511.991 367.841 510.388 366.915C497.813 359.656 481.333 356.027 464.853 356.027Z" fill="#FFE840"/>
<path d="M510.386 353.881C535.534 368.4 535.534 391.94 510.386 406.459C485.239 420.978 444.467 420.978 419.319 406.459C394.172 391.94 394.172 368.4 419.319 353.881C444.467 339.362 485.239 339.362 510.386 353.881Z" fill="#FFE840"/>
<path d="M520.155 374.146C518.095 367.765 512.762 361.89 504.636 357.201C494.008 351.064 479.88 347.686 464.855 347.686C449.825 347.686 435.696 351.064 425.072 357.201C416.947 361.89 411.609 367.765 409.549 374.146C408.915 376.113 408.591 378.127 408.591 380.168C408.591 386.413 411.623 392.392 417.288 397.538C417.544 397.776 417.808 398.007 418.078 398.233C420.105 399.98 422.442 401.619 425.072 403.139C426.404 403.906 427.791 404.634 429.224 405.311C429.487 405.436 429.75 405.559 430.013 405.678C433.474 407.263 437.216 408.592 441.163 409.647C441.426 409.719 441.689 409.791 441.952 409.86C445.521 410.774 449.252 411.476 453.099 411.941C453.361 411.977 453.625 412.009 453.887 412.039C457.46 412.446 461.13 412.651 464.855 412.651H465.038C465.3 412.651 465.564 412.647 465.826 412.643C469.619 412.607 473.346 412.359 476.974 411.898C477.236 411.866 477.499 411.833 477.762 411.793C481.616 411.279 485.35 410.522 488.912 409.55C489.179 409.477 489.442 409.405 489.701 409.326C493.663 408.203 497.401 406.798 500.848 405.134C501.111 405.011 501.377 404.882 501.637 404.749C502.663 404.237 503.664 403.701 504.636 403.139C507.781 401.324 510.507 399.329 512.787 397.2C513.057 396.948 513.32 396.696 513.576 396.44C518.492 391.55 521.114 385.974 521.114 380.168C521.114 378.127 520.79 376.113 520.155 374.146ZM513.576 392.453C513.324 392.788 513.061 393.123 512.787 393.454C510.259 396.502 506.812 399.354 502.447 401.875C502.181 402.03 501.911 402.181 501.637 402.332C501.377 402.476 501.115 402.62 500.848 402.757C497.416 404.587 493.666 406.103 489.701 407.309C489.442 407.389 489.175 407.468 488.912 407.544C485.332 408.592 481.591 409.391 477.762 409.939C477.503 409.978 477.24 410.014 476.974 410.047C473.31 410.54 469.572 410.807 465.826 410.842C465.564 410.846 465.3 410.85 465.038 410.85C461.3 410.857 457.557 410.641 453.887 410.194C453.625 410.162 453.358 410.13 453.099 410.094C449.281 409.6 445.539 408.858 441.952 407.871C441.689 407.799 441.423 407.728 441.163 407.651C437.216 406.521 433.466 405.087 430.013 403.355C429.746 403.221 429.484 403.088 429.224 402.951C428.558 402.606 427.902 402.246 427.261 401.875C423.526 399.718 420.465 397.319 418.078 394.765C417.808 394.474 417.544 394.182 417.288 393.886C410.799 386.37 409.974 377.625 414.818 369.799C417.383 365.657 421.528 361.776 427.261 358.466C447.988 346.498 481.716 346.498 502.447 358.466C508.181 361.776 512.326 365.657 514.887 369.799C519.425 377.132 518.989 385.272 513.576 392.453Z" fill="#FF9D4D"/>
<path d="M466.914 374.928L472.977 378.429C472.84 378.495 472.705 378.566 472.573 378.642L469.245 380.563L463.579 377.292L465.45 376.212C466.12 375.825 466.608 375.396 466.914 374.928Z" fill="#D1975D"/>
<path d="M485.048 389.688L485.049 389.687L491.263 393.275L494.978 391.131L488.748 387.533C488.802 387.498 488.859 387.465 488.912 387.426C489.186 387.256 489.45 387.08 489.702 386.903C490.584 386.28 491.344 385.632 491.988 384.959C493.011 383.889 493.67 382.809 493.962 381.717C494.257 380.627 494.128 379.564 493.573 378.523C493.018 377.482 491.963 376.51 490.403 375.609C490.169 375.476 489.935 375.347 489.702 375.224C489.442 375.087 489.179 374.961 488.912 374.839C486.906 373.91 484.771 373.358 482.502 373.178C480.906 373.056 479.329 373.103 477.762 373.319C477.499 373.355 477.236 373.398 476.974 373.445C476.019 373.614 475.072 373.845 474.132 374.14C475.1 372.699 475.249 371.266 474.575 369.832C473.898 368.403 472.659 367.168 470.858 366.126C469.713 365.467 468.38 364.927 466.853 364.506C465.329 364.088 463.763 363.832 462.15 363.742C460.54 363.653 458.937 363.746 457.342 364.027C455.746 364.308 454.309 364.816 453.027 365.557L451.856 366.235L445.87 362.778L442.155 364.923L448.139 368.377L443.623 370.989L437.636 367.532L433.921 369.677L439.906 373.132L433.276 376.96L441.163 381.516L441.952 381.969L453.099 388.405L453.887 388.863L465.038 395.299L465.827 395.757L470.181 398.27L476.815 394.441H476.816L483.029 398.028L486.743 395.884L480.53 392.297L480.532 392.295L485.048 389.688ZM472.572 378.642C472.706 378.566 472.839 378.495 472.976 378.429C473.494 378.18 474.064 377.993 474.676 377.878C475.418 377.735 476.185 377.681 476.974 377.709C477.013 377.709 477.057 377.713 477.096 377.713C477.319 377.723 477.539 377.741 477.762 377.763C478.371 377.828 478.983 377.94 479.592 378.102C480.42 378.321 481.169 378.624 481.825 379.002C482.484 379.384 482.984 379.813 483.334 380.291C483.68 380.774 483.859 381.26 483.877 381.75C483.895 382.24 483.74 382.719 483.413 383.191C483.212 383.475 482.948 383.745 482.624 383.997C482.464 384.124 482.283 384.246 482.091 384.365C482.037 384.397 481.986 384.432 481.93 384.465L479.067 386.117L478.965 386.176L477.762 386.871L476.974 387.325L474.449 388.784L471.273 390.617L461.553 385.005L462.591 384.406L464.727 383.172H464.726L465.038 382.993L465.827 382.539L469.245 380.565L472.572 378.642ZM453.099 372.598L453.887 372.141L454.272 371.918L454.274 371.919L456.458 370.659C456.585 370.585 456.724 370.532 456.856 370.467C457.301 370.251 457.77 370.066 458.281 369.944C458.988 369.775 459.758 369.699 460.59 369.714C462.164 369.742 463.648 370.146 465.038 370.931C465.071 370.949 465.107 370.971 465.139 370.989C465.391 371.132 465.618 371.28 465.827 371.431C466.821 372.144 467.31 372.901 467.296 373.704C467.289 374.14 467.163 374.547 466.915 374.929C466.669 375.303 466.306 375.656 465.827 375.977C465.708 376.056 465.585 376.135 465.452 376.211L465.038 376.449L463.579 377.291L459.061 379.902L459.06 379.901L457.827 380.613L455.886 381.732L454.81 381.111L453.606 380.416L453.099 380.122L450.823 378.809L446.582 376.361L447.76 375.68L449.755 374.528H449.754L453.099 372.598Z" fill="#FF9D4D"/>
<path d="M407.819 397.081V410.111C407.541 409.762 407.282 409.413 407.03 409.06V396.026C407.282 396.379 407.545 396.732 407.819 397.081Z" fill="#FFE840"/>
<path d="M418.078 405.721V418.755C417.811 418.593 417.548 418.431 417.289 418.269V405.231C417.548 405.397 417.811 405.559 418.078 405.721Z" fill="#FFE840"/>
<path d="M430.013 411.441V424.479C429.75 424.381 429.483 424.284 429.224 424.179V411.145C429.483 411.246 429.75 411.347 430.013 411.441Z" fill="#FFE840"/>
<path d="M441.952 414.927V427.961C441.689 427.903 441.426 427.846 441.164 427.784V414.746C441.426 414.808 441.689 414.869 441.952 414.927Z" fill="#FFE840"/>
<path d="M453.887 416.804V429.838C453.624 429.816 453.361 429.787 453.099 429.758V416.724C453.361 416.753 453.624 416.782 453.887 416.804Z" fill="#FFE840"/>
<path d="M465.826 417.34V430.374C465.563 430.378 465.3 430.381 465.038 430.381V417.347C465.3 417.347 465.563 417.344 465.826 417.34Z" fill="#FFE840"/>
<path d="M477.762 416.594V429.628C477.499 429.66 477.236 429.693 476.973 429.718V416.684C477.236 416.659 477.499 416.626 477.762 416.594Z" fill="#FFE840"/>
<path d="M489.701 414.477V427.511C489.438 427.579 489.175 427.641 488.912 427.702V414.664C489.175 414.604 489.438 414.542 489.701 414.477Z" fill="#FFE840"/>
<path d="M501.637 410.695V423.729C501.374 423.833 501.111 423.938 500.848 424.039V411.001C501.111 410.904 501.374 410.8 501.637 410.695Z" fill="#FFE840"/>
<path d="M513.576 404.483V417.517C513.316 417.689 513.053 417.862 512.787 418.035V404.997C513.053 404.828 513.316 404.655 513.576 404.483Z" fill="#FFE840"/>
<path d="M524.164 393.975V407.009C523.916 407.416 523.649 407.823 523.372 408.227V395.193C523.649 394.789 523.912 394.382 524.164 393.975Z" fill="#FFE840"/>
</g>
<path d="M302.479 436.766C346.345 462.092 346.345 503.154 302.479 528.48C258.613 553.807 187.491 553.807 143.625 528.48C99.7585 503.154 99.7585 462.092 143.625 436.766C187.491 411.44 258.613 411.44 302.479 436.766Z" fill="#E3DFEA"/>
<mask id="mask3_10339_7478" style="mask-type:alpha" maskUnits="userSpaceOnUse" x="0" y="0" width="633" height="607">
<path d="M0 51.0742L583.782 -8.4803e-05L632.354 555.175L48.5715 606.249L0 51.0742Z" fill="black"/>
</mask>
<g mask="url(#mask3_10339_7478)">
<path d="M230.845 474.697L208.914 490.053L296.598 320.704L358.874 340.833L433.661 196.39L459.069 204.602L525.938 75.4539L547.868 60.0978L461.09 227.699L435.682 219.488L360.895 363.929L298.619 343.802L230.845 474.697Z" fill="#E3DFEA"/>
</g>
<mask id="mask4_10339_7478" style="mask-type:alpha" maskUnits="userSpaceOnUse" x="215" y="63" width="340" height="430">
<path d="M532.187 78.3809L465.318 207.528L439.91 199.317L365.123 343.759L302.847 323.631L215.163 492.98L237.094 477.624L304.868 346.728L367.144 366.856L441.931 222.414L467.339 230.626L554.118 63.0248L532.187 78.3809Z" fill="black"/>
</mask>
<g mask="url(#mask4_10339_7478)">
<path d="M180.408 95.7201L535.239 -152.755L588.873 460.284L234.042 708.76L180.408 95.7201Z" fill="url(#paint0_linear_10339_7478)"/>
</g>
<mask id="mask5_10339_7478" style="mask-type:alpha" maskUnits="userSpaceOnUse" x="191" y="51" width="364" height="442">
<path d="M508.159 67.2226L441.29 196.371L415.882 188.159L341.095 332.601L278.819 312.473L191.135 481.822L215.164 492.98L302.847 323.631L365.123 343.759L439.91 199.317L465.318 207.528L532.187 78.3808L554.118 63.0247L530.089 51.8665L508.159 67.2226Z" fill="black"/>
</mask>
<g mask="url(#mask5_10339_7478)">
<path d="M156.38 84.5619L552.966 49.8651L588.873 460.284L192.287 494.981L156.38 84.5619Z" fill="url(#paint1_linear_10339_7478)"/>
</g>
<mask id="mask6_10339_7478" style="mask-type:alpha" maskUnits="userSpaceOnUse" x="443" y="19" width="146" height="158">
<path d="M443.821 112.546L446.106 138.665L554.053 62.8985L563.962 176.152L588.225 159.344L578.895 52.7025L576.042 20.0997L576.031 19.9711L443.821 112.546Z" fill="black"/>
</mask>
<g mask="url(#mask6_10339_7478)">
<path d="M436.787 32.1534L576.031 19.9712L589.5 173.917L450.256 186.1L436.787 32.1534Z" fill="url(#paint2_linear_10339_7478)"/>
</g>
<mask id="mask7_10339_7478" style="mask-type:alpha" maskUnits="userSpaceOnUse" x="426" y="12" width="151" height="101">
<path d="M558.541 12.3487L426.32 104.794L443.857 112.571L576.079 20.1259L558.541 12.3487Z" fill="black"/>
</mask>
<g mask="url(#mask7_10339_7478)">
<path d="M419.298 24.5309L575.27 10.8851L583.101 100.389L427.128 114.035L419.298 24.5309Z" fill="url(#paint3_linear_10339_7478)"/>
</g>
<mask id="mask8_10339_7478" style="mask-type:alpha" maskUnits="userSpaceOnUse" x="426" y="104" width="21" height="35">
<path d="M428.6 130.852L446.101 138.606L443.822 112.553L426.32 104.798L428.6 130.852Z" fill="black"/>
</mask>
<g mask="url(#mask8_10339_7478)">
<path d="M426.32 104.798L443.016 103.338L446.101 138.606L429.406 140.067L426.32 104.798Z" fill="url(#paint4_linear_10339_7478)"/>
</g>
<mask id="mask9_10339_7478" style="mask-type:alpha" maskUnits="userSpaceOnUse" x="539" y="63" width="25" height="113">
<path d="M539.25 91.2537L545.946 167.782L563.929 175.691L554.079 63.1062L539.25 91.2537Z" fill="black"/>
</mask>
<g mask="url(#mask9_10339_7478)">
<path d="M536.919 64.6075L554.079 63.1062L563.929 175.691L546.769 177.193L536.919 64.6075Z" fill="url(#paint5_linear_10339_7478)"/>
</g>
<mask id="mask10_10339_7478" style="mask-type:alpha" maskUnits="userSpaceOnUse" x="153" y="10" width="462" height="485">
<path d="M153.165 47.8139L575.27 10.8844L614.392 458.052L192.287 494.981L153.165 47.8139Z" fill="black"/>
</mask>
<g mask="url(#mask10_10339_7478)">
<path d="M400.017 151.797L402.224 147.931L388.712 141.744C388.46 141.623 388.205 141.506 387.949 141.394L387.94 141.389L387.939 141.39C376.074 136.197 359.707 139.153 342.263 151.367C309.843 174.068 285.983 220.151 288.97 254.296C290.224 268.627 296.009 278.577 304.697 283.621L304.696 283.622L304.701 283.623C305.991 284.372 307.344 285.012 308.757 285.542L320.508 291.103L322.664 287.325C331.843 286.611 342.255 282.598 353.081 275.017C385.502 252.316 409.362 206.233 406.375 172.088C405.653 163.84 403.43 157.043 400.017 151.797Z" fill="#FF9D4D"/>
<path d="M372.378 140.081C377.958 139.593 383.059 140.34 387.54 142.301L387.595 142.325C387.828 142.427 388.058 142.534 388.298 142.648L400.82 148.383L399.153 151.304L398.853 151.831L399.183 152.34C402.606 157.6 404.691 164.274 405.383 172.176C408.338 205.951 384.619 251.72 352.511 274.202C342.353 281.315 332.136 285.498 322.965 286.301C322.839 286.312 322.713 286.322 322.587 286.332L322.061 286.374L321.8 286.831L320.101 289.81L309.181 284.644L309.145 284.627L309.106 284.612C307.748 284.101 306.434 283.478 305.2 282.763L305.149 282.734C297.852 278.475 292.9 270.727 290.825 260.319C290.746 259.932 290.673 259.542 290.605 259.142C290.327 257.569 290.11 255.909 289.961 254.209C289.708 251.31 289.649 248.257 289.786 245.128C289.799 244.778 289.818 244.428 289.837 244.076C290.073 239.946 290.651 235.612 291.556 231.191C291.62 230.872 291.687 230.553 291.761 230.204C292.614 226.234 293.742 222.146 295.115 218.047C295.217 217.736 295.324 217.426 295.433 217.111C296.757 213.256 298.31 209.361 300.051 205.53C300.184 205.235 300.319 204.938 300.461 204.637C302.187 200.902 304.113 197.178 306.185 193.566C306.347 193.282 306.513 192.995 306.682 192.709C308.788 189.091 311.073 185.533 313.475 182.131C313.666 181.857 313.859 181.586 314.053 181.315C316.549 177.828 319.21 174.447 321.962 171.269C322.188 171.008 322.414 170.75 322.638 170.493C325.585 167.144 328.681 163.969 331.842 161.059C332.103 160.82 332.366 160.579 332.633 160.34C335.951 157.344 339.383 154.599 342.833 152.184C343.059 152.026 343.285 151.869 343.52 151.71C343.836 151.49 344.15 151.276 344.464 151.066C348.982 148.042 353.506 145.592 357.915 143.781L357.915 143.781L358.054 143.724C358.473 143.555 358.891 143.389 359.309 143.229C363.811 141.505 368.208 140.446 372.378 140.081ZM372.292 139.09C368.076 139.459 363.603 140.52 358.954 142.301C358.531 142.461 358.106 142.63 357.68 142.803L357.678 142.803C353.222 144.621 348.611 147.094 343.911 150.239C343.592 150.453 343.273 150.67 342.953 150.892C342.723 151.048 342.494 151.207 342.264 151.368C338.721 153.849 335.281 156.608 331.966 159.602C331.7 159.841 331.433 160.084 331.169 160.327C327.947 163.293 324.847 166.476 321.891 169.836C321.665 170.096 321.438 170.355 321.21 170.616C318.416 173.845 315.754 177.229 313.245 180.736C313.049 181.009 312.853 181.283 312.66 181.56C310.225 185.009 307.94 188.569 305.823 192.208C305.654 192.494 305.486 192.785 305.321 193.073C303.226 196.725 301.299 200.453 299.558 204.22C299.417 204.52 299.279 204.821 299.143 205.123C297.389 208.985 295.833 212.886 294.492 216.787C294.382 217.105 294.274 217.419 294.17 217.736C292.796 221.841 291.66 225.94 290.789 229.995C290.718 230.329 290.647 230.663 290.581 230.996C289.675 235.417 289.086 239.776 288.844 244.019C288.824 244.378 288.805 244.736 288.792 245.092C288.654 248.236 288.709 251.311 288.97 254.295C289.123 256.034 289.34 257.706 289.625 259.315C289.694 259.72 289.77 260.121 289.85 260.517C292.046 271.535 297.327 279.341 304.698 283.621L304.701 283.623C305.991 284.372 307.345 285.012 308.756 285.543L320.508 291.104L322.664 287.324C322.793 287.314 322.922 287.303 323.052 287.292C332.136 286.497 342.406 282.492 353.082 275.017C385.501 252.317 409.361 206.232 406.374 172.089C405.652 163.84 403.43 157.042 400.017 151.797L402.223 147.931L388.713 141.744C388.461 141.624 388.206 141.507 387.949 141.393L387.939 141.39C383.334 139.374 378.053 138.586 372.292 139.09Z" fill="#FFE840"/>
<path d="M419.543 178.226C422.53 212.371 398.67 258.454 366.25 281.155C333.829 303.856 305.126 294.578 302.139 260.433C299.151 226.288 323.011 180.205 355.432 157.504C387.852 134.803 416.556 144.081 419.543 178.226Z" fill="#FFD071"/>
<path d="M419.543 178.226C422.53 212.371 398.67 258.454 366.25 281.155C333.829 303.856 305.126 294.578 302.139 260.433C299.151 226.288 323.011 180.205 355.432 157.504C387.852 134.803 416.556 144.081 419.543 178.226Z" fill="#FFE840"/>
<path d="M367.152 273.207C353.453 282.8 340.081 286.2 329.502 282.78C318.922 279.361 312.401 269.532 311.138 255.103C309.876 240.675 314.024 223.375 322.819 206.39C331.613 189.403 344.001 174.767 357.701 165.174C371.4 155.582 384.771 152.182 395.351 155.601C405.931 159.021 412.453 168.85 413.715 183.279C414.977 197.707 410.829 215.007 402.034 231.993C393.24 248.978 380.852 263.616 367.152 273.207ZM357.961 168.147C331.237 186.859 311.499 224.981 313.961 253.127C316.424 281.272 340.168 288.947 366.892 270.234C393.616 251.522 413.355 213.401 410.892 185.255C408.43 157.11 384.685 149.435 357.961 168.147Z" fill="#FF9D4D"/>
<path d="M369.191 209.397L369.911 217.63C369.747 217.728 369.58 217.837 369.41 217.956L365.12 220.96L364.447 213.267L366.86 211.577C367.723 210.972 368.501 210.245 369.191 209.397Z" fill="#D1975D"/>
<path d="M370.095 231.483C370.426 231.252 370.747 231.001 371.057 230.729L372.524 247.501L367.735 250.855L366.275 234.159L370.095 231.483Z" fill="#FF9D4D"/>
<path d="M381.936 209.522C380.157 208.444 377.869 208.437 375.07 209.497C377.213 206.899 378.771 204.124 379.746 201.168C380.721 198.214 381.102 195.513 380.887 193.065C380.752 191.512 380.358 190.153 379.711 188.983C379.064 187.813 378.218 186.957 377.177 186.413C376.133 185.871 374.908 185.692 373.502 185.877C372.095 186.064 370.566 186.736 368.913 187.893L367.401 188.951L366.69 180.824L361.902 184.177L362.613 192.304L356.786 196.384L356.075 188.257L351.286 191.61L351.997 199.737L343.447 205.724L347.831 255.836L356.382 249.849L357.12 258.287L361.909 254.934L361.171 246.496L370.817 239.741C371.144 239.513 371.465 239.281 371.784 239.043C373.519 237.749 375.149 236.316 376.675 234.741C378.479 232.878 380.038 230.914 381.351 228.845C382.662 226.778 383.652 224.662 384.316 222.499C384.98 220.337 385.219 218.196 385.034 216.078C384.746 212.786 383.712 210.6 381.936 209.522ZM370.024 197.75C371.128 198.177 371.765 199.354 371.934 201.283C372.107 203.258 371.695 205.194 370.699 207.091C370.253 207.94 369.75 208.708 369.19 209.397C368.5 210.245 367.723 210.972 366.859 211.577L358.62 217.346L354.53 220.21L353.425 207.576L366.157 198.66C366.87 198.161 367.538 197.834 368.165 197.675C368.834 197.505 369.454 197.531 370.024 197.75ZM375.312 223.636C375.069 224.656 374.704 225.647 374.22 226.609C373.736 227.574 373.138 228.478 372.432 229.324C371.999 229.839 371.541 230.308 371.056 230.729C370.747 231.001 370.426 231.252 370.095 231.483L356.358 241.103L355.203 227.904L359.294 225.039L369.41 217.956C369.58 217.837 369.747 217.728 369.91 217.63C370.528 217.26 371.114 217.028 371.667 216.937C372.368 216.82 372.99 216.898 373.536 217.163C374.081 217.432 374.534 217.877 374.897 218.495C375.259 219.116 375.48 219.873 375.559 220.767C375.637 221.66 375.553 222.618 375.312 223.636Z" fill="#FF9D4D"/>
<path d="M361.734 158.552L361.313 159.453L342.953 150.892C343.274 150.67 343.592 150.453 343.911 150.239L361.734 158.552Z" fill="#FFE840"/>
<path d="M346.872 166.552L346.451 167.453L331.169 160.327C331.433 160.084 331.7 159.841 331.967 159.602L346.872 166.552Z" fill="#FFE840"/>
<path d="M336.939 176.854L336.518 177.755L321.211 170.617C321.437 170.355 321.664 170.096 321.891 169.837L336.939 176.854Z" fill="#FFE840"/>
<path d="M327.005 187.154L326.585 188.055L312.66 181.561C312.853 181.284 313.049 181.009 313.245 180.736L327.005 187.154Z" fill="#FFE840"/>
<path d="M321.988 199.747L321.567 200.648L305.321 193.073C305.485 192.785 305.654 192.494 305.822 192.208L321.988 199.747Z" fill="#FFE840"/>
<path d="M319.256 213.482L318.836 214.383L299.143 205.123C299.279 204.821 299.416 204.52 299.558 204.22L319.256 213.482Z" fill="#FFE840"/>
<path d="M312.598 225.231L312.178 226.132L294.17 217.736C294.274 217.419 294.382 217.105 294.492 216.787L312.598 225.231Z" fill="#FFE840"/>
<path d="M310.912 239.379L310.492 240.28L290.581 230.996C290.647 230.663 290.718 230.329 290.789 229.995L310.912 239.379Z" fill="#FFE840"/>
<path d="M307.129 252.545L306.708 253.447L288.792 245.092C288.805 244.736 288.823 244.379 288.844 244.019L307.129 252.545Z" fill="#FFE840"/>
<path d="M309.257 268.47L308.836 269.371L289.85 260.517C289.769 260.121 289.694 259.72 289.625 259.315L309.257 268.47Z" fill="#FFE840"/>
<path d="M375.969 150.234L375.548 151.136L357.68 142.804C358.106 142.63 358.531 142.461 358.954 142.301L375.969 150.234Z" fill="#FFE840"/>
<path d="M364.374 195.513L365.305 191.798L368.03 180.928L373.711 185.48L376.742 194.697C377.497 196.994 376.755 199.52 374.877 201.044L369.314 204.336L364.374 195.513Z" fill="#FFD0A6"/>
</g>
<mask id="mask11_10339_7478" style="mask-type:alpha" maskUnits="userSpaceOnUse" x="189" y="225" width="89" height="102">
<path d="M200.425 262.047C218.91 273.468 240.292 286.656 241.296 287.179C243.078 288.106 218.688 317.611 218.688 317.611L232.402 326.813L273.012 290.217C279.617 284.264 278.566 273.616 270.924 269.069L198.5 225.988C186.391 235.392 187.383 253.989 200.425 262.047Z" fill="black"/>
</mask>
<g mask="url(#mask11_10339_7478)">
<path d="M185.036 227.166L273.941 219.388L282.952 322.39L194.047 330.169L185.036 227.166Z" fill="url(#paint6_linear_10339_7478)"/>
</g>
<mask id="mask12_10339_7478" style="mask-type:alpha" maskUnits="userSpaceOnUse" x="153" y="10" width="462" height="485">
<path d="M153.165 47.8139L575.27 10.8844L614.392 458.052L192.287 494.981L153.165 47.8139Z" fill="black"/>
</mask>
<g mask="url(#mask12_10339_7478)">
<path d="M240.05 325.574L236.656 329.892C234.866 332.169 235.162 335.447 237.331 337.368L242.832 342.237C244.41 343.635 245.189 345.726 244.908 347.816C244.322 352.183 239.561 354.628 235.67 352.56L232.705 350.985C227.138 348.027 222.378 343.754 218.839 338.537L209.032 324.08C205.846 319.383 208.115 312.943 213.542 311.282L230.855 305.982L240.05 325.574Z" fill="#281A10"/>
</g>
<mask id="mask13_10339_7478" style="mask-type:alpha" maskUnits="userSpaceOnUse" x="211" y="236" width="60" height="170">
<path d="M225.194 237.449L227.1 328.248C222.963 339.265 219.583 350.525 216.925 361.973C214.287 373.405 212.407 385.028 211.276 396.736L238.352 405.906L259.269 333.62L270.063 244.843L225.176 236.396L225.194 237.449Z" fill="black"/>
</mask>
<g mask="url(#mask13_10339_7478)">
<path d="M186.29 406.455L198.192 227.846L294.976 234.295L283.074 412.905L186.29 406.455Z" fill="url(#paint7_linear_10339_7478)"/>
</g>
<mask id="mask14_10339_7478" style="mask-type:alpha" maskUnits="userSpaceOnUse" x="211" y="236" width="51" height="168">
<path d="M227.1 328.249C222.963 339.266 219.583 350.525 216.926 361.974C214.287 373.405 212.407 385.028 211.276 396.736L230.298 403.179L250.592 333.042L261.405 244.265L220.343 236.537L227.1 328.249Z" fill="black"/>
</mask>
<g mask="url(#mask14_10339_7478)">
<path d="M186.471 403.081L198.08 228.876L285.93 234.73L274.322 408.935L186.471 403.081Z" fill="url(#paint8_linear_10339_7478)"/>
</g>
<mask id="mask15_10339_7478" style="mask-type:alpha" maskUnits="userSpaceOnUse" x="191" y="106" width="106" height="174">
<path d="M217.733 121.955L212.49 177.923L192.416 224.732C189.833 232.658 192.819 241.337 199.732 245.997C217.307 257.845 225.873 272.609 246.736 276.348L260.908 278.886C264.864 279.595 268.753 277.429 270.281 273.711C281.114 247.36 288.727 202.961 295.353 174.368C299.26 157.505 291.107 138.139 275.27 131.152L247.429 108.715C243.721 106.697 239.731 105.956 235.902 106.291C227.501 107.026 219.878 112.946 217.733 121.955Z" fill="black"/>
</mask>
<g mask="url(#mask15_10339_7478)">
<path d="M179.212 111.251L294.333 101.179L309.599 275.681L194.479 285.753L179.212 111.251Z" fill="url(#paint9_linear_10339_7478)"/>
</g>
<mask id="mask16_10339_7478" style="mask-type:alpha" maskUnits="userSpaceOnUse" x="270" y="151" width="102" height="85">
<path d="M280.136 151.849C272.475 154.209 268.231 162.388 270.71 170.012L288.686 225.294L289.063 226.451C291.797 234.861 302.063 237.987 309.02 232.528L367.353 205.738C370.479 204.303 371.899 200.644 370.559 197.476L370.435 197.182C369.35 194.616 366.576 193.205 363.863 193.838L311.146 206.145L298.152 161.553C296.2 154.856 289.805 150.677 283.129 151.261C282.133 151.349 281.131 151.542 280.136 151.849Z" fill="black"/>
</mask>
<g mask="url(#mask16_10339_7478)">
<path d="M267.378 152.64L366.936 143.929L374.61 231.64L275.051 240.35L267.378 152.64Z" fill="url(#paint10_linear_10339_7478)"/>
</g>
<mask id="mask17_10339_7478" style="mask-type:alpha" maskUnits="userSpaceOnUse" x="153" y="10" width="462" height="485">
<path d="M153.165 47.8139L575.27 10.8844L614.392 458.052L192.287 494.981L153.165 47.8139Z" fill="black"/>
</mask>
<g mask="url(#mask17_10339_7478)">
<path d="M248.958 110.606L255.234 102.095L253.667 84.4831C250.771 74.5352 254.253 63.8276 262.448 57.4877C270.084 51.5813 280.406 50.5105 289.091 54.7248L299.548 59.7992C303.923 61.9222 305.684 67.2375 303.442 71.5531L303.381 71.6692C302.409 73.5396 301.802 75.5334 301.568 77.5943L300.471 87.2327L300.472 87.2327C300.689 90.7493 300.006 94.2627 298.484 97.4402L296.71 101.146C293.049 107.002 285.345 108.799 279.47 105.169L271.384 128.886L248.958 110.606Z" fill="#FFD0A6"/>
<path d="M301.757 76.3884L292.457 80.9733C292.457 80.9733 290.011 85.4299 289.469 91.0105C288.928 96.591 276.751 101.05 276.751 101.05L268.851 107.202C267.169 108.511 264.944 108.89 262.924 108.211L256.058 105.903C252.302 104.641 249.59 101.346 249.097 97.4147C248.65 93.8472 248.258 89.7463 248.493 87.7585C248.735 85.7258 247.998 81.301 247.228 77.5015C246.224 72.5338 246.879 67.3553 249.227 62.8634C250.631 60.1773 252.384 57.4614 254.335 55.84C259.249 51.7554 261.33 46.6784 271.54 46.8337C281.751 46.9891 297.311 50.1422 300.677 53.3635C304.044 56.5852 303.118 57.849 305.327 64.3947C307.537 70.9403 301.757 76.3884 301.757 76.3884Z" fill="#89603E"/>
</g>
<mask id="mask18_10339_7478" style="mask-type:alpha" maskUnits="userSpaceOnUse" x="247" y="106" width="27" height="24">
<path d="M247.272 109.768L272.463 129.872L273.809 121.773L252.316 106.052L247.272 109.768Z" fill="black"/>
</mask>
<g mask="url(#mask18_10339_7478)">
<path d="M246.988 106.518L272.28 104.305L274.501 129.694L249.209 131.906L246.988 106.518Z" fill="url(#paint11_linear_10339_7478)"/>
</g>
<mask id="mask19_10339_7478" style="mask-type:alpha" maskUnits="userSpaceOnUse" x="153" y="10" width="462" height="485">
<path d="M153.165 47.8139L575.27 10.8844L614.392 458.052L192.287 494.981L153.165 47.8139Z" fill="black"/>
</mask>
<g mask="url(#mask19_10339_7478)">
<path d="M287.81 95.8624L286.297 91.8132C285.692 90.1927 283.468 89.3041 281.742 89.9932C280.725 90.3993 280.134 91.2704 280.215 92.2445L281.048 102.279L288.768 101.051L287.81 95.8624Z" fill="#FFD0A6"/>
<path d="M240.874 397.188L238.352 405.906C238.334 405.929 238.369 405.883 238.352 405.906C236.003 408.991 233.733 412.464 237.525 411.658L242.901 415.415C244.479 416.812 245.258 418.904 244.977 420.993C244.391 425.36 241.436 425.85 241.436 425.85L232.798 429.584C230.933 430.39 228.799 430.174 227.095 429.067C222.777 426.262 219.053 422.618 216.149 418.338L206.342 403.881C203.156 399.185 205.426 392.745 210.852 391.084L213.159 383.586L240.874 397.188Z" fill="#281A10"/>
</g>
<defs>
<linearGradient id="paint0_linear_10339_7478" x1="192.287" y1="494.981" x2="192.868" y2="494.93" gradientUnits="userSpaceOnUse">
<stop stop-color="#2E256B"/>
<stop offset="1" stop-color="#5A3087"/>
</linearGradient>
<linearGradient id="paint1_linear_10339_7478" x1="192.287" y1="494.981" x2="192.868" y2="494.93" gradientUnits="userSpaceOnUse">
<stop stop-color="#6A5EBF"/>
<stop offset="1" stop-color="#6E3AA5"/>
</linearGradient>
<linearGradient id="paint2_linear_10339_7478" x1="192.287" y1="494.981" x2="192.868" y2="494.93" gradientUnits="userSpaceOnUse">
<stop stop-color="#2E256B"/>
<stop offset="1" stop-color="#5A3087"/>
</linearGradient>
<linearGradient id="paint3_linear_10339_7478" x1="192.287" y1="494.981" x2="192.868" y2="494.93" gradientUnits="userSpaceOnUse">
<stop stop-color="#6A5EBF"/>
<stop offset="1" stop-color="#6E3AA5"/>
</linearGradient>
<linearGradient id="paint4_linear_10339_7478" x1="192.287" y1="494.981" x2="192.869" y2="494.93" gradientUnits="userSpaceOnUse">
<stop stop-color="#6A5EBF"/>
<stop offset="1" stop-color="#6E3AA5"/>
</linearGradient>
<linearGradient id="paint5_linear_10339_7478" x1="192.287" y1="494.981" x2="192.868" y2="494.93" gradientUnits="userSpaceOnUse">
<stop stop-color="#2E256B"/>
<stop offset="1" stop-color="#5A3087"/>
</linearGradient>
<linearGradient id="paint6_linear_10339_7478" x1="192.286" y1="494.981" x2="192.868" y2="494.93" gradientUnits="userSpaceOnUse">
<stop stop-color="#2E256B"/>
<stop offset="1" stop-color="#5A3087"/>
</linearGradient>
<linearGradient id="paint7_linear_10339_7478" x1="405.788" y1="394.901" x2="405.826" y2="394.319" gradientUnits="userSpaceOnUse">
<stop stop-color="#2E256B"/>
<stop offset="1" stop-color="#5A3087"/>
</linearGradient>
<linearGradient id="paint8_linear_10339_7478" x1="403.493" y1="389.278" x2="403.532" y2="388.695" gradientUnits="userSpaceOnUse">
<stop stop-color="#6A5EBF"/>
<stop offset="1" stop-color="#6E3AA5"/>
</linearGradient>
<linearGradient id="paint9_linear_10339_7478" x1="192.287" y1="494.979" x2="192.868" y2="494.929" gradientUnits="userSpaceOnUse">
<stop stop-color="#2E256B"/>
<stop offset="1" stop-color="#5A3087"/>
</linearGradient>
<linearGradient id="paint10_linear_10339_7478" x1="192.286" y1="494.973" x2="192.867" y2="494.922" gradientUnits="userSpaceOnUse">
<stop stop-color="#6A5EBF"/>
<stop offset="1" stop-color="#6E3AA5"/>
</linearGradient>
<linearGradient id="paint11_linear_10339_7478" x1="192.287" y1="494.981" x2="192.868" y2="494.93" gradientUnits="userSpaceOnUse">
<stop stop-color="#6A5EBF"/>
<stop offset="1" stop-color="#6E3AA5"/>
</linearGradient>
</defs>
</svg>
