<svg width="586" height="323" viewBox="0 0 586 323" fill="none" xmlns="http://www.w3.org/2000/svg">
<mask id="mask0_10339_7134" style="mask-type:alpha" maskUnits="userSpaceOnUse" x="266" y="23" width="307" height="178">
<path d="M396.744 23.5481V50.1554C383.854 51.7302 371.363 54.6532 359.953 58.9397L327.383 40.1357L314.786 47.4093L295.25 36.2242V58.6885L327.812 77.4886C320.385 84.0779 315.308 91.2906 312.58 98.7338H266.519V124.972H312.58C315.308 132.415 320.385 139.628 327.812 146.216L295.25 165.017L327.383 183.57L359.953 164.765C371.363 169.053 383.854 171.975 396.744 173.551V200.157H442.189V173.551C455.079 171.975 467.57 169.053 478.98 164.765L511.55 183.57L543.684 165.017L511.121 146.216C518.548 139.628 523.626 132.415 526.353 124.972H572.414V98.7338H526.353C523.626 91.2906 518.548 84.0779 511.121 77.4886L543.684 58.6885L511.55 40.1357L478.98 58.9397C467.57 54.6532 455.079 51.7302 442.189 50.1554V23.5481H396.744Z" fill="black"/>
</mask>
<g mask="url(#mask0_10339_7134)">
<path d="M266.519 23.5481H572.414V200.157H266.519V23.5481Z" fill="url(#paint0_linear_10339_7134)"/>
</g>
<mask id="mask1_10339_7134" style="mask-type:alpha" maskUnits="userSpaceOnUse" x="0" y="0" width="586" height="323">
<path d="M0 0H585.117V322.409H0V0Z" fill="black"/>
</mask>
<g mask="url(#mask1_10339_7134)">
<path d="M295.249 142.553V165.017L314.703 153.785L295.249 142.553Z" fill="#614893"/>
<path d="M524.312 47.4086L543.684 58.6878V36.2241L524.312 47.4086Z" fill="#614893"/>
<path d="M524.312 153.737L543.684 165.017V142.553L524.312 153.737Z" fill="#614893"/>
</g>
<mask id="mask2_10339_7134" style="mask-type:alpha" maskUnits="userSpaceOnUse" x="266" y="1" width="307" height="177">
<path d="M396.744 1.08447V27.6913C383.854 29.2666 371.363 32.1891 359.953 36.4761L327.383 17.6716L295.25 36.2243L327.812 55.025C320.385 61.6137 315.308 68.8265 312.58 76.2697H266.519V102.508H312.58C315.308 109.951 320.386 117.164 327.813 123.753L295.25 142.554L327.383 161.106L359.953 142.302C371.363 146.589 383.854 149.511 396.744 151.087V177.693H442.189V151.087C455.079 149.511 467.57 146.589 478.98 142.302L511.55 161.106L543.684 142.554L511.121 123.753C518.548 117.164 523.626 109.951 526.353 102.508H572.414V76.2697H526.353C523.626 68.8265 518.548 61.6137 511.121 55.025L543.684 36.2243L511.55 17.6716L478.98 36.4761C467.57 32.1891 455.079 29.2666 442.189 27.6913V1.08447H396.744Z" fill="black"/>
</mask>
<g mask="url(#mask2_10339_7134)">
<path d="M266.519 1.08423H572.414V177.693H266.519V1.08423Z" fill="url(#paint1_linear_10339_7134)"/>
</g>
<mask id="mask3_10339_7134" style="mask-type:alpha" maskUnits="userSpaceOnUse" x="0" y="0" width="586" height="323">
<path d="M0 0H585.117V322.409H0V0Z" fill="black"/>
</mask>
<g mask="url(#mask3_10339_7134)">
<path d="M443.273 201.241H395.66V174.507C382.932 172.885 370.959 170.011 360.052 165.96L327.383 184.821L294.165 165.643V141.927L313.871 130.549C313.093 129.056 312.409 127.551 311.83 126.055H265.434V75.1855H311.83C312.415 73.6737 313.097 72.1668 313.865 70.6878L294.165 59.3139V35.5983L327.383 16.4194L360.052 35.2808C370.958 31.2297 382.931 28.356 395.66 26.7335V-0.000244141H443.273V26.7335C456.002 28.356 467.974 31.2297 478.881 35.2808L511.55 16.4194L544.768 35.5983V59.3139L525.068 70.6878C525.837 72.1668 526.518 73.6737 527.104 75.1855H573.499V126.055H527.103C526.523 127.552 525.838 129.058 525.062 130.549L544.768 141.927V165.643L511.55 184.821L478.881 165.96C467.973 170.012 456 172.885 443.273 174.507V201.241ZM397.829 199.072H441.104V172.59L442.058 172.474C455.158 170.873 467.452 167.938 478.599 163.75L479.079 163.57L511.55 182.317L542.599 164.391V143.179L522.15 131.372L522.661 130.442C523.723 128.506 524.623 126.54 525.335 124.598L525.596 123.887H571.33V77.3537L525.596 77.3542L525.335 76.6426C524.614 74.6737 523.716 72.7065 522.666 70.795L522.156 69.8651L542.599 58.062V36.8501L511.55 18.9236L479.079 37.6706L478.599 37.4906C467.453 33.3031 455.159 30.3681 442.058 28.767L441.104 28.6505V2.16846H397.829V28.6505L396.876 28.767C383.773 30.3681 371.479 33.3031 360.335 37.4906L359.855 37.6706L327.383 18.9236L296.334 36.8501V58.062L316.777 69.8651L316.267 70.795C315.218 72.7065 314.32 74.6737 313.598 76.6426L313.337 77.3542H267.603V123.887H313.337L313.598 124.598C314.308 126.536 315.208 128.503 316.273 130.442L316.783 131.372L296.334 143.179V164.391L327.383 182.317L359.855 163.57L360.335 163.75C371.48 167.938 383.775 170.873 396.876 172.474L397.829 172.59V199.072Z" fill="#BF89EF"/>
</g>
<mask id="mask4_10339_7134" style="mask-type:alpha" maskUnits="userSpaceOnUse" x="1" y="65" width="283" height="164">
<path d="M121.196 65.1228V89.6633C109.307 91.116 97.7862 93.8118 87.2623 97.7655L57.2224 80.4219L45.6027 87.13L27.5837 76.8142V97.5334L57.6182 114.874C50.7677 120.951 46.0844 127.604 43.5681 134.47H1.08472V158.669H43.5681C46.0844 165.535 50.7677 172.187 57.6182 178.265L27.5837 195.605L57.2224 212.716L87.2623 195.373C97.7862 199.327 109.307 202.022 121.196 203.475V228.016H163.112V203.475C175.001 202.022 186.522 199.327 197.046 195.373L227.086 212.716L256.725 195.605L226.69 178.265C233.541 172.187 238.223 165.535 240.74 158.669H283.224V134.47H240.74C238.223 127.604 233.541 120.951 226.69 114.874L256.725 97.5334L227.086 80.4219L197.046 97.7655C186.522 93.8118 175.001 91.116 163.112 89.6633V65.1228H121.196Z" fill="black"/>
</mask>
<g mask="url(#mask4_10339_7134)">
<path d="M1.08472 65.1228H283.224V228.016H1.08472V65.1228Z" fill="url(#paint2_linear_10339_7134)"/>
</g>
<mask id="mask5_10339_7134" style="mask-type:alpha" maskUnits="userSpaceOnUse" x="0" y="0" width="586" height="323">
<path d="M0 0H585.117V322.409H0V0Z" fill="black"/>
</mask>
<g mask="url(#mask5_10339_7134)">
<path d="M27.5837 174.885V195.604L45.5272 185.245L27.5837 174.885Z" fill="#614893"/>
<path d="M238.857 87.13L256.725 97.5334V76.8142L238.857 87.13Z" fill="#614893"/>
<path d="M238.857 185.201L256.725 195.604V174.885L238.857 185.201Z" fill="#614893"/>
</g>
<mask id="mask6_10339_7134" style="mask-type:alpha" maskUnits="userSpaceOnUse" x="1" y="44" width="283" height="164">
<path d="M121.197 44.4028V68.9395C109.309 70.3922 97.7865 73.0919 87.2626 77.0461L57.2227 59.702L27.584 76.814L57.6185 94.1543C50.7681 100.231 46.0847 106.884 43.5684 113.75H1.08447V137.949H43.5684C46.0847 144.815 50.7681 151.468 57.6185 157.545L27.584 174.886L57.2227 191.997L87.2626 174.653C97.7865 178.607 109.308 181.303 121.197 182.756V207.296H163.112V182.756C175.001 181.303 186.522 178.607 197.046 174.653L227.086 191.997L256.725 174.886L226.691 157.545C233.541 151.468 238.224 144.815 240.74 137.949H283.224V113.75H240.74C238.224 106.884 233.541 100.231 226.691 94.1543L256.725 76.814L227.086 59.702L197.046 77.0461C186.522 73.0919 174.999 70.3922 163.112 68.9395V44.4028H121.197Z" fill="black"/>
</mask>
<g mask="url(#mask6_10339_7134)">
<path d="M1.08447 44.4028H283.224V207.296H1.08447V44.4028Z" fill="url(#paint3_linear_10339_7134)"/>
</g>
<mask id="mask7_10339_7134" style="mask-type:alpha" maskUnits="userSpaceOnUse" x="0" y="0" width="586" height="323">
<path d="M0 0H585.117V322.409H0V0Z" fill="black"/>
</mask>
<g mask="url(#mask7_10339_7134)">
<path d="M164.197 229.1H120.112V204.432C108.406 202.935 97.3966 200.291 87.3621 196.568L57.222 213.969L26.499 196.231V174.259L44.6477 163.782C43.9531 162.443 43.3411 161.094 42.8195 159.753H0V112.665H42.819C43.3466 111.31 43.9564 109.959 44.6417 108.635L26.499 98.1595V76.1884L57.222 58.4507L87.3616 75.8518C97.3972 72.1275 108.408 69.4836 120.112 67.9866V43.3191H164.197V67.9866C175.9 69.4836 186.911 72.1275 196.947 75.8518L227.086 58.4507L257.809 76.1884V98.1595L239.666 108.635C240.351 109.959 240.962 111.309 241.489 112.665H284.308V159.753H241.489C240.967 161.094 240.355 162.443 239.661 163.782L257.809 174.259V196.231L227.086 213.969L196.946 196.568C186.912 200.291 175.903 202.935 164.197 204.432V229.1ZM122.281 226.932H162.027V202.515L162.98 202.399C175.059 200.923 186.392 198.217 196.664 194.357L197.144 194.177L227.086 211.464L255.64 194.979V175.511L236.75 164.605L237.26 163.675C238.239 161.89 239.068 160.081 239.722 158.296L239.983 157.585H282.139V114.834H239.983L239.722 114.123C239.056 112.308 238.229 110.497 237.265 108.741L236.755 107.811L255.64 96.9077V77.4403L227.086 60.955L197.144 78.2416L196.664 78.0615C186.39 74.2009 175.058 71.4958 162.98 70.0201L162.027 69.9035V45.4878H122.281V69.9035L121.328 70.0201C109.251 71.4958 97.9183 74.2009 87.644 78.0615L87.164 78.2416L57.222 60.955L28.6682 77.4403V96.9077L47.5532 107.811L47.0425 108.741C46.078 110.498 45.252 112.308 44.587 114.123L44.3259 114.834H2.1687V157.585H44.3259L44.587 158.296C45.2405 160.081 46.0687 161.89 47.0485 163.675L47.5587 164.605L28.6682 175.511V194.979L57.222 211.464L87.164 194.177L87.644 194.357C97.9166 198.217 109.249 200.923 121.328 202.399L122.281 202.515V226.932Z" fill="#BF89EF"/>
</g>
<mask id="mask8_10339_7134" style="mask-type:alpha" maskUnits="userSpaceOnUse" x="179" y="199" width="212" height="123">
<path d="M269.29 199.957V218.241C260.431 219.324 251.848 221.332 244.006 224.278L221.624 211.356L212.967 216.354L199.541 208.668V224.106L221.919 237.026C216.815 241.553 213.326 246.51 211.451 251.625H179.797V269.656H211.451C213.326 274.771 216.815 279.728 221.919 284.256L199.541 297.176L221.624 309.926L244.006 297.003C251.848 299.949 260.431 301.958 269.29 303.041V321.325H300.52V303.041C309.378 301.958 317.962 299.949 325.803 297.003L348.186 309.926L370.268 297.176L347.891 284.256C352.995 279.728 356.484 274.771 358.359 269.656H390.013V251.625H358.359C356.484 246.51 352.995 241.553 347.891 237.026L370.268 224.106L348.186 211.356L325.803 224.278C317.962 221.332 309.378 219.324 300.52 218.241V199.957H269.29Z" fill="black"/>
</mask>
<g mask="url(#mask8_10339_7134)">
<path d="M179.797 199.957H390.013V321.325H179.797V199.957Z" fill="url(#paint4_linear_10339_7134)"/>
</g>
<mask id="mask9_10339_7134" style="mask-type:alpha" maskUnits="userSpaceOnUse" x="0" y="0" width="586" height="323">
<path d="M0 0H585.117V322.409H0V0Z" fill="black"/>
</mask>
<g mask="url(#mask9_10339_7134)">
<path d="M199.541 281.738V297.176L212.91 289.457L199.541 281.738Z" fill="#614893"/>
<path d="M356.956 216.354L370.269 224.105V208.667L356.956 216.354Z" fill="#614893"/>
<path d="M356.956 289.425L370.269 297.176V281.738L356.956 289.425Z" fill="#614893"/>
</g>
<mask id="mask10_10339_7134" style="mask-type:alpha" maskUnits="userSpaceOnUse" x="179" y="184" width="212" height="122">
<path d="M269.29 184.519V202.804C260.431 203.887 251.848 205.895 244.006 208.841L221.624 195.918L199.541 208.668L221.919 221.588C216.815 226.116 213.326 231.072 211.451 236.188H179.797V254.219H211.451C213.326 259.334 216.815 264.291 221.919 268.819L199.541 281.739L221.624 294.489L244.006 281.566C251.848 284.512 260.431 286.52 269.29 287.603V305.888H300.52V287.603C309.378 286.52 317.962 284.512 325.803 281.566L348.186 294.489L370.268 281.739L347.891 268.819C352.995 264.291 356.484 259.334 358.359 254.219H390.013V236.188H358.359C356.484 231.072 352.995 226.116 347.891 221.588L370.268 208.668L348.186 195.918L325.803 208.841C317.962 205.895 309.378 203.887 300.52 202.804V184.519H269.29Z" fill="black"/>
</mask>
<g mask="url(#mask10_10339_7134)">
<path d="M179.797 184.519H390.013V305.888H179.797V184.519Z" fill="url(#paint5_linear_10339_7134)"/>
</g>
<mask id="mask11_10339_7134" style="mask-type:alpha" maskUnits="userSpaceOnUse" x="0" y="0" width="586" height="323">
<path d="M0 0H585.117V322.409H0V0Z" fill="black"/>
</mask>
<g mask="url(#mask11_10339_7134)">
<path d="M301.604 322.409H268.206V303.996C259.601 302.879 251.501 300.93 244.106 298.197L221.624 311.178L198.457 297.801V281.112L211.894 273.355C211.447 272.477 211.049 271.602 210.705 270.74H178.713V235.103H210.704C211.053 234.224 211.448 233.348 211.886 232.484L198.457 224.731V208.041L221.624 194.666L244.106 207.646C251.5 204.914 259.6 202.964 268.206 201.847V183.435H301.604V201.847C310.21 202.964 318.311 204.914 325.704 207.646L348.186 194.666L371.354 208.041V224.731L357.925 232.484C358.363 233.348 358.758 234.224 359.106 235.103H391.097V270.74H359.105C358.762 271.601 358.364 272.476 357.917 273.355L371.354 281.112V297.801L348.186 311.178L325.704 298.197C318.309 300.93 310.21 302.879 301.604 303.996V322.409ZM270.375 320.24H299.436V302.08L300.389 301.964C309.366 300.867 317.788 298.856 325.422 295.988L325.903 295.807L348.186 308.673L369.184 296.55V282.364L355.008 274.179L355.519 273.249C356.255 271.907 356.869 270.573 357.341 269.283L357.602 268.571H388.928V237.272H357.602L357.341 236.561C356.852 235.224 356.242 233.888 355.528 232.589L355.018 231.658L369.184 223.479V209.293L348.186 197.17L325.903 210.036L325.422 209.856C317.79 206.988 309.367 204.977 300.389 203.88L299.436 203.763V185.603H270.375V203.763L269.422 203.88C260.443 204.976 252.021 206.988 244.388 209.856L243.908 210.036L221.624 197.17L200.626 209.293V223.479L214.792 231.658L214.282 232.589C213.569 233.888 212.959 235.224 212.469 236.561L212.208 237.272H180.882V268.571H212.208L212.469 269.282C212.943 270.576 213.557 271.911 214.291 273.249L214.802 274.179L200.626 282.364V296.55L221.624 308.673L243.908 295.807L244.388 295.988C252.023 298.856 260.446 300.867 269.422 301.964L270.375 302.08V320.24Z" fill="#BF89EF"/>
<path d="M216.373 111.881V126.371V126.375V128.378H216.295C215.956 132.557 214.557 136.715 212.096 140.704C211.811 141.17 211.505 141.637 211.187 142.1C208.21 146.439 203.952 150.552 198.407 154.248C198.11 154.446 197.808 154.645 197.503 154.843C196.619 155.408 195.702 155.966 194.753 156.515C191.606 158.332 188.244 159.951 184.718 161.371C184.417 161.491 184.116 161.61 183.814 161.726C179.743 163.316 175.46 164.646 171.034 165.707C170.732 165.785 170.431 165.855 170.13 165.925C165.971 166.892 161.689 167.627 157.345 168.135C157.044 168.172 156.742 168.209 156.441 168.238C152.221 168.704 147.943 168.957 143.661 168.99C143.359 168.994 143.058 168.998 142.757 168.998C138.478 169.006 134.2 168.8 129.972 168.374C129.67 168.35 129.369 168.316 129.068 168.283C124.732 167.825 120.45 167.136 116.288 166.223C115.986 166.157 115.684 166.091 115.383 166.021C110.965 165.013 106.678 163.75 102.599 162.23C102.297 162.118 101.992 162.007 101.695 161.887C97.6807 160.351 93.8776 158.559 90.3388 156.515C89.856 156.234 89.3809 155.953 88.9145 155.669C88.6085 155.483 88.3075 155.297 88.0103 155.111C82.617 151.705 78.3518 147.913 75.2257 143.9C74.9077 143.499 74.6105 143.099 74.3215 142.694C71.0301 138.111 69.1888 133.259 68.7963 128.378H68.7136V111.881H73.0992C73.4791 111.27 73.888 110.663 74.3215 110.065C74.6105 109.656 74.9121 109.255 75.2257 108.854C76.3736 107.377 77.6785 105.931 79.1362 104.523C80.9201 102.801 82.9312 101.133 85.1776 99.5386C86.7797 98.399 88.5012 97.2928 90.3388 96.2314C119.17 79.5863 165.918 79.5863 194.753 96.2314C196.59 97.2928 198.308 98.3952 199.91 99.5386C202.152 101.133 204.167 102.797 205.951 104.523C207.999 106.501 209.746 108.557 211.187 110.663C211.468 111.068 211.732 111.473 211.988 111.881H216.373Z" fill="#FF9D4D"/>
<path d="M142.544 84.6524C162.109 84.6524 180.49 89.0429 194.3 97.0148C196.097 98.0527 197.808 99.1496 199.386 100.277C201.575 101.832 203.572 103.48 205.323 105.174C207.302 107.085 209.024 109.104 210.444 111.179C210.699 111.547 210.953 111.933 211.221 112.362L211.487 112.786H211.988H215.469V126.375V127.474H215.461L215.393 128.305C215.064 132.377 213.695 136.389 211.323 140.233C211.062 140.66 210.766 141.115 210.441 141.588C207.462 145.932 203.244 149.938 197.905 153.496C197.611 153.692 197.313 153.888 197.014 154.081C196.146 154.637 195.233 155.193 194.3 155.732C191.243 157.497 187.905 159.112 184.384 160.531C184.086 160.649 183.788 160.767 183.484 160.884C179.488 162.444 175.227 163.771 170.806 164.831C170.513 164.907 170.221 164.976 169.925 165.045C165.851 165.991 161.583 166.728 157.235 167.237C156.941 167.273 156.648 167.31 156.341 167.339C152.159 167.801 147.89 168.053 143.648 168.085C143.351 168.089 143.054 168.093 142.754 168.093L142.51 168.094C138.335 168.094 134.147 167.885 130.046 167.473C129.753 167.449 129.459 167.417 129.162 167.384C124.862 166.929 120.595 166.241 116.481 165.339C116.184 165.274 115.886 165.209 115.584 165.139C111.162 164.13 106.899 162.867 102.913 161.382L102.804 161.341C102.546 161.246 102.286 161.15 102.018 161.042C98.0217 159.513 94.2448 157.726 90.7936 155.733C90.3158 155.455 89.8467 155.178 89.3841 154.895C89.082 154.712 88.7837 154.528 88.4936 154.346C83.288 151.058 79.0639 147.356 75.9341 143.338C75.6549 142.986 75.3681 142.604 75.0561 142.167C71.8851 137.75 70.0826 133.087 69.6978 128.306L69.631 127.474H69.6184V112.786H73.0992H73.6017L73.8672 112.359C74.2317 111.773 74.6313 111.179 75.0599 110.587C75.3232 110.215 75.61 109.831 75.9401 109.41C77.0567 107.972 78.3436 106.546 79.7646 105.174C81.5414 103.459 83.5387 101.811 85.702 100.276C87.2981 99.1403 89.0108 98.0434 90.7909 97.0148C104.6 89.0429 122.979 84.6524 142.544 84.6524ZM142.544 83.7476C123.649 83.7476 104.754 87.9087 90.3388 96.2315C88.5012 97.2929 86.7797 98.3991 85.1776 99.5388C82.9312 101.133 80.9201 102.801 79.1362 104.523C77.6785 105.931 76.3736 107.377 75.2257 108.855C74.9121 109.255 74.6105 109.656 74.3215 110.065C73.888 110.664 73.4791 111.27 73.0992 111.882H68.7136V128.378H68.7963C69.1888 133.259 71.0301 138.111 74.3215 142.694C74.6105 143.099 74.9077 143.5 75.2257 143.9C78.3513 147.914 82.617 151.705 88.0103 155.111C88.3075 155.297 88.6085 155.483 88.9145 155.669C89.3809 155.953 89.856 156.234 90.3388 156.515C93.8776 158.559 97.6807 160.351 101.695 161.887C101.992 162.007 102.297 162.118 102.599 162.23C106.678 163.75 110.965 165.013 115.383 166.021C115.684 166.091 115.986 166.157 116.288 166.223C120.45 167.136 124.732 167.825 129.068 168.284C129.369 168.317 129.67 168.35 129.972 168.374C134.119 168.792 138.314 168.998 142.51 168.998C142.592 168.998 142.674 168.998 142.757 168.998C143.058 168.998 143.359 168.994 143.661 168.99C147.943 168.957 152.221 168.705 156.441 168.238C156.742 168.209 157.044 168.172 157.345 168.135C161.689 167.627 165.971 166.892 170.13 165.926C170.431 165.855 170.732 165.785 171.034 165.707C175.46 164.646 179.743 163.316 183.814 161.727C184.116 161.611 184.417 161.491 184.718 161.371C188.244 159.951 191.606 158.332 194.753 156.515C195.702 155.966 196.619 155.408 197.503 154.843C197.808 154.645 198.11 154.446 198.407 154.248C203.952 150.553 208.21 146.44 211.187 142.1C211.505 141.637 211.811 141.171 212.096 140.704C214.557 136.715 215.956 132.557 216.295 128.378H216.373V126.375V126.371V111.882H211.988C211.732 111.473 211.468 111.068 211.187 110.664C209.746 108.557 207.999 106.501 205.951 104.523C204.167 102.797 202.152 101.133 199.91 99.5388C198.308 98.3953 196.59 97.2929 194.753 96.2315C180.335 87.9087 161.439 83.7476 142.544 83.7476Z" fill="#FFE840"/>
<path d="M194.751 81.2876C223.583 97.9343 223.583 124.924 194.751 141.57C165.918 158.217 119.171 158.217 90.3382 141.57C61.5058 124.924 61.5058 97.9343 90.3382 81.2876C119.171 64.6408 165.918 64.6408 194.751 81.2876Z" fill="#FFE840"/>
<path d="M205.951 104.523C203.589 97.206 197.474 90.4711 188.158 85.0948C175.972 78.0583 159.773 74.1851 142.546 74.1851C125.314 74.1851 109.115 78.0583 96.9335 85.0948C87.6177 90.4711 81.498 97.206 79.1361 104.523C78.4098 106.777 78.0381 109.086 78.0381 111.427C78.0381 118.588 81.5145 125.442 88.0102 131.343C88.3036 131.616 88.6046 131.88 88.9144 132.14C91.2391 134.143 93.9191 136.021 96.9335 137.764C98.4612 138.643 100.051 139.478 101.695 140.254C101.996 140.398 102.298 140.539 102.599 140.675C106.567 142.492 110.858 144.016 115.383 145.226C115.685 145.308 115.986 145.391 116.288 145.469C120.38 146.518 124.657 147.323 129.068 147.856C129.369 147.897 129.671 147.935 129.972 147.967C134.068 148.434 138.276 148.67 142.546 148.67H142.756C143.058 148.67 143.359 148.665 143.661 148.661C148.009 148.62 152.283 148.335 156.441 147.806C156.742 147.769 157.044 147.732 157.345 147.687C161.763 147.096 166.046 146.229 170.13 145.114C170.435 145.032 170.737 144.949 171.034 144.858C175.576 143.57 179.862 141.959 183.814 140.052C184.116 139.911 184.421 139.763 184.718 139.609C185.895 139.023 187.043 138.408 188.158 137.764C191.763 135.683 194.889 133.395 197.503 130.955C197.813 130.666 198.114 130.377 198.407 130.084C204.043 124.476 207.049 118.084 207.049 111.427C207.049 109.086 206.678 106.777 205.951 104.523ZM198.407 125.512C198.118 125.897 197.816 126.28 197.503 126.66C194.604 130.154 190.652 133.424 185.648 136.315C185.342 136.492 185.032 136.666 184.718 136.839C184.421 137.005 184.119 137.169 183.814 137.326C179.879 139.424 175.58 141.162 171.034 142.546C170.737 142.636 170.431 142.727 170.13 142.814C166.025 144.016 161.734 144.933 157.345 145.56C157.048 145.605 156.746 145.647 156.441 145.684C152.241 146.25 147.955 146.555 143.661 146.597C143.359 146.601 143.058 146.605 142.756 146.605C138.47 146.613 134.18 146.365 129.972 145.853C129.671 145.816 129.365 145.779 129.068 145.738C124.691 145.172 120.401 144.321 116.288 143.19C115.986 143.107 115.681 143.025 115.383 142.938C110.858 141.641 106.559 139.998 102.599 138.012C102.293 137.859 101.992 137.706 101.695 137.549C100.93 137.153 100.179 136.74 99.4443 136.315C95.1622 133.841 91.6524 131.091 88.9144 128.163C88.6046 127.829 88.3036 127.494 88.0102 127.156C80.5692 118.538 79.6233 108.512 85.1775 99.5389C88.1175 94.7904 92.8703 90.3392 99.4443 86.5442C123.209 72.8226 161.879 72.8226 185.648 86.5442C192.221 90.3392 196.974 94.7904 199.91 99.5389C205.113 107.947 204.613 117.279 198.407 125.512Z" fill="#FF9D4D"/>
<path d="M144.907 105.418L151.859 109.432C151.702 109.508 151.547 109.59 151.396 109.677L147.58 111.879L141.084 108.129L143.23 106.89C143.997 106.446 144.557 105.955 144.907 105.418Z" fill="#D1975D"/>
<path d="M165.699 122.341L165.7 122.341L172.824 126.454L177.083 123.995L169.94 119.871C170.002 119.831 170.068 119.793 170.13 119.748C170.443 119.554 170.745 119.352 171.034 119.149C172.045 118.435 172.917 117.691 173.656 116.92C174.829 115.693 175.584 114.454 175.919 113.203C176.257 111.952 176.109 110.734 175.473 109.54C174.837 108.347 173.627 107.232 171.839 106.2C171.571 106.047 171.302 105.898 171.034 105.758C170.737 105.601 170.435 105.457 170.13 105.316C167.829 104.251 165.381 103.619 162.779 103.413C160.95 103.272 159.142 103.326 157.345 103.574C157.044 103.615 156.742 103.664 156.441 103.718C155.347 103.912 154.261 104.176 153.183 104.515C154.293 102.863 154.463 101.22 153.691 99.5761C152.915 97.9372 151.494 96.5206 149.429 95.3273C148.116 94.5714 146.588 93.9523 144.838 93.469C143.091 92.99 141.294 92.6967 139.445 92.5937C137.599 92.4903 135.761 92.5976 133.932 92.92C132.103 93.2418 130.455 93.8242 128.985 94.6749L127.643 95.451L120.779 91.488L116.52 93.9469L123.382 97.9082L118.203 100.902L111.339 96.9383L107.08 99.3976L113.941 103.359L106.34 107.748L115.383 112.972L116.288 113.492L129.068 120.871L129.972 121.396L142.756 128.775L143.661 129.299L148.653 132.181L156.259 127.792H156.26L163.384 131.904L167.642 129.445L160.518 125.332L160.52 125.331L165.699 122.341ZM151.395 109.677C151.548 109.59 151.7 109.507 151.858 109.433C152.452 109.148 153.105 108.933 153.806 108.801C154.657 108.636 155.536 108.574 156.441 108.607C156.486 108.607 156.536 108.611 156.581 108.611C156.837 108.624 157.089 108.644 157.345 108.669C158.043 108.743 158.745 108.872 159.443 109.057C160.392 109.309 161.252 109.656 162.003 110.089C162.759 110.527 163.333 111.018 163.733 111.568C164.13 112.121 164.336 112.679 164.356 113.24C164.377 113.802 164.2 114.351 163.824 114.892C163.593 115.218 163.291 115.528 162.92 115.817C162.736 115.962 162.528 116.102 162.309 116.238C162.247 116.276 162.188 116.315 162.124 116.353L158.842 118.248L158.724 118.315L157.345 119.112L156.441 119.632L153.546 121.305L149.905 123.406L138.761 116.972L139.951 116.285L142.399 114.871L142.398 114.871L142.756 114.665L143.661 114.144L147.579 111.882L151.395 109.677ZM129.068 102.748L129.972 102.223L130.413 101.968L130.415 101.969L132.919 100.524C133.064 100.44 133.223 100.378 133.375 100.305C133.886 100.056 134.423 99.8448 135.01 99.7041C135.819 99.5104 136.703 99.4233 137.656 99.4398C139.461 99.4731 141.162 99.9357 142.756 100.836C142.794 100.856 142.835 100.881 142.872 100.902C143.161 101.067 143.421 101.236 143.661 101.41C144.8 102.227 145.362 103.095 145.345 104.015C145.337 104.515 145.193 104.981 144.908 105.419C144.627 105.848 144.21 106.253 143.661 106.621C143.524 106.712 143.384 106.802 143.232 106.889L142.756 107.162L141.084 108.128L135.903 111.121L135.902 111.12L134.489 111.937L132.264 113.219L131.029 112.508L129.649 111.711L129.068 111.374L126.459 109.869L121.596 107.061L122.947 106.281L125.234 104.961L125.233 104.96L129.068 102.748Z" fill="#FF9D4D"/>
<path d="M77.1526 130.818V145.758C76.8345 145.358 76.5373 144.957 76.2483 144.553V129.609C76.5373 130.013 76.8389 130.418 77.1526 130.818Z" fill="#FFE840"/>
<path d="M88.9145 140.724V155.668C88.6091 155.483 88.3075 155.296 88.0103 155.111V140.163C88.3075 140.353 88.6091 140.539 88.9145 140.724Z" fill="#FFE840"/>
<path d="M102.599 147.282V162.23C102.297 162.119 101.992 162.007 101.695 161.887V146.943C101.992 147.059 102.297 147.175 102.599 147.282Z" fill="#FFE840"/>
<path d="M116.288 151.279V166.223C115.986 166.156 115.685 166.091 115.383 166.02V151.072C115.685 151.142 115.986 151.212 116.288 151.279Z" fill="#FFE840"/>
<path d="M129.972 153.431V168.375C129.67 168.35 129.369 168.317 129.068 168.284V153.34C129.369 153.373 129.67 153.406 129.972 153.431Z" fill="#FFE840"/>
<path d="M143.661 154.046V168.99C143.359 168.994 143.058 168.998 142.756 168.998V154.054C143.058 154.054 143.359 154.05 143.661 154.046Z" fill="#FFE840"/>
<path d="M157.345 153.191V168.135C157.044 168.172 156.743 168.209 156.441 168.238V153.294C156.743 153.265 157.044 153.228 157.345 153.191Z" fill="#FFE840"/>
<path d="M171.034 150.763V165.707C170.732 165.785 170.431 165.856 170.13 165.926V150.978C170.431 150.907 170.732 150.837 171.034 150.763Z" fill="#FFE840"/>
<path d="M184.718 146.427V161.371C184.417 161.491 184.116 161.61 183.814 161.726V146.778C184.116 146.667 184.417 146.547 184.718 146.427Z" fill="#FFE840"/>
<path d="M198.407 139.304V154.248C198.11 154.446 197.808 154.644 197.503 154.842V139.895C197.808 139.7 198.11 139.502 198.407 139.304Z" fill="#FFE840"/>
<path d="M210.547 127.257V142.201C210.262 142.668 209.957 143.134 209.639 143.597V128.653C209.957 128.19 210.258 127.724 210.547 127.257Z" fill="#FFE840"/>
<path d="M493.295 69.795V84.2846V84.2889V86.2912H493.217C492.878 90.4704 491.479 94.6288 489.018 98.6176C488.733 99.0839 488.427 99.5508 488.109 100.013C485.132 104.353 480.874 108.466 475.329 112.162C475.032 112.36 474.73 112.558 474.425 112.756C473.541 113.322 472.624 113.879 471.674 114.428C468.528 116.246 465.166 117.864 461.64 119.285C461.339 119.405 461.037 119.524 460.736 119.64C456.665 121.23 452.382 122.559 447.956 123.621C447.654 123.699 447.353 123.769 447.051 123.839C442.893 124.806 438.611 125.541 434.267 126.049C433.965 126.085 433.664 126.123 433.363 126.152C429.143 126.618 424.865 126.87 420.583 126.903C420.281 126.908 419.979 126.911 419.678 126.911C415.4 126.92 411.122 126.713 406.894 126.288C406.592 126.263 406.291 126.23 405.99 126.197C401.654 125.739 397.372 125.049 393.21 124.137C392.908 124.071 392.606 124.004 392.305 123.934C387.887 122.926 383.6 121.663 379.521 120.144C379.219 120.032 378.914 119.92 378.617 119.801C374.603 118.265 370.799 116.472 367.261 114.428C366.778 114.148 366.303 113.867 365.836 113.582C365.53 113.396 365.229 113.211 364.932 113.024C359.539 109.618 355.274 105.827 352.148 101.814C351.83 101.413 351.532 101.012 351.243 100.608C347.952 96.0241 346.111 91.1722 345.718 86.2912H345.635V69.795H350.021C350.401 69.1841 350.81 68.5771 351.243 67.9782C351.532 67.5693 351.834 67.1687 352.148 66.768C353.296 65.2901 354.6 63.8445 356.058 62.4366C357.842 60.7146 359.853 59.0462 362.099 57.4522C363.702 56.3126 365.423 55.2063 367.261 54.145C396.091 37.4999 442.839 37.4999 471.674 54.145C473.512 55.2063 475.23 56.3087 476.832 57.4522C479.074 59.0462 481.089 60.7107 482.873 62.4366C484.921 64.4143 486.668 66.4708 488.109 68.5771C488.39 68.9816 488.654 69.3861 488.91 69.795H493.295Z" fill="#FF9D4D"/>
<path d="M419.466 42.5659C439.031 42.5659 457.412 46.9564 471.222 54.9284C473.018 55.9662 474.729 57.0632 476.308 58.1902C478.498 59.7464 480.494 61.394 482.244 63.0876C484.224 64.999 485.946 67.0183 487.366 69.0928C487.622 69.4618 487.876 69.8488 488.143 70.2752L488.409 70.6999H488.91H492.391V84.2891V85.3871H492.382L492.315 86.2185C491.985 90.2905 490.616 94.3027 488.245 98.1464C487.985 98.5717 487.689 99.0277 487.363 99.5017C484.383 103.845 480.165 107.851 474.827 111.409C474.533 111.605 474.235 111.801 473.937 111.994C473.068 112.551 472.154 113.106 471.222 113.645C468.165 115.411 464.827 117.026 461.306 118.444C461.008 118.562 460.71 118.681 460.407 118.797C456.409 120.358 452.149 121.685 447.728 122.745C447.434 122.822 447.14 122.89 446.847 122.958C442.773 123.905 438.505 124.642 434.156 125.151C433.863 125.187 433.57 125.223 433.263 125.253C429.081 125.715 424.812 125.966 420.57 125.999C420.273 126.003 419.976 126.007 419.677 126.007L419.43 126.007C415.257 126.007 411.069 125.799 406.968 125.386C406.678 125.362 406.387 125.331 406.085 125.298C401.784 124.843 397.517 124.155 393.399 123.252C393.103 123.187 392.807 123.123 392.506 123.052C388.083 122.044 383.821 120.78 379.834 119.295L379.728 119.256C379.469 119.16 379.209 119.064 378.94 118.956C374.944 117.427 371.167 115.64 367.715 113.646C367.238 113.369 366.769 113.092 366.306 112.809C366.004 112.626 365.705 112.442 365.415 112.26C360.21 108.972 355.986 105.27 352.856 101.251C352.576 100.899 352.289 100.517 351.978 100.08C348.807 95.6635 347.004 91.0004 346.62 86.2191L346.553 85.3871H346.54V70.6999H350.021H350.524L350.79 70.2724C351.154 69.6862 351.553 69.0928 351.982 68.5006C352.245 68.1284 352.532 67.7446 352.862 67.3232C353.978 65.8858 355.265 64.4609 356.686 63.0876C358.464 61.3721 360.461 59.7245 362.624 58.1897C364.219 57.055 365.932 55.9575 367.713 54.9284C381.521 46.9564 399.901 42.5659 419.466 42.5659ZM419.466 41.6611C400.571 41.6611 381.676 45.8223 367.261 54.1451C365.423 55.2065 363.701 56.3127 362.099 57.4524C359.853 59.0469 357.842 60.7147 356.058 62.4368C354.6 63.8446 353.295 65.2902 352.148 66.7681C351.834 67.1688 351.532 67.5695 351.243 67.9784C350.81 68.5772 350.401 69.1842 350.021 69.7951H345.636V86.2913H345.718C346.111 91.1723 347.952 96.0242 351.243 100.608C351.532 101.012 351.83 101.413 352.148 101.814C355.274 105.827 359.539 109.618 364.932 113.025C365.229 113.211 365.531 113.396 365.836 113.582C366.303 113.867 366.778 114.148 367.261 114.429C370.799 116.472 374.602 118.265 378.616 119.801C378.914 119.92 379.219 120.032 379.521 120.144C383.6 121.663 387.887 122.927 392.305 123.934C392.606 124.004 392.908 124.071 393.209 124.137C397.372 125.049 401.654 125.739 405.99 126.197C406.291 126.23 406.592 126.263 406.894 126.288C411.041 126.705 415.235 126.912 419.43 126.912C419.513 126.912 419.596 126.911 419.678 126.911C419.979 126.911 420.281 126.908 420.583 126.903C424.865 126.87 429.142 126.618 433.363 126.152C433.664 126.123 433.965 126.086 434.267 126.049C438.611 125.541 442.893 124.806 447.051 123.84C447.353 123.769 447.654 123.699 447.956 123.621C452.382 122.559 456.664 121.23 460.736 119.64C461.037 119.524 461.338 119.405 461.64 119.285C465.166 117.864 468.528 116.246 471.675 114.429C472.624 113.88 473.541 113.322 474.425 112.756C474.73 112.558 475.032 112.36 475.329 112.162C480.874 108.466 485.132 104.353 488.109 100.013C488.427 99.5509 488.732 99.084 489.018 98.6177C491.479 94.629 492.878 90.4706 493.217 86.2913H493.295V84.2891V84.2847V69.7951H488.91C488.654 69.3862 488.39 68.9817 488.109 68.5772C486.668 66.4709 484.921 64.4144 482.873 62.4368C481.089 60.7109 479.074 59.0469 476.832 57.4524C475.23 56.3089 473.512 55.2065 471.675 54.1451C457.257 45.8223 438.361 41.6611 419.466 41.6611Z" fill="#FFE840"/>
<path d="M471.673 39.201C500.506 55.8478 500.506 82.8372 471.673 99.4834C442.841 116.13 396.094 116.13 367.261 99.4834C338.428 82.8372 338.428 55.8478 367.261 39.201C396.094 22.5548 442.841 22.5548 471.673 39.201Z" fill="#FFE840"/>
<path d="M482.873 62.4367C480.511 55.1193 474.396 48.3844 465.08 43.0081C452.894 35.9716 436.695 32.0984 419.468 32.0984C402.236 32.0984 386.037 35.9716 373.855 43.0081C364.54 48.3844 358.42 55.1193 356.058 62.4367C355.331 64.6913 354.96 66.9996 354.96 69.3407C354.96 76.5009 358.436 83.3557 364.932 89.2564C365.225 89.529 365.527 89.7933 365.836 90.0534C368.161 92.0562 370.841 93.9348 373.855 95.6776C375.383 96.5567 376.973 97.3909 378.616 98.1676C378.918 98.3116 379.219 98.4523 379.521 98.5886C383.489 100.405 387.779 101.929 392.305 103.139C392.607 103.222 392.908 103.304 393.209 103.382C397.302 104.431 401.579 105.236 405.989 105.769C406.291 105.811 406.593 105.848 406.894 105.881C410.99 106.348 415.198 106.583 419.468 106.583H419.678C419.98 106.583 420.281 106.579 420.583 106.575C424.931 106.533 429.205 106.249 433.363 105.72C433.664 105.683 433.966 105.645 434.267 105.6C438.685 105.01 442.967 104.142 447.051 103.028C447.357 102.945 447.658 102.862 447.956 102.772C452.498 101.483 456.784 99.8727 460.736 97.9651C461.037 97.8244 461.343 97.6761 461.64 97.5234C462.817 96.9366 463.965 96.3214 465.08 95.6776C468.685 93.596 471.811 91.3085 474.425 88.8683C474.734 88.5793 475.036 88.2903 475.329 87.9969C480.965 82.3896 483.971 75.9973 483.971 69.3407C483.971 66.9996 483.6 64.6913 482.873 62.4367ZM475.329 83.4257C475.04 83.81 474.738 84.1937 474.425 84.5736C471.526 88.0669 467.574 91.3375 462.569 94.2282C462.264 94.4055 461.954 94.579 461.64 94.7526C461.343 94.9173 461.041 95.0826 460.736 95.2397C456.801 97.3373 452.502 99.0757 447.956 100.459C447.658 100.55 447.353 100.641 447.051 100.727C442.947 101.929 438.656 102.846 434.267 103.473C433.97 103.519 433.668 103.56 433.363 103.598C429.163 104.163 424.877 104.468 420.583 104.51C420.281 104.514 419.98 104.518 419.678 104.518C415.392 104.527 411.101 104.279 406.894 103.767C406.593 103.73 406.287 103.692 405.989 103.651C401.613 103.085 397.322 102.235 393.209 101.103C392.908 101.021 392.602 100.938 392.305 100.851C387.779 99.5547 383.481 97.9115 379.521 95.9251C379.215 95.7723 378.914 95.6196 378.616 95.4625C377.852 95.0662 377.101 94.6535 376.366 94.2282C372.084 91.7546 368.574 89.0046 365.836 86.0767C365.527 85.7422 365.225 85.4078 364.932 85.069C357.491 76.4511 356.545 66.4254 362.099 57.4523C365.039 52.7038 369.792 48.2525 376.366 44.4576C400.13 30.736 438.801 30.736 462.569 44.4576C469.143 48.2525 473.896 52.7038 476.832 57.4523C482.035 65.8599 481.535 75.1916 475.329 83.4257Z" fill="#FF9D4D"/>
<path d="M421.829 63.3315L428.781 67.3454C428.624 67.421 428.469 67.5031 428.318 67.5907L424.502 69.7928L418.006 66.0427L420.152 64.8029C420.919 64.3606 421.479 63.8696 421.829 63.3315Z" fill="#D1975D"/>
<path d="M442.621 80.2549L442.622 80.2538L449.746 84.3674L454.005 81.9086L446.862 77.7846C446.924 77.7436 446.99 77.7069 447.052 77.6615C447.365 77.4672 447.667 77.2652 447.956 77.0626C448.967 76.3483 449.839 75.605 450.578 74.8332C451.751 73.6065 452.506 72.3678 452.841 71.1165C453.18 69.8652 453.031 68.6473 452.395 67.454C451.759 66.2602 450.549 65.1458 448.761 64.1134C448.493 63.9601 448.224 63.8118 447.956 63.6717C447.659 63.5146 447.357 63.3701 447.052 63.2294C444.752 62.1642 442.303 61.5325 439.702 61.3262C437.872 61.1855 436.064 61.2391 434.267 61.4871C433.966 61.5282 433.665 61.578 433.363 61.6316C432.269 61.8254 431.183 62.0898 430.105 62.4286C431.216 60.7766 431.385 59.1334 430.613 57.4896C429.837 55.8508 428.416 54.4342 426.351 53.2409C425.038 52.485 423.51 51.8659 421.76 51.3826C420.013 50.9036 418.217 50.6102 416.367 50.5073C414.521 50.4039 412.684 50.5111 410.854 50.8335C409.025 51.1554 407.377 51.7378 405.907 52.5884L404.566 53.3646L397.701 49.4016L393.442 51.8604L400.304 55.8218L395.125 58.8154L388.261 54.8518L384.002 57.3112L390.864 61.2725L383.262 65.6619L392.305 70.885L393.21 71.4055L405.99 78.7847L406.894 79.3091L419.679 86.6882L420.583 87.2126L425.575 90.0946L433.181 85.7052H433.182L440.306 89.8181L444.564 87.3588L437.44 83.2458L437.443 83.2442L442.621 80.2549ZM428.317 67.5903C428.47 67.5033 428.623 67.4207 428.779 67.3468C429.374 67.0616 430.027 66.847 430.728 66.7145C431.579 66.5492 432.459 66.4874 433.363 66.5208C433.408 66.5208 433.458 66.5246 433.503 66.5246C433.759 66.5372 434.011 66.558 434.267 66.5826C434.965 66.6571 435.667 66.7852 436.365 66.9707C437.315 67.2225 438.174 67.5695 438.925 68.0031C439.681 68.441 440.255 68.9319 440.655 69.4815C441.052 70.0349 441.258 70.5921 441.279 71.1537C441.299 71.7154 441.122 72.2644 440.746 72.8052C440.515 73.1314 440.213 73.4412 439.842 73.7302C439.658 73.8753 439.45 74.0154 439.231 74.1512C439.169 74.1895 439.11 74.2289 439.046 74.2661L435.764 76.1611L435.647 76.2285L434.267 77.0254L433.363 77.546L430.468 79.2182L426.827 81.3196L415.683 74.8852L416.873 74.1982L419.321 72.7844H419.321L419.679 72.5786L420.583 72.058L424.501 69.7952L428.317 67.5903ZM405.99 60.6611L406.894 60.1367L407.335 59.8811L407.337 59.8827L409.841 58.4366C409.986 58.3534 410.145 58.2921 410.297 58.2182C410.808 57.9697 411.345 57.7578 411.932 57.6177C412.741 57.4239 413.625 57.3369 414.579 57.3533C416.383 57.3867 418.085 57.8493 419.679 58.7491C419.716 58.7699 419.757 58.7946 419.794 58.8154C420.083 58.9807 420.343 59.1498 420.583 59.3233C421.722 60.1406 422.284 61.0082 422.268 61.9288C422.259 62.4286 422.115 62.895 421.83 63.3329C421.549 63.762 421.132 64.1671 420.583 64.5343C420.447 64.6252 420.306 64.7161 420.153 64.8025L419.679 65.0751L418.006 66.0418L412.825 69.0343L412.825 69.0338L411.411 69.8499L409.186 71.1329L407.952 70.4214L406.571 69.6244L405.99 69.2872L403.381 67.7825L398.518 64.975L399.869 64.1944L402.156 62.8742L402.155 62.8736L405.99 60.6611Z" fill="#FF9D4D"/>
<path d="M354.075 88.7321V103.672C353.757 103.272 353.46 102.871 353.171 102.466V87.5225C353.46 87.927 353.761 88.3315 354.075 88.7321Z" fill="#FFE840"/>
<path d="M365.836 98.6385V113.582C365.531 113.397 365.229 113.211 364.932 113.025V98.0769C365.229 98.2668 365.531 98.4529 365.836 98.6385Z" fill="#FFE840"/>
<path d="M379.521 105.196V120.143C379.219 120.032 378.914 119.921 378.616 119.801V104.857C378.914 104.972 379.219 105.088 379.521 105.196Z" fill="#FFE840"/>
<path d="M393.209 109.193V124.137C392.908 124.071 392.607 124.005 392.305 123.935V108.987C392.607 109.057 392.908 109.127 393.209 109.193Z" fill="#FFE840"/>
<path d="M406.894 111.344V126.288C406.592 126.263 406.291 126.23 405.99 126.197V111.253C406.291 111.286 406.592 111.319 406.894 111.344Z" fill="#FFE840"/>
<path d="M420.582 111.959V126.903C420.281 126.907 419.98 126.911 419.678 126.911V111.967C419.98 111.967 420.281 111.964 420.582 111.959Z" fill="#FFE840"/>
<path d="M434.267 111.105V126.049C433.965 126.086 433.664 126.123 433.363 126.152V111.208C433.664 111.179 433.965 111.142 434.267 111.105Z" fill="#FFE840"/>
<path d="M447.956 108.677V123.621C447.654 123.699 447.353 123.77 447.052 123.84V108.891C447.353 108.821 447.654 108.751 447.956 108.677Z" fill="#FFE840"/>
<path d="M461.64 104.341V119.285C461.339 119.405 461.037 119.524 460.736 119.64V104.692C461.037 104.581 461.339 104.461 461.64 104.341Z" fill="#FFE840"/>
<path d="M475.329 97.2178V112.162C475.032 112.36 474.73 112.558 474.425 112.757V97.8084C474.73 97.6141 475.032 97.4159 475.329 97.2178Z" fill="#FFE840"/>
<path d="M487.469 85.1707V100.115C487.184 100.581 486.878 101.048 486.56 101.51V86.5665C486.878 86.1039 487.18 85.6376 487.469 85.1707Z" fill="#FFE840"/>
<path d="M361.078 229.169V243.658V243.663V245.666H361C360.661 249.844 359.261 254.003 356.8 257.991C356.515 258.458 356.21 258.925 355.892 259.387C352.914 263.727 348.657 267.84 343.112 271.536C342.814 271.734 342.513 271.932 342.207 272.13C341.323 272.695 340.407 273.253 339.457 273.802C336.31 275.62 332.95 277.238 329.423 278.659C329.121 278.778 328.82 278.898 328.519 279.014C324.447 280.603 320.165 281.933 315.738 282.994C315.437 283.073 315.135 283.143 314.834 283.213C310.676 284.179 306.394 284.915 302.05 285.422C301.748 285.459 301.447 285.496 301.145 285.525C296.925 285.992 292.647 286.244 288.365 286.277C288.064 286.281 287.762 286.285 287.461 286.285C283.183 286.293 278.905 286.087 274.677 285.662C274.375 285.637 274.074 285.604 273.772 285.571C269.437 285.113 265.154 284.423 260.992 283.51C260.691 283.444 260.389 283.378 260.088 283.308C255.67 282.3 251.383 281.037 247.303 279.517C247.002 279.406 246.696 279.294 246.399 279.175C242.385 277.638 238.582 275.846 235.043 273.802C234.561 273.521 234.085 273.241 233.619 272.956C233.313 272.77 233.012 272.584 232.715 272.398C227.322 268.992 223.056 265.201 219.93 261.187C219.612 260.787 219.315 260.386 219.026 259.982C215.735 255.398 213.893 250.546 213.501 245.666H213.418V229.169H217.804C218.184 228.558 218.593 227.95 219.026 227.352C219.315 226.943 219.617 226.542 219.93 226.142C221.078 224.664 222.383 223.218 223.841 221.81C225.625 220.088 227.636 218.42 229.882 216.826C231.484 215.686 233.206 214.58 235.043 213.519C263.874 196.874 310.622 196.874 339.457 213.519C341.295 214.58 343.012 215.683 344.615 216.826C346.857 218.42 348.872 220.085 350.655 221.81C352.704 223.788 354.45 225.845 355.892 227.95C356.172 228.355 356.437 228.76 356.693 229.169H361.078Z" fill="#FF9D4D"/>
<path d="M287.249 201.94C306.814 201.94 325.194 206.33 339.005 214.302C340.801 215.34 342.512 216.437 344.09 217.564C346.28 219.12 348.277 220.768 350.027 222.461C352.006 224.373 353.729 226.392 355.148 228.467C355.404 228.836 355.659 229.223 355.926 229.649L356.192 230.074H356.693H360.173V243.663V244.761H360.165L360.098 245.592C359.768 249.665 358.399 253.677 356.028 257.52C355.767 257.948 355.47 258.403 355.146 258.876C352.166 263.219 347.948 267.225 342.61 270.783C342.315 270.979 342.017 271.175 341.719 271.368C340.851 271.924 339.938 272.479 339.005 273.019C335.948 274.784 332.61 276.4 329.087 277.818C328.79 277.937 328.492 278.055 328.19 278.171C324.193 279.732 319.932 281.058 315.51 282.119C315.216 282.195 314.923 282.264 314.629 282.332C310.555 283.279 306.288 284.016 301.939 284.524C301.646 284.561 301.352 284.597 301.046 284.627C296.863 285.089 292.594 285.34 288.336 285.373C288.044 285.377 287.752 285.381 287.459 285.381H287.215C283.04 285.381 278.853 285.172 274.75 284.76C274.46 284.736 274.17 284.704 273.867 284.672C269.566 284.217 265.3 283.529 261.185 282.627C260.888 282.562 260.59 282.496 260.289 282.426C255.867 281.418 251.604 280.154 247.617 278.669L247.508 278.629C247.25 278.533 246.991 278.438 246.722 278.33C242.726 276.8 238.949 275.014 235.498 273.02C235.02 272.743 234.551 272.466 234.089 272.183C233.787 271.999 233.488 271.815 233.198 271.634C227.992 268.346 223.769 264.644 220.639 260.625C220.361 260.275 220.074 259.892 219.761 259.454C216.59 255.038 214.787 250.374 214.402 245.593L214.336 244.761H214.323V230.074H217.804H218.306L218.572 229.647C218.936 229.061 219.336 228.467 219.764 227.874C220.027 227.503 220.315 227.118 220.645 226.697C221.761 225.259 223.048 223.834 224.469 222.461C226.246 220.746 228.243 219.098 230.407 217.563C232.002 216.428 233.715 215.331 235.495 214.302C249.304 206.33 267.684 201.94 287.249 201.94ZM287.249 201.035C268.353 201.035 249.459 205.196 235.043 213.519C233.206 214.58 231.484 215.687 229.882 216.827C227.635 218.421 225.625 220.088 223.841 221.811C222.383 223.218 221.078 224.664 219.93 226.142C219.616 226.543 219.315 226.943 219.026 227.352C218.593 227.951 218.184 228.558 217.804 229.169H213.418V245.666H213.501C213.893 250.546 215.735 255.398 219.026 259.982C219.315 260.386 219.612 260.787 219.93 261.188C223.056 265.201 227.322 268.992 232.714 272.398C233.012 272.584 233.313 272.77 233.619 272.956C234.085 273.241 234.56 273.522 235.043 273.802C238.582 275.847 242.385 277.638 246.399 279.175C246.696 279.295 247.002 279.406 247.303 279.518C251.383 281.037 255.67 282.301 260.087 283.308C260.389 283.378 260.691 283.444 260.992 283.511C265.154 284.423 269.437 285.113 273.772 285.571C274.073 285.604 274.375 285.637 274.677 285.662C278.824 286.079 283.019 286.286 287.215 286.286C287.297 286.286 287.379 286.286 287.461 286.285C287.762 286.285 288.064 286.281 288.365 286.277C292.647 286.244 296.925 285.992 301.145 285.526C301.447 285.497 301.748 285.46 302.05 285.422C306.394 284.915 310.676 284.18 314.834 283.213C315.135 283.143 315.437 283.073 315.738 282.994C320.164 281.933 324.447 280.604 328.519 279.014C328.82 278.898 329.121 278.778 329.423 278.659C332.949 277.238 336.31 275.62 339.457 273.802C340.406 273.253 341.323 272.696 342.207 272.13C342.513 271.932 342.814 271.734 343.112 271.536C348.657 267.84 352.914 263.727 355.892 259.387C356.21 258.925 356.515 258.458 356.8 257.991C359.261 254.003 360.661 249.844 360.999 245.666H361.078V243.663V243.658V229.169H356.693C356.437 228.76 356.172 228.355 355.892 227.951C354.45 225.845 352.704 223.788 350.655 221.811C348.872 220.085 346.857 218.421 344.615 216.827C343.012 215.683 341.294 214.58 339.457 213.519C325.039 205.196 306.144 201.035 287.249 201.035Z" fill="#FFE840"/>
<path d="M339.455 198.575C368.288 215.221 368.288 242.211 339.455 258.857C310.623 275.504 263.876 275.504 235.043 258.857C206.211 242.211 206.211 215.221 235.043 198.575C263.876 181.928 310.623 181.928 339.455 198.575Z" fill="#FFE840"/>
<path d="M350.656 221.81C348.294 214.493 342.178 207.758 332.862 202.382C320.677 195.345 304.478 191.472 287.25 191.472C270.019 191.472 253.819 195.345 241.638 202.382C232.322 207.758 226.203 214.493 223.841 221.81C223.114 224.065 222.743 226.373 222.743 228.715C222.743 235.875 226.219 242.729 232.715 248.63C233.008 248.903 233.309 249.167 233.619 249.427C235.944 251.43 238.624 253.309 241.638 255.051C243.166 255.931 244.756 256.765 246.399 257.541C246.701 257.685 247.002 257.826 247.303 257.962C251.272 259.779 255.562 261.303 260.088 262.513C260.389 262.595 260.691 262.678 260.992 262.756C265.084 263.805 269.362 264.61 273.772 265.143C274.074 265.184 274.375 265.222 274.677 265.254C278.773 265.721 282.981 265.957 287.25 265.957H287.461C287.763 265.957 288.064 265.952 288.365 265.949C292.714 265.907 296.988 265.622 301.145 265.094C301.447 265.056 301.749 265.019 302.05 264.974C306.468 264.384 310.75 263.516 314.834 262.402C315.14 262.319 315.441 262.236 315.738 262.145C320.281 260.857 324.567 259.247 328.519 257.339C328.82 257.198 329.126 257.05 329.423 256.897C330.6 256.31 331.747 255.695 332.862 255.051C336.467 252.97 339.593 250.682 342.207 248.242C342.517 247.953 342.819 247.664 343.111 247.371C348.748 241.763 351.754 235.371 351.754 228.715C351.754 226.373 351.382 224.065 350.656 221.81ZM343.111 242.8C342.822 243.184 342.521 243.567 342.207 243.947C339.308 247.441 335.357 250.711 330.352 253.602C330.046 253.779 329.737 253.953 329.423 254.126C329.126 254.291 328.824 254.456 328.519 254.614C324.583 256.711 320.285 258.45 315.738 259.833C315.441 259.924 315.136 260.014 314.834 260.102C310.729 261.303 306.439 262.22 302.05 262.847C301.752 262.893 301.451 262.934 301.145 262.971C296.946 263.537 292.66 263.842 288.365 263.884C288.064 263.888 287.763 263.892 287.461 263.892C283.174 263.9 278.884 263.652 274.677 263.141C274.375 263.103 274.069 263.066 273.772 263.025C269.395 262.459 265.105 261.608 260.992 260.477C260.691 260.394 260.385 260.312 260.088 260.225C255.562 258.928 251.264 257.285 247.303 255.299C246.998 255.146 246.696 254.993 246.399 254.836C245.636 254.44 244.884 254.027 244.149 253.602C239.867 251.128 236.357 248.378 233.619 245.45C233.309 245.116 233.008 244.782 232.715 244.443C225.274 235.825 224.328 225.799 229.882 216.826C232.822 212.078 237.575 207.626 244.149 203.831C267.913 190.11 306.584 190.11 330.352 203.831C336.926 207.626 341.678 212.078 344.615 216.826C349.817 225.234 349.318 234.566 343.111 242.8Z" fill="#FF9D4D"/>
<path d="M289.612 222.705L296.564 226.719C296.406 226.795 296.251 226.877 296.1 226.964L292.285 229.167L285.789 225.416L287.935 224.177C288.702 223.734 289.261 223.242 289.612 222.705Z" fill="#D1975D"/>
<path d="M310.403 239.629L310.404 239.627L317.529 243.741L321.787 241.282L314.645 237.158C314.707 237.118 314.772 237.08 314.834 237.035C315.148 236.841 315.449 236.639 315.738 236.436C316.75 235.722 317.621 234.979 318.36 234.206C319.533 232.98 320.289 231.741 320.623 230.49C320.962 229.239 320.813 228.021 320.178 226.828C319.542 225.634 318.331 224.519 316.544 223.487C316.275 223.334 316.007 223.185 315.738 223.045C315.441 222.888 315.14 222.744 314.834 222.603C312.534 221.538 310.085 220.906 307.484 220.7C305.655 220.559 303.846 220.613 302.05 220.861C301.748 220.902 301.447 220.952 301.145 221.005C300.051 221.199 298.965 221.463 297.887 221.802C298.998 220.15 299.168 218.507 298.395 216.863C297.619 215.224 296.199 213.808 294.134 212.614C292.821 211.858 291.293 211.239 289.542 210.756C287.795 210.277 285.999 209.984 284.149 209.881C282.304 209.777 280.466 209.885 278.637 210.207C276.807 210.529 275.16 211.111 273.69 211.962L272.348 212.738L265.484 208.775L261.225 211.234L268.086 215.195L262.908 218.189L256.043 214.225L251.785 216.685L258.646 220.646L251.045 225.035L260.088 230.259L260.992 230.779L273.772 238.158L274.676 238.683L287.461 246.062L288.365 246.586L293.357 249.468L300.964 245.079H300.964L308.088 249.191L312.347 246.732L305.223 242.619L305.225 242.618L310.403 239.629ZM296.1 226.964C296.252 226.877 296.405 226.794 296.562 226.72C297.157 226.435 297.809 226.221 298.511 226.088C299.361 225.923 300.241 225.861 301.145 225.894C301.191 225.894 301.241 225.898 301.285 225.898C301.542 225.911 301.793 225.932 302.05 225.956C302.748 226.031 303.45 226.159 304.147 226.344C305.097 226.596 305.956 226.943 306.708 227.377C307.463 227.815 308.037 228.306 308.437 228.855C308.834 229.408 309.041 229.966 309.061 230.527C309.082 231.089 308.904 231.638 308.528 232.179C308.297 232.505 307.996 232.815 307.624 233.104C307.441 233.249 307.233 233.389 307.013 233.525C306.951 233.563 306.893 233.602 306.828 233.64L303.546 235.535L303.429 235.602L302.05 236.399L301.145 236.92L298.251 238.592L294.61 240.693L283.466 234.259L284.655 233.572L287.104 232.158L287.103 232.158L287.461 231.952L288.365 231.432L292.284 229.169L296.1 226.964ZM273.772 220.035L274.676 219.51L275.117 219.255L275.12 219.256L277.624 217.811C277.769 217.727 277.928 217.666 278.079 217.592C278.59 217.343 279.128 217.131 279.715 216.991C280.524 216.797 281.408 216.71 282.361 216.727C284.166 216.76 285.867 217.223 287.461 218.123C287.498 218.143 287.539 218.168 287.576 218.189C287.865 218.354 288.125 218.523 288.365 218.697C289.505 219.514 290.066 220.382 290.05 221.302C290.042 221.802 289.897 222.269 289.612 222.706C289.331 223.136 288.914 223.541 288.365 223.908C288.229 223.999 288.089 224.09 287.936 224.176L287.461 224.449L285.789 225.415L280.608 228.408L280.607 228.407L279.193 229.223L276.968 230.506L275.734 229.795L274.354 228.998L273.772 228.661L271.163 227.156L266.301 224.349L267.651 223.568L269.938 222.248L269.937 222.247L273.772 220.035Z" fill="#FF9D4D"/>
<path d="M221.857 248.106V263.046C221.539 262.645 221.242 262.244 220.953 261.84V246.896C221.242 247.301 221.544 247.705 221.857 248.106Z" fill="#FFE840"/>
<path d="M233.619 258.012V272.956C233.313 272.77 233.012 272.584 232.715 272.399V257.45C233.012 257.64 233.313 257.826 233.619 258.012Z" fill="#FFE840"/>
<path d="M247.303 264.569V279.517C247.002 279.406 246.696 279.294 246.399 279.174V264.23C246.696 264.346 247.002 264.462 247.303 264.569Z" fill="#FFE840"/>
<path d="M260.992 268.567V283.511C260.691 283.445 260.39 283.379 260.088 283.309V268.36C260.39 268.43 260.691 268.5 260.992 268.567Z" fill="#FFE840"/>
<path d="M274.676 270.718V285.662C274.375 285.637 274.074 285.603 273.772 285.571V270.627C274.074 270.66 274.375 270.693 274.676 270.718Z" fill="#FFE840"/>
<path d="M288.365 271.333V286.277C288.064 286.281 287.763 286.285 287.461 286.285V271.341C287.763 271.341 288.064 271.337 288.365 271.333Z" fill="#FFE840"/>
<path d="M302.049 270.478V285.422C301.748 285.459 301.447 285.496 301.145 285.525V270.581C301.447 270.552 301.748 270.515 302.049 270.478Z" fill="#FFE840"/>
<path d="M315.739 268.051V282.994C315.437 283.073 315.136 283.143 314.834 283.213V268.265C315.136 268.195 315.437 268.125 315.739 268.051Z" fill="#FFE840"/>
<path d="M329.423 263.715V278.659C329.121 278.779 328.82 278.898 328.519 279.014V264.066C328.82 263.955 329.121 263.835 329.423 263.715Z" fill="#FFE840"/>
<path d="M343.112 256.592V271.535C342.814 271.734 342.513 271.932 342.207 272.13V257.182C342.513 256.988 342.814 256.79 343.112 256.592Z" fill="#FFE840"/>
<path d="M355.252 244.544V259.488C354.967 259.955 354.661 260.421 354.343 260.884V245.94C354.661 245.477 354.963 245.011 355.252 244.544Z" fill="#FFE840"/>
</g>
<defs>
<linearGradient id="paint0_linear_10339_7134" x1="-3.13387e-05" y1="322.409" x2="0.547334" y2="322.409" gradientUnits="userSpaceOnUse">
<stop stop-color="#2E256B"/>
<stop offset="1" stop-color="#5A3087"/>
</linearGradient>
<linearGradient id="paint1_linear_10339_7134" x1="-2.56934e-05" y1="322.409" x2="0.547358" y2="322.409" gradientUnits="userSpaceOnUse">
<stop stop-color="#6A5EBF"/>
<stop offset="1" stop-color="#6E3AA5"/>
</linearGradient>
<linearGradient id="paint2_linear_10339_7134" x1="-0.000179848" y1="322.409" x2="0.547195" y2="322.409" gradientUnits="userSpaceOnUse">
<stop stop-color="#2E256B"/>
<stop offset="1" stop-color="#5A3087"/>
</linearGradient>
<linearGradient id="paint3_linear_10339_7134" x1="0.000122639" y1="322.409" x2="0.547498" y2="322.409" gradientUnits="userSpaceOnUse">
<stop stop-color="#6A5EBF"/>
<stop offset="1" stop-color="#6E3AA5"/>
</linearGradient>
<linearGradient id="paint4_linear_10339_7134" x1="-0.000221387" y1="322.409" x2="0.547156" y2="322.409" gradientUnits="userSpaceOnUse">
<stop stop-color="#2E256B"/>
<stop offset="1" stop-color="#5A3087"/>
</linearGradient>
<linearGradient id="paint5_linear_10339_7134" x1="-0.000210191" y1="322.409" x2="0.547155" y2="322.409" gradientUnits="userSpaceOnUse">
<stop stop-color="#6A5EBF"/>
<stop offset="1" stop-color="#6E3AA5"/>
</linearGradient>
</defs>
</svg>
