<svg preserveAspectRatio="none" width="100%" height="100%" overflow="visible" style="display: block;" viewBox="0 0 119.139 22.2058" fill="none" xmlns="http://www.w3.org/2000/svg">
<g id="Group 1">
<mask id="mask0_0_4" style="mask-type:alpha" maskUnits="userSpaceOnUse" x="0" y="0" width="120" height="23">
<path id="Rectangle 2" d="M0 0H119.139V22.2058H0V0Z" fill="var(--fill-0, black)"/>
</mask>
<g mask="url(#mask0_0_4)">
<path id="Path 1" d="M0 11.1029C0 4.63156 4.96854 0.000398636 11.6546 0.000398636C15.3657 0.000398636 18.4633 1.34988 20.4875 3.80348L17.2979 6.74779C15.8564 5.09161 14.0468 4.23285 11.8999 4.23285C7.88218 4.23285 5.02988 7.05449 5.02988 11.1029C5.02988 15.1514 7.88218 17.973 11.8999 17.973C14.0468 17.973 15.8564 17.1142 17.2979 15.4274L20.4875 18.3717C18.4633 20.856 15.3657 22.2055 11.6239 22.2055C4.96854 22.2055 0 17.5743 0 11.1029Z" fill="var(--fill-0, #39079E)"/>
<path id="Path 2" d="M95.6454 11.103C95.6454 4.72369 100.614 0.000518807 107.392 0.000518807C114.139 0.000518807 119.139 4.69302 119.139 11.103C119.139 17.5131 114.139 22.2056 107.392 22.2056C100.614 22.2056 95.6454 17.4824 95.6454 11.103V11.103ZM114.109 11.103C114.109 7.02394 111.226 4.23298 107.392 4.23298C103.558 4.23298 100.675 7.02394 100.675 11.103C100.675 15.1822 103.558 17.9731 107.392 17.9731C111.226 17.9731 114.109 15.1822 114.109 11.103Z" fill="var(--fill-0, #39079E)"/>
<path id="Path 3" d="M36.3274 14.9367C39.1184 13.7406 40.7439 11.379 40.7439 8.15867C40.7439 3.34348 37.1555 0.368492 31.4202 0.368492H22.1272V4.41693H27.0958H27.4855H31.1442C34.1805 4.41693 35.714 5.79708 35.714 8.15867C35.714 10.4896 34.1805 11.9004 31.1442 11.9004H28.1139V11.9019H22.1272V21.8375H27.0958V15.8568H31.4202H31.6656L35.8061 21.8375H41.1426L36.3274 14.9367Z" fill="var(--fill-0, #39079E)"/>
<path id="Path 4" d="M81.958 0.368608L79.0159 4.41705H84.2336V21.8376H89.2021V4.41705H96.0722V0.368608H81.958Z" fill="var(--fill-0, #39079E)"/>
<path id="Path 5" d="M68.7876 0.368492H60.6907H59.4946H55.8142L50.0789 9.90685L44.3436 0.368492H39.0684L47.3799 14.17V21.8375H52.3485V14.2313L58.2543 4.41693H59.4946H63.16H64.4631H64.7758H68.5115C71.5479 4.41693 73.0814 5.79708 73.0814 8.15867C73.0814 10.4896 71.5479 11.8697 68.5115 11.8697H64.7758H64.4631H59.4946V21.8375H64.4631V15.9182H68.7876C74.5229 15.9182 78.1112 12.9432 78.1112 8.15867C78.1112 3.34348 74.5229 0.368492 68.7876 0.368492Z" fill="var(--fill-0, #39079E)"/>
</g>
</g>
</svg>
