<svg preserveAspectRatio="none" width="100%" height="100%" overflow="visible" style="display: block;" viewBox="0 0 341.545 417.743" fill="none" xmlns="http://www.w3.org/2000/svg">
<g id="Group 125">
<mask id="mask0_0_4" style="mask-type:alpha" maskUnits="userSpaceOnUse" x="0" y="0" width="342" height="418">
<path id="Rectangle 65" d="M0 0H341.545V417.743H0V0Z" fill="var(--fill-0, black)"/>
</mask>
<g mask="url(#mask0_0_4)">
<path id="Rectangle 58" d="M178.14 189.55L179.241 186.051L319.625 230.221L318.524 233.721L178.14 189.55Z" fill="var(--fill-0, #D1975D)"/>
<path id="Rectangle 59" d="M22.2001 168.452L22.7401 164.823L180.507 188.303L179.967 191.931L22.2001 168.452Z" fill="var(--fill-0, #D1975D)"/>
<path id="Rectangle 60" d="M65.2578 86.9197L67.7289 84.2078L179.926 186.444L177.455 189.156L65.2578 86.9197Z" fill="var(--fill-0, #D1975D)"/>
<path id="Rectangle 61" d="M240.505 121.474L305.272 83.9739L307.11 87.1488L242.344 124.649L240.505 121.474Z" fill="var(--fill-0, #D1975D)"/>
<path id="Rectangle 62" d="M52.8626 287.69L117.629 250.19L119.467 253.365L54.7008 290.865L52.8626 287.69Z" fill="var(--fill-0, #D1975D)"/>
<path id="Rectangle 63" d="M178.316 24.7559H181.985V121.021H178.316V24.7559Z" fill="var(--fill-0, #D1975D)"/>
<path id="Rectangle 64" d="M178.316 237.17H181.985V333.436H178.316V237.17Z" fill="var(--fill-0, #D1975D)"/>
<path id="Path 359" d="M229.661 118.917L232.553 114.742L217.812 106.367C217.537 106.206 217.259 106.047 216.979 105.893L216.969 105.888L216.968 105.888C204 98.806 185.104 100.538 164.065 112.686C124.961 135.262 93.2615 185.264 93.2615 224.367C93.2615 240.78 98.8465 252.663 108.219 259.259L108.219 259.26L108.224 259.263C109.615 260.241 111.09 261.104 112.642 261.847L125.445 269.335L128.272 265.256C138.774 265.358 151.006 261.831 164.065 254.292C203.168 231.715 234.868 181.714 234.868 142.61C234.868 133.164 233.018 125.218 229.661 118.917Z" fill="var(--fill-0, #FF9D4D)"/>
<path id="Path 360" d="M199.413 102.854C205.804 102.854 211.527 104.21 216.424 106.884L216.486 106.917C216.739 107.057 216.99 107.201 217.251 107.354L230.913 115.117L228.727 118.271L228.333 118.84L228.658 119.451C232.025 125.77 233.732 133.562 233.732 142.611C233.732 181.291 202.225 230.95 163.498 253.309C151.245 260.383 139.217 264.122 128.715 264.122C128.57 264.122 128.427 264.122 128.282 264.12L127.68 264.114L127.338 264.609L125.11 267.826L113.214 260.869L113.174 260.845L113.133 260.825C111.639 260.108 110.208 259.27 108.877 258.334L108.817 258.293C100.95 252.727 96.0933 243.43 94.7704 231.398C94.72 230.952 94.675 230.497 94.6371 230.037C94.4775 228.222 94.3967 226.314 94.3967 224.367C94.3967 221.047 94.6329 217.571 95.1008 214.029C95.1495 213.633 95.2054 213.237 95.2633 212.838C95.9416 208.167 97.0294 203.299 98.4977 198.365C98.6047 197.999 98.7164 197.634 98.8289 197.264C100.193 192.838 101.882 188.303 103.849 183.781C103.996 183.437 104.149 183.095 104.304 182.748C106.192 178.499 108.344 174.226 110.704 170.046C110.884 169.723 111.067 169.4 111.258 169.071C113.591 165 116.15 160.959 118.865 157.058C119.078 156.751 119.295 156.442 119.515 156.133C122.269 152.23 125.22 148.414 128.287 144.786C128.531 144.495 128.778 144.206 129.026 143.917C132.209 140.201 135.569 136.624 139.013 133.285C139.293 133.015 139.572 132.746 139.859 132.471C143.539 128.958 147.374 125.659 151.257 122.665C151.578 122.418 151.901 122.171 152.227 121.926C156.296 118.851 160.47 116.072 164.63 113.671C164.903 113.514 165.176 113.358 165.459 113.2C165.839 112.983 166.218 112.77 166.596 112.562C172.031 109.575 177.417 107.24 182.607 105.621H182.608L182.771 105.57C183.34 105.395 183.809 105.256 184.247 105.132C189.534 103.62 194.636 102.854 199.413 102.854V102.854ZM199.413 101.719C194.585 101.719 189.396 102.479 183.935 104.041C183.438 104.182 182.939 104.331 182.437 104.486H182.435C177.189 106.108 171.703 108.46 166.049 111.567C165.666 111.779 165.282 111.994 164.896 112.214C164.62 112.368 164.342 112.528 164.065 112.686C159.791 115.154 155.608 117.948 151.543 121.021C151.216 121.266 150.889 121.516 150.565 121.765C146.609 124.816 142.768 128.125 139.075 131.651C138.791 131.923 138.507 132.195 138.224 132.47C134.726 135.861 131.365 139.443 128.164 143.179C127.914 143.469 127.665 143.762 127.417 144.057C124.308 147.734 121.357 151.554 118.588 155.479C118.368 155.787 118.148 156.101 117.932 156.412C115.188 160.354 112.628 164.399 110.274 168.507C110.083 168.834 109.897 169.163 109.713 169.493C107.334 173.707 105.178 177.986 103.267 182.287C103.11 182.637 102.956 182.984 102.806 183.334C100.836 187.862 99.138 192.408 97.7444 196.929C97.631 197.302 97.5173 197.674 97.4086 198.046C95.9399 202.981 94.8367 207.877 94.14 212.675C94.0809 213.081 94.0242 213.485 93.9742 213.89C93.5046 217.448 93.2617 220.949 93.2617 224.367C93.2617 226.357 93.3434 228.28 93.5067 230.137C93.5451 230.604 93.5909 231.067 93.643 231.526C95.0433 244.266 100.268 253.663 108.22 259.26L108.224 259.263C109.615 260.241 111.091 261.103 112.641 261.848L125.445 269.336L128.271 265.255C128.419 265.257 128.566 265.257 128.715 265.257C139.117 265.257 151.189 261.726 164.065 254.292C203.167 231.716 234.867 181.713 234.867 142.611C234.867 133.165 233.017 125.218 229.66 118.917L232.552 114.743L217.812 106.367C217.537 106.206 217.26 106.047 216.979 105.893L216.968 105.888C211.935 103.14 206.011 101.719 199.413 101.719Z" fill="var(--fill-0, #FFE840)"/>
<path id="Path 361" d="M249.224 150.896C249.224 189.999 217.525 240.001 178.421 262.577C139.317 285.154 107.618 271.756 107.618 232.652C107.618 193.549 139.317 143.547 178.421 120.971C217.525 98.3942 249.224 111.792 249.224 150.896Z" fill="var(--fill-0, #FFD071)"/>
<path id="Path 362" d="M249.224 150.896C249.224 189.999 217.525 240.001 178.421 262.577C139.317 285.154 107.618 271.756 107.618 232.652C107.618 193.549 139.317 143.547 178.421 120.971C217.525 98.3942 249.224 111.792 249.224 150.896Z" fill="var(--fill-0, #FFE840)"/>
<path id="Path 363" d="M180.237 253.635C163.713 263.175 148.179 265.709 136.494 260.771C124.811 255.833 118.376 244.013 118.376 227.489C118.376 210.966 124.811 191.716 136.494 173.286C148.179 154.857 163.713 139.453 180.237 129.913C196.76 120.373 212.295 117.839 223.979 122.777C235.663 127.715 242.098 139.535 242.098 156.059C242.098 172.582 235.663 191.832 223.979 210.262C212.295 228.692 196.76 244.095 180.237 253.635V253.635ZM180.237 133.318C148.004 151.927 121.78 193.291 121.78 225.524C121.78 257.757 148.004 268.84 180.237 250.23C212.47 231.621 238.693 190.257 238.693 158.025C238.693 125.792 212.47 114.708 180.237 133.318Z" fill="var(--fill-0, #FF9D4D)"/>
<path id="Path 364" d="M188.898 181.316V190.744C188.702 190.839 188.501 190.947 188.297 191.065L183.122 194.053V185.241L186.033 183.562C187.074 182.96 188.03 182.211 188.898 181.316Z" fill="var(--fill-0, #D1975D)"/>
<path id="Path 365" d="M203.371 182.725C201.457 181.323 198.857 181.087 195.571 182.014C198.264 179.274 200.311 176.275 201.714 173.012C203.115 169.753 203.816 166.72 203.816 163.917C203.816 162.139 203.504 160.554 202.885 159.161C202.266 157.767 201.39 156.71 200.259 155.988C199.127 155.268 197.753 154.943 196.137 155.013C194.519 155.086 192.714 155.697 190.721 156.848L188.898 157.9V148.593L183.122 151.927V161.235L176.095 165.292V155.985L170.319 159.319V168.627L160.006 174.581V231.971L170.319 226.017V235.68L176.095 232.345V222.682L183.122 218.625V228.288L188.898 224.953V215.267C190.998 213.969 192.994 212.502 194.884 210.864C197.12 208.925 199.087 206.848 200.784 204.627C202.481 202.409 203.816 200.102 204.786 197.71C205.756 195.318 206.24 192.91 206.24 190.484C206.24 186.714 205.282 184.127 203.371 182.725V182.725ZM171.161 177.678L186.518 168.811C187.378 168.315 188.17 168.009 188.898 167.891C189.676 167.764 190.377 167.856 191.004 168.162C192.216 168.756 192.823 170.157 192.823 172.366C192.823 174.628 192.163 176.787 190.842 178.844C190.251 179.766 189.603 180.588 188.898 181.316C188.029 182.21 187.073 182.96 186.032 183.561L176.095 189.299L171.161 192.147V177.678ZM194.439 198.107C194.062 199.242 193.549 200.332 192.903 201.378C192.257 202.425 191.488 203.394 190.6 204.284C190.057 204.828 189.491 205.314 188.898 205.745C188.519 206.023 188.129 206.277 187.73 206.507L183.122 209.168L171.161 216.074V200.958L176.095 198.109L188.297 191.065C188.501 190.947 188.702 190.839 188.898 190.744C189.636 190.385 190.326 190.18 190.963 190.13C191.771 190.068 192.47 190.218 193.065 190.574C193.657 190.933 194.127 191.484 194.48 192.222C194.829 192.964 195.005 193.847 195.005 194.87C195.005 195.894 194.814 196.974 194.439 198.107Z" fill="var(--fill-0, #FF9D4D)"/>
<path id="Path 366" d="M185.479 122.787L184.911 123.77L164.896 112.214C165.282 111.994 165.666 111.779 166.049 111.567L185.479 122.787Z" fill="var(--fill-0, #FFE840)"/>
<path id="Path 367" d="M167.793 130.402L167.225 131.385L150.565 121.766C150.89 121.516 151.216 121.266 151.543 121.021L167.793 130.402Z" fill="var(--fill-0, #FFE840)"/>
<path id="Path 368" d="M155.479 141.122L154.911 142.105L138.224 132.47C138.507 132.196 138.791 131.923 139.075 131.651L155.479 141.122Z" fill="var(--fill-0, #FFE840)"/>
<path id="Path 369" d="M143.166 151.84L142.598 152.823L127.418 144.057C127.665 143.762 127.915 143.469 128.164 143.179L143.166 151.84Z" fill="var(--fill-0, #FFE840)"/>
<path id="Path 370" d="M136.211 165.654L135.643 166.637L117.932 156.411C118.148 156.101 118.368 155.787 118.588 155.479L136.211 165.654Z" fill="var(--fill-0, #FFE840)"/>
<path id="Path 371" d="M131.741 180.993L131.173 181.976L109.713 169.493C109.897 169.163 110.083 168.834 110.274 168.507L131.741 180.993Z" fill="var(--fill-0, #FFE840)"/>
<path id="Path 372" d="M123.005 193.684L122.438 194.667L102.806 183.334C102.956 182.984 103.111 182.637 103.267 182.287L123.005 193.684Z" fill="var(--fill-0, #FFE840)"/>
<path id="Path 373" d="M119.682 209.595L119.115 210.578L97.4086 198.046C97.5178 197.674 97.6311 197.302 97.7444 196.93L119.682 209.595Z" fill="var(--fill-0, #FFE840)"/>
<path id="Path 374" d="M114.073 224.184L113.506 225.166L93.9743 213.89C94.0243 213.486 94.0809 213.082 94.1401 212.676L114.073 224.184Z" fill="var(--fill-0, #FFE840)"/>
<path id="Path 375" d="M114.909 242.494L114.341 243.477L93.6429 231.526C93.5908 231.068 93.5454 230.605 93.5067 230.137L114.909 242.494Z" fill="var(--fill-0, #FFE840)"/>
<path id="Path 376" d="M202.484 114.749L201.917 115.732L182.437 104.486C182.939 104.331 183.438 104.181 183.935 104.041L202.484 114.749Z" fill="var(--fill-0, #FFE840)"/>
<path id="Path 377" d="M323.025 65.7637L323.858 64.5608L319.611 62.1472C319.532 62.1006 319.452 62.0556 319.371 62.011L319.368 62.0093C315.631 59.9686 310.186 60.4678 304.124 63.968C292.856 70.4734 283.722 84.8811 283.722 96.1483C283.722 100.878 285.332 104.302 288.032 106.203L288.034 106.203C288.434 106.485 288.859 106.734 289.307 106.948L292.996 109.106L293.81 107.93C296.836 107.96 300.361 106.944 304.124 104.771C315.391 98.266 324.525 83.8583 324.525 72.5907C324.525 69.8688 323.992 67.5794 323.025 65.7637Z" fill="var(--fill-0, #FF9D4D)"/>
<path id="Path 378" d="M328.662 74.9785C328.662 86.2461 319.528 100.654 308.261 107.159C296.993 113.664 287.859 109.804 287.859 98.5361C287.859 87.2689 296.993 72.8611 308.261 66.3558C319.528 59.8504 328.662 63.7109 328.662 74.9785Z" fill="var(--fill-0, #FFE840)"/>
<path id="Path 379" d="M196.983 4.95636L197.816 3.75353L193.569 1.33994C193.49 1.29369 193.41 1.24786 193.329 1.2037L193.326 1.20203C189.589 -0.838664 184.144 -0.339531 178.082 3.16065C166.814 9.66605 157.68 24.0738 157.68 35.3414C157.68 40.0707 159.29 43.4946 161.991 45.3953L161.992 45.3961C162.393 45.6782 162.818 45.9265 163.265 46.1407L166.954 48.2984L167.768 47.1231C170.795 47.1527 174.319 46.1365 178.082 43.9642C189.35 37.4588 198.484 23.051 198.484 11.7834C198.484 9.0615 197.951 6.77207 196.983 4.95636Z" fill="var(--fill-0, #FF9D4D)"/>
<path id="Path 380" d="M202.62 14.1703C202.62 25.4383 193.486 39.8457 182.219 46.3511C170.951 52.8565 161.817 48.9955 161.817 37.7288C161.817 26.4612 170.951 12.0534 182.219 5.54801C193.486 -0.957389 202.62 2.90318 202.62 14.1703Z" fill="var(--fill-0, #FFE840)"/>
<path id="Path 381" d="M335.908 210.701L336.741 209.498L332.493 207.085C332.414 207.038 332.334 206.992 332.253 206.948L332.25 206.947C328.513 204.906 323.069 205.405 317.006 208.905C305.739 215.411 296.605 229.818 296.605 241.086C296.605 245.815 298.214 249.239 300.915 251.14L300.916 251.141C301.317 251.423 301.742 251.671 302.189 251.885L305.878 254.043L306.693 252.868C309.719 252.897 313.244 251.881 317.006 249.709C328.274 243.203 337.408 228.796 337.408 217.528C337.408 214.806 336.875 212.517 335.908 210.701Z" fill="var(--fill-0, #FF9D4D)"/>
<path id="Path 382" d="M341.545 219.916C341.545 231.183 332.411 245.591 321.144 252.096C309.876 258.601 300.742 254.741 300.742 243.474C300.742 232.206 309.876 217.798 321.144 211.293C332.411 204.788 341.545 208.648 341.545 219.916Z" fill="var(--fill-0, #FFE840)"/>
<path id="Path 383" d="M197.07 313.636L197.903 312.433L193.655 310.02C193.576 309.973 193.496 309.928 193.415 309.883L193.412 309.882C189.675 307.841 184.231 308.34 178.168 311.84C166.901 318.346 157.767 332.754 157.767 344.021C157.767 348.75 159.377 352.174 162.077 354.075L162.078 354.076C162.479 354.358 162.904 354.606 163.351 354.821L167.04 356.978L167.855 355.803C170.881 355.833 174.406 354.816 178.168 352.644C189.436 346.138 198.57 331.731 198.57 320.463C198.57 317.741 198.037 315.452 197.07 313.636Z" fill="var(--fill-0, #FF9D4D)"/>
<path id="Path 384" d="M202.707 322.85C202.707 334.118 193.573 348.525 182.305 355.03C171.038 361.536 161.904 357.675 161.904 346.408C161.904 335.14 171.038 320.733 182.305 314.227C193.573 307.722 202.707 311.582 202.707 322.85Z" fill="var(--fill-0, #FFE840)"/>
<path id="Path 385" d="M70.6134 270.379L71.4467 269.177L67.1991 266.763C67.1199 266.716 67.0399 266.671 66.9591 266.627L66.9562 266.625C63.2193 264.584 57.7747 265.083 51.7122 268.584C40.4446 275.089 31.3107 289.497 31.3107 300.764C31.3107 305.494 32.9201 308.918 35.6208 310.818L35.622 310.819C36.0228 311.101 36.4478 311.35 36.8953 311.564L40.5842 313.722L41.3987 312.546C44.4248 312.576 47.9495 311.56 51.7122 309.387C62.9798 302.882 72.1138 288.474 72.1138 277.206C72.1138 274.485 71.5809 272.195 70.6134 270.379Z" fill="var(--fill-0, #FF9D4D)"/>
<path id="Path 386" d="M76.2504 279.594C76.2504 290.862 67.1165 305.27 55.8489 311.775C44.5813 318.28 35.4473 314.419 35.4473 303.152C35.4473 291.885 44.5813 277.477 55.8489 270.971C67.1165 264.466 76.2504 268.327 76.2504 279.594Z" fill="var(--fill-0, #FFE840)"/>
<path id="Path 387" d="M39.3028 146.838L40.1361 145.635L35.8885 143.221C35.8093 143.175 35.7297 143.129 35.6485 143.085L35.6456 143.083C31.9087 141.043 26.4641 141.542 20.4016 145.042C9.13402 151.547 5.29421e-05 165.955 5.29421e-05 177.223C5.29421e-05 181.952 1.60953 185.376 4.31018 187.277L4.31143 187.278C4.71224 187.56 5.13721 187.808 5.58468 188.022L9.2736 190.18L10.0881 189.005C13.1142 189.034 16.6389 188.018 20.4016 185.846C31.6692 179.34 40.8036 164.932 40.8036 153.665C40.8036 150.943 40.2703 148.653 39.3028 146.838Z" fill="var(--fill-0, #FF9D4D)"/>
<path id="Path 388" d="M44.9401 156.052C44.9401 167.32 35.8061 181.728 24.5385 188.233C13.2709 194.738 4.13697 190.877 4.13697 179.61C4.13697 168.343 13.2709 153.935 24.5385 147.429C35.8061 140.924 44.9401 144.785 44.9401 156.052Z" fill="var(--fill-0, #FFE840)"/>
<path id="Path 389" d="M83.3259 65.7637L84.1592 64.5608L79.9115 62.1472C79.8324 62.1006 79.7524 62.0556 79.6715 62.011L79.6686 62.0093C75.9318 59.9686 70.4872 60.4678 64.4246 63.968C53.1571 70.4734 44.0231 84.8811 44.0231 96.1483C44.0231 100.878 45.6326 104.302 48.3332 106.203L48.3345 106.203C48.7353 106.485 49.1603 106.734 49.6077 106.948L53.2967 109.106L54.1112 107.93C57.1372 107.96 60.662 106.944 64.4246 104.771C75.6922 98.266 84.8262 83.8583 84.8262 72.5907C84.8262 69.8688 84.2933 67.5794 83.3259 65.7637Z" fill="var(--fill-0, #FF9D4D)"/>
<path id="Path 390" d="M88.9629 74.9785C88.9629 86.2461 79.8289 100.654 68.5613 107.159C57.2938 113.664 48.1598 109.804 48.1598 98.5361C48.1598 87.2689 57.2938 72.8611 68.5613 66.3558C79.8289 59.8504 88.9629 63.7109 88.9629 74.9785Z" fill="var(--fill-0, #FFE840)"/>
</g>
</g>
</svg>
