<svg preserveAspectRatio="none" width="100%" height="100%" overflow="visible" style="display: block;" viewBox="0 0 219.885 337.783" fill="none" xmlns="http://www.w3.org/2000/svg">
<g id="Group 63">
<mask id="mask0_0_135" style="mask-type:alpha" maskUnits="userSpaceOnUse" x="0" y="0" width="220" height="338">
<path id="Rectangle 34" d="M0 0H219.885V337.783H0V0Z" fill="var(--fill-0, black)"/>
</mask>
<g mask="url(#mask0_0_135)">
<path id="Path 174" d="M95.5093 144.11V144.11C96.797 145.305 97.6122 146.822 97.7685 148.315L97.4122 153.58C97.5759 155.143 96.5365 156.343 94.9024 156.478L86.5635 157.969L85.5916 146.441L91.7991 146.201L89.2301 145.584C87.1286 145.08 85.0689 144.144 83.2185 142.853C81.9545 141.971 81.1639 140.626 81.1592 139.346C81.1569 138.71 81.9326 138.479 82.5623 138.918L83.6807 139.698C85.46 140.94 87.5081 141.687 89.5003 141.822L90.5616 141.893C92.3172 142.012 94.1169 142.818 95.5093 144.11Z" fill="var(--fill-0, #FFD89F)"/>
<path id="Path 175" d="M85.5915 146.441L79.5412 147.305L73.7318 147.088C73.5848 147.082 73.4969 147.197 73.5439 147.335C73.562 147.388 73.5876 147.447 73.6192 147.51C74.0122 148.31 74.8702 148.913 75.7603 149.044L80.3257 149.72L87.3019 150.001L85.5915 146.441Z" fill="var(--fill-0, #FFD89F)"/>
<path id="Path 176" d="M86.6021 152.845L84.594 153.168C83.8802 153.283 83.1049 153.232 82.3302 153.018L78.6307 152C78.2954 151.908 77.9754 151.726 77.7145 151.482L76.2794 150.135C76.0101 149.883 75.9185 149.521 76.0892 149.29C76.2706 149.043 76.6654 149.02 76.9942 149.228L77.7234 149.689C78.0796 149.914 78.4693 150.07 78.8618 150.146L82.3953 150.828C82.8357 150.913 83.2672 150.905 83.656 150.805L86.5858 150.051L86.6021 152.845Z" fill="var(--fill-0, #FFD89F)"/>
<path id="Path 177" d="M86.5451 152.907L83.4799 153.641C83.306 153.683 83.1181 153.693 82.9238 153.67L80.5925 153.398C80.379 153.373 80.1623 153.307 79.9581 153.203L77.5203 151.971C77.179 151.798 76.8209 151.919 76.7697 152.224C76.7181 152.531 76.8962 152.884 77.2148 153.107L79.2364 154.517C79.6707 154.821 80.1586 155.034 80.652 155.138L83.4153 155.72C83.6385 155.767 83.8599 155.785 84.0734 155.772L86.626 155.619L86.5451 152.907Z" fill="var(--fill-0, #FFD89F)"/>
<path id="Path 178" d="M86.8929 155.656L83.8952 155.95C83.4031 155.998 82.8641 155.872 82.3782 155.596L81.2951 154.978C80.943 154.778 80.5426 154.82 80.3636 155.077C80.2515 155.238 80.3292 155.485 80.537 155.63L81.3174 156.175C82.0917 156.715 82.9534 157.106 83.8324 157.317L86.5636 157.969L86.8929 155.656Z" fill="var(--fill-0, #FFD89F)"/>
<path id="Path 179" d="M77.3914 114.935C78.1681 116.339 78.6503 117.91 78.7843 119.567L79.8822 133.233L83.2985 175.772L87.1723 173.113L84.1314 135.239L82.6581 116.908C82.5191 115.245 82.0368 113.668 81.2551 112.258L77.3914 114.935Z" fill="var(--fill-0, #7B5BAA)"/>
<path id="Path 180" d="M81.2529 112.258L77.393 114.934C76.2452 112.848 74.4548 111.129 72.2258 110.076L12.1418 81.6922C10.7834 81.0504 9.33245 81.2685 8.25121 82.02L12.1269 79.3576C13.2086 78.6098 14.6563 78.3959 16.0143 79.0339L76.0945 107.418C78.3156 108.467 80.1019 110.176 81.2529 112.258Z" fill="var(--fill-0, #BF89EF)"/>
<path id="Path 181" d="M78.7828 119.566L82.9236 171.106L14.9738 139.005L10.5177 83.5397L10.4963 83.6015L8.24402 82.0245C8.24728 82.0241 8.251 82.0203 8.251 82.0203C9.33224 81.2688 10.7832 81.0507 12.1416 81.6925L72.2256 110.076C74.4546 111.129 76.245 112.848 77.3928 114.934C78.1671 116.34 78.6498 117.912 78.7828 119.566Z" fill="var(--fill-0, #00CBFC)"/>
</g>
</g>
</svg>
