<svg preserveAspectRatio="none" width="100%" height="100%" overflow="visible" style="display: block;" viewBox="0 0 219.885 337.783" fill="none" xmlns="http://www.w3.org/2000/svg">
<g id="Group 45">
<mask id="mask0_0_45" style="mask-type:alpha" maskUnits="userSpaceOnUse" x="0" y="0" width="220" height="338">
<path id="Rectangle 25" d="M0 0H219.885V337.783H0V0Z" fill="var(--fill-0, black)"/>
</mask>
<g mask="url(#mask0_0_45)">
<path id="Path 69" d="M181.126 254.214V265.599V265.603V267.176H181.064C180.798 270.46 179.699 273.728 177.765 276.862C177.541 277.228 177.301 277.595 177.051 277.959C174.711 281.369 171.366 284.601 167.008 287.505C166.775 287.66 166.538 287.816 166.298 287.972C165.603 288.417 164.883 288.855 164.137 289.286C161.664 290.714 159.023 291.986 156.252 293.102C156.015 293.196 155.778 293.29 155.542 293.381C152.342 294.63 148.977 295.675 145.499 296.509C145.262 296.57 145.025 296.626 144.788 296.681C141.521 297.44 138.156 298.018 134.743 298.417C134.505 298.446 134.269 298.475 134.032 298.498C130.716 298.864 127.354 299.063 123.989 299.089C123.753 299.092 123.516 299.095 123.279 299.095C119.917 299.102 116.555 298.939 113.233 298.605C112.996 298.585 112.759 298.559 112.523 298.534C109.116 298.173 105.75 297.632 102.48 296.914C102.243 296.862 102.006 296.811 101.769 296.755C98.2976 295.964 94.9293 294.971 91.7237 293.777C91.4865 293.689 91.2465 293.601 91.0131 293.508C87.8591 292.3 84.8707 290.892 82.0902 289.286C81.7102 289.065 81.3372 288.845 80.9703 288.621C80.7304 288.475 80.4936 288.329 80.2597 288.183C76.0222 285.506 72.6706 282.527 70.2142 279.373C69.9645 279.058 69.7305 278.744 69.5036 278.426C66.9174 274.824 65.4702 271.012 65.1619 267.176H65.0972V254.214H68.5433C68.8413 253.733 69.1627 253.257 69.5036 252.786C69.7305 252.465 69.9677 252.15 70.2142 251.835C71.1164 250.674 72.1413 249.538 73.2868 248.432C74.6884 247.078 76.2687 245.767 78.034 244.515C79.2929 243.619 80.6462 242.75 82.0902 241.916C104.745 228.836 141.478 228.836 164.137 241.916C165.581 242.75 166.931 243.616 168.189 244.515C169.951 245.767 171.535 247.075 172.937 248.432C174.546 249.986 175.919 251.601 177.051 253.257C177.271 253.574 177.479 253.892 177.68 254.214H181.126Z" fill="var(--fill-0, #FF9D4D)"/>
<path id="Path 70" d="M123.112 232.817C138.486 232.817 152.929 236.267 163.781 242.532C165.193 243.347 166.537 244.209 167.777 245.094C169.498 246.317 171.067 247.612 172.443 248.943C173.998 250.445 175.351 252.031 176.467 253.662C176.668 253.951 176.868 254.256 177.078 254.591L177.287 254.924H177.68H180.416V265.603V266.465H180.409L180.356 267.119C180.097 270.319 179.021 273.471 177.158 276.491C176.953 276.827 176.72 277.185 176.465 277.556C174.124 280.969 170.809 284.117 166.614 286.913C166.383 287.067 166.148 287.222 165.914 287.373C165.233 287.81 164.515 288.247 163.781 288.67C161.379 290.057 158.756 291.327 155.987 292.442C155.754 292.535 155.52 292.628 155.283 292.719C152.142 293.945 148.794 294.988 145.32 295.821C145.089 295.881 144.858 295.935 144.627 295.988C141.427 296.732 138.073 297.312 134.656 297.711C134.425 297.74 134.195 297.768 133.954 297.791C130.667 298.155 127.313 298.352 123.98 298.378C123.746 298.381 123.513 298.384 123.277 298.384H123.085C119.805 298.384 116.515 298.22 113.291 297.896C113.061 297.878 112.83 297.852 112.597 297.827C109.218 297.469 105.865 296.929 102.632 296.22C102.398 296.169 102.164 296.118 101.927 296.062C98.4525 295.27 95.1032 294.277 91.9701 293.11L91.885 293.078C91.6823 293.004 91.4781 292.928 91.267 292.844C88.127 291.642 85.159 290.238 82.4473 288.672C82.072 288.454 81.7032 288.235 81.34 288.014C81.1024 287.869 80.868 287.725 80.6397 287.582C76.5495 284.998 73.2305 282.089 70.7708 278.931C70.5518 278.655 70.3267 278.355 70.0812 278.011C67.589 274.541 66.1724 270.876 65.8706 267.119L65.8181 266.465H65.8083V254.924H68.5433H68.9385L69.1469 254.589C69.4334 254.128 69.7473 253.661 70.084 253.196C70.2904 252.904 70.516 252.603 70.7755 252.271C71.653 251.141 72.6641 250.021 73.7806 248.943C75.1772 247.595 76.7467 246.3 78.446 245.094C79.7003 244.202 81.0461 243.34 82.4455 242.532C93.296 236.267 107.738 232.817 123.112 232.817V232.817ZM123.112 232.106C108.265 232.106 93.4174 235.376 82.0902 241.916C80.6462 242.75 79.2929 243.619 78.034 244.515C76.2691 245.768 74.6889 247.078 73.2872 248.431C72.1413 249.538 71.1164 250.673 70.2142 251.835C69.9677 252.15 69.731 252.465 69.5036 252.786C69.1627 253.256 68.8418 253.733 68.5433 254.214H65.0972V267.176H65.1623C65.4702 271.012 66.9174 274.824 69.5036 278.426C69.731 278.744 69.9645 279.059 70.2142 279.373C72.6706 282.527 76.0222 285.506 80.2602 288.183C80.4936 288.329 80.7304 288.475 80.9708 288.621C81.3372 288.845 81.7102 289.065 82.0902 289.286C84.8707 290.892 87.8591 292.3 91.0131 293.508C91.2465 293.602 91.487 293.689 91.7237 293.777C94.9293 294.971 98.2976 295.964 101.769 296.756C102.006 296.81 102.243 296.863 102.48 296.915C105.75 297.632 109.116 298.174 112.523 298.533C112.759 298.56 112.996 298.586 113.233 298.605C116.492 298.933 119.788 299.095 123.085 299.095C123.149 299.095 123.214 299.095 123.279 299.095C123.516 299.095 123.753 299.092 123.989 299.088C127.354 299.063 130.716 298.865 134.032 298.498C134.269 298.475 134.505 298.446 134.743 298.417C138.156 298.018 141.521 297.44 144.788 296.681C145.025 296.626 145.262 296.57 145.499 296.509C148.977 295.675 152.342 294.63 155.542 293.381C155.778 293.29 156.015 293.196 156.252 293.102C159.023 291.986 161.664 290.714 164.137 289.286C164.883 288.854 165.603 288.416 166.298 287.972C166.538 287.816 166.775 287.661 167.008 287.505C171.366 284.601 174.711 281.369 177.051 277.959C177.301 277.595 177.541 277.229 177.765 276.862C179.699 273.728 180.798 270.46 181.065 267.176H181.126V265.603V265.6V254.214H177.68C177.479 253.892 177.271 253.574 177.051 253.256C175.919 251.602 174.546 249.985 172.937 248.431C171.535 247.075 169.952 245.768 168.189 244.515C166.931 243.616 165.581 242.75 164.137 241.916C152.808 235.376 137.96 232.106 123.112 232.106Z" fill="var(--fill-0, #FFE840)"/>
<path id="Path 71" d="M164.135 230.173C186.792 243.254 186.792 264.462 164.135 277.542C141.479 290.623 104.746 290.623 82.0892 277.542C59.4329 264.462 59.4329 243.254 82.0892 230.173C104.746 217.093 141.479 217.093 164.135 230.173Z" fill="var(--fill-0, #FFE840)"/>
<path id="Path 72" d="M172.936 248.431C171.081 242.681 166.275 237.389 158.955 233.165C149.38 227.636 136.65 224.592 123.113 224.592C109.573 224.592 96.844 227.636 87.2719 233.165C79.9516 237.389 75.1429 242.681 73.2869 248.431C72.7158 250.203 72.4238 252.017 72.4238 253.857C72.4238 259.483 75.156 264.869 80.2599 269.506C80.4906 269.72 80.7273 269.928 80.9705 270.132C82.7972 271.706 84.9034 273.182 87.2719 274.551C88.4727 275.242 89.7218 275.898 91.0132 276.508C91.2499 276.622 91.4867 276.732 91.7238 276.839C94.842 278.267 98.2131 279.464 101.769 280.415C102.007 280.48 102.243 280.544 102.48 280.606C105.696 281.43 109.057 282.063 112.523 282.482C112.759 282.514 112.996 282.543 113.233 282.569C116.452 282.936 119.758 283.121 123.113 283.121H123.279C123.516 283.121 123.753 283.118 123.989 283.114C127.406 283.082 130.765 282.858 134.032 282.443C134.269 282.413 134.506 282.384 134.743 282.349C138.214 281.885 141.58 281.203 144.788 280.327C145.028 280.262 145.265 280.197 145.499 280.126C149.068 279.113 152.436 277.848 155.542 276.349C155.778 276.239 156.018 276.122 156.252 276.002C157.177 275.541 158.079 275.058 158.955 274.551C161.788 272.916 164.244 271.118 166.298 269.201C166.541 268.973 166.778 268.747 167.008 268.516C171.438 264.11 173.8 259.087 173.8 253.857C173.8 252.017 173.508 250.203 172.936 248.431V248.431ZM167.008 264.924C166.781 265.226 166.544 265.528 166.298 265.827C164.02 268.571 160.915 271.141 156.982 273.412C156.742 273.552 156.499 273.688 156.252 273.825C156.018 273.955 155.782 274.084 155.542 274.208C152.449 275.856 149.071 277.222 145.499 278.309C145.265 278.38 145.025 278.452 144.788 278.52C141.563 279.464 138.192 280.184 134.743 280.677C134.509 280.713 134.272 280.746 134.032 280.775C130.732 281.22 127.364 281.46 123.989 281.492C123.753 281.495 123.516 281.498 123.279 281.498C119.911 281.505 116.54 281.31 113.233 280.908C112.996 280.879 112.756 280.849 112.523 280.817C109.083 280.372 105.712 279.704 102.48 278.815C102.243 278.75 102.003 278.685 101.769 278.617C98.2131 277.598 94.8355 276.307 91.7238 274.746C91.4834 274.626 91.2467 274.506 91.0132 274.383C90.4129 274.071 89.8223 273.747 89.2446 273.412C85.88 271.469 83.1218 269.308 80.9705 267.007C80.7273 266.745 80.4906 266.482 80.2599 266.216C74.4128 259.444 73.6701 251.566 78.0342 244.515C80.3445 240.783 84.0793 237.285 89.2446 234.304C107.918 223.521 138.306 223.521 156.982 234.304C162.148 237.285 165.883 240.783 168.19 244.515C172.278 251.121 171.885 258.454 167.008 264.924Z" fill="var(--fill-0, #FF9D4D)"/>
<path id="Path 73" d="M124.969 249.134L130.432 252.288C130.308 252.348 130.186 252.412 130.067 252.48L127.069 254.211L121.964 251.264L123.651 250.291C124.254 249.942 124.693 249.557 124.969 249.134Z" fill="var(--fill-0, #D1975D)"/>
<path id="Path 74" d="M141.307 262.432L141.307 262.432L146.906 265.664L150.252 263.732L144.64 260.492C144.688 260.459 144.74 260.43 144.788 260.395C145.035 260.242 145.272 260.083 145.499 259.924C146.294 259.363 146.979 258.779 147.559 258.172C148.481 257.208 149.075 256.235 149.337 255.252C149.603 254.268 149.487 253.311 148.987 252.373C148.487 251.436 147.537 250.56 146.132 249.749C145.921 249.629 145.71 249.512 145.499 249.401C145.265 249.278 145.029 249.164 144.788 249.054C142.981 248.217 141.057 247.721 139.013 247.558C137.575 247.448 136.154 247.49 134.743 247.685C134.506 247.717 134.269 247.756 134.032 247.799C133.172 247.951 132.319 248.159 131.472 248.425C132.345 247.127 132.478 245.836 131.871 244.544C131.261 243.256 130.145 242.143 128.523 241.205C127.491 240.611 126.29 240.125 124.914 239.745C123.542 239.369 122.13 239.138 120.677 239.057C119.226 238.976 117.782 239.06 116.345 239.313C114.907 239.566 113.613 240.024 112.458 240.693L111.403 241.302L106.01 238.188L102.663 240.121L108.054 243.233L103.986 245.585L98.5915 242.471L95.245 244.403L100.637 247.516L94.6632 250.966L101.769 255.07L102.48 255.479L112.523 261.277L113.233 261.689L123.279 267.487L123.989 267.899L127.912 270.164L133.889 266.715L133.89 266.715L139.488 269.947L142.834 268.015L137.236 264.783L137.238 264.781L141.307 262.432ZM130.067 252.481C130.187 252.412 130.307 252.348 130.43 252.289C130.898 252.065 131.411 251.897 131.962 251.793C132.63 251.663 133.321 251.614 134.032 251.64C134.068 251.64 134.106 251.644 134.142 251.644C134.344 251.653 134.541 251.67 134.743 251.689C135.291 251.747 135.842 251.848 136.391 251.994C137.137 252.192 137.812 252.464 138.403 252.805C138.996 253.149 139.448 253.535 139.762 253.967C140.074 254.401 140.236 254.839 140.252 255.281C140.268 255.722 140.129 256.154 139.834 256.579C139.652 256.835 139.415 257.078 139.123 257.306C138.979 257.419 138.815 257.529 138.643 257.636C138.594 257.666 138.548 257.697 138.497 257.727L135.918 259.216L135.826 259.269L134.743 259.895L134.032 260.304L131.757 261.618L128.896 263.269L120.14 258.213L121.074 257.673L122.998 256.562L122.997 256.562L123.279 256.4L123.989 255.991L127.069 254.214L130.067 252.481ZM112.523 247.036L113.233 246.624L113.58 246.423L113.581 246.424L115.549 245.288C115.663 245.223 115.788 245.174 115.907 245.116C116.309 244.921 116.731 244.755 117.192 244.645C117.828 244.492 118.522 244.424 119.271 244.437C120.69 244.463 122.026 244.826 123.279 245.534C123.308 245.55 123.341 245.569 123.37 245.585C123.597 245.715 123.801 245.848 123.989 245.984C124.885 246.627 125.326 247.308 125.313 248.032C125.307 248.425 125.193 248.792 124.97 249.135C124.749 249.473 124.421 249.791 123.989 250.08C123.882 250.151 123.772 250.222 123.652 250.29L123.279 250.505L121.965 251.264L117.894 253.615L117.893 253.615L116.782 254.256L115.034 255.265L114.064 254.706L112.979 254.079L112.523 253.814L110.473 252.632L106.651 250.426L107.713 249.812L109.51 248.775H109.509L112.523 247.036Z" fill="var(--fill-0, #FF9D4D)"/>
<path id="Path 75" d="M71.7285 269.094V280.834C71.4788 280.519 71.2449 280.204 71.0179 279.886V268.143C71.2449 268.462 71.4821 268.779 71.7285 269.094Z" fill="var(--fill-0, #FFE840)"/>
<path id="Path 76" d="M80.9705 276.878V288.621C80.7305 288.475 80.4934 288.329 80.2599 288.183V276.437C80.4934 276.586 80.7305 276.732 80.9705 276.878Z" fill="var(--fill-0, #FFE840)"/>
<path id="Path 77" d="M91.7237 282.031V293.777C91.487 293.689 91.2466 293.602 91.0132 293.507V281.765C91.2466 281.856 91.487 281.947 91.7237 282.031Z" fill="var(--fill-0, #FFE840)"/>
<path id="Path 78" d="M102.48 285.172V296.915C102.243 296.863 102.006 296.811 101.769 296.756V285.009C102.006 285.065 102.243 285.12 102.48 285.172Z" fill="var(--fill-0, #FFE840)"/>
<path id="Path 79" d="M113.233 286.862V298.605C112.997 298.586 112.759 298.559 112.523 298.533V286.79C112.759 286.816 112.997 286.843 113.233 286.862Z" fill="var(--fill-0, #FFE840)"/>
<path id="Path 80" d="M123.989 287.345V299.088C123.753 299.091 123.515 299.095 123.279 299.095V287.352C123.515 287.352 123.753 287.348 123.989 287.345Z" fill="var(--fill-0, #FFE840)"/>
<path id="Path 81" d="M134.743 286.674V298.417C134.506 298.446 134.269 298.475 134.032 298.498V286.755C134.269 286.733 134.506 286.703 134.743 286.674Z" fill="var(--fill-0, #FFE840)"/>
<path id="Path 82" d="M145.499 284.766V296.509C145.262 296.571 145.025 296.626 144.788 296.681V284.935C145.025 284.88 145.262 284.825 145.499 284.766Z" fill="var(--fill-0, #FFE840)"/>
<path id="Path 83" d="M156.252 281.359V293.102C156.015 293.196 155.778 293.29 155.541 293.381V281.635C155.778 281.548 156.015 281.453 156.252 281.359Z" fill="var(--fill-0, #FFE840)"/>
<path id="Path 84" d="M167.008 275.762V287.504C166.775 287.66 166.538 287.816 166.298 287.972V276.226C166.538 276.073 166.775 275.918 167.008 275.762Z" fill="var(--fill-0, #FFE840)"/>
<path id="Path 85" d="M176.548 266.296V278.039C176.324 278.405 176.084 278.772 175.834 279.135V267.393C176.084 267.029 176.321 266.662 176.548 266.296Z" fill="var(--fill-0, #FFE840)"/>
<path id="Path 86" d="M218.523 245.159V256.545V256.548V258.122H218.462C218.196 261.406 217.096 264.673 215.162 267.808C214.938 268.174 214.698 268.541 214.448 268.904C212.109 272.314 208.763 275.547 204.405 278.45C204.172 278.606 203.935 278.762 203.695 278.918C203.001 279.362 202.28 279.8 201.534 280.232C199.062 281.66 196.42 282.932 193.649 284.048C193.412 284.142 193.175 284.236 192.939 284.327C189.739 285.576 186.375 286.621 182.896 287.455C182.659 287.516 182.422 287.571 182.185 287.627C178.918 288.386 175.553 288.963 172.14 289.362C171.903 289.392 171.666 289.421 171.429 289.444C168.113 289.81 164.752 290.008 161.387 290.034C161.15 290.038 160.913 290.041 160.676 290.041C157.315 290.047 153.953 289.885 150.63 289.551C150.393 289.531 150.157 289.505 149.92 289.479C146.513 289.119 143.148 288.577 139.877 287.86C139.64 287.808 139.404 287.756 139.166 287.701C135.695 286.91 132.326 285.917 129.121 284.722C128.884 284.635 128.644 284.547 128.41 284.453C125.256 283.246 122.268 281.838 119.487 280.232C119.107 280.011 118.734 279.791 118.368 279.566C118.128 279.42 117.891 279.274 117.657 279.128C113.419 276.452 110.068 273.473 107.611 270.319C107.362 270.004 107.128 269.69 106.901 269.372C104.315 265.77 102.867 261.957 102.559 258.122H102.494V245.159H105.94C106.239 244.679 106.56 244.202 106.901 243.732C107.128 243.41 107.365 243.095 107.611 242.781C108.514 241.619 109.539 240.484 110.684 239.377C112.086 238.024 113.666 236.713 115.431 235.461C116.69 234.565 118.043 233.696 119.487 232.862C142.142 219.782 178.876 219.782 201.534 232.862C202.978 233.696 204.328 234.562 205.587 235.461C207.348 236.713 208.932 238.021 210.334 239.377C211.943 240.932 213.316 242.547 214.448 244.202C214.669 244.52 214.877 244.838 215.077 245.159H218.523Z" fill="var(--fill-0, #FF9D4D)"/>
<path id="Path 87" d="M160.509 223.763C175.884 223.763 190.327 227.213 201.179 233.478C202.59 234.293 203.934 235.155 205.175 236.04C206.895 237.263 208.464 238.558 209.84 239.889C211.396 241.391 212.748 242.977 213.864 244.608C214.066 244.898 214.265 245.202 214.475 245.537L214.684 245.871H215.077H217.813V256.549V257.412H217.806L217.753 258.065C217.494 261.265 216.419 264.417 214.555 267.438C214.35 267.773 214.117 268.132 213.862 268.503C211.521 271.916 208.206 275.064 204.011 277.859C203.78 278.013 203.546 278.168 203.312 278.319C202.63 278.756 201.912 279.193 201.179 279.616C198.777 281.004 196.154 282.273 193.384 283.388C193.151 283.481 192.917 283.574 192.68 283.665C189.539 284.891 186.191 285.934 182.717 286.767C182.486 286.827 182.255 286.881 182.025 286.934C178.824 287.679 175.471 288.258 172.053 288.657C171.822 288.686 171.592 288.714 171.351 288.737C168.064 289.101 164.71 289.298 161.377 289.324C161.143 289.327 160.91 289.33 160.675 289.33H160.482C157.202 289.33 153.912 289.167 150.689 288.843C150.458 288.824 150.228 288.798 149.995 288.773C146.615 288.416 143.262 287.875 140.029 287.166C139.796 287.115 139.562 287.064 139.325 287.008C135.85 286.216 132.5 285.223 129.367 284.056L129.282 284.025C129.08 283.95 128.875 283.874 128.664 283.79C125.524 282.588 122.556 281.184 119.845 279.618C119.469 279.4 119.1 279.182 118.737 278.96C118.5 278.815 118.265 278.671 118.037 278.528C113.947 275.944 110.628 273.035 108.168 269.877C107.949 269.602 107.724 269.301 107.478 268.957C104.987 265.487 103.57 261.823 103.268 258.066L103.215 257.412H103.206V245.871H105.94H106.336L106.544 245.535C106.831 245.074 107.145 244.607 107.481 244.142C107.688 243.851 107.913 243.549 108.173 243.217C109.05 242.087 110.061 240.967 111.178 239.889C112.574 238.541 114.144 237.246 115.843 236.04C117.097 235.148 118.443 234.286 119.843 233.478C130.693 227.213 145.135 223.763 160.509 223.763V223.763ZM160.509 223.052C145.662 223.052 130.815 226.322 119.487 232.862C118.043 233.696 116.69 234.566 115.431 235.461C113.666 236.714 112.086 238.025 110.684 239.377C109.539 240.484 108.514 241.62 107.611 242.781C107.365 243.096 107.128 243.411 106.901 243.732C106.56 244.202 106.239 244.68 105.94 245.16H102.494V258.123H102.56C102.867 261.958 104.315 265.77 106.901 269.372C107.128 269.69 107.362 270.005 107.611 270.32C110.068 273.474 113.419 276.452 117.657 279.129C117.891 279.275 118.128 279.421 118.368 279.567C118.734 279.791 119.107 280.012 119.487 280.232C122.268 281.838 125.256 283.247 128.41 284.454C128.644 284.548 128.884 284.635 129.121 284.723C132.326 285.917 135.695 286.91 139.167 287.702C139.404 287.757 139.64 287.809 139.877 287.861C143.148 288.578 146.513 289.12 149.92 289.48C150.157 289.506 150.394 289.532 150.63 289.551C153.889 289.879 157.185 290.041 160.482 290.041C160.547 290.041 160.612 290.041 160.676 290.041C160.913 290.041 161.15 290.038 161.387 290.034C164.752 290.009 168.113 289.811 171.429 289.444C171.666 289.422 171.903 289.392 172.14 289.363C175.553 288.964 178.918 288.386 182.185 287.627C182.423 287.572 182.659 287.517 182.896 287.455C186.375 286.621 189.739 285.577 192.939 284.327C193.175 284.236 193.412 284.142 193.649 284.048C196.42 282.932 199.062 281.66 201.534 280.232C202.28 279.801 203.001 279.363 203.695 278.918C203.935 278.763 204.172 278.607 204.405 278.451C208.763 275.547 212.109 272.315 214.448 268.905C214.698 268.541 214.938 268.175 215.162 267.808C217.096 264.674 218.196 261.406 218.462 258.123H218.523V256.549V256.546V245.16H215.077C214.877 244.839 214.669 244.52 214.448 244.202C213.316 242.548 211.943 240.932 210.334 239.377C208.932 238.021 207.349 236.714 205.587 235.461C204.328 234.562 202.978 233.696 201.534 232.862C190.205 226.322 175.357 223.052 160.509 223.052Z" fill="var(--fill-0, #FFE840)"/>
<path id="Path 88" d="M201.532 221.119C224.188 234.199 224.188 255.408 201.532 268.488C178.876 281.569 142.143 281.569 119.486 268.488C96.8299 255.408 96.8299 234.199 119.486 221.119C142.143 208.038 178.876 208.038 201.532 221.119Z" fill="var(--fill-0, #FFE840)"/>
<path id="Path 89" d="M210.333 239.377C208.478 233.627 203.672 228.335 196.352 224.11C186.777 218.581 174.047 215.538 160.51 215.538C146.97 215.538 134.241 218.581 124.669 224.11C117.349 228.335 112.54 233.627 110.684 239.377C110.113 241.148 109.821 242.963 109.821 244.802C109.821 250.429 112.553 255.815 117.657 260.452C117.888 260.666 118.124 260.873 118.367 261.078C120.194 262.651 122.3 264.128 124.669 265.497C125.87 266.188 127.119 266.844 128.41 267.454C128.647 267.567 128.884 267.678 129.121 267.785C132.239 269.212 135.61 270.41 139.166 271.36C139.404 271.425 139.64 271.49 139.877 271.552C143.093 272.376 146.454 273.009 149.92 273.428C150.156 273.46 150.393 273.489 150.63 273.515C153.849 273.881 157.155 274.067 160.51 274.067H160.676C160.913 274.067 161.15 274.063 161.386 274.06C164.803 274.027 168.162 273.804 171.429 273.389C171.666 273.359 171.903 273.33 172.14 273.295C175.611 272.83 178.977 272.149 182.185 271.273C182.425 271.208 182.662 271.143 182.896 271.072C186.465 270.059 189.833 268.794 192.939 267.295C193.175 267.184 193.415 267.067 193.649 266.948C194.574 266.487 195.476 266.003 196.352 265.497C199.185 263.862 201.641 262.064 203.695 260.147C203.938 259.92 204.175 259.692 204.405 259.462C208.835 255.056 211.197 250.033 211.197 244.802C211.197 242.963 210.904 241.148 210.333 239.377V239.377ZM204.405 255.87C204.178 256.172 203.941 256.474 203.695 256.772C201.417 259.517 198.312 262.087 194.379 264.358C194.139 264.498 193.896 264.634 193.649 264.771C193.415 264.9 193.179 265.03 192.939 265.153C189.846 266.801 186.468 268.167 182.896 269.255C182.662 269.326 182.422 269.397 182.185 269.465C178.96 270.41 175.589 271.13 172.14 271.623C171.906 271.659 171.669 271.692 171.429 271.72C168.129 272.165 164.761 272.405 161.386 272.438C161.15 272.441 160.913 272.444 160.676 272.444C157.308 272.451 153.937 272.256 150.63 271.854C150.393 271.824 150.153 271.795 149.92 271.763C146.48 271.318 143.109 270.65 139.877 269.761C139.64 269.696 139.4 269.631 139.166 269.563C135.61 268.544 132.232 267.253 129.121 265.692C128.88 265.572 128.644 265.452 128.41 265.329C127.81 265.017 127.219 264.693 126.642 264.358C123.277 262.415 120.519 260.254 118.367 257.953C118.124 257.69 117.888 257.428 117.657 257.161C111.81 250.389 111.067 242.511 115.431 235.46C117.742 231.729 121.476 228.231 126.642 225.249C145.315 214.467 175.703 214.467 194.379 225.249C199.545 228.231 203.28 231.729 205.587 235.46C209.675 242.067 209.282 249.4 204.405 255.87Z" fill="var(--fill-0, #FF9D4D)"/>
<path id="Path 90" d="M162.366 240.081L167.829 243.235C167.705 243.294 167.583 243.358 167.464 243.427L164.466 245.158L159.361 242.211L161.048 241.237C161.651 240.888 162.09 240.503 162.366 240.081Z" fill="var(--fill-0, #D1975D)"/>
<path id="Path 91" d="M178.704 253.379L178.704 253.378L184.303 256.61L187.649 254.678L182.037 251.438C182.085 251.406 182.137 251.376 182.185 251.341C182.432 251.188 182.669 251.029 182.896 250.871C183.691 250.309 184.376 249.725 184.956 249.118C185.878 248.155 186.472 247.181 186.734 246.197C187 245.214 186.884 244.258 186.384 243.319C185.884 242.382 184.934 241.506 183.529 240.695C183.318 240.575 183.107 240.458 182.896 240.347C182.662 240.224 182.426 240.111 182.185 240C180.378 239.163 178.454 238.666 176.41 238.504C174.972 238.394 173.551 238.436 172.14 238.631C171.903 238.663 171.666 238.703 171.429 238.745C170.569 238.897 169.716 239.104 168.869 239.371C169.742 238.073 169.875 236.782 169.268 235.49C168.658 234.202 167.542 233.089 165.92 232.151C164.888 231.557 163.687 231.071 162.311 230.691C160.938 230.314 159.527 230.085 158.074 230.003C156.623 229.922 155.179 230.007 153.742 230.26C152.304 230.513 151.01 230.97 149.855 231.638L148.8 232.249L143.407 229.135L140.06 231.067L145.451 234.179L141.383 236.532L135.988 233.418L132.642 235.35L138.034 238.463L132.06 241.912L139.166 246.016L139.877 246.425L149.92 252.223L150.63 252.635L160.676 258.434L161.387 258.846L165.309 261.11L171.286 257.661H171.287L176.885 260.893L180.231 258.961L174.633 255.729L174.635 255.728L178.704 253.379ZM167.464 243.427C167.584 243.359 167.704 243.294 167.827 243.235C168.295 243.011 168.808 242.843 169.359 242.739C170.027 242.609 170.718 242.56 171.429 242.586C171.465 242.586 171.503 242.59 171.539 242.59C171.741 242.599 171.938 242.616 172.14 242.635C172.688 242.694 173.239 242.794 173.788 242.94C174.534 243.138 175.209 243.411 175.8 243.752C176.393 244.095 176.845 244.481 177.159 244.913C177.47 245.348 177.633 245.786 177.649 246.227C177.665 246.668 177.526 247.099 177.231 247.525C177.049 247.781 176.812 248.024 176.52 248.252C176.376 248.365 176.213 248.476 176.04 248.582C175.991 248.612 175.945 248.643 175.894 248.673L173.315 250.161L173.223 250.214L172.14 250.841L171.429 251.25L169.154 252.564L166.293 254.215L157.537 249.16L158.471 248.62L160.395 247.508H160.394L160.676 247.346L161.387 246.938L164.466 245.16L167.464 243.427ZM149.92 237.982L150.63 237.57L150.977 237.369L150.978 237.371L152.946 236.235C153.06 236.169 153.185 236.121 153.304 236.062C153.705 235.867 154.128 235.701 154.589 235.59C155.225 235.438 155.919 235.37 156.669 235.383C158.087 235.409 159.423 235.773 160.676 236.48C160.705 236.496 160.737 236.515 160.767 236.532C160.994 236.661 161.198 236.794 161.387 236.931C162.282 237.573 162.723 238.255 162.71 238.978C162.704 239.371 162.59 239.738 162.367 240.081C162.146 240.419 161.818 240.737 161.387 241.026C161.279 241.097 161.169 241.169 161.049 241.236L160.676 241.451L159.362 242.21L155.291 244.562L155.29 244.561L154.179 245.203L152.431 246.21L151.461 245.652L150.376 245.025L149.92 244.761L147.87 243.578L144.048 241.371L145.11 240.759L146.907 239.721H146.906L149.92 237.982Z" fill="var(--fill-0, #FF9D4D)"/>
<path id="Path 92" d="M109.126 260.04V271.78C108.876 271.465 108.642 271.15 108.415 270.832V259.09C108.642 259.408 108.879 259.725 109.126 260.04Z" fill="var(--fill-0, #FFE840)"/>
<path id="Path 93" d="M118.368 267.824V279.567C118.128 279.421 117.891 279.275 117.657 279.129V267.382C117.891 267.532 118.128 267.678 118.368 267.824Z" fill="var(--fill-0, #FFE840)"/>
<path id="Path 94" d="M129.121 272.977V284.723C128.884 284.635 128.644 284.548 128.41 284.454V272.711C128.644 272.802 128.884 272.893 129.121 272.977Z" fill="var(--fill-0, #FFE840)"/>
<path id="Path 95" d="M139.877 276.118V287.86C139.64 287.809 139.403 287.757 139.166 287.702V275.956C139.403 276.011 139.64 276.066 139.877 276.118Z" fill="var(--fill-0, #FFE840)"/>
<path id="Path 96" d="M150.63 277.808V289.551C150.393 289.531 150.156 289.505 149.919 289.479V277.737C150.156 277.762 150.393 277.788 150.63 277.808Z" fill="var(--fill-0, #FFE840)"/>
<path id="Path 97" d="M161.386 278.291V290.034C161.15 290.038 160.913 290.041 160.676 290.041V278.298C160.913 278.298 161.15 278.295 161.386 278.291Z" fill="var(--fill-0, #FFE840)"/>
<path id="Path 98" d="M172.14 277.62V289.362C171.903 289.392 171.666 289.421 171.429 289.444V277.701C171.666 277.678 171.903 277.649 172.14 277.62Z" fill="var(--fill-0, #FFE840)"/>
<path id="Path 99" d="M182.896 275.712V287.455C182.659 287.517 182.422 287.572 182.185 287.627V275.881C182.422 275.826 182.659 275.771 182.896 275.712Z" fill="var(--fill-0, #FFE840)"/>
<path id="Path 100" d="M193.649 272.305V284.048C193.412 284.142 193.175 284.235 192.938 284.327V272.58C193.175 272.493 193.412 272.399 193.649 272.305Z" fill="var(--fill-0, #FFE840)"/>
<path id="Path 101" d="M204.406 266.708V278.45C204.172 278.606 203.935 278.762 203.695 278.918V267.172C203.935 267.019 204.172 266.863 204.406 266.708Z" fill="var(--fill-0, #FFE840)"/>
<path id="Path 102" d="M213.945 257.241V268.984C213.721 269.351 213.481 269.717 213.231 270.081V258.338C213.481 257.975 213.718 257.608 213.945 257.241Z" fill="var(--fill-0, #FFE840)"/>
<path id="Path 103" d="M177.211 221.767V233.152V233.156V234.729H177.149C176.883 238.013 175.783 241.281 173.85 244.415C173.626 244.781 173.386 245.148 173.136 245.512C170.796 248.922 167.451 252.154 163.093 255.058C162.86 255.213 162.622 255.369 162.382 255.525C161.688 255.97 160.968 256.408 160.221 256.839C157.749 258.267 155.108 259.539 152.337 260.655C152.1 260.749 151.863 260.843 151.626 260.934C148.427 262.183 145.062 263.228 141.584 264.062C141.347 264.124 141.11 264.179 140.873 264.234C137.606 264.993 134.241 265.571 130.827 265.97C130.59 265.999 130.354 266.028 130.117 266.051C126.801 266.417 123.439 266.616 120.074 266.642C119.837 266.645 119.601 266.648 119.364 266.648C116.002 266.655 112.641 266.492 109.318 266.158C109.081 266.138 108.844 266.113 108.607 266.087C105.2 265.726 101.835 265.185 98.5646 264.468C98.3279 264.416 98.0912 264.364 97.854 264.308C94.3825 263.517 91.0141 262.524 87.8085 261.33C87.5713 261.242 87.3314 261.154 87.0979 261.061C83.9439 259.854 80.9555 258.445 78.175 256.839C77.7951 256.618 77.4221 256.398 77.0552 256.174C76.8152 256.028 76.5785 255.882 76.3446 255.736C72.107 253.059 68.7554 250.08 66.299 246.926C66.0493 246.611 65.8154 246.297 65.5884 245.979C63.0023 242.377 61.555 238.565 61.2467 234.729H61.1821V221.767H64.6281C64.9266 221.287 65.2475 220.81 65.5884 220.339C65.8154 220.018 66.0525 219.703 66.299 219.388C67.2012 218.227 68.2262 217.091 69.3716 215.985C70.7733 214.631 72.3535 213.32 74.1188 212.068C75.3777 211.172 76.731 210.303 78.175 209.469C100.829 196.389 137.563 196.389 160.221 209.469C161.665 210.303 163.015 211.169 164.274 212.068C166.036 213.32 167.619 214.628 169.022 215.985C170.631 217.539 172.003 219.154 173.136 220.81C173.356 221.128 173.564 221.445 173.765 221.767H177.211Z" fill="var(--fill-0, #FF9D4D)"/>
<path id="Path 104" d="M119.197 200.371C134.571 200.371 149.014 203.82 159.866 210.085C161.278 210.9 162.622 211.762 163.862 212.648C165.583 213.871 167.152 215.165 168.528 216.496C170.083 217.998 171.436 219.585 172.552 221.215C172.753 221.505 172.953 221.809 173.163 222.144L173.372 222.478H173.765H176.5V233.156V234.019H176.494L176.441 234.672C176.182 237.872 175.106 241.024 173.243 244.045C173.038 244.381 172.805 244.739 172.549 245.11C170.208 248.523 166.894 251.671 162.699 254.467C162.468 254.621 162.233 254.775 161.999 254.927C161.317 255.363 160.599 255.8 159.866 256.224C157.464 257.611 154.841 258.88 152.071 259.996C151.838 260.088 151.605 260.181 151.368 260.272C148.226 261.499 144.879 262.541 141.405 263.374C141.174 263.434 140.943 263.488 140.712 263.542C137.512 264.286 134.158 264.865 130.741 265.265C130.51 265.293 130.28 265.321 130.039 265.345C126.752 265.708 123.397 265.906 120.064 265.931C119.831 265.934 119.597 265.938 119.362 265.938H119.17C115.89 265.938 112.599 265.774 109.376 265.45C109.145 265.431 108.915 265.406 108.682 265.38C105.303 265.023 101.95 264.483 98.7167 263.773C98.4833 263.722 98.2494 263.671 98.0122 263.616C94.5373 262.824 91.188 261.83 88.055 260.664L87.9699 260.632C87.7671 260.557 87.563 260.482 87.3518 260.397C84.2118 259.195 81.2439 257.791 78.5322 256.225C78.1569 256.007 77.7881 255.789 77.4249 255.567C77.1872 255.422 76.9529 255.278 76.7245 255.135C72.6344 252.552 69.3153 249.643 66.8557 246.485C66.6366 246.209 66.4116 245.908 66.166 245.565C63.6738 242.095 62.2573 238.43 61.9555 234.673L61.9029 234.019H61.8931V222.478H64.6281H65.0234L65.2317 222.142C65.5182 221.681 65.8321 221.215 66.1688 220.75C66.3753 220.458 66.6008 220.156 66.8603 219.825C67.7379 218.695 68.7489 217.575 69.8655 216.496C71.262 215.148 72.8316 213.853 74.5309 212.648C75.7851 211.756 77.131 210.893 78.5303 210.085C89.3808 203.82 103.823 200.371 119.197 200.371V200.371ZM119.197 199.66C104.349 199.66 89.5022 202.929 78.175 209.469C76.731 210.303 75.3777 211.173 74.1188 212.068C72.354 213.321 70.7737 214.632 69.3716 215.985C68.2262 217.091 67.2012 218.227 66.299 219.389C66.0525 219.703 65.8154 220.018 65.5884 220.34C65.2475 220.81 64.9266 221.287 64.6281 221.767H61.1821V234.73H61.2472C61.555 238.565 63.0023 242.378 65.5884 245.979C65.8154 246.297 66.0493 246.612 66.299 246.927C68.7554 250.081 72.107 253.06 76.345 255.736C76.5785 255.882 76.8152 256.028 77.0556 256.174C77.4221 256.398 77.7951 256.619 78.175 256.839C80.9555 258.446 83.9439 259.854 87.0979 261.061C87.3314 261.155 87.5718 261.243 87.8085 261.33C91.0141 262.524 94.3825 263.517 97.854 264.309C98.0912 264.364 98.3279 264.416 98.5646 264.468C101.835 265.185 105.2 265.727 108.607 266.087C108.844 266.113 109.081 266.139 109.318 266.159C112.577 266.486 115.873 266.649 119.17 266.649C119.234 266.649 119.299 266.649 119.364 266.648C119.601 266.648 119.837 266.645 120.074 266.642C123.439 266.616 126.801 266.418 130.117 266.052C130.354 266.029 130.59 265.999 130.827 265.97C134.241 265.571 137.606 264.994 140.873 264.234C141.11 264.179 141.347 264.124 141.584 264.062C145.062 263.228 148.427 262.184 151.626 260.935C151.863 260.843 152.1 260.75 152.337 260.655C155.108 259.539 157.749 258.267 160.221 256.839C160.968 256.408 161.688 255.97 162.382 255.526C162.623 255.37 162.86 255.214 163.093 255.058C167.451 252.154 170.796 248.922 173.136 245.512C173.386 245.149 173.626 244.782 173.85 244.415C175.783 241.281 176.883 238.013 177.15 234.73H177.211V233.156V233.153V221.767H173.765C173.564 221.446 173.356 221.128 173.136 220.81C172.003 219.155 170.631 217.539 169.022 215.985C167.62 214.629 166.036 213.321 164.274 212.068C163.015 211.17 161.665 210.303 160.221 209.469C148.893 202.929 134.045 199.66 119.197 199.66Z" fill="var(--fill-0, #FFE840)"/>
<path id="Path 105" d="M160.221 197.727C182.877 210.807 182.877 232.015 160.221 245.096C137.564 258.177 100.831 258.177 78.1745 245.096C55.5182 232.015 55.5182 210.807 78.1745 197.727C100.831 184.646 137.564 184.646 160.221 197.727Z" fill="var(--fill-0, #FFE840)"/>
<path id="Path 106" d="M169.021 215.985C167.166 210.235 162.36 204.943 155.04 200.718C145.464 195.189 132.735 192.145 119.198 192.145C105.658 192.145 92.9286 195.189 83.3565 200.718C76.0362 204.943 71.2276 210.235 69.3715 215.985C68.8005 217.756 68.5084 219.57 68.5084 221.41C68.5084 227.036 71.2406 232.422 76.3445 237.059C76.5752 237.273 76.8119 237.481 77.0551 237.685C78.8818 239.259 80.988 240.736 83.3565 242.105C84.5573 242.796 85.8064 243.452 87.0978 244.062C87.3346 244.175 87.5713 244.285 87.8084 244.392C90.9266 245.82 94.2977 247.018 97.854 247.968C98.0911 248.033 98.3279 248.098 98.5646 248.16C101.78 248.984 105.142 249.617 108.607 250.035C108.844 250.067 109.081 250.097 109.318 250.123C112.537 250.49 115.843 250.674 119.198 250.674H119.363C119.601 250.674 119.837 250.671 120.074 250.668C123.491 250.635 126.849 250.412 130.117 249.996C130.354 249.967 130.59 249.938 130.827 249.902C134.299 249.438 137.664 248.757 140.873 247.881C141.113 247.816 141.35 247.751 141.584 247.679C145.153 246.667 148.521 245.402 151.626 243.903C151.863 243.792 152.103 243.675 152.337 243.555C153.261 243.095 154.164 242.611 155.04 242.105C157.872 240.47 160.328 238.672 162.382 236.754C162.626 236.527 162.863 236.3 163.093 236.07C167.522 231.664 169.884 226.64 169.884 221.41C169.884 219.57 169.592 217.756 169.021 215.985V215.985ZM163.093 232.478C162.866 232.78 162.629 233.081 162.382 233.38C160.105 236.125 157 238.695 153.067 240.966C152.827 241.105 152.583 241.242 152.337 241.378C152.103 241.508 151.866 241.638 151.626 241.761C148.534 243.409 145.156 244.776 141.584 245.862C141.35 245.934 141.11 246.005 140.873 246.073C137.648 247.018 134.276 247.738 130.827 248.231C130.593 248.267 130.357 248.299 130.117 248.329C126.817 248.773 123.449 249.013 120.074 249.046C119.837 249.049 119.601 249.052 119.363 249.052C115.996 249.059 112.624 248.864 109.318 248.462C109.081 248.432 108.841 248.403 108.607 248.37C105.168 247.926 101.797 247.258 98.5646 246.369C98.3279 246.304 98.0879 246.239 97.854 246.171C94.2977 245.152 90.9201 243.86 87.8084 242.3C87.568 242.18 87.3313 242.06 87.0978 241.936C86.4975 241.625 85.9069 241.3 85.3293 240.966C81.9646 239.022 79.2064 236.861 77.0551 234.561C76.8119 234.298 76.5752 234.035 76.3445 233.769C70.4974 226.997 69.7547 219.119 74.1188 212.068C76.4291 208.337 80.1639 204.839 85.3293 201.857C104.003 191.075 134.39 191.075 153.067 201.857C158.232 204.839 161.967 208.337 164.274 212.068C168.363 218.675 167.97 226.008 163.093 232.478Z" fill="var(--fill-0, #FF9D4D)"/>
<path id="Path 107" d="M121.054 216.688L126.517 219.842C126.393 219.901 126.271 219.966 126.153 220.034L123.155 221.765L118.05 218.818L119.736 217.844C120.339 217.496 120.779 217.11 121.054 216.688Z" fill="var(--fill-0, #D1975D)"/>
<path id="Path 108" d="M137.392 229.985L137.392 229.985L142.99 233.217L146.337 231.285L140.725 228.045C140.773 228.013 140.825 227.983 140.873 227.948C141.12 227.795 141.357 227.636 141.584 227.477C142.379 226.916 143.063 226.332 143.644 225.725C144.565 224.762 145.159 223.788 145.422 222.805C145.688 221.821 145.571 220.864 145.072 219.927C144.572 218.989 143.621 218.113 142.217 217.302C142.005 217.182 141.795 217.065 141.584 216.954C141.35 216.831 141.113 216.718 140.873 216.607C139.066 215.77 137.142 215.274 135.098 215.111C133.66 215.001 132.239 215.043 130.827 215.238C130.591 215.27 130.354 215.309 130.117 215.352C129.257 215.504 128.404 215.712 127.557 215.978C128.43 214.68 128.563 213.389 127.956 212.097C127.346 210.809 126.23 209.696 124.607 208.758C123.575 208.164 122.375 207.678 120.999 207.298C119.626 206.922 118.215 206.692 116.762 206.61C115.311 206.529 113.867 206.613 112.43 206.866C110.992 207.119 109.697 207.577 108.542 208.246L107.488 208.855L102.094 205.741L98.7478 207.674L104.139 210.786L100.07 213.139L94.6763 210.025L91.3298 211.956L96.7216 215.069L90.7481 218.519L97.854 222.623L98.5646 223.032L108.607 228.83L109.318 229.242L119.363 235.041L120.074 235.453L123.997 237.718L129.974 234.269L129.975 234.268L135.572 237.5L138.919 235.568L133.321 232.336L133.322 232.334L137.392 229.985ZM126.152 220.034C126.272 219.965 126.392 219.901 126.515 219.842C126.982 219.619 127.495 219.45 128.046 219.346C128.715 219.216 129.406 219.167 130.117 219.193C130.153 219.193 130.191 219.197 130.227 219.197C130.428 219.206 130.626 219.223 130.827 219.242C131.376 219.3 131.927 219.401 132.476 219.547C133.222 219.745 133.897 220.018 134.487 220.358C135.081 220.702 135.532 221.088 135.847 221.52C136.158 221.954 136.321 222.393 136.337 222.834C136.353 223.275 136.214 223.707 135.918 224.132C135.737 224.388 135.5 224.632 135.208 224.859C135.064 224.973 134.9 225.083 134.727 225.189C134.679 225.22 134.633 225.25 134.582 225.28L132.003 226.769L131.911 226.822L130.827 227.448L130.117 227.857L127.842 229.171L124.981 230.822L116.224 225.766L117.159 225.227L119.083 224.116L119.082 224.115L119.363 223.953L120.074 223.544L123.154 221.767L126.152 220.034ZM108.607 214.589L109.318 214.177L109.664 213.976L109.666 213.977L111.634 212.841C111.747 212.776 111.873 212.727 111.992 212.669C112.393 212.474 112.816 212.308 113.276 212.198C113.913 212.045 114.607 211.977 115.356 211.99C116.775 212.016 118.111 212.38 119.363 213.087C119.393 213.103 119.425 213.122 119.455 213.139C119.682 213.268 119.886 213.401 120.074 213.538C120.97 214.18 121.411 214.862 121.398 215.585C121.392 215.978 121.278 216.345 121.054 216.688C120.834 217.026 120.506 217.344 120.074 217.633C119.967 217.704 119.857 217.776 119.737 217.843L119.363 218.058L118.05 218.817L113.979 221.169L113.978 221.168L112.867 221.81L111.119 222.818L110.149 222.259L109.064 221.632L108.607 221.368L106.557 220.185L102.736 217.979L103.797 217.366L105.595 216.328H105.594L108.607 214.589Z" fill="var(--fill-0, #FF9D4D)"/>
<path id="Path 109" d="M67.8131 236.648V248.388C67.5634 248.073 67.3295 247.758 67.1026 247.44V235.697C67.3295 236.015 67.5667 236.333 67.8131 236.648Z" fill="var(--fill-0, #FFE840)"/>
<path id="Path 110" d="M77.0556 244.432V256.175C76.8156 256.028 76.5784 255.882 76.345 255.736V243.99C76.5784 244.14 76.8156 244.286 77.0556 244.432Z" fill="var(--fill-0, #FFE840)"/>
<path id="Path 111" d="M87.8084 249.584V261.33C87.5712 261.243 87.3312 261.155 87.0978 261.061V249.318C87.3312 249.409 87.5712 249.5 87.8084 249.584Z" fill="var(--fill-0, #FFE840)"/>
<path id="Path 112" d="M98.5651 252.725V264.468C98.3284 264.416 98.0912 264.364 97.8545 264.309V252.563C98.0912 252.618 98.3284 252.674 98.5651 252.725Z" fill="var(--fill-0, #FFE840)"/>
<path id="Path 113" d="M109.318 254.416V266.159C109.081 266.139 108.844 266.113 108.607 266.087V254.344C108.844 254.37 109.081 254.396 109.318 254.416Z" fill="var(--fill-0, #FFE840)"/>
<path id="Path 114" d="M120.075 254.899V266.642C119.838 266.645 119.6 266.648 119.364 266.648V254.905C119.6 254.905 119.838 254.902 120.075 254.899Z" fill="var(--fill-0, #FFE840)"/>
<path id="Path 115" d="M130.828 254.227V265.97C130.591 265.999 130.354 266.028 130.117 266.051V254.308C130.354 254.286 130.591 254.257 130.828 254.227Z" fill="var(--fill-0, #FFE840)"/>
<path id="Path 116" d="M141.584 252.319V264.063C141.347 264.124 141.11 264.179 140.873 264.234V252.488C141.11 252.433 141.347 252.378 141.584 252.319Z" fill="var(--fill-0, #FFE840)"/>
<path id="Path 117" d="M152.337 248.912V260.656C152.1 260.749 151.863 260.844 151.626 260.935V249.188C151.863 249.101 152.1 249.007 152.337 248.912Z" fill="var(--fill-0, #FFE840)"/>
<path id="Path 118" d="M163.093 243.315V255.058C162.86 255.214 162.622 255.37 162.383 255.525V243.78C162.622 243.627 162.86 243.471 163.093 243.315Z" fill="var(--fill-0, #FFE840)"/>
<path id="Path 119" d="M172.633 233.849V245.592C172.409 245.959 172.169 246.325 171.919 246.689V234.946C172.169 234.583 172.405 234.216 172.633 233.849Z" fill="var(--fill-0, #FFE840)"/>
<path id="Path 120" d="M194.352 202.127V213.513V213.516V215.09H194.29C194.024 218.374 192.924 221.641 190.991 224.776C190.767 225.142 190.527 225.509 190.277 225.872C187.937 229.283 184.592 232.515 180.234 235.418C180.001 235.574 179.764 235.73 179.524 235.886C178.829 236.33 178.109 236.768 177.363 237.2C174.89 238.628 172.249 239.9 169.478 241.016C169.241 241.11 169.004 241.204 168.767 241.295C165.568 242.544 162.203 243.589 158.725 244.423C158.488 244.485 158.251 244.539 158.014 244.595C154.747 245.354 151.382 245.931 147.969 246.331C147.731 246.36 147.495 246.389 147.258 246.412C143.942 246.778 140.58 246.976 137.215 247.002C136.979 247.006 136.742 247.009 136.505 247.009C133.143 247.015 129.781 246.853 126.459 246.519C126.222 246.499 125.985 246.473 125.749 246.448C122.342 246.087 118.976 245.545 115.706 244.828C115.469 244.776 115.232 244.725 114.995 244.669C111.524 243.878 108.155 242.885 104.95 241.691C104.712 241.603 104.472 241.515 104.239 241.421C101.085 240.214 98.0966 238.806 95.3161 237.2C94.9361 236.979 94.5632 236.759 94.1963 236.535C93.9563 236.388 93.7196 236.242 93.4857 236.096C89.2481 233.42 85.8965 230.441 83.4401 227.287C83.1904 226.972 82.9565 226.658 82.7295 226.34C80.1434 222.738 78.6961 218.925 78.3878 215.09H78.3232V202.127H81.7692C82.0678 201.647 82.3886 201.17 82.7295 200.7C82.9565 200.378 83.1936 200.063 83.4401 199.749C84.3423 198.587 85.3673 197.452 86.5127 196.345C87.9144 194.992 89.4946 193.681 91.2599 192.429C92.5188 191.533 93.8721 190.663 95.3161 189.83C117.971 176.75 154.704 176.75 177.363 189.83C178.806 190.663 180.157 191.53 181.415 192.429C183.177 193.681 184.761 194.989 186.162 196.345C187.772 197.9 189.145 199.515 190.277 201.17C190.497 201.488 190.705 201.806 190.906 202.127H194.352Z" fill="var(--fill-0, #FF9D4D)"/>
<path id="Path 121" d="M136.338 180.731C151.712 180.731 166.155 184.181 177.007 190.445C178.419 191.261 179.763 192.123 181.003 193.008C182.724 194.231 184.293 195.526 185.669 196.857C187.224 198.359 188.577 199.945 189.693 201.575C189.893 201.864 190.093 202.168 190.304 202.505L190.513 202.838H190.906H193.641V213.517V214.379H193.635L193.582 215.033C193.323 218.233 192.247 221.385 190.384 224.405C190.179 224.741 189.946 225.099 189.69 225.47C187.349 228.883 184.035 232.031 179.84 234.827C179.608 234.981 179.374 235.135 179.14 235.287C178.458 235.724 177.741 236.16 177.007 236.584C174.605 237.971 171.982 239.24 169.212 240.356C168.979 240.449 168.746 240.541 168.509 240.633C165.368 241.859 162.02 242.902 158.546 243.735C158.315 243.795 158.084 243.848 157.853 243.902C154.653 244.646 151.299 245.225 147.881 245.625C147.651 245.653 147.421 245.682 147.18 245.705C143.893 246.069 140.539 246.266 137.205 246.291C136.972 246.295 136.738 246.298 136.503 246.298H136.31C133.03 246.298 129.739 246.134 126.517 245.81C126.287 245.791 126.058 245.766 125.823 245.74C122.444 245.383 119.091 244.843 115.858 244.134C115.624 244.082 115.39 244.031 115.153 243.976C111.678 243.184 108.329 242.191 105.196 241.024L105.111 240.992C104.908 240.917 104.704 240.842 104.493 240.757C101.353 239.556 98.3847 238.152 95.673 236.585C95.2977 236.367 94.9289 236.149 94.5657 235.927C94.3281 235.783 94.0937 235.638 93.8654 235.496C89.7753 232.912 86.4562 230.003 83.9966 226.845C83.7775 226.569 83.5524 226.269 83.3069 225.925C80.8151 222.455 79.3986 218.79 79.0963 215.033L79.0438 214.379H79.034V202.838H81.769H82.1642L82.3726 202.503C82.6591 202.041 82.973 201.575 83.3097 201.11C83.5166 200.817 83.7422 200.516 84.0012 200.185C84.8787 199.055 85.8898 197.935 87.0063 196.857C88.4029 195.508 89.9724 194.214 91.6717 193.008C92.926 192.116 94.2714 191.254 95.6712 190.445C106.522 184.181 120.964 180.731 136.338 180.731V180.731ZM136.338 180.02C121.49 180.02 106.643 183.29 95.3159 189.83C93.8719 190.663 92.5186 191.533 91.2597 192.429C89.4948 193.681 87.9146 194.992 86.5129 196.345C85.3675 197.451 84.3421 198.587 83.4399 199.749C83.1934 200.064 82.9567 200.378 82.7293 200.7C82.3889 201.17 82.0675 201.647 81.769 202.127H78.3229V215.09H78.388C78.6959 218.926 80.1432 222.738 82.7293 226.34C82.9567 226.657 83.1902 226.972 83.4399 227.287C85.8963 230.441 89.2479 233.42 93.4859 236.097C93.7194 236.243 93.9561 236.389 94.1965 236.535C94.5629 236.758 94.9359 236.979 95.3159 237.2C98.0964 238.806 101.085 240.214 104.239 241.421C104.472 241.515 104.713 241.603 104.949 241.691C108.155 242.884 111.523 243.877 114.995 244.669C115.232 244.724 115.469 244.776 115.706 244.828C118.977 245.545 122.341 246.087 125.748 246.447C125.985 246.473 126.222 246.499 126.459 246.519C129.717 246.847 133.014 247.009 136.31 247.009C136.375 247.009 136.44 247.009 136.504 247.008C136.742 247.008 136.978 247.005 137.215 247.002C140.58 246.976 143.941 246.778 147.258 246.412C147.494 246.389 147.732 246.36 147.968 246.33C151.382 245.931 154.746 245.354 158.014 244.594C158.251 244.54 158.488 244.484 158.724 244.422C162.203 243.588 165.568 242.544 168.767 241.295C169.004 241.204 169.241 241.11 169.478 241.015C172.249 239.899 174.89 238.627 177.363 237.2C178.109 236.768 178.829 236.33 179.523 235.886C179.764 235.73 180.001 235.574 180.234 235.418C184.592 232.514 187.937 229.283 190.277 225.872C190.526 225.509 190.766 225.142 190.991 224.775C192.924 221.641 194.025 218.374 194.291 215.09H194.352V213.517V213.513V202.127H190.906C190.705 201.806 190.497 201.488 190.277 201.17C189.144 199.515 187.772 197.899 186.162 196.345C184.761 194.989 183.177 193.681 181.415 192.429C180.156 191.53 178.806 190.663 177.363 189.83C166.034 183.29 151.186 180.02 136.338 180.02Z" fill="var(--fill-0, #FFE840)"/>
<path id="Path 122" d="M177.361 178.087C200.018 191.168 200.018 212.376 177.361 225.456C154.705 238.537 117.972 238.537 95.3154 225.456C72.6591 212.376 72.6591 191.168 95.3154 178.087C117.972 165.007 154.705 165.007 177.361 178.087Z" fill="var(--fill-0, #FFE840)"/>
<path id="Path 123" d="M186.162 196.346C184.306 190.596 179.501 185.303 172.181 181.079C162.606 175.55 149.876 172.506 136.339 172.506C122.799 172.506 110.07 175.55 100.498 181.079C93.1775 185.303 88.3689 190.596 86.5129 196.346C85.9418 198.117 85.6497 199.931 85.6497 201.771C85.6497 207.397 88.3819 212.783 93.4858 217.42C93.7165 217.634 93.9532 217.842 94.1964 218.046C96.0231 219.62 98.1293 221.096 100.498 222.465C101.699 223.157 102.948 223.812 104.239 224.422C104.476 224.536 104.713 224.646 104.95 224.753C108.068 226.181 111.439 227.378 114.995 228.329C115.232 228.394 115.469 228.459 115.706 228.52C118.922 229.345 122.283 229.977 125.749 230.396C125.985 230.428 126.222 230.457 126.459 230.483C129.678 230.85 132.984 231.035 136.339 231.035H136.505C136.742 231.035 136.979 231.032 137.215 231.028C140.632 230.996 143.991 230.772 147.258 230.357C147.495 230.328 147.732 230.298 147.969 230.263C151.44 229.799 154.805 229.118 158.014 228.241C158.254 228.176 158.491 228.112 158.725 228.04C162.294 227.028 165.662 225.762 168.767 224.263C169.004 224.153 169.244 224.036 169.478 223.916C170.403 223.455 171.305 222.972 172.181 222.465C175.014 220.83 177.47 219.033 179.524 217.115C179.767 216.888 180.004 216.661 180.234 216.431C184.664 212.024 187.026 207.001 187.026 201.771C187.026 199.931 186.733 198.117 186.162 196.346V196.346ZM180.234 212.839C180.007 213.14 179.77 213.442 179.524 213.741C177.246 216.485 174.141 219.055 170.208 221.327C169.968 221.466 169.725 221.603 169.478 221.739C169.244 221.868 169.008 221.999 168.767 222.122C165.675 223.77 162.297 225.136 158.725 226.223C158.491 226.295 158.251 226.366 158.014 226.434C154.789 227.378 151.418 228.099 147.969 228.592C147.735 228.627 147.498 228.66 147.258 228.689C143.958 229.134 140.59 229.374 137.215 229.406C136.979 229.41 136.742 229.413 136.505 229.413C133.137 229.419 129.766 229.225 126.459 228.822C126.222 228.793 125.982 228.764 125.749 228.731C122.309 228.287 118.938 227.618 115.706 226.729C115.469 226.664 115.229 226.599 114.995 226.531C111.439 225.513 108.061 224.221 104.95 222.66C104.709 222.54 104.473 222.42 104.239 222.297C103.639 221.986 103.048 221.661 102.471 221.327C99.1059 219.383 96.3477 217.222 94.1964 214.921C93.9532 214.659 93.7165 214.396 93.4858 214.13C87.6387 207.358 86.8961 199.48 91.2601 192.429C93.5705 188.697 97.3048 185.2 102.471 182.218C121.144 171.436 151.532 171.436 170.208 182.218C175.374 185.2 179.108 188.697 181.416 192.429C185.504 199.035 185.111 206.368 180.234 212.839Z" fill="var(--fill-0, #FF9D4D)"/>
<path id="Path 124" d="M138.195 197.049L143.658 200.203C143.534 200.262 143.412 200.326 143.294 200.395L140.295 202.126L135.191 199.179L136.877 198.205C137.48 197.856 137.919 197.471 138.195 197.049Z" fill="var(--fill-0, #D1975D)"/>
<path id="Path 125" d="M154.533 210.346L154.533 210.346L160.131 213.578L163.478 211.645L157.866 208.405C157.914 208.373 157.966 208.344 158.014 208.308C158.261 208.156 158.498 207.997 158.724 207.838C159.52 207.276 160.204 206.693 160.785 206.086C161.706 205.122 162.3 204.148 162.563 203.165C162.829 202.182 162.712 201.225 162.213 200.288C161.713 199.35 160.762 198.473 159.357 197.662C159.146 197.542 158.936 197.426 158.724 197.315C158.491 197.192 158.254 197.078 158.014 196.968C156.207 196.131 154.283 195.634 152.238 195.472C150.801 195.362 149.38 195.404 147.968 195.598C147.732 195.631 147.494 195.67 147.258 195.712C146.398 195.865 145.545 196.072 144.698 196.338C145.571 195.04 145.704 193.749 145.097 192.458C144.487 191.17 143.37 190.056 141.748 189.119C140.716 188.525 139.516 188.039 138.14 187.659C136.767 187.282 135.356 187.052 133.902 186.971C132.452 186.89 131.008 186.974 129.57 187.227C128.133 187.48 126.838 187.938 125.683 188.606L124.629 189.216L119.235 186.102L115.889 188.034L121.28 191.147L117.211 193.499L111.817 190.385L108.471 192.317L113.863 195.43L107.889 198.879L114.995 202.984L115.705 203.393L125.748 209.191L126.459 209.603L136.504 215.401L137.215 215.813L141.138 218.078L147.115 214.629L147.115 214.629L152.713 217.861L156.06 215.929L150.461 212.696L150.463 212.695L154.533 210.346ZM143.293 200.395C143.413 200.326 143.533 200.261 143.656 200.203C144.123 199.979 144.636 199.81 145.187 199.707C145.856 199.576 146.547 199.528 147.258 199.554C147.294 199.554 147.332 199.557 147.368 199.557C147.569 199.567 147.767 199.583 147.968 199.603C148.517 199.661 149.068 199.762 149.616 199.908C150.363 200.106 151.038 200.378 151.628 200.719C152.222 201.063 152.673 201.449 152.988 201.88C153.299 202.315 153.462 202.753 153.478 203.195C153.494 203.636 153.355 204.067 153.059 204.492C152.877 204.749 152.641 204.992 152.349 205.219C152.204 205.333 152.041 205.444 151.869 205.55C151.82 205.58 151.774 205.611 151.723 205.64L149.144 207.129L149.052 207.182L147.968 207.809L147.258 208.218L144.983 209.532L142.122 211.183L133.365 206.127L134.3 205.587L136.224 204.476L136.223 204.476L136.504 204.314L137.215 203.905L140.295 202.127L143.293 200.395ZM125.748 194.95L126.459 194.538L126.805 194.337L126.807 194.338L128.775 193.202C128.889 193.136 129.014 193.088 129.133 193.03C129.534 192.835 129.956 192.669 130.417 192.558C131.054 192.406 131.748 192.338 132.497 192.351C133.915 192.377 135.252 192.74 136.504 193.448C136.534 193.463 136.566 193.483 136.596 193.499C136.822 193.629 137.027 193.762 137.215 193.898C138.111 194.541 138.552 195.222 138.539 195.946C138.532 196.338 138.419 196.705 138.195 197.049C137.974 197.387 137.647 197.705 137.215 197.993C137.108 198.065 136.998 198.136 136.878 198.204L136.504 198.419L135.191 199.177L131.12 201.529L131.119 201.529L130.008 202.17L128.26 203.178L127.29 202.619L126.205 201.993L125.748 201.728L123.698 200.546L119.877 198.339L120.938 197.726L122.736 196.689H122.735L125.748 194.95Z" fill="var(--fill-0, #FF9D4D)"/>
<path id="Path 126" d="M84.9545 217.007V228.747C84.7048 228.432 84.4708 228.117 84.2439 227.799V216.057C84.4708 216.374 84.708 216.693 84.9545 217.007Z" fill="var(--fill-0, #FFE840)"/>
<path id="Path 127" d="M94.1964 224.792V236.535C93.9565 236.389 93.7193 236.243 93.4858 236.097V224.351C93.7193 224.5 93.9565 224.646 94.1964 224.792Z" fill="var(--fill-0, #FFE840)"/>
<path id="Path 128" d="M104.949 229.945V241.69C104.713 241.603 104.472 241.516 104.239 241.421V229.679C104.472 229.769 104.713 229.86 104.949 229.945Z" fill="var(--fill-0, #FFE840)"/>
<path id="Path 129" d="M115.706 233.086V244.828C115.469 244.776 115.232 244.724 114.995 244.669V232.923C115.232 232.979 115.469 233.033 115.706 233.086Z" fill="var(--fill-0, #FFE840)"/>
<path id="Path 130" d="M126.459 234.776V246.519C126.222 246.5 125.985 246.474 125.748 246.448V234.705C125.985 234.731 126.222 234.757 126.459 234.776Z" fill="var(--fill-0, #FFE840)"/>
<path id="Path 131" d="M137.215 235.259V247.002C136.978 247.006 136.741 247.008 136.505 247.008V235.266C136.741 235.266 136.978 235.263 137.215 235.259Z" fill="var(--fill-0, #FFE840)"/>
<path id="Path 132" d="M147.968 234.588V246.331C147.732 246.36 147.495 246.389 147.258 246.412V234.669C147.495 234.647 147.732 234.617 147.968 234.588Z" fill="var(--fill-0, #FFE840)"/>
<path id="Path 133" d="M158.725 232.68V244.423C158.488 244.485 158.251 244.54 158.014 244.595V232.849C158.251 232.793 158.488 232.739 158.725 232.68Z" fill="var(--fill-0, #FFE840)"/>
<path id="Path 134" d="M169.478 229.273V241.016C169.241 241.11 169.004 241.204 168.767 241.295V229.548C169.004 229.461 169.241 229.367 169.478 229.273Z" fill="var(--fill-0, #FFE840)"/>
<path id="Path 135" d="M180.234 223.676V235.419C180.001 235.574 179.764 235.73 179.524 235.886V224.14C179.764 223.987 180.001 223.831 180.234 223.676Z" fill="var(--fill-0, #FFE840)"/>
<path id="Path 136" d="M189.774 214.209V225.952C189.55 226.319 189.31 226.685 189.06 227.049V215.306C189.31 214.943 189.547 214.576 189.774 214.209Z" fill="var(--fill-0, #FFE840)"/>
<path id="Path 137" d="M167.332 174.505V185.891V185.894V187.468H167.27C167.004 190.751 165.904 194.019 163.971 197.153C163.746 197.52 163.506 197.887 163.257 198.25C160.917 201.66 157.572 204.892 153.214 207.796C152.98 207.952 152.743 208.107 152.503 208.263C151.809 208.708 151.089 209.146 150.342 209.577C147.87 211.005 145.229 212.277 142.458 213.393C142.221 213.487 141.984 213.581 141.747 213.672C138.548 214.921 135.183 215.966 131.704 216.8C131.468 216.862 131.231 216.917 130.994 216.972C127.726 217.731 124.362 218.309 120.948 218.708C120.711 218.737 120.474 218.766 120.238 218.789C116.921 219.156 113.56 219.354 110.195 219.38C109.958 219.383 109.722 219.386 109.484 219.386C106.123 219.393 102.761 219.231 99.4388 218.896C99.2016 218.877 98.9649 218.851 98.7282 218.825C95.3212 218.465 91.9561 217.923 88.6855 217.206C88.4487 217.154 88.212 217.102 87.9749 217.047C84.5033 216.255 81.1349 215.262 77.9293 214.068C77.6926 213.981 77.4522 213.893 77.2187 213.799C74.0648 212.591 71.0763 211.183 68.2953 209.577C67.9159 209.357 67.5429 209.136 67.176 208.912C66.936 208.766 66.6993 208.62 66.4654 208.474C62.2278 205.797 58.8762 202.818 56.4198 199.664C56.1701 199.35 55.9362 199.035 55.7092 198.717C53.1231 195.115 51.6759 191.303 51.3675 187.468H51.3029V174.505H54.7489C55.0475 174.024 55.3684 173.548 55.7092 173.077C55.9362 172.756 56.1733 172.441 56.4198 172.127C57.322 170.965 58.347 169.829 59.4924 168.722C60.8941 167.37 62.4743 166.059 64.2396 164.806C65.4985 163.911 66.8518 163.041 68.2953 162.207C90.9502 149.127 127.684 149.127 150.342 162.207C151.786 163.041 153.136 163.907 154.395 164.806C156.157 166.059 157.74 167.366 159.142 168.722C160.751 170.277 162.124 171.893 163.257 173.548C163.477 173.865 163.685 174.183 163.886 174.505H167.332Z" fill="var(--fill-0, #FF9D4D)"/>
<path id="Path 138" d="M109.318 153.108C124.692 153.108 139.135 156.558 149.987 162.823C151.399 163.638 152.743 164.5 153.983 165.385C155.704 166.608 157.273 167.903 158.648 169.234C160.204 170.736 161.557 172.322 162.673 173.953C162.873 174.242 163.073 174.546 163.284 174.882L163.492 175.216H163.886H166.621V185.894V186.757H166.615L166.562 187.41C166.303 190.61 165.227 193.763 163.364 196.783C163.159 197.118 162.926 197.477 162.67 197.848C160.329 201.261 157.015 204.409 152.82 207.204C152.588 207.359 152.354 207.513 152.12 207.664C151.438 208.101 150.72 208.538 149.987 208.962C147.585 210.349 144.962 211.618 142.192 212.733C141.959 212.826 141.726 212.919 141.489 213.01C138.348 214.236 135 215.279 131.525 216.112C131.295 216.172 131.064 216.226 130.833 216.28C127.632 217.023 124.279 217.603 120.861 218.002C120.631 218.031 120.4 218.059 120.16 218.082C116.874 218.446 113.519 218.643 110.186 218.669C109.952 218.672 109.718 218.675 109.483 218.675H109.29C106.01 218.675 102.719 218.512 99.4969 218.188C99.2667 218.169 99.0361 218.143 98.8031 218.118C95.4236 217.761 92.071 217.22 88.838 216.511C88.6041 216.46 88.3701 216.409 88.133 216.353C84.6581 215.561 81.3088 214.568 78.1758 213.401L78.0907 213.37C77.8879 213.295 77.6838 213.219 77.4726 213.135C74.3326 211.933 71.3647 210.529 68.653 208.963C68.2777 208.745 67.9089 208.527 67.5457 208.305C67.308 208.16 67.0737 208.016 66.8453 207.873C62.7552 205.289 59.4361 202.38 56.9765 199.223C56.7574 198.947 56.5324 198.646 56.2868 198.302C53.7951 194.832 52.3781 191.168 52.0763 187.411L52.0237 186.757H52.0139V175.216H54.7489H55.1437L55.3525 174.88C55.639 174.419 55.9529 173.952 56.2896 173.487C56.4966 173.195 56.7221 172.894 56.9811 172.562C57.8587 171.432 58.8702 170.312 59.9863 169.234C61.3828 167.886 62.9524 166.591 64.6517 165.385C65.9059 164.493 67.2518 163.631 68.6511 162.823C79.5017 156.558 93.9442 153.108 109.318 153.108V153.108ZM109.318 152.397C94.4702 152.397 79.623 155.667 68.2958 162.207C66.8518 163.041 65.4985 163.911 64.2396 164.806C62.4748 166.059 60.8945 167.37 59.4929 168.722C58.3475 169.829 57.322 170.965 56.4198 172.126C56.1733 172.441 55.9366 172.756 55.7092 173.077C55.3688 173.547 55.0475 174.025 54.7489 174.505H51.3029V187.468H51.368C51.6759 191.303 53.1231 195.115 55.7092 198.717C55.9366 199.035 56.1701 199.35 56.4198 199.665C58.8762 202.819 62.2278 205.797 66.4658 208.474C66.6993 208.62 66.936 208.766 67.1764 208.912C67.5429 209.136 67.9159 209.357 68.2958 209.577C71.0763 211.183 74.0648 212.592 77.2187 213.799C77.4522 213.893 77.6926 213.98 77.9293 214.068C81.1354 215.262 84.5033 216.255 87.9753 217.047C88.212 217.102 88.4487 217.154 88.6859 217.206C91.9566 217.923 95.3212 218.465 98.7282 218.825C98.9649 218.851 99.2021 218.877 99.4388 218.896C102.697 219.224 105.993 219.386 109.29 219.386C109.355 219.386 109.42 219.386 109.484 219.386C109.722 219.386 109.958 219.383 110.195 219.38C113.56 219.354 116.921 219.156 120.238 218.789C120.474 218.767 120.712 218.737 120.948 218.708C124.362 218.309 127.726 217.731 130.994 216.972C131.231 216.917 131.468 216.862 131.704 216.8C135.183 215.966 138.548 214.921 141.747 213.672C141.984 213.581 142.221 213.487 142.458 213.393C145.229 212.277 147.87 211.005 150.343 209.577C151.089 209.146 151.809 208.707 152.503 208.263C152.744 208.108 152.98 207.952 153.214 207.796C157.572 204.892 160.917 201.66 163.257 198.25C163.506 197.886 163.746 197.52 163.971 197.153C165.904 194.019 167.005 190.751 167.271 187.468H167.332V185.894V185.891V174.505H163.886C163.685 174.184 163.477 173.865 163.257 173.547C162.124 171.893 160.751 170.277 159.142 168.722C157.741 167.366 156.157 166.059 154.395 164.806C153.136 163.907 151.786 163.041 150.343 162.207C139.014 155.667 124.166 152.397 109.318 152.397Z" fill="var(--fill-0, #FFE840)"/>
<path id="Path 139" d="M150.341 150.465C172.997 163.545 172.997 184.753 150.341 197.834C127.685 210.915 90.9514 210.915 68.2951 197.834C45.6388 184.753 45.6388 163.545 68.2951 150.465C90.9514 137.384 127.685 137.384 150.341 150.465Z" fill="var(--fill-0, #FFE840)"/>
<path id="Path 140" d="M159.142 168.723C157.286 162.973 152.481 157.681 145.161 153.456C135.585 147.927 122.856 144.884 109.319 144.884C95.7785 144.884 83.0497 147.927 73.4775 153.456C66.1572 157.681 61.3486 162.973 59.4926 168.723C58.9215 170.494 58.6294 172.309 58.6294 174.148C58.6294 179.774 61.3616 185.161 66.4655 189.798C66.6962 190.012 66.9329 190.219 67.1761 190.424C69.0033 191.997 71.109 193.474 73.4775 194.843C74.6783 195.534 75.9274 196.19 77.2189 196.8C77.4556 196.913 77.6923 197.024 77.9295 197.131C81.0476 198.558 84.4188 199.756 87.975 200.706C88.2122 200.771 88.4489 200.836 88.6856 200.898C91.9014 201.722 95.2628 202.355 98.7284 202.773C98.9651 202.806 99.2018 202.835 99.439 202.861C102.658 203.228 105.964 203.412 109.319 203.412H109.485C109.721 203.412 109.958 203.409 110.195 203.406C113.612 203.374 116.97 203.15 120.238 202.734C120.475 202.705 120.711 202.676 120.948 202.64C124.42 202.176 127.785 201.495 130.994 200.619C131.234 200.554 131.471 200.489 131.705 200.418C135.274 199.405 138.642 198.14 141.747 196.641C141.984 196.53 142.224 196.413 142.458 196.293C143.382 195.833 144.285 195.349 145.161 194.843C147.993 193.208 150.449 191.41 152.503 189.493C152.747 189.266 152.984 189.038 153.214 188.808C157.643 184.402 160.005 179.379 160.005 174.148C160.005 172.309 159.713 170.494 159.142 168.723V168.723ZM153.214 185.216C152.987 185.518 152.75 185.82 152.503 186.118C150.226 188.863 147.121 191.433 143.188 193.704C142.948 193.844 142.704 193.98 142.458 194.117C142.224 194.246 141.987 194.376 141.747 194.499C138.655 196.147 135.277 197.514 131.705 198.601C131.471 198.672 131.231 198.743 130.994 198.811C127.769 199.756 124.397 200.476 120.948 200.969C120.715 201.005 120.478 201.037 120.238 201.067C116.938 201.511 113.57 201.751 110.195 201.784C109.958 201.787 109.721 201.79 109.485 201.79C106.117 201.797 102.745 201.602 99.439 201.2C99.2018 201.17 98.9618 201.141 98.7284 201.109C95.2888 200.664 91.9177 199.996 88.6856 199.107C88.4489 199.042 88.2089 198.977 87.975 198.909C84.4188 197.89 81.0411 196.599 77.9295 195.038C77.689 194.918 77.4523 194.798 77.2189 194.675C76.6185 194.363 76.0279 194.038 75.4503 193.704C72.0856 191.761 69.3274 189.6 67.1761 187.299C66.9329 187.036 66.6962 186.773 66.4655 186.507C60.6185 179.735 59.8758 171.857 64.2398 164.806C66.5502 161.075 70.2845 157.577 75.4503 154.595C94.1239 143.813 124.511 143.813 143.188 154.595C148.353 157.577 152.088 161.075 154.395 164.806C158.484 171.413 158.091 178.746 153.214 185.216Z" fill="var(--fill-0, #FF9D4D)"/>
<path id="Path 141" d="M111.174 169.426L116.637 172.58C116.513 172.639 116.392 172.703 116.273 172.772L113.275 174.503L108.17 171.556L109.857 170.582C110.46 170.234 110.899 169.848 111.174 169.426Z" fill="var(--fill-0, #D1975D)"/>
<path id="Path 142" d="M127.513 182.724L127.513 182.723L133.111 185.955L136.458 184.023L130.846 180.783C130.894 180.751 130.946 180.722 130.994 180.686C131.241 180.533 131.478 180.374 131.705 180.216C132.5 179.654 133.184 179.07 133.765 178.463C134.687 177.5 135.28 176.526 135.544 175.543C135.81 174.56 135.692 173.603 135.193 172.665C134.693 171.727 133.742 170.851 132.338 170.04C132.127 169.92 131.916 169.803 131.705 169.692C131.471 169.569 131.234 169.456 130.994 169.345C129.187 168.508 127.263 168.012 125.219 167.849C123.781 167.739 122.36 167.782 120.948 167.976C120.712 168.008 120.475 168.048 120.238 168.09C119.378 168.242 118.525 168.45 117.678 168.716C118.551 167.418 118.684 166.126 118.077 164.835C117.467 163.547 116.351 162.434 114.728 161.496C113.696 160.903 112.496 160.416 111.12 160.036C109.748 159.66 108.336 159.429 106.883 159.348C105.432 159.267 103.988 159.352 102.551 159.605C101.113 159.858 99.8185 160.315 98.6633 160.984L97.609 161.594L92.2154 158.48L88.8689 160.412L94.2602 163.524L90.1915 165.877L84.7974 162.763L81.4509 164.695L86.8427 167.808L80.8691 171.257L87.9751 175.361L88.6856 175.77L98.7284 181.568L99.439 181.98L109.485 187.779L110.195 188.191L114.118 190.456L120.095 187.007L120.096 187.006L125.693 190.238L129.04 188.306L123.442 185.074L123.443 185.073L127.513 182.724ZM116.273 172.772C116.393 172.704 116.513 172.639 116.636 172.58C117.103 172.357 117.616 172.188 118.167 172.084C118.836 171.954 119.527 171.906 120.238 171.932C120.274 171.932 120.313 171.935 120.348 171.935C120.549 171.944 120.747 171.961 120.948 171.98C121.497 172.039 122.048 172.139 122.597 172.285C123.343 172.483 124.018 172.756 124.608 173.097C125.202 173.44 125.653 173.826 125.968 174.258C126.28 174.693 126.442 175.131 126.458 175.572C126.474 176.013 126.335 176.445 126.039 176.87C125.858 177.126 125.621 177.369 125.329 177.597C125.185 177.71 125.021 177.821 124.849 177.928C124.8 177.957 124.754 177.988 124.703 178.018L122.124 179.507L122.032 179.56L120.948 180.186L120.238 180.595L117.963 181.909L115.102 183.56L106.345 178.504L107.28 177.965L109.204 176.854L109.203 176.853L109.485 176.691L110.195 176.283L113.275 174.505L116.273 172.772ZM98.7284 167.327L99.439 166.915L99.7855 166.714L99.7873 166.716L101.755 165.58C101.869 165.514 101.994 165.466 102.113 165.407C102.514 165.212 102.937 165.046 103.398 164.936C104.034 164.783 104.728 164.715 105.477 164.728C106.896 164.754 108.232 165.118 109.485 165.825C109.514 165.841 109.546 165.86 109.576 165.877C109.803 166.006 110.007 166.139 110.195 166.276C111.091 166.918 111.532 167.6 111.519 168.323C111.513 168.716 111.399 169.083 111.175 169.426C110.955 169.764 110.627 170.082 110.195 170.371C110.088 170.442 109.978 170.514 109.858 170.582L109.485 170.796L108.171 171.555L104.1 173.907L104.099 173.906L102.988 174.548L101.24 175.556L100.27 174.997L99.1851 174.37L98.7284 174.106L96.6785 172.923L92.8572 170.717L93.9184 170.104L95.7158 169.066H95.7149L98.7284 167.327Z" fill="var(--fill-0, #FF9D4D)"/>
<path id="Path 143" d="M57.9342 189.385V201.124C57.6844 200.81 57.4505 200.495 57.2236 200.177V188.434C57.4505 188.752 57.6877 189.07 57.9342 189.385Z" fill="var(--fill-0, #FFE840)"/>
<path id="Path 144" d="M67.1762 197.169V208.912C66.9362 208.766 66.699 208.62 66.4656 208.474V196.728C66.699 196.877 66.9362 197.023 67.1762 197.169Z" fill="var(--fill-0, #FFE840)"/>
<path id="Path 145" d="M77.9296 202.322V214.068C77.6929 213.98 77.4525 213.893 77.219 213.798V202.056C77.4525 202.146 77.6929 202.237 77.9296 202.322Z" fill="var(--fill-0, #FFE840)"/>
<path id="Path 146" d="M88.6857 205.463V217.205C88.4489 217.153 88.2118 217.101 87.9751 217.046V205.3C88.2118 205.356 88.4489 205.41 88.6857 205.463Z" fill="var(--fill-0, #FFE840)"/>
<path id="Path 147" d="M99.4389 207.153V218.896C99.2017 218.877 98.9645 218.851 98.7278 218.825V207.082C98.9645 207.108 99.2017 207.134 99.4389 207.153Z" fill="var(--fill-0, #FFE840)"/>
<path id="Path 148" d="M110.195 207.636V219.379C109.958 219.383 109.721 219.386 109.484 219.386V207.643C109.721 207.643 109.958 207.64 110.195 207.636Z" fill="var(--fill-0, #FFE840)"/>
<path id="Path 149" d="M120.949 206.965V218.708C120.711 218.737 120.474 218.766 120.238 218.789V207.046C120.474 207.024 120.711 206.995 120.949 206.965Z" fill="var(--fill-0, #FFE840)"/>
<path id="Path 150" d="M131.705 205.057V216.799C131.468 216.861 131.231 216.917 130.994 216.971V205.226C131.231 205.17 131.468 205.116 131.705 205.057Z" fill="var(--fill-0, #FFE840)"/>
<path id="Path 151" d="M142.457 201.65V213.393C142.221 213.487 141.984 213.581 141.747 213.672V201.926C141.984 201.838 142.221 201.744 142.457 201.65Z" fill="var(--fill-0, #FFE840)"/>
<path id="Path 152" d="M153.214 196.053V207.795C152.98 207.951 152.743 208.107 152.503 208.263V196.517C152.743 196.365 152.98 196.209 153.214 196.053Z" fill="var(--fill-0, #FFE840)"/>
<path id="Path 153" d="M162.754 186.586V198.329C162.53 198.696 162.29 199.062 162.04 199.426V187.683C162.29 187.32 162.527 186.953 162.754 186.586Z" fill="var(--fill-0, #FFE840)"/>
</g>
</g>
</svg>
