<svg preserveAspectRatio="none" width="100%" height="100%" overflow="visible" style="display: block;" viewBox="0 0 219.885 337.783" fill="none" xmlns="http://www.w3.org/2000/svg">
<g id="Group 59">
<mask id="mask0_0_166" style="mask-type:alpha" maskUnits="userSpaceOnUse" x="0" y="0" width="220" height="338">
<path id="Rectangle 32" d="M0 0H219.885V337.783H0V0Z" fill="var(--fill-0, black)"/>
</mask>
<g mask="url(#mask0_0_166)">
<path id="Path 160" d="M134.887 171.116C134.133 171.116 133.376 171.051 132.623 170.918L119.835 168.661C114.443 167.709 109.267 165.907 104.449 163.305L91.2539 156.177C88.4929 154.685 86.8694 151.7 87.1187 148.571L90.5782 105.136L92.1008 84.974C91.5781 71.1002 94.1693 60.9566 100.254 53.0833C101.016 52.0974 101.963 51.3575 102.994 50.9436C103.51 50.7362 103.949 50.6534 104.296 50.7013C108.049 51.2059 116.647 52.3499 116.648 52.3499L116.701 52.362L131.588 57.3603C131.747 57.4426 143.093 63.6441 150.168 67.6361C153.416 69.4688 155.168 73.1688 154.526 76.8431C152.337 89.3846 147.333 119.622 148.135 129.51C148.707 136.568 148.32 149.273 147.895 158.688C147.726 162.428 145.954 165.915 143.032 168.256C140.705 170.121 137.825 171.116 134.887 171.116V171.116ZM104.096 51.2565C103.862 51.2565 103.558 51.3296 103.205 51.4709C102.269 51.8467 101.403 52.5247 100.703 53.4307C94.7046 61.1928 92.151 71.2193 92.6677 84.9848L91.1446 105.18L87.6846 148.617C87.4535 151.521 88.9603 154.292 91.5241 155.677L104.719 162.805C109.483 165.378 114.602 167.16 119.934 168.101L132.722 170.358C136.253 170.981 139.88 170.053 142.676 167.812C145.471 165.574 147.166 162.239 147.328 158.663C147.752 149.264 148.138 136.584 147.569 129.557C146.761 119.603 151.774 89.3083 153.966 76.7455C154.566 73.3078 152.928 69.8455 149.889 68.1309C142.817 64.1408 131.475 57.9407 131.361 57.8789L116.546 52.9093C116.016 52.8386 107.852 51.7523 104.221 51.2645C104.182 51.2593 104.14 51.2565 104.096 51.2565Z" fill="var(--fill-0, #7B5BAA)"/>
<path id="Path 161" d="M102.462 12.2623C102.462 12.2623 102.078 20.6309 103.312 23.3919C104.843 26.8175 109.268 29.6999 109.268 29.6999L111.413 11.5615L102.462 12.2623Z" fill="var(--fill-0, #704E34)"/>
<path id="Path 162" d="M131.944 47.2349C131.944 47.2349 123.953 42.451 119.833 44.2819C115.713 46.1128 112.675 55.9607 112.675 55.9607L110.992 65.649C110.618 67.8027 112.782 69.5136 114.791 68.6523L130.326 61.9937C131.645 61.4287 132.359 59.9964 132.022 58.6017C130.975 54.2781 131.944 47.2349 131.944 47.2349Z" fill="var(--fill-0, #EFC392)"/>
<path id="Path 163" d="M103.722 30.5789C103.898 34.7522 105.671 38.7382 105.816 42.9129C105.954 46.9049 104.853 51.6503 107.818 54.3266C109.875 56.1831 112.983 56.0636 115.744 55.8348C121.785 55.3339 128.535 54.4722 132.308 49.7268C133.582 48.1238 134.388 46.2069 135.178 44.3169C136.298 41.6373 137.418 38.9572 138.538 36.2776C140.201 32.2986 141.895 28.1615 141.735 23.8519C141.558 19.1014 139.157 14.7569 136.814 10.6212C133.249 4.33237 119.509 2.87816 113.202 6.53485C106.363 10.5003 103.436 23.4227 103.722 30.5789Z" fill="var(--fill-0, #FFD89F)"/>
<path id="Path 164" d="M108.141 17.2333V17.2333C109.365 16.8618 110.693 17.1803 111.615 18.0662L113.571 19.945C114.054 20.4092 114.659 20.7263 115.315 20.8598L122.797 22.3796C123.934 22.6102 124.884 23.3841 125.341 24.45L125.981 25.9446C126.6 27.3886 128.099 28.2504 129.658 28.0592L132.235 27.7439C133.816 27.5505 133.908 29.3218 134.511 30.796L134.832 34.981C135.823 37.4011 140.567 33.9947 142.303 32.0396L142.734 31.5555C143.051 31.1974 143.292 30.7835 143.443 30.3291C143.939 28.848 144.751 25.1424 143.927 18.0802C142.8 8.42296 139.742 3.11116 134.269 2.46753C128.797 1.82344 119.783 -1.55655 115.759 0.857527C111.735 3.27207 101.916 4.55979 101.755 8.58387C101.663 10.8914 102.935 13.6524 104.036 15.5884C104.856 17.0282 106.556 17.7147 108.141 17.2333Z" fill="var(--fill-0, #89603E)"/>
<path id="Path 165" d="M136.943 31.9451C136.943 31.9451 137.861 38.0521 135.941 42.4924C134.021 46.9323 137.972 41.9023 137.972 41.9023L143.444 30.3295L136.943 31.9451Z" fill="var(--fill-0, #89603E)"/>
<path id="Path 166" d="M61.409 291.423C61.409 291.423 54.823 299.558 52.315 300.698C49.8065 301.838 35.3314 311.678 42.4001 314.414C49.4689 317.151 59.8418 316.455 63.3781 313.046C68.6182 307.995 74.889 308.679 75.8009 306.17C76.7129 303.662 77.0552 291.592 77.0552 291.592L61.409 291.423Z" fill="var(--fill-0, #1A142D)"/>
<path id="Path 167" d="M32.5545 276.902C32.5545 276.902 26.9613 284.873 24.4529 286.013C21.9448 287.153 7.46969 296.993 14.5385 299.729C21.6072 302.466 31.9801 301.77 35.5164 298.361C40.7566 293.31 47.0273 293.994 47.9393 291.486C48.8512 288.977 48.0351 276.902 48.0351 276.902H32.5545Z" fill="var(--fill-0, #1A142D)"/>
<path id="Path 168" d="M87.1723 173.114L83.298 175.773L83.2287 178.135C83.5914 178.163 83.9579 178.065 84.2714 177.853L114.323 157.13C115.767 156.132 116.405 154.543 116.291 153.016L116.078 150.374L115.357 150.563C114.935 150.005 114.375 149.534 113.675 149.2L84.1309 135.239L87.1723 173.114Z" fill="var(--fill-0, #7B5BAA)"/>
<path id="Path 169" d="M11.106 141.663L11.1883 142.734C11.2683 143.68 11.8464 144.515 12.7039 144.921L82.6707 177.982C82.8502 178.067 83.0418 178.118 83.2292 178.135L83.2985 175.773L11.106 141.663Z" fill="var(--fill-0, #634D99)"/>
<path id="Path 170" d="M11.106 141.663L83.2985 175.773L87.1728 173.114L84.1314 135.239L79.8827 133.233L57.4347 122.623C52.0202 120.066 45.6518 120.583 40.7213 123.985L14.4283 142.119L11.106 141.663Z" fill="var(--fill-0, #7B5BAA)"/>
<path id="Path 171" d="M83.2971 175.769L11.1032 141.655L40.5121 121.372C45.4425 117.971 51.8109 117.453 57.2269 120.012L113.466 146.587C116.665 148.099 117.023 152.508 114.111 154.516L83.2971 175.769Z" fill="var(--fill-0, white)"/>
<path id="Path 172" d="M87.6794 162.853L31.6414 136.236L50.1048 123.502L106.143 150.119L87.6794 162.853Z" fill="var(--fill-0, #BF89EF)"/>
</g>
</g>
</svg>
