<svg preserveAspectRatio="none" width="100%" height="100%" overflow="visible" style="display: block;" viewBox="0 0 113.959 214.644" fill="none" xmlns="http://www.w3.org/2000/svg">
<g id="Group 91">
<mask id="mask0_0_34" style="mask-type:alpha" maskUnits="userSpaceOnUse" x="0" y="0" width="114" height="215">
<path id="Path 285" d="M27.4938 129.065L39.6553 122.046L69.7305 104.684C70.2379 104.388 70.7302 104.123 71.2152 103.888C73.0323 103.002 74.7357 102.495 76.3039 102.373C78.2952 102.222 80.0209 102.594 81.4825 103.472C82.9435 104.358 84.1021 105.713 84.9736 107.531C85.8365 109.363 86.2683 111.536 86.2683 114.058C86.2683 116.579 85.7983 119.244 84.875 122.038C83.9438 124.833 82.6786 127.52 81.0889 130.095C79.4905 132.678 77.5986 135.07 75.4101 137.265C74.0693 138.599 72.6761 139.803 71.2152 140.862C70.284 141.552 69.3217 142.173 68.3373 142.74L56.9797 149.298L27.4938 166.32V129.065ZM27.4938 71.6851L65.3464 49.832C67.4672 48.605 69.4203 47.8558 71.2152 47.56C73.1302 47.2499 74.8573 47.4765 76.4017 48.2264C79.3927 49.696 80.8917 53.1489 80.8917 58.5924C80.8917 64.1661 79.2638 69.4887 76.0081 74.5616C74.5472 76.8335 72.9488 78.855 71.2152 80.6499C69.072 82.8535 66.7173 84.7008 64.1503 86.1848L39.6553 100.33L27.4938 107.348V71.6851ZM56.9797 8.21634V31.159L39.6553 41.1543V18.2181L25.4198 26.4345V49.3779L0 64.0517V205.505L25.4198 190.829V214.644L39.6553 206.428V182.607L56.9797 172.604V196.426L62.4764 193.253L71.2152 188.211V164.328C76.3939 161.132 81.3083 157.513 85.9653 153.477C87.6083 152.062 89.1908 150.601 90.7129 149.124L90.728 149.109C94.3169 145.61 97.5734 141.945 100.511 138.106C104.691 132.639 107.985 126.953 110.377 121.062C111.317 118.729 112.081 116.389 112.649 114.05C113.52 110.461 113.959 106.864 113.959 103.245C113.959 93.9535 111.596 87.5787 106.887 84.1258C102.169 80.6729 95.7634 80.0893 87.6615 82.3763C94.3025 75.6223 99.3452 68.2243 102.805 60.1828C106.258 52.1493 107.985 44.6756 107.985 37.7698C107.985 33.3856 107.212 29.4779 105.69 26.0487C104.16 22.6102 102.003 20.0058 99.2164 18.226C96.4298 16.4471 93.0374 15.6518 89.0548 15.8188C85.0722 16.0001 80.6197 17.5064 75.7052 20.3469L71.2152 22.9362V0L56.9797 8.21634Z" fill="var(--fill-0, black)"/>
</mask>
<g mask="url(#mask0_0_34)">
<path id="Rectangle 43" d="M0 7.33984e-05H113.959V214.644H0V7.33984e-05Z" fill="url(#paint0_linear_0_34)"/>
</g>
</g>
<defs>
<linearGradient id="paint0_linear_0_34" x1="-315.469" y1="382.879" x2="-314.749" y2="382.879" gradientUnits="userSpaceOnUse">
<stop stop-color="#2E256B"/>
<stop offset="1" stop-color="#5A3087"/>
</linearGradient>
</defs>
</svg>
