<svg preserveAspectRatio="none" width="100%" height="100%" overflow="visible" style="display: block;" viewBox="0 0 493.01 502.926" fill="none" xmlns="http://www.w3.org/2000/svg">
<g id="Group 69">
<mask id="mask0_0_37" style="mask-type:alpha" maskUnits="userSpaceOnUse" x="0" y="0" width="494" height="503">
<path id="Rectangle 37" d="M0 0H493.01V502.926H0V0Z" fill="var(--fill-0, black)"/>
</mask>
<g mask="url(#mask0_0_37)">
<path id="Path 183" d="M435.959 401.599C476.108 424.779 476.108 462.361 435.959 485.541C395.81 508.721 330.717 508.721 290.568 485.541C250.419 462.361 250.419 424.779 290.568 401.599C330.717 378.419 395.81 378.419 435.959 401.599Z" fill="var(--fill-0, #E3DFEA)"/>
<path id="Path 184" d="M316.521 134.613C383.14 173.075 383.14 235.435 316.521 273.898C249.903 312.36 141.892 312.36 75.2733 273.898C8.65457 235.435 8.65457 173.075 75.2733 134.613C141.892 96.151 249.903 96.151 316.521 134.613Z" fill="var(--fill-0, #E3DFEA)"/>
<path id="Path 185" d="M214.521 262.919V274.428V274.431V276.022H214.459C214.19 279.341 213.078 282.643 211.124 285.811C210.897 286.182 210.654 286.552 210.402 286.92C208.037 290.367 204.656 293.633 200.251 296.568C200.015 296.726 199.776 296.883 199.533 297.041C198.831 297.49 198.104 297.933 197.349 298.369C194.85 299.812 192.18 301.098 189.379 302.226C189.14 302.321 188.901 302.416 188.661 302.508C185.428 303.771 182.026 304.827 178.511 305.669C178.271 305.732 178.032 305.787 177.793 305.843C174.489 306.611 171.089 307.194 167.638 307.598C167.399 307.627 167.16 307.657 166.92 307.68C163.569 308.051 160.171 308.251 156.77 308.277C156.53 308.28 156.291 308.283 156.052 308.283C152.654 308.29 149.256 308.126 145.898 307.788C145.659 307.769 145.419 307.743 145.18 307.716C141.736 307.352 138.335 306.804 135.029 306.079C134.79 306.027 134.551 305.974 134.311 305.919C130.802 305.119 127.397 304.115 124.157 302.908C123.918 302.819 123.675 302.731 123.439 302.636C120.251 301.415 117.231 299.993 114.42 298.369C114.036 298.146 113.659 297.923 113.288 297.697C113.046 297.549 112.806 297.402 112.57 297.254C108.287 294.548 104.899 291.537 102.416 288.35C102.164 288.032 101.928 287.713 101.698 287.392C99.0844 283.752 97.6213 279.898 97.3097 276.022H97.2443V262.919H100.727C101.029 262.434 101.353 261.952 101.698 261.477C101.928 261.152 102.167 260.834 102.416 260.515C103.328 259.341 104.365 258.193 105.522 257.075C106.939 255.708 108.536 254.382 110.32 253.116C111.593 252.212 112.96 251.332 114.42 250.49C137.318 237.269 174.447 237.269 197.349 250.49C198.808 251.332 200.173 252.208 201.445 253.116C203.226 254.382 204.827 255.704 206.243 257.075C207.87 258.646 209.258 260.279 210.402 261.952C210.625 262.273 210.835 262.595 211.038 262.919H214.521Z" fill="var(--fill-0, #FF9D4D)"/>
<path id="Path 186" d="M155.883 241.293C171.422 241.293 186.02 244.781 196.989 251.112C198.417 251.936 199.775 252.808 201.028 253.703C202.767 254.939 204.353 256.247 205.744 257.593C207.316 259.111 208.684 260.715 209.812 262.362C210.028 262.674 210.231 262.986 210.428 263.301L210.64 263.639H211.038H213.802V274.431V275.303H213.796L213.742 275.964C213.48 279.198 212.393 282.385 210.51 285.438C210.303 285.777 210.067 286.139 209.809 286.514C207.443 289.964 204.093 293.145 199.852 295.971C199.618 296.127 199.382 296.283 199.145 296.436C198.455 296.878 197.73 297.319 196.99 297.747C194.56 299.15 191.909 300.432 189.114 301.559C188.877 301.652 188.641 301.747 188.399 301.839C185.224 303.079 181.841 304.133 178.329 304.975C178.104 305.034 177.878 305.086 177.629 305.144C174.394 305.896 171.005 306.481 167.53 306.888C167.304 306.916 167.078 306.944 166.841 306.966C163.519 307.333 160.129 307.533 156.756 307.559C156.521 307.562 156.286 307.566 156.05 307.566H155.859C152.541 307.566 149.213 307.4 145.956 307.073C145.73 307.054 145.504 307.029 145.255 307.002C141.841 306.641 138.452 306.095 135.182 305.378L135.14 305.369C134.918 305.32 134.696 305.271 134.47 305.219C130.959 304.418 127.573 303.414 124.406 302.234L124.318 302.203C124.114 302.127 123.908 302.051 123.695 301.965C120.522 300.751 117.522 299.332 114.781 297.749C114.402 297.528 114.029 297.308 113.661 297.083C113.421 296.937 113.184 296.791 112.954 296.647C108.819 294.035 105.465 291.096 102.979 287.904C102.755 287.623 102.528 287.318 102.281 286.973C99.7631 283.466 98.3309 279.762 98.0258 275.965L97.9726 275.303H97.9625V263.639H100.727H101.127L101.337 263.3C101.626 262.835 101.944 262.363 102.285 261.892C102.494 261.595 102.722 261.29 102.984 260.957C103.871 259.814 104.893 258.682 106.021 257.593C107.432 256.23 109.019 254.921 110.736 253.702C112.005 252.8 113.365 251.928 114.779 251.112C125.746 244.781 140.344 241.293 155.883 241.293V241.293ZM155.883 240.575C140.876 240.575 125.869 243.88 114.42 250.49C112.96 251.333 111.593 252.212 110.32 253.117C108.536 254.383 106.939 255.708 105.522 257.076C104.364 258.194 103.328 259.342 102.416 260.516C102.167 260.834 101.927 261.152 101.697 261.477C101.353 261.952 101.029 262.435 100.727 262.92H97.2443V276.022H97.3097C97.6213 279.898 99.0837 283.752 101.697 287.393C101.927 287.714 102.164 288.032 102.416 288.35C104.899 291.538 108.287 294.549 112.569 297.254C112.806 297.402 113.045 297.55 113.288 297.697C113.659 297.924 114.036 298.147 114.42 298.37C117.23 299.993 120.251 301.416 123.438 302.636C123.674 302.732 123.918 302.82 124.157 302.909C127.397 304.116 130.801 305.119 134.31 305.919C134.55 305.975 134.79 306.028 135.028 306.08C138.335 306.805 141.736 307.353 145.179 307.717C145.419 307.743 145.658 307.769 145.897 307.789C149.193 308.12 152.525 308.284 155.859 308.284H156.051C156.291 308.284 156.53 308.28 156.769 308.277C160.17 308.251 163.569 308.051 166.92 307.68C167.159 307.658 167.399 307.628 167.638 307.599C171.088 307.195 174.489 306.611 177.792 305.844C178.032 305.788 178.271 305.733 178.51 305.67C182.026 304.827 185.427 303.771 188.661 302.509C188.901 302.417 189.139 302.322 189.379 302.227C192.18 301.098 194.849 299.813 197.349 298.37C198.103 297.934 198.831 297.491 199.533 297.041C199.775 296.884 200.015 296.726 200.251 296.569C204.655 293.634 208.037 290.367 210.402 286.92C210.654 286.553 210.897 286.183 211.123 285.812C213.077 282.644 214.189 279.341 214.459 276.022H214.52V274.431V274.428V262.92H211.038C210.834 262.595 210.624 262.274 210.402 261.952C209.257 260.28 207.869 258.646 206.243 257.076C204.826 255.705 203.225 254.383 201.445 253.117C200.173 252.209 198.808 251.333 197.349 250.49C185.897 243.88 170.89 240.575 155.883 240.575Z" fill="var(--fill-0, #FFE840)"/>
<path id="Path 187" d="M197.347 238.621C220.247 251.842 220.247 273.278 197.347 286.5C174.447 299.721 137.319 299.721 114.419 286.5C91.5194 273.278 91.5194 251.842 114.419 238.621C137.319 225.399 174.447 225.399 197.347 238.621Z" fill="var(--fill-0, #FFE840)"/>
<path id="Path 188" d="M206.243 257.076C204.367 251.264 199.51 245.915 192.111 241.645C182.433 236.056 169.567 232.98 155.884 232.98C142.198 232.98 129.332 236.056 119.657 241.645C112.259 245.915 107.398 251.264 105.522 257.076C104.945 258.866 104.65 260.699 104.65 262.559C104.65 268.246 107.411 273.69 112.57 278.377C112.803 278.594 113.042 278.803 113.288 279.01C115.134 280.601 117.263 282.093 119.657 283.476C120.871 284.175 122.134 284.838 123.438 285.454C123.678 285.569 123.918 285.681 124.157 285.789C127.309 287.232 130.716 288.442 134.311 289.403C134.55 289.468 134.79 289.535 135.029 289.596C138.279 290.429 141.677 291.069 145.179 291.492C145.419 291.525 145.658 291.555 145.897 291.581C149.151 291.951 152.493 292.138 155.884 292.138H156.051C156.291 292.138 156.53 292.135 156.769 292.132C160.223 292.099 163.618 291.873 166.92 291.452C167.16 291.423 167.399 291.393 167.638 291.357C171.147 290.889 174.549 290.2 177.792 289.314C178.035 289.249 178.274 289.183 178.51 289.111C182.118 288.088 185.522 286.808 188.661 285.294C188.9 285.182 189.143 285.064 189.379 284.942C190.314 284.477 191.226 283.988 192.111 283.476C194.974 281.823 197.457 280.007 199.533 278.068C199.779 277.839 200.018 277.609 200.251 277.377C204.728 272.923 207.115 267.846 207.115 262.559C207.115 260.699 206.82 258.866 206.243 257.076V257.076ZM200.251 273.746C200.022 274.051 199.782 274.356 199.533 274.658C197.231 277.432 194.092 280.03 190.117 282.326C189.874 282.467 189.628 282.604 189.379 282.742C189.143 282.873 188.904 283.004 188.661 283.129C185.536 284.795 182.121 286.176 178.51 287.275C178.274 287.347 178.032 287.419 177.792 287.488C174.532 288.442 171.124 289.17 167.638 289.668C167.402 289.704 167.163 289.737 166.92 289.767C163.585 290.216 160.181 290.459 156.769 290.492C156.53 290.495 156.291 290.498 156.051 290.498C152.647 290.505 149.24 290.308 145.897 289.902C145.658 289.872 145.415 289.843 145.179 289.809C141.703 289.36 138.295 288.685 135.029 287.786C134.79 287.72 134.547 287.655 134.311 287.586C130.716 286.557 127.302 285.251 124.157 283.674C123.914 283.552 123.674 283.43 123.438 283.306C122.832 282.991 122.235 282.663 121.652 282.326C118.25 280.361 115.462 278.177 113.288 275.852C113.042 275.586 112.803 275.321 112.57 275.051C106.66 268.207 105.909 260.244 110.32 253.117C112.655 249.345 116.43 245.81 121.652 242.796C140.525 231.898 171.24 231.898 190.117 242.796C195.338 245.81 199.113 249.345 201.445 253.117C205.577 259.795 205.18 267.206 200.251 273.746Z" fill="var(--fill-0, #FF9D4D)"/>
<path id="Path 189" d="M157.76 257.786L163.281 260.974C163.157 261.034 163.033 261.1 162.913 261.169L159.884 262.918L154.724 259.939L156.428 258.955C157.037 258.603 157.481 258.213 157.76 257.786Z" fill="var(--fill-0, #D1975D)"/>
<path id="Path 190" d="M174.273 271.227L174.274 271.227L179.932 274.494L183.315 272.541L177.642 269.265C177.691 269.233 177.743 269.204 177.792 269.168C178.041 269.014 178.281 268.853 178.51 268.692C179.314 268.125 180.006 267.535 180.593 266.921C181.524 265.947 182.124 264.963 182.39 263.97C182.659 262.976 182.541 262.008 182.036 261.061C181.531 260.113 180.57 259.227 179.15 258.407C178.937 258.286 178.723 258.168 178.51 258.056C178.274 257.932 178.035 257.816 177.792 257.706C175.966 256.859 174.02 256.358 171.954 256.194C170.501 256.082 169.065 256.125 167.638 256.321C167.399 256.354 167.16 256.394 166.92 256.436C166.051 256.59 165.189 256.8 164.332 257.069C165.215 255.757 165.349 254.452 164.736 253.147C164.119 251.845 162.991 250.72 161.351 249.772C160.309 249.172 159.095 248.68 157.704 248.296C156.317 247.915 154.89 247.683 153.421 247.601C151.955 247.519 150.495 247.604 149.042 247.86C147.59 248.115 146.281 248.578 145.114 249.254L144.048 249.87L138.597 246.723L135.214 248.675L140.663 251.822L136.551 254.199L131.099 251.052L127.716 253.005L133.165 256.151L127.128 259.637L134.31 263.786L135.029 264.199L145.179 270.06L145.898 270.476L156.051 276.337L156.769 276.754L160.735 279.043L166.776 275.557L166.776 275.556L172.434 278.823L175.817 276.87L170.159 273.603L170.16 273.601L174.273 271.227ZM162.912 261.169C163.034 261.1 163.155 261.034 163.279 260.975C163.752 260.749 164.27 260.578 164.827 260.473C165.503 260.342 166.202 260.293 166.92 260.319C166.956 260.319 166.996 260.322 167.032 260.322C167.235 260.332 167.435 260.349 167.638 260.368C168.193 260.427 168.75 260.529 169.304 260.676C170.059 260.876 170.741 261.152 171.337 261.497C171.938 261.844 172.394 262.234 172.712 262.671C173.026 263.11 173.191 263.553 173.207 263.999C173.224 264.445 173.083 264.881 172.784 265.311C172.6 265.57 172.361 265.816 172.066 266.046C171.92 266.16 171.755 266.272 171.581 266.38C171.531 266.41 171.485 266.442 171.434 266.471L168.827 267.976L168.734 268.03L167.638 268.662L166.92 269.076L164.621 270.404L161.729 272.073L152.878 266.963L153.822 266.417L155.768 265.294L155.767 265.294L156.051 265.13L156.769 264.717L159.882 262.92L162.912 261.169ZM145.179 255.665L145.898 255.249L146.247 255.046L146.249 255.047L148.239 253.899C148.354 253.832 148.48 253.783 148.601 253.725C149.006 253.527 149.433 253.36 149.899 253.248C150.542 253.094 151.243 253.026 152.001 253.039C153.435 253.065 154.785 253.432 156.051 254.147C156.081 254.163 156.114 254.183 156.143 254.199C156.373 254.33 156.579 254.465 156.769 254.602C157.675 255.252 158.121 255.941 158.108 256.672C158.101 257.069 157.986 257.439 157.76 257.787C157.537 258.128 157.206 258.45 156.769 258.742C156.661 258.814 156.55 258.886 156.428 258.955L156.051 259.172L154.723 259.939L150.608 262.316L150.608 262.315L149.485 262.963L147.718 263.982L146.737 263.418L145.641 262.784L145.179 262.517L143.107 261.321L139.245 259.092L140.318 258.472L142.134 257.423H142.134L145.179 255.665Z" fill="var(--fill-0, #FF9D4D)"/>
<path id="Path 191" d="M103.947 277.96V289.826C103.695 289.508 103.459 289.19 103.229 288.868V277C103.459 277.321 103.698 277.642 103.947 277.96Z" fill="var(--fill-0, #FFE840)"/>
<path id="Path 192" d="M113.289 285.828V297.697C113.046 297.549 112.806 297.401 112.57 297.254V285.381C112.806 285.533 113.046 285.68 113.289 285.828Z" fill="var(--fill-0, #FFE840)"/>
<path id="Path 193" d="M124.157 291.036V302.908C123.918 302.819 123.675 302.731 123.439 302.636V290.767C123.675 290.859 123.918 290.951 124.157 291.036Z" fill="var(--fill-0, #FFE840)"/>
<path id="Path 194" d="M135.029 294.211V306.08C134.79 306.028 134.551 305.975 134.311 305.919V294.047C134.551 294.103 134.79 294.158 135.029 294.211Z" fill="var(--fill-0, #FFE840)"/>
<path id="Path 195" d="M145.897 295.919V307.789C145.658 307.768 145.419 307.743 145.179 307.717V295.847C145.419 295.873 145.658 295.9 145.897 295.919Z" fill="var(--fill-0, #FFE840)"/>
<path id="Path 196" d="M156.77 296.408V308.277C156.531 308.28 156.292 308.284 156.052 308.284V296.415C156.292 296.415 156.531 296.412 156.77 296.408Z" fill="var(--fill-0, #FFE840)"/>
<path id="Path 197" d="M167.638 295.729V307.599C167.399 307.628 167.16 307.658 166.92 307.681V295.811C167.16 295.788 167.399 295.759 167.638 295.729Z" fill="var(--fill-0, #FFE840)"/>
<path id="Path 198" d="M178.51 293.801V305.67C178.271 305.732 178.032 305.788 177.792 305.844V293.971C178.032 293.916 178.271 293.86 178.51 293.801Z" fill="var(--fill-0, #FFE840)"/>
<path id="Path 199" d="M189.379 290.357V302.227C189.14 302.321 188.901 302.416 188.661 302.509V290.636C188.901 290.547 189.14 290.452 189.379 290.357Z" fill="var(--fill-0, #FFE840)"/>
<path id="Path 200" d="M200.251 284.7V296.569C200.015 296.726 199.775 296.884 199.533 297.041V285.169C199.775 285.014 200.015 284.858 200.251 284.7Z" fill="var(--fill-0, #FFE840)"/>
<path id="Path 201" d="M209.894 275.131V287.001C209.668 287.371 209.425 287.742 209.172 288.109V276.24C209.425 275.873 209.664 275.502 209.894 275.131Z" fill="var(--fill-0, #FFE840)"/>
<path id="Path 202" d="M243.276 183.836V195.344V195.348V196.938H243.213C242.945 200.257 241.833 203.56 239.878 206.728C239.652 207.099 239.409 207.469 239.157 207.837C236.792 211.283 233.411 214.55 229.006 217.485C228.77 217.643 228.531 217.801 228.288 217.957C227.586 218.407 226.858 218.85 226.103 219.286C223.605 220.729 220.935 222.014 218.134 223.143C217.895 223.238 217.655 223.333 217.416 223.425C214.182 224.688 210.781 225.743 207.266 226.586C207.026 226.649 206.786 226.704 206.547 226.76C203.244 227.527 199.844 228.111 196.393 228.515C196.154 228.544 195.914 228.574 195.675 228.597C192.323 228.967 188.926 229.168 185.525 229.193C185.285 229.197 185.045 229.2 184.807 229.2C181.408 229.207 178.011 229.043 174.653 228.705C174.413 228.685 174.174 228.659 173.935 228.633C170.49 228.269 167.09 227.721 163.784 226.996C163.544 226.944 163.305 226.891 163.066 226.836C159.557 226.036 156.152 225.032 152.912 223.825C152.672 223.736 152.43 223.648 152.194 223.553C149.006 222.333 145.985 220.909 143.174 219.286C142.791 219.063 142.414 218.84 142.043 218.614C141.801 218.466 141.561 218.318 141.325 218.171C137.041 215.465 133.654 212.454 131.171 209.267C130.919 208.949 130.683 208.631 130.453 208.309C127.839 204.668 126.376 200.815 126.064 196.938H125.999V183.836H129.482C129.784 183.351 130.108 182.868 130.453 182.393C130.683 182.069 130.922 181.751 131.171 181.432C132.083 180.258 133.119 179.11 134.277 177.992C135.693 176.625 137.291 175.299 139.075 174.033C140.348 173.128 141.715 172.249 143.174 171.406C166.073 158.186 203.202 158.186 226.103 171.406C227.563 172.249 228.927 173.125 230.2 174.033C231.981 175.299 233.581 176.621 234.998 177.992C236.625 179.563 238.012 181.196 239.157 182.868C239.38 183.19 239.59 183.512 239.793 183.836H243.276Z" fill="var(--fill-0, #FF9D4D)"/>
<path id="Path 203" d="M184.638 162.21C200.177 162.21 214.776 165.697 225.744 172.028C227.171 172.852 228.529 173.723 229.784 174.619C231.522 175.855 233.109 177.164 234.499 178.509C236.071 180.026 237.439 181.63 238.566 183.278C238.783 183.59 238.987 183.902 239.184 184.218L239.395 184.554H239.793H242.558V195.347V196.219H242.551L242.497 196.88C242.236 200.114 241.149 203.3 239.265 206.354C239.056 206.695 238.82 207.057 238.564 207.429C236.197 210.88 232.848 214.062 228.608 216.887C228.374 217.043 228.137 217.199 227.901 217.352C227.21 217.794 226.485 218.236 225.744 218.663C223.317 220.065 220.666 221.348 217.868 222.475C217.631 222.569 217.395 222.663 217.154 222.755C213.979 223.995 210.595 225.049 207.085 225.891C206.851 225.951 206.618 226.006 206.385 226.06C203.149 226.812 199.76 227.398 196.304 227.802C196.071 227.83 195.84 227.859 195.596 227.882C192.274 228.249 188.883 228.449 185.515 228.474C185.279 228.478 185.043 228.482 184.805 228.482H184.608C181.294 228.482 177.969 228.316 174.712 227.989C174.479 227.969 174.246 227.944 174.01 227.918C170.594 227.557 167.205 227.011 163.938 226.294C163.702 226.242 163.465 226.19 163.225 226.135C159.714 225.334 156.328 224.33 153.162 223.15L153.068 223.117C152.865 223.041 152.662 222.966 152.451 222.881C149.277 221.666 146.277 220.247 143.536 218.665C143.156 218.444 142.784 218.224 142.417 217.999C142.176 217.853 141.939 217.708 141.709 217.563C137.575 214.951 134.22 212.012 131.734 208.819C131.514 208.541 131.286 208.238 131.037 207.889C128.519 204.382 127.086 200.678 126.781 196.881L126.728 196.219H126.718V184.554H129.482H129.882L130.092 184.215C130.382 183.75 130.699 183.278 131.04 182.808C131.248 182.513 131.476 182.208 131.738 181.873C132.626 180.731 133.648 179.599 134.776 178.509C136.187 177.146 137.773 175.838 139.492 174.619C140.759 173.717 142.119 172.846 143.534 172.028C154.501 165.697 169.099 162.21 184.638 162.21V162.21ZM184.638 161.491C169.631 161.491 154.624 164.796 143.175 171.406C141.716 172.249 140.348 173.128 139.075 174.033C137.291 175.299 135.694 176.624 134.277 177.992C133.119 179.11 132.083 180.258 131.171 181.432C130.922 181.75 130.683 182.068 130.453 182.393C130.109 182.868 129.784 183.35 129.482 183.835H125.999V196.938H126.064C126.377 200.814 127.839 204.668 130.453 208.309C130.683 208.63 130.919 208.948 131.171 209.266C133.654 212.454 137.042 215.464 141.325 218.17C141.561 218.318 141.801 218.465 142.043 218.613C142.414 218.84 142.791 219.063 143.175 219.286C145.985 220.909 149.006 222.332 152.194 223.553C152.43 223.648 152.672 223.736 152.912 223.825C156.153 225.032 159.557 226.035 163.066 226.835C163.305 226.891 163.545 226.944 163.784 226.996C167.09 227.721 170.491 228.269 173.935 228.633C174.174 228.659 174.413 228.685 174.653 228.705C177.946 229.036 181.277 229.2 184.608 229.2H184.807C185.046 229.2 185.286 229.196 185.525 229.193C188.926 229.167 192.323 228.967 195.676 228.596C195.914 228.574 196.154 228.544 196.394 228.515C199.844 228.111 203.245 227.527 206.547 226.759C206.787 226.704 207.026 226.649 207.266 226.586C210.781 225.743 214.182 224.687 217.416 223.425C217.655 223.332 217.895 223.237 218.134 223.142C220.935 222.014 223.605 220.729 226.103 219.286C226.858 218.85 227.586 218.406 228.288 217.957C228.531 217.8 228.77 217.642 229.006 217.485C233.411 214.55 236.792 211.283 239.157 207.836C239.41 207.469 239.652 207.098 239.878 206.728C241.833 203.56 242.945 200.257 243.214 196.938H243.276V195.347V195.344V183.835H239.793C239.59 183.511 239.38 183.19 239.157 182.868C238.012 181.196 236.625 179.563 234.998 177.992C233.581 176.621 231.981 175.299 230.2 174.033C228.927 173.125 227.564 172.249 226.103 171.406C214.653 164.796 199.645 161.491 184.638 161.491Z" fill="var(--fill-0, #FFE840)"/>
<path id="Path 204" d="M226.103 159.537C249.002 172.759 249.002 194.194 226.103 207.416C203.202 220.637 166.075 220.637 143.174 207.416C120.275 194.194 120.275 172.759 143.174 159.537C166.075 146.316 203.202 146.316 226.103 159.537Z" fill="var(--fill-0, #FFE840)"/>
<path id="Path 205" d="M234.998 177.991C233.122 172.18 228.265 166.831 220.866 162.561C211.189 156.972 198.322 153.896 184.64 153.896C170.954 153.896 158.088 156.972 148.413 162.561C141.014 166.831 136.153 172.18 134.277 177.991C133.7 179.783 133.405 181.615 133.405 183.475C133.405 189.162 136.166 194.606 141.326 199.293C141.558 199.51 141.798 199.719 142.044 199.926C143.89 201.517 146.018 203.009 148.413 204.393C149.626 205.091 150.889 205.754 152.194 206.37C152.433 206.485 152.673 206.597 152.912 206.705C156.064 208.148 159.472 209.358 163.066 210.319C163.305 210.385 163.545 210.45 163.785 210.513C167.035 211.345 170.432 211.985 173.935 212.408C174.174 212.441 174.414 212.471 174.653 212.497C177.906 212.867 181.249 213.054 184.64 213.054H184.807C185.046 213.054 185.286 213.051 185.525 213.048C188.978 213.015 192.373 212.789 195.676 212.369C195.915 212.339 196.154 212.31 196.394 212.274C199.903 211.805 203.304 211.116 206.547 210.231C206.79 210.165 207.03 210.1 207.266 210.027C210.873 209.004 214.278 207.725 217.416 206.21C217.656 206.098 217.899 205.98 218.135 205.859C219.069 205.393 219.981 204.904 220.866 204.393C223.73 202.74 226.212 200.923 228.288 198.984C228.534 198.755 228.774 198.525 229.007 198.293C233.484 193.839 235.871 188.762 235.871 183.475C235.871 181.615 235.576 179.783 234.998 177.991V177.991ZM229.007 194.662C228.777 194.967 228.537 195.272 228.288 195.574C225.986 198.348 222.848 200.946 218.872 203.242C218.63 203.383 218.384 203.52 218.135 203.658C217.899 203.79 217.659 203.921 217.416 204.045C214.291 205.711 210.877 207.092 207.266 208.19C207.03 208.263 206.787 208.335 206.547 208.404C203.287 209.358 199.88 210.087 196.394 210.585C196.158 210.621 195.918 210.654 195.676 210.683C192.34 211.132 188.936 211.375 185.525 211.408C185.286 211.411 185.046 211.414 184.807 211.414C181.403 211.421 177.995 211.224 174.653 210.818C174.414 210.788 174.171 210.759 173.935 210.726C170.459 210.277 167.051 209.601 163.785 208.702C163.545 208.636 163.302 208.571 163.066 208.502C159.472 207.473 156.058 206.167 152.912 204.59C152.67 204.468 152.43 204.347 152.194 204.222C151.587 203.908 150.991 203.579 150.407 203.242C147.006 201.277 144.218 199.093 142.044 196.768C141.798 196.502 141.558 196.236 141.326 195.968C135.416 189.123 134.664 181.16 139.075 174.033C141.41 170.261 145.186 166.726 150.407 163.712C169.281 152.814 199.995 152.814 218.872 163.712C224.093 166.726 227.869 170.261 230.2 174.033C234.333 180.71 233.936 188.123 229.007 194.662Z" fill="var(--fill-0, #FF9D4D)"/>
<path id="Path 206" d="M186.515 178.703L192.037 181.891C191.912 181.951 191.789 182.016 191.668 182.085L188.639 183.835L183.479 180.855L185.183 179.872C185.792 179.52 186.236 179.13 186.515 178.703Z" fill="var(--fill-0, #D1975D)"/>
<path id="Path 207" d="M203.028 192.143H203.029L208.688 195.41L212.07 193.457L206.397 190.181C206.446 190.149 206.499 190.12 206.547 190.084C206.797 189.93 207.036 189.769 207.266 189.608C208.069 189.041 208.761 188.451 209.348 187.838C210.28 186.863 210.88 185.879 211.145 184.885C211.415 183.892 211.297 182.924 210.791 181.977C210.286 181.029 209.325 180.143 207.905 179.323C207.692 179.202 207.479 179.084 207.266 178.972C207.03 178.848 206.79 178.733 206.547 178.622C204.721 177.775 202.776 177.274 200.71 177.11C199.257 176.998 197.82 177.04 196.394 177.237C196.154 177.27 195.915 177.31 195.676 177.352C194.806 177.506 193.944 177.716 193.088 177.985C193.97 176.673 194.105 175.368 193.491 174.063C192.875 172.761 191.746 171.636 190.107 170.688C189.063 170.088 187.85 169.596 186.46 169.212C185.072 168.831 183.646 168.599 182.176 168.517C180.71 168.435 179.251 168.52 177.798 168.776C176.345 169.031 175.037 169.494 173.869 170.17L172.803 170.786L167.352 167.639L163.969 169.591L169.418 172.738L165.306 175.115L159.854 171.968L156.472 173.921L161.921 177.067L155.884 180.553L163.066 184.702L163.784 185.115L173.935 190.976L174.653 191.392L184.807 197.253L185.525 197.669L189.49 199.959L195.531 196.473L195.532 196.472L201.19 199.738L204.572 197.786L198.914 194.519L198.916 194.518L203.028 192.143ZM191.668 182.085C191.789 182.015 191.91 181.95 192.035 181.891C192.508 181.665 193.026 181.494 193.583 181.389C194.259 181.258 194.957 181.209 195.676 181.235C195.712 181.235 195.751 181.238 195.787 181.238C195.99 181.248 196.19 181.265 196.394 181.284C196.948 181.343 197.506 181.445 198.06 181.593C198.814 181.793 199.496 182.068 200.093 182.413C200.693 182.76 201.149 183.15 201.467 183.586C201.782 184.026 201.946 184.469 201.963 184.915C201.979 185.361 201.838 185.797 201.539 186.227C201.356 186.486 201.116 186.732 200.821 186.962C200.676 187.076 200.51 187.188 200.335 187.296C200.286 187.326 200.24 187.357 200.189 187.387L197.582 188.892L197.489 188.946L196.394 189.578L195.676 189.992L193.376 191.32L190.485 192.989L181.634 187.879L182.578 187.333L184.523 186.21L184.522 186.21L184.807 186.046L185.525 185.633L188.637 183.836L191.668 182.085ZM173.935 176.581L174.653 176.165L175.003 175.962L175.005 175.963L176.994 174.815C177.108 174.748 177.236 174.699 177.355 174.641C177.761 174.443 178.188 174.276 178.654 174.164C179.297 174.01 179.999 173.942 180.756 173.955C182.189 173.981 183.541 174.348 184.807 175.063C184.836 175.079 184.869 175.099 184.899 175.115C185.128 175.246 185.335 175.381 185.525 175.518C186.43 176.168 186.876 176.857 186.863 177.588C186.856 177.985 186.742 178.356 186.515 178.704C186.292 179.045 185.961 179.366 185.525 179.658C185.417 179.73 185.305 179.802 185.184 179.871L184.807 180.088L183.478 180.855L179.364 183.232H179.363L178.24 183.879L176.473 184.898L175.493 184.333L174.397 183.7L173.935 183.432L171.863 182.237L168 180.008L169.073 179.388L170.89 178.339L170.889 178.339L173.935 176.581Z" fill="var(--fill-0, #FF9D4D)"/>
<path id="Path 208" d="M132.702 198.876V210.742C132.449 210.424 132.213 210.106 131.984 209.784V197.916C132.213 198.237 132.453 198.558 132.702 198.876Z" fill="var(--fill-0, #FFE840)"/>
<path id="Path 209" d="M142.043 206.744V218.614C141.8 218.466 141.561 218.318 141.325 218.17V206.298C141.561 206.449 141.8 206.597 142.043 206.744Z" fill="var(--fill-0, #FFE840)"/>
<path id="Path 210" d="M152.912 211.953V223.825C152.672 223.736 152.43 223.648 152.194 223.553V211.683C152.43 211.776 152.672 211.868 152.912 211.953Z" fill="var(--fill-0, #FFE840)"/>
<path id="Path 211" d="M163.784 215.127V226.996C163.544 226.944 163.305 226.891 163.066 226.835V214.963C163.305 215.019 163.544 215.075 163.784 215.127Z" fill="var(--fill-0, #FFE840)"/>
<path id="Path 212" d="M174.653 216.835V228.705C174.413 228.685 174.174 228.659 173.935 228.632V216.763C174.174 216.789 174.413 216.816 174.653 216.835Z" fill="var(--fill-0, #FFE840)"/>
<path id="Path 213" d="M185.525 217.324V229.194C185.285 229.196 185.046 229.2 184.807 229.2V217.331C185.046 217.331 185.285 217.328 185.525 217.324Z" fill="var(--fill-0, #FFE840)"/>
<path id="Path 214" d="M196.394 216.646V228.515C196.154 228.544 195.915 228.574 195.675 228.597V216.728C195.915 216.705 196.154 216.675 196.394 216.646Z" fill="var(--fill-0, #FFE840)"/>
<path id="Path 215" d="M207.266 214.717V226.586C207.026 226.648 206.787 226.704 206.547 226.759V214.887C206.787 214.832 207.026 214.776 207.266 214.717Z" fill="var(--fill-0, #FFE840)"/>
<path id="Path 216" d="M218.135 211.273V223.142C217.895 223.238 217.656 223.333 217.416 223.424V211.552C217.656 211.463 217.895 211.368 218.135 211.273Z" fill="var(--fill-0, #FFE840)"/>
<path id="Path 217" d="M229.007 205.616V217.485C228.77 217.642 228.531 217.8 228.288 217.957V206.085C228.531 205.931 228.77 205.774 229.007 205.616Z" fill="var(--fill-0, #FFE840)"/>
<path id="Path 218" d="M238.649 196.048V207.917C238.423 208.288 238.179 208.658 237.927 209.025V197.156C238.179 196.789 238.419 196.418 238.649 196.048Z" fill="var(--fill-0, #FFE840)"/>
<path id="Path 219" d="M170.926 112.946V124.454V124.458V126.048H170.863C170.595 129.368 169.483 132.67 167.528 135.838C167.302 136.209 167.059 136.579 166.807 136.947C164.442 140.393 161.061 143.66 156.656 146.595C156.42 146.753 156.181 146.91 155.938 147.068C155.236 147.517 154.508 147.96 153.753 148.396C151.255 149.839 148.585 151.125 145.784 152.253C145.545 152.348 145.305 152.443 145.066 152.535C141.832 153.798 138.431 154.853 134.916 155.696C134.676 155.759 134.436 155.814 134.197 155.87C130.895 156.638 127.494 157.221 124.043 157.625C123.804 157.654 123.564 157.684 123.325 157.707C119.973 158.078 116.576 158.278 113.175 158.304C112.935 158.307 112.696 158.31 112.457 158.31C109.059 158.317 105.661 158.153 102.303 157.815C102.063 157.795 101.824 157.769 101.585 157.743C98.1411 157.379 94.74 156.831 91.4339 156.106C91.1942 156.054 90.9553 156.001 90.7157 155.946C87.2066 155.146 83.8019 154.142 80.562 152.935C80.3224 152.846 80.0798 152.758 79.8438 152.663C76.6557 151.443 73.6353 150.02 70.8243 148.396C70.4407 148.173 70.0636 147.95 69.693 147.724C69.4505 147.576 69.2108 147.429 68.9748 147.281C64.6914 144.575 61.304 141.564 58.8211 138.377C58.5685 138.059 58.3325 137.74 58.1029 137.419C55.4891 133.778 54.0261 129.925 53.7145 126.048H53.649V112.946H57.1321C57.4336 112.461 57.7582 111.979 58.1029 111.503C58.3325 111.179 58.5721 110.86 58.8211 110.542C59.733 109.368 60.7693 108.22 61.9272 107.102C63.3435 105.735 64.9411 104.409 66.7252 103.143C67.9975 102.239 69.3649 101.359 70.8243 100.516C93.7231 87.2963 130.852 87.2963 153.753 100.516C155.213 101.359 156.577 102.235 157.85 103.143C159.631 104.409 161.231 105.731 162.648 107.102C164.275 108.673 165.662 110.306 166.807 111.979C167.03 112.3 167.24 112.622 167.443 112.946H170.926Z" fill="var(--fill-0, #FF9D4D)"/>
<path id="Path 220" d="M112.288 91.3194C127.827 91.3194 142.426 94.8068 153.394 101.138C154.822 101.963 156.181 102.834 157.434 103.729C159.173 104.965 160.759 106.274 162.149 107.619C163.721 109.137 165.089 110.741 166.216 112.389C166.433 112.7 166.637 113.012 166.834 113.327L167.045 113.665H167.443H170.208V124.457V125.33H170.201L170.147 125.99C169.886 129.224 168.798 132.411 166.915 135.463C166.708 135.804 166.472 136.166 166.214 136.54C163.848 139.99 160.498 143.171 156.258 145.997C156.024 146.153 155.787 146.309 155.55 146.462C154.86 146.904 154.135 147.345 153.395 147.774C150.966 149.176 148.315 150.459 145.501 151.592C145.27 151.684 145.039 151.776 144.804 151.866C141.629 153.106 138.245 154.159 134.735 155.001C134.501 155.062 134.268 155.116 134.035 155.17C130.799 155.922 127.41 156.508 123.954 156.912C123.721 156.941 123.49 156.969 123.246 156.992C119.924 157.359 116.533 157.559 113.165 157.585C112.929 157.588 112.693 157.591 112.455 157.591L112.258 157.592C108.944 157.592 105.619 157.426 102.362 157.099C102.136 157.08 101.91 157.056 101.66 157.028C98.244 156.667 94.8551 156.121 91.5879 155.404C91.3518 155.352 91.115 155.301 90.8754 155.245C87.3627 154.444 83.9775 153.44 80.8117 152.261L80.7145 152.225C80.5138 152.151 80.3108 152.076 80.1007 151.992C76.927 150.777 73.9275 149.358 71.1863 147.774C70.807 147.554 70.4342 147.334 70.0665 147.109C69.8261 146.963 69.5894 146.817 69.3591 146.673C65.2246 144.062 61.8703 141.122 59.3839 137.929C59.1637 137.652 58.9363 137.349 58.6865 137C56.1677 133.492 54.7363 129.788 54.4312 125.991L54.378 125.33H54.3679V113.665H57.1321H57.5315L57.7424 113.326C58.0331 112.858 58.3505 112.387 58.6901 111.918C58.8988 111.622 59.127 111.317 59.3889 110.983C60.2755 109.841 61.2975 108.709 62.4259 107.619C63.8379 106.256 65.4247 104.948 67.1418 103.729C68.4106 102.826 69.7707 101.955 71.1841 101.138C82.1517 94.8068 96.7492 91.3194 112.288 91.3194V91.3194ZM112.288 90.6011C97.2811 90.6011 82.274 93.9058 70.825 100.516C69.3655 101.359 67.9982 102.238 66.7251 103.143C64.9411 104.409 63.3442 105.734 61.9272 107.101C60.7692 108.221 59.7329 109.368 58.8218 110.542C58.5721 110.86 58.3325 111.178 58.1029 111.503C57.7589 111.979 57.4343 112.461 57.1321 112.946H53.6497V126.049H53.7152C54.0268 129.925 55.4891 133.778 58.1029 137.418C58.3325 137.74 58.5685 138.058 58.8218 138.376C61.3039 141.564 64.6921 144.575 68.9748 147.281C69.2115 147.428 69.4505 147.576 69.6937 147.723C70.0643 147.95 70.4407 148.172 70.825 148.396C73.6353 150.019 76.6564 151.442 79.8438 152.662C80.0798 152.758 80.3231 152.846 80.562 152.935C83.8026 154.142 87.2066 155.145 90.7156 155.945C90.9553 156.001 91.1949 156.054 91.4339 156.106C94.74 156.831 98.1411 157.379 101.585 157.743C101.824 157.769 102.063 157.795 102.303 157.815C105.596 158.146 108.927 158.31 112.258 158.31H112.457C112.696 158.31 112.936 158.307 113.175 158.304C116.576 158.277 119.973 158.077 123.325 157.706C123.564 157.684 123.804 157.655 124.044 157.625C127.494 157.221 130.895 156.638 134.197 155.87C134.437 155.814 134.676 155.758 134.916 155.696C138.431 154.854 141.832 153.797 145.066 152.535C145.305 152.443 145.545 152.348 145.785 152.253C148.585 151.124 151.255 149.839 153.754 148.396C154.508 147.959 155.237 147.517 155.938 147.068C156.181 146.91 156.42 146.752 156.656 146.596C161.061 143.66 164.442 140.394 166.806 136.946C167.059 136.579 167.302 136.209 167.528 135.838C169.483 132.67 170.595 129.368 170.864 126.049H170.926V124.457V124.455V112.946H167.443C167.24 112.621 167.03 112.3 166.806 111.979C165.662 110.306 164.275 108.672 162.648 107.101C161.231 105.731 159.631 104.409 157.85 103.143C156.578 102.234 155.214 101.359 153.754 100.516C142.303 93.9058 127.295 90.6011 112.288 90.6011Z" fill="var(--fill-0, #FFE840)"/>
<path id="Path 221" d="M153.753 88.6471C176.652 101.869 176.652 123.304 153.753 136.526C130.852 149.747 93.7246 149.747 70.8251 136.526C47.9248 123.304 47.9248 101.869 70.8251 88.6471C93.7246 75.4256 130.852 75.4256 153.753 88.6471Z" fill="var(--fill-0, #FFE840)"/>
<path id="Path 222" d="M162.648 107.102C160.772 101.29 155.915 95.9409 148.516 91.6711C138.839 86.0823 125.972 83.0065 112.29 83.0065C98.6039 83.0065 85.7378 86.0823 76.0627 91.6711C68.664 95.9409 63.8034 101.29 61.9272 107.102C61.3501 108.893 61.055 110.726 61.055 112.585C61.055 118.273 63.8163 123.717 68.9756 128.403C69.208 128.62 69.4477 128.829 69.6938 129.036C71.5397 130.627 73.6684 132.119 76.0627 133.503C77.2761 134.201 78.5391 134.864 79.8438 135.48C80.0835 135.595 80.3231 135.707 80.562 135.815C83.7141 137.258 87.1217 138.468 90.7164 139.429C90.9553 139.495 91.195 139.56 91.4346 139.623C94.6846 140.456 98.0821 141.095 101.585 141.518C101.824 141.551 102.064 141.581 102.303 141.607C105.556 141.977 108.899 142.164 112.29 142.164H112.457C112.696 142.164 112.936 142.161 113.176 142.158C116.628 142.125 120.023 141.899 123.326 141.479C123.565 141.449 123.804 141.42 124.044 141.384C127.553 140.915 130.954 140.226 134.197 139.341C134.44 139.275 134.68 139.21 134.916 139.138C138.523 138.114 141.928 136.835 145.066 135.32C145.306 135.208 145.549 135.09 145.785 134.969C146.719 134.503 147.631 134.014 148.516 133.503C151.38 131.85 153.862 130.033 155.938 128.094C156.184 127.865 156.423 127.635 156.657 127.403C161.133 122.949 163.521 117.872 163.521 112.585C163.521 110.726 163.226 108.893 162.648 107.102V107.102ZM156.657 123.772C156.427 124.077 156.187 124.382 155.938 124.684C153.636 127.458 150.498 130.056 146.522 132.352C146.28 132.493 146.034 132.63 145.785 132.768C145.549 132.9 145.309 133.031 145.066 133.155C141.941 134.821 138.527 136.202 134.916 137.301C134.68 137.373 134.437 137.445 134.197 137.514C130.937 138.468 127.53 139.197 124.044 139.695C123.808 139.731 123.568 139.764 123.326 139.793C119.99 140.242 116.586 140.486 113.176 140.518C112.936 140.522 112.696 140.524 112.457 140.524C109.053 140.531 105.645 140.334 102.303 139.928C102.064 139.898 101.821 139.869 101.585 139.836C98.1087 139.387 94.7012 138.711 91.4346 137.812C91.195 137.747 90.9525 137.681 90.7164 137.612C87.1217 136.582 83.7077 135.277 80.562 133.7C80.3195 133.578 80.0799 133.457 79.8438 133.332C79.2372 133.018 78.6406 132.689 78.0569 132.352C74.6558 130.387 71.8679 128.203 69.6938 125.878C69.4477 125.612 69.208 125.346 68.9756 125.078C63.0657 118.233 62.3144 110.27 66.7259 103.143C69.0605 99.3715 72.8358 95.8365 78.0569 92.8219C96.9307 81.9241 127.645 81.9241 146.522 92.8219C151.743 95.8365 155.519 99.3715 157.85 103.143C161.983 109.821 161.586 117.233 156.657 123.772Z" fill="var(--fill-0, #FF9D4D)"/>
<path id="Path 223" d="M114.165 107.812L119.686 111.001C119.562 111.06 119.439 111.126 119.318 111.195L116.289 112.944L111.129 109.965L112.833 108.981C113.442 108.629 113.886 108.239 114.165 107.812Z" fill="var(--fill-0, #D1975D)"/>
<path id="Path 224" d="M130.678 121.253L130.679 121.253L136.338 124.52L139.72 122.567L134.047 119.292C134.096 119.259 134.149 119.23 134.197 119.194C134.446 119.04 134.686 118.879 134.916 118.718C135.72 118.151 136.411 117.56 136.998 116.948C137.93 115.973 138.53 114.99 138.795 113.996C139.065 113.002 138.946 112.035 138.441 111.087C137.936 110.139 136.975 109.253 135.555 108.434C135.342 108.312 135.129 108.194 134.916 108.082C134.68 107.958 134.44 107.843 134.197 107.731C132.371 106.886 130.426 106.384 128.36 106.22C126.907 106.108 125.47 106.151 124.044 106.347C123.804 106.38 123.565 106.42 123.326 106.462C122.456 106.616 121.594 106.827 120.738 107.096C121.62 105.784 121.755 104.478 121.141 103.173C120.525 101.871 119.396 100.746 117.757 99.7983C116.714 99.1982 115.5 98.7059 114.11 98.3223C112.722 97.9416 111.296 97.7092 109.826 97.6271C108.36 97.5451 106.901 97.63 105.448 97.8862C103.996 98.1417 102.687 98.6044 101.519 99.2802L100.453 99.8962L95.0013 96.7492L91.6189 98.7016L97.0682 101.848L92.9561 104.226L87.5039 101.078L84.1215 103.03L89.5708 106.177L83.5336 109.663L90.7157 113.812L91.434 114.225L101.585 120.086L102.303 120.502L112.457 126.363L113.175 126.78L117.14 129.069L123.181 125.583L123.182 125.582L128.84 128.849L132.222 126.896L126.564 123.629L126.566 123.628L130.678 121.253ZM119.318 111.195C119.439 111.126 119.56 111.06 119.685 111.001C120.158 110.775 120.676 110.605 121.233 110.5C121.909 110.369 122.607 110.319 123.326 110.346C123.362 110.346 123.401 110.349 123.437 110.349C123.64 110.359 123.84 110.375 124.044 110.395C124.598 110.454 125.156 110.555 125.71 110.703C126.464 110.903 127.146 111.178 127.743 111.523C128.343 111.871 128.799 112.261 129.117 112.697C129.432 113.136 129.596 113.579 129.613 114.025C129.629 114.471 129.488 114.908 129.189 115.337C129.006 115.596 128.766 115.842 128.471 116.072C128.326 116.186 128.16 116.298 127.986 116.406C127.936 116.436 127.89 116.468 127.839 116.497L125.232 118.002L125.139 118.056L124.044 118.689L123.326 119.102L121.026 120.43L118.135 122.099L109.284 116.989L110.228 116.443L112.173 115.321L112.172 115.32L112.457 115.157L113.175 114.743L116.287 112.946L119.318 111.195ZM101.585 105.692L102.303 105.275L102.653 105.072L102.655 105.073L104.644 103.925C104.759 103.859 104.886 103.81 105.005 103.751C105.411 103.554 105.838 103.386 106.304 103.274C106.947 103.12 107.649 103.051 108.406 103.065C109.84 103.091 111.191 103.458 112.457 104.173C112.486 104.19 112.519 104.209 112.549 104.226C112.778 104.357 112.985 104.491 113.175 104.629C114.08 105.279 114.526 105.967 114.513 106.698C114.506 107.096 114.392 107.466 114.166 107.813C113.943 108.154 113.611 108.476 113.175 108.768C113.067 108.84 112.955 108.912 112.834 108.981L112.457 109.198L111.129 109.965L107.014 112.342L107.013 112.341L105.89 112.99L104.123 114.009L103.143 113.444L102.047 112.81L101.585 112.543L99.5129 111.347L95.6504 109.118L96.7234 108.498L98.5399 107.45L98.5392 107.449L101.585 105.692Z" fill="var(--fill-0, #FF9D4D)"/>
<path id="Path 225" d="M60.3518 127.987V139.852C60.0992 139.534 59.8632 139.216 59.6336 138.894V127.026C59.8632 127.347 60.1028 127.668 60.3518 127.987Z" fill="var(--fill-0, #FFE840)"/>
<path id="Path 226" d="M69.693 135.854V147.724C69.4504 147.576 69.2108 147.428 68.9748 147.281V135.408C69.2108 135.559 69.4504 135.707 69.693 135.854Z" fill="var(--fill-0, #FFE840)"/>
<path id="Path 227" d="M80.5621 141.062V152.934C80.3224 152.846 80.0799 152.757 79.8439 152.663V140.793C80.0799 140.886 80.3224 140.978 80.5621 141.062Z" fill="var(--fill-0, #FFE840)"/>
<path id="Path 228" d="M91.434 144.237V156.106C91.1943 156.054 90.9554 156.001 90.7158 155.945V144.073C90.9554 144.129 91.1943 144.185 91.434 144.237Z" fill="var(--fill-0, #FFE840)"/>
<path id="Path 229" d="M102.303 145.946V157.814C102.063 157.795 101.824 157.769 101.585 157.742V145.874C101.824 145.9 102.063 145.926 102.303 145.946Z" fill="var(--fill-0, #FFE840)"/>
<path id="Path 230" d="M113.175 146.434V158.303C112.935 158.306 112.696 158.31 112.457 158.31V146.441C112.696 146.441 112.935 146.438 113.175 146.434Z" fill="var(--fill-0, #FFE840)"/>
<path id="Path 231" d="M124.044 145.756V157.625C123.804 157.654 123.565 157.684 123.326 157.706V145.838C123.565 145.815 123.804 145.785 124.044 145.756Z" fill="var(--fill-0, #FFE840)"/>
<path id="Path 232" d="M134.916 143.827V155.696C134.676 155.758 134.437 155.814 134.197 155.87V143.998C134.437 143.942 134.676 143.886 134.916 143.827Z" fill="var(--fill-0, #FFE840)"/>
<path id="Path 233" d="M145.784 140.383V152.253C145.544 152.348 145.305 152.443 145.065 152.535V140.662C145.305 140.573 145.544 140.478 145.784 140.383Z" fill="var(--fill-0, #FFE840)"/>
<path id="Path 234" d="M156.656 134.726V146.595C156.42 146.752 156.181 146.91 155.938 147.068V135.195C156.181 135.041 156.42 134.884 156.656 134.726Z" fill="var(--fill-0, #FFE840)"/>
<path id="Path 235" d="M166.299 125.157V137.027C166.073 137.397 165.829 137.768 165.577 138.135V126.266C165.829 125.899 166.069 125.528 166.299 125.157Z" fill="var(--fill-0, #FFE840)"/>
<path id="Path 236" d="M305.259 102.961V114.469V114.473V116.063H305.196C304.928 119.382 303.816 122.685 301.861 125.853C301.634 126.224 301.392 126.594 301.139 126.962C298.775 130.408 295.394 133.675 290.989 136.61C290.753 136.768 290.514 136.926 290.271 137.082C289.569 137.532 288.841 137.975 288.086 138.411C285.588 139.854 282.918 141.14 280.117 142.268C279.878 142.363 279.638 142.458 279.398 142.55C276.165 143.813 272.764 144.868 269.248 145.711C269.009 145.774 268.769 145.83 268.53 145.885C265.228 146.652 261.827 147.236 258.377 147.64C258.137 147.669 257.897 147.699 257.658 147.722C254.306 148.092 250.909 148.293 247.508 148.318C247.268 148.322 247.029 148.325 246.789 148.325C243.392 148.332 239.994 148.168 236.636 147.83C236.396 147.81 236.156 147.784 235.917 147.758C232.474 147.394 229.073 146.846 225.767 146.121C225.527 146.069 225.288 146.016 225.049 145.961C221.539 145.161 218.135 144.157 214.895 142.95C214.655 142.861 214.413 142.773 214.177 142.678C210.989 141.458 207.968 140.034 205.158 138.411C204.774 138.188 204.397 137.965 204.026 137.739C203.783 137.591 203.544 137.444 203.308 137.296C199.025 134.59 195.637 131.579 193.154 128.392C192.901 128.074 192.665 127.756 192.436 127.434C189.822 123.794 188.359 119.94 188.047 116.063H187.982V102.961H191.465C191.766 102.476 192.091 101.994 192.436 101.518C192.665 101.194 192.905 100.876 193.154 100.558C194.066 99.3832 195.102 98.2353 196.26 97.117C197.677 95.7496 199.274 94.4247 201.058 93.1581C202.33 92.2535 203.698 91.3741 205.158 90.5314C228.056 77.3112 265.185 77.3112 288.086 90.5314C289.546 91.3741 290.91 92.2499 292.182 93.1581C293.964 94.4247 295.564 95.746 296.981 97.117C298.608 98.688 299.995 100.321 301.139 101.994C301.362 102.315 301.573 102.637 301.776 102.961H305.259Z" fill="var(--fill-0, #FF9D4D)"/>
<path id="Path 237" d="M246.621 81.3347C262.16 81.3347 276.759 84.8215 287.728 91.1538C289.155 91.9778 290.513 92.8493 291.767 93.7438C293.506 94.9802 295.092 96.2885 296.482 97.6336C298.054 99.152 299.422 100.755 300.549 102.403C300.766 102.715 300.969 103.027 301.167 103.343L301.378 103.679H301.776H304.54V114.473V115.345H304.534L304.481 116.005C304.218 119.24 303.131 122.426 301.248 125.479C301.041 125.818 300.805 126.179 300.547 126.555C298.181 130.004 294.831 133.186 290.591 136.012C290.357 136.168 290.12 136.324 289.883 136.477C289.192 136.92 288.467 137.361 287.728 137.788C285.3 139.19 282.649 140.473 279.852 141.6C279.615 141.694 279.378 141.787 279.137 141.88C275.962 143.12 272.579 144.174 269.067 145.016C268.84 145.075 268.613 145.128 268.368 145.185C265.132 145.937 261.742 146.523 258.284 146.927C258.053 146.955 257.821 146.984 257.579 147.007C254.257 147.375 250.866 147.574 247.494 147.6C247.259 147.603 247.024 147.607 246.788 147.607H246.597C243.28 147.607 239.953 147.441 236.694 147.114C236.468 147.095 236.242 147.07 235.993 147.043C232.577 146.682 229.189 146.136 225.921 145.42L225.878 145.41C225.656 145.361 225.434 145.312 225.208 145.26C221.696 144.459 218.31 143.455 215.144 142.276L215.07 142.248C214.861 142.171 214.651 142.094 214.434 142.006C211.26 140.792 208.26 139.373 205.519 137.79C205.14 137.569 204.767 137.349 204.399 137.125C204.159 136.978 203.922 136.833 203.692 136.688C199.557 134.076 196.203 131.136 193.717 127.945C193.495 127.666 193.268 127.362 193.019 127.015C190.501 123.507 189.069 119.803 188.764 116.006L188.711 115.345H188.701V103.679H191.465H191.864L192.075 103.34C192.365 102.875 192.682 102.403 193.022 101.933C193.232 101.636 193.461 101.332 193.722 100.998C194.608 99.8559 195.63 98.7245 196.759 97.6336C198.171 96.2712 199.757 94.9622 201.475 93.7438C202.742 92.8421 204.102 91.9706 205.517 91.1538C216.484 84.8215 231.082 81.3347 246.621 81.3347V81.3347ZM246.621 80.6158C231.614 80.6158 216.607 83.9212 205.158 90.5313C203.698 91.374 202.33 92.2527 201.058 93.158C199.274 94.4239 197.677 95.7488 196.26 97.1168C195.102 98.2352 194.066 99.383 193.154 100.558C192.905 100.875 192.665 101.193 192.436 101.518C192.092 101.994 191.767 102.475 191.465 102.961H187.983V116.063H188.048C188.36 119.94 189.822 123.793 192.436 127.434C192.665 127.756 192.901 128.073 193.154 128.392C195.637 131.579 199.025 134.59 203.308 137.295C203.544 137.443 203.783 137.59 204.026 137.739C204.396 137.965 204.774 138.188 205.158 138.411C207.968 140.034 210.989 141.458 214.177 142.678C214.413 142.773 214.655 142.861 214.895 142.95C218.135 144.157 221.539 145.16 225.048 145.96C225.288 146.016 225.528 146.069 225.767 146.121C229.073 146.846 232.474 147.394 235.917 147.758C236.157 147.784 236.396 147.81 236.636 147.83C239.931 148.161 243.264 148.326 246.597 148.326C246.661 148.326 246.725 148.326 246.789 148.325C247.029 148.325 247.268 148.322 247.508 148.318C250.909 148.292 254.306 148.092 257.658 147.722C257.897 147.699 258.137 147.669 258.377 147.64C261.827 147.236 265.228 146.652 268.53 145.885C268.769 145.829 269.009 145.774 269.248 145.711C272.764 144.868 276.165 143.813 279.399 142.55C279.638 142.457 279.878 142.362 280.117 142.267C282.918 141.139 285.588 139.854 288.087 138.411C288.841 137.975 289.569 137.532 290.271 137.082C290.514 136.925 290.753 136.768 290.989 136.61C295.394 133.675 298.775 130.408 301.14 126.962C301.392 126.594 301.635 126.223 301.861 125.853C303.816 122.685 304.928 119.382 305.197 116.063H305.259V114.473V114.469V102.961H301.776C301.573 102.637 301.362 102.315 301.14 101.994C299.995 100.321 298.608 98.6878 296.981 97.1168C295.564 95.7459 293.964 94.4239 292.183 93.158C290.911 92.2498 289.546 91.374 288.087 90.5313C276.636 83.9212 261.628 80.6158 246.621 80.6158Z" fill="var(--fill-0, #FFE840)"/>
<path id="Path 238" d="M288.085 78.6621C310.985 91.8836 310.985 113.319 288.085 126.54C265.185 139.762 228.057 139.762 205.157 126.54C182.258 113.319 182.258 91.8836 205.157 78.6621C228.057 65.4405 265.185 65.4405 288.085 78.6621Z" fill="var(--fill-0, #FFE840)"/>
<path id="Path 239" d="M296.981 97.1167C295.105 91.3048 290.248 85.9556 282.849 81.6858C273.171 76.097 260.305 73.0211 246.622 73.0211C232.936 73.0211 220.07 76.097 210.395 81.6858C202.997 85.9556 198.136 91.3048 196.26 97.1167C195.683 98.9072 195.388 100.74 195.388 102.6C195.388 108.287 198.149 113.731 203.308 118.418C203.541 118.634 203.78 118.844 204.026 119.05C205.872 120.641 208.001 122.133 210.395 123.517C211.609 124.216 212.872 124.878 214.176 125.495C214.416 125.61 214.656 125.722 214.895 125.83C218.047 127.273 221.454 128.483 225.048 129.444C225.288 129.509 225.528 129.575 225.767 129.637C229.017 130.47 232.415 131.11 235.917 131.533C236.157 131.566 236.397 131.596 236.636 131.621C239.889 131.992 243.231 132.179 246.622 132.179H246.789C247.029 132.179 247.268 132.176 247.507 132.173C250.961 132.14 254.356 131.914 257.658 131.493C257.898 131.464 258.137 131.434 258.376 131.398C261.885 130.929 265.287 130.24 268.53 129.355C268.773 129.29 269.012 129.224 269.248 129.152C272.856 128.129 276.261 126.849 279.399 125.334C279.639 125.223 279.881 125.105 280.117 124.983C281.052 124.518 281.963 124.029 282.849 123.517C285.712 121.864 288.195 120.048 290.271 118.109C290.517 117.88 290.757 117.65 290.989 117.418C295.466 112.964 297.853 107.887 297.853 102.6C297.853 100.74 297.558 98.9072 296.981 97.1167V97.1167ZM290.989 113.787C290.76 114.092 290.52 114.397 290.271 114.699C287.969 117.473 284.83 120.071 280.855 122.367C280.612 122.507 280.366 122.645 280.117 122.783C279.881 122.914 279.642 123.045 279.399 123.17C276.274 124.836 272.86 126.217 269.248 127.315C269.012 127.388 268.77 127.46 268.53 127.529C265.27 128.483 261.862 129.211 258.376 129.709C258.14 129.745 257.901 129.778 257.658 129.808C254.323 130.257 250.919 130.5 247.507 130.533C247.268 130.536 247.029 130.539 246.789 130.539C243.385 130.546 239.978 130.349 236.636 129.942C236.397 129.913 236.153 129.883 235.917 129.85C232.441 129.401 229.034 128.726 225.767 127.827C225.528 127.761 225.285 127.696 225.048 127.627C221.454 126.597 218.04 125.292 214.895 123.715C214.652 123.593 214.413 123.471 214.176 123.347C213.57 123.032 212.973 122.704 212.39 122.367C208.988 120.402 206.2 118.218 204.026 115.893C203.78 115.626 203.541 115.361 203.308 115.092C197.398 108.248 196.647 100.285 201.058 93.1579C203.393 89.3862 207.168 85.8505 212.39 82.8366C231.263 71.9388 261.978 71.9388 280.855 82.8366C286.076 85.8505 289.851 89.3862 292.183 93.1579C296.315 99.8349 295.919 107.247 290.989 113.787Z" fill="var(--fill-0, #FF9D4D)"/>
<path id="Path 240" d="M248.497 97.8278L254.019 101.016C253.894 101.076 253.771 101.141 253.65 101.21L250.621 102.96L245.461 99.9803L247.165 98.9965C247.774 98.6446 248.218 98.2546 248.497 97.8278Z" fill="var(--fill-0, #D1975D)"/>
<path id="Path 241" d="M265.011 111.268L265.012 111.267L270.67 114.535L274.053 112.582L268.38 109.306C268.429 109.274 268.481 109.244 268.53 109.209C268.779 109.055 269.019 108.894 269.248 108.733C270.052 108.166 270.744 107.576 271.331 106.962C272.262 105.988 272.862 105.004 273.128 104.01C273.397 103.017 273.279 102.049 272.774 101.102C272.269 100.154 271.308 99.2679 269.888 98.4482C269.675 98.3266 269.461 98.2085 269.248 98.097C269.012 97.9725 268.773 97.8581 268.53 97.7458C266.704 96.9002 264.758 96.3986 262.692 96.2345C261.239 96.123 259.803 96.1654 258.376 96.3619C258.137 96.395 257.898 96.4346 257.658 96.477C256.789 96.6311 255.927 96.8412 255.07 97.1103C255.953 95.7984 256.087 94.493 255.474 93.1875C254.857 91.8856 253.729 90.7608 252.089 89.813C251.047 89.2128 249.833 88.7206 248.442 88.337C247.055 87.9563 245.628 87.7239 244.159 87.6418C242.693 87.5598 241.233 87.6447 239.78 87.9009C238.328 88.1564 237.019 88.6191 235.852 89.2949L234.786 89.9109L229.335 86.7638L225.952 88.7163L231.401 91.8626L227.289 94.2404L221.837 91.0926L218.454 93.0457L223.903 96.1921L217.866 99.6781L225.048 103.827L225.767 104.24L235.917 110.101L236.636 110.517L246.789 116.378L247.507 116.794L251.473 119.084L257.514 115.598L257.514 115.597L263.172 118.863L266.555 116.911L260.897 113.644L260.898 113.642L265.011 111.268ZM253.65 101.21C253.772 101.14 253.893 101.075 254.017 101.016C254.49 100.79 255.008 100.619 255.565 100.514C256.241 100.383 256.94 100.334 257.658 100.36C257.694 100.36 257.734 100.363 257.77 100.363C257.973 100.373 258.173 100.39 258.376 100.409C258.931 100.468 259.488 100.57 260.042 100.717C260.797 100.917 261.479 101.193 262.075 101.538C262.676 101.885 263.132 102.275 263.45 102.711C263.765 103.151 263.929 103.594 263.945 104.04C263.962 104.486 263.821 104.922 263.522 105.352C263.338 105.611 263.099 105.857 262.804 106.087C262.658 106.201 262.493 106.313 262.319 106.421C262.269 106.451 262.223 106.482 262.172 106.512L259.565 108.017L259.472 108.071L258.376 108.703L257.658 109.117L255.359 110.445L252.467 112.114L243.616 107.003L244.56 106.458L246.506 105.335L246.505 105.335L246.789 105.171L247.507 104.758L250.62 102.961L253.65 101.21ZM235.917 95.7063L236.636 95.2896L236.985 95.0867L236.988 95.0881L238.977 93.9395C239.092 93.8733 239.218 93.8244 239.338 93.7661C239.744 93.5682 240.171 93.4005 240.637 93.289C241.28 93.135 241.981 93.0659 242.739 93.0796C244.172 93.1055 245.523 93.4725 246.789 94.1878C246.819 94.2044 246.852 94.2238 246.881 94.2404C247.111 94.3713 247.317 94.5059 247.507 94.6434C248.413 95.2932 248.859 95.9819 248.846 96.7131C248.839 97.1103 248.724 97.4802 248.498 97.8286C248.275 98.169 247.944 98.4907 247.507 98.7828C247.399 98.8548 247.288 98.9268 247.166 98.9959L246.789 99.2125L245.461 99.9796L241.346 102.357L241.346 102.356L240.223 103.004L238.456 104.023L237.475 103.458L236.379 102.825L235.917 102.557L233.845 101.362L229.983 99.1326L231.056 98.513L232.873 97.4637H232.872L235.917 95.7063Z" fill="var(--fill-0, #FF9D4D)"/>
<path id="Path 242" d="M194.685 118.001V129.867C194.432 129.549 194.196 129.231 193.966 128.909V117.04C194.196 117.361 194.436 117.683 194.685 118.001Z" fill="var(--fill-0, #FFE840)"/>
<path id="Path 243" d="M204.026 125.869V137.739C203.783 137.591 203.544 137.443 203.308 137.296V125.423C203.544 125.574 203.783 125.722 204.026 125.869Z" fill="var(--fill-0, #FFE840)"/>
<path id="Path 244" d="M214.895 131.077V142.95C214.655 142.861 214.413 142.773 214.176 142.678V130.808C214.413 130.9 214.655 130.992 214.895 131.077Z" fill="var(--fill-0, #FFE840)"/>
<path id="Path 245" d="M225.767 134.252V146.12C225.527 146.069 225.288 146.016 225.048 145.96V134.088C225.288 134.144 225.527 134.199 225.767 134.252Z" fill="var(--fill-0, #FFE840)"/>
<path id="Path 246" d="M236.636 135.961V147.83C236.396 147.81 236.157 147.784 235.917 147.758V135.889C236.157 135.915 236.396 135.942 236.636 135.961Z" fill="var(--fill-0, #FFE840)"/>
<path id="Path 247" d="M247.508 136.45V148.319C247.268 148.322 247.029 148.325 246.789 148.325V136.456C247.029 136.456 247.268 136.453 247.508 136.45Z" fill="var(--fill-0, #FFE840)"/>
<path id="Path 248" d="M258.376 135.77V147.64C258.137 147.669 257.898 147.699 257.658 147.721V135.852C257.898 135.829 258.137 135.8 258.376 135.77Z" fill="var(--fill-0, #FFE840)"/>
<path id="Path 249" d="M269.248 133.842V145.712C269.008 145.774 268.77 145.83 268.53 145.885V134.013C268.77 133.958 269.008 133.901 269.248 133.842Z" fill="var(--fill-0, #FFE840)"/>
<path id="Path 250" d="M280.117 130.399V142.268C279.877 142.363 279.638 142.458 279.399 142.55V130.677C279.638 130.589 279.877 130.494 280.117 130.399Z" fill="var(--fill-0, #FFE840)"/>
<path id="Path 251" d="M290.989 124.741V136.61C290.753 136.767 290.513 136.925 290.271 137.082V125.21C290.513 125.055 290.753 124.898 290.989 124.741Z" fill="var(--fill-0, #FFE840)"/>
<path id="Path 252" d="M300.631 115.173V127.042C300.404 127.413 300.162 127.784 299.909 128.151V116.281C300.162 115.914 300.402 115.544 300.631 115.173Z" fill="var(--fill-0, #FFE840)"/>
<path id="Path 253" d="M117.277 209.388V220.896V220.9V222.491H117.214C116.946 225.81 115.834 229.112 113.879 232.28C113.653 232.651 113.41 233.021 113.158 233.389C110.793 236.835 107.412 240.102 103.007 243.037C102.771 243.195 102.532 243.353 102.289 243.51C101.587 243.959 100.859 244.402 100.104 244.838C97.6057 246.281 94.9358 247.567 92.1349 248.695C91.896 248.79 91.6563 248.885 91.4167 248.977C88.1832 250.24 84.7821 251.296 81.2666 252.138C81.027 252.201 80.7873 252.256 80.5484 252.312C77.2459 253.08 73.8448 253.663 70.3947 254.067C70.1551 254.096 69.9155 254.126 69.6765 254.149C66.3244 254.52 62.9269 254.72 59.5257 254.746C59.2861 254.749 59.0472 254.752 58.8075 254.752C55.41 254.759 52.0118 254.595 48.6539 254.257C48.4142 254.238 48.1746 254.212 47.9357 254.185C44.4921 253.821 41.091 253.273 37.7849 252.548C37.5452 252.496 37.3063 252.443 37.0667 252.388C33.5576 251.588 30.1529 250.584 26.913 249.377C26.6734 249.288 26.4309 249.2 26.1948 249.105C23.0067 247.885 19.9863 246.462 17.1753 244.838C16.7918 244.615 16.4147 244.392 16.044 244.166C15.8015 244.018 15.5619 243.871 15.3258 243.723C11.0431 241.017 7.65499 238.006 5.17217 234.819C4.91957 234.501 4.68352 234.183 4.45395 233.861C1.84015 230.22 0.377088 226.367 0.0661958 222.491H-1.27202e-05V209.388H3.48313C3.78467 208.903 4.10995 208.421 4.45395 207.946C4.68352 207.621 4.92317 207.303 5.17217 206.985C6.08397 205.81 7.12028 204.662 8.27821 203.544C9.6945 202.177 11.2921 200.852 13.0762 199.585C14.3485 198.681 15.7159 197.801 17.1753 196.959C40.0741 183.738 77.2027 183.738 100.104 196.959C101.565 197.801 102.928 198.677 104.201 199.585C105.982 200.852 107.582 202.173 108.999 203.544C110.626 205.115 112.013 206.748 113.158 208.421C113.381 208.742 113.591 209.064 113.794 209.388H117.277Z" fill="var(--fill-0, #FF9D4D)"/>
<path id="Path 254" d="M58.6384 187.762C74.1773 187.762 88.7762 191.249 99.7445 197.581C101.172 198.406 102.531 199.277 103.784 200.171C105.523 201.407 107.109 202.716 108.5 204.061C110.072 205.579 111.439 207.183 112.567 208.831C112.783 209.143 112.987 209.455 113.184 209.77L113.395 210.107H113.794H116.558V220.9V221.772H116.551L116.497 222.433C116.235 225.667 115.149 228.854 113.265 231.906C113.057 232.245 112.822 232.608 112.565 232.982C110.198 236.432 106.848 239.614 102.608 242.44C102.374 242.595 102.137 242.751 101.901 242.905C101.21 243.347 100.485 243.787 99.7452 244.215C97.3164 245.617 94.6652 246.901 91.8693 248.027C91.6326 248.121 91.3958 248.215 91.1547 248.307C87.9796 249.547 84.5965 250.602 81.0852 251.443C80.8593 251.502 80.6333 251.555 80.385 251.613C77.1494 252.364 73.7591 252.95 70.2839 253.357C70.0579 253.385 69.8327 253.413 69.5966 253.434C66.2747 253.802 62.8837 254.002 59.515 254.027C59.2789 254.03 59.0429 254.034 58.8054 254.034H58.6089C55.2942 254.034 51.9693 253.869 48.7122 253.541C48.4862 253.523 48.2602 253.498 48.0105 253.471C44.5965 253.109 41.2076 252.563 37.9382 251.846C37.7021 251.795 37.4654 251.743 37.2257 251.688C33.7131 250.887 30.3278 249.883 27.162 248.703L27.0749 248.672C26.8698 248.595 26.664 248.52 26.451 248.434C23.2773 247.219 20.2778 245.8 17.5366 244.217C17.1566 243.997 16.7846 243.776 16.4168 243.552C16.1765 243.406 15.9397 243.26 15.7094 243.116C11.575 240.504 8.22064 237.564 5.73494 234.373C5.51256 234.093 5.28515 233.789 5.03687 233.442C2.51879 229.934 1.08667 226.23 0.781535 222.434L0.728281 221.772H0.718206V210.107H3.48241H3.88182L4.09268 209.768C4.3827 209.303 4.69935 208.831 5.04047 208.36C5.24989 208.064 5.4773 207.758 5.73926 207.425C6.62587 206.284 7.64779 205.152 8.77693 204.061C10.1882 202.698 11.7743 201.39 13.4921 200.171C14.7602 199.269 16.1203 198.398 17.5344 197.581C28.502 191.249 43.0996 187.762 58.6384 187.762V187.762ZM58.6384 187.043C43.6314 187.043 28.6244 190.348 17.1753 196.958C15.7159 197.801 14.3478 198.681 13.0754 199.586C11.2914 200.852 9.69449 202.177 8.27749 203.545C7.11956 204.662 6.08325 205.81 5.17145 206.985C4.92245 207.302 4.6828 207.621 4.45323 207.945C4.10923 208.421 3.78467 208.903 3.48241 209.388H-1.27202e-05V222.491H0.0654761C0.377088 226.367 1.83943 230.221 4.45323 233.861C4.6828 234.183 4.91885 234.5 5.17145 234.819C7.65427 238.007 11.0424 241.017 15.3251 243.722C15.5619 243.871 15.8008 244.018 16.044 244.166C16.4139 244.392 16.7918 244.616 17.1753 244.839C19.9856 246.461 23.0067 247.885 26.1941 249.104C26.4301 249.2 26.6734 249.289 26.9123 249.377C30.1529 250.584 33.5569 251.588 37.066 252.388C37.3056 252.444 37.5452 252.497 37.7842 252.548C41.0903 253.273 44.4914 253.821 47.9349 254.185C48.1746 254.211 48.4135 254.238 48.6532 254.257C51.9463 254.589 55.2769 254.753 58.6089 254.753H58.8068C59.0465 254.753 59.2861 254.749 59.525 254.746C62.9261 254.719 66.3236 254.519 69.6758 254.148C69.9154 254.126 70.1544 254.096 70.394 254.067C73.8441 253.664 77.2452 253.08 80.5477 252.312C80.7873 252.256 81.0262 252.2 81.2659 252.138C84.7814 251.296 88.1825 250.24 91.4167 248.977C91.6556 248.885 91.8952 248.79 92.1349 248.695C94.9351 247.567 97.605 246.282 100.104 244.839C100.859 244.402 101.587 243.959 102.289 243.51C102.531 243.353 102.771 243.195 103.007 243.038C107.411 240.102 110.793 236.836 113.157 233.389C113.409 233.022 113.653 232.651 113.879 232.281C115.833 229.112 116.945 225.809 117.214 222.491H117.276V220.9V220.897V209.388H113.794C113.59 209.064 113.38 208.743 113.157 208.421C112.013 206.749 110.625 205.115 108.999 203.545C107.582 202.174 105.981 200.852 104.201 199.586C102.928 198.678 101.564 197.801 100.104 196.958C88.6532 190.348 73.6454 187.043 58.6384 187.043Z" fill="var(--fill-0, #FFE840)"/>
<path id="Path 255" d="M100.103 185.089C123.003 198.311 123.003 219.747 100.103 232.968C77.2025 246.189 40.0747 246.189 17.1752 232.968C-5.72507 219.747 -5.72507 198.311 17.1752 185.089C40.0747 171.868 77.2025 171.868 100.103 185.089Z" fill="var(--fill-0, #FFE840)"/>
<path id="Path 256" d="M108.998 203.544C107.122 197.732 102.265 192.383 94.8665 188.113C85.1886 182.524 72.3225 179.449 58.6397 179.449C44.954 179.449 32.0879 182.524 22.4128 188.113C15.014 192.383 10.1535 197.732 8.27732 203.544C7.70016 205.335 7.4051 207.168 7.4051 209.027C7.4051 214.715 10.1664 220.159 15.3256 224.845C15.5581 225.062 15.7977 225.271 16.0439 225.478C17.8898 227.069 20.0185 228.561 22.4128 229.945C23.6262 230.644 24.8885 231.306 26.1939 231.922C26.4336 232.038 26.6732 232.149 26.9121 232.257C30.0642 233.7 33.4718 234.91 37.0658 235.871C37.3054 235.937 37.5451 236.002 37.784 236.065C41.0347 236.897 44.4322 237.537 47.9348 237.96C48.1744 237.993 48.4141 238.023 48.653 238.049C51.9066 238.419 55.2487 238.607 58.6397 238.607H58.8066C59.0463 238.607 59.2859 238.603 59.5249 238.6C62.9785 238.567 66.3731 238.341 69.6756 237.921C69.9153 237.891 70.1542 237.862 70.3939 237.826C73.9029 237.357 77.304 236.669 80.5475 235.783C80.79 235.717 81.0297 235.652 81.2657 235.579C84.8734 234.556 88.2781 233.277 91.4165 231.762C91.6554 231.65 91.8987 231.532 92.1347 231.411C93.0695 230.945 93.9806 230.456 94.8665 229.945C97.7293 228.292 100.212 226.475 102.288 224.537C102.534 224.307 102.773 224.077 103.007 223.845C107.484 219.391 109.871 214.314 109.871 209.027C109.871 207.168 109.576 205.335 108.998 203.544V203.544ZM103.007 220.214C102.777 220.519 102.537 220.825 102.288 221.126C99.9862 223.9 96.847 226.498 92.8724 228.794C92.6298 228.935 92.3837 229.073 92.1347 229.211C91.8987 229.342 91.659 229.473 91.4165 229.597C88.291 231.263 84.877 232.644 81.2657 233.743C81.0297 233.815 80.7871 233.887 80.5475 233.956C77.2875 234.91 73.8799 235.639 70.3939 236.137C70.1578 236.173 69.9182 236.206 69.6756 236.235C66.34 236.684 62.936 236.928 59.5249 236.96C59.2859 236.964 59.0463 236.966 58.8066 236.966C55.4027 236.973 51.9951 236.776 48.653 236.37C48.4141 236.34 48.1708 236.311 47.9348 236.278C44.4581 235.829 41.0513 235.153 37.784 234.254C37.5451 234.189 37.3026 234.123 37.0658 234.055C33.4718 233.025 30.0578 231.719 26.9121 230.142C26.6696 230.02 26.43 229.899 26.1939 229.774C25.5872 229.46 24.9907 229.132 24.4063 228.794C21.0059 226.829 18.218 224.645 16.0439 222.32C15.7977 222.054 15.5581 221.789 15.3256 221.52C9.41582 214.675 8.6645 206.712 13.0753 199.585C15.4106 195.814 19.1859 192.279 24.4063 189.264C43.2808 178.366 73.995 178.366 92.8724 189.264C98.0935 192.279 101.869 195.814 104.201 199.585C108.333 206.262 107.936 213.675 103.007 220.214Z" fill="var(--fill-0, #FF9D4D)"/>
<path id="Path 257" d="M60.5151 204.255L66.0363 207.443C65.9118 207.503 65.7887 207.568 65.6686 207.637L62.6388 209.387L57.4789 206.407L59.183 205.424C59.7925 205.072 60.2366 204.682 60.5151 204.255Z" fill="var(--fill-0, #D1975D)"/>
<path id="Path 258" d="M77.0284 217.696H77.0291L82.6878 220.962L86.0702 219.009L80.3971 215.734C80.4461 215.701 80.4986 215.672 80.5476 215.636C80.7966 215.482 81.0362 215.321 81.2658 215.16C82.0696 214.593 82.7612 214.003 83.3485 213.39C84.2797 212.415 84.8799 211.432 85.1454 210.438C85.4146 209.444 85.2966 208.477 84.7914 207.529C84.2862 206.581 83.3254 205.695 81.9055 204.876C81.6925 204.754 81.4788 204.636 81.2658 204.524C81.0297 204.4 80.7901 204.285 80.5476 204.174C78.7211 203.328 76.7758 202.826 74.7097 202.662C73.2567 202.55 71.8203 202.593 70.3939 202.789C70.1543 202.822 69.9153 202.862 69.6757 202.904C68.8063 203.058 67.9442 203.269 67.0878 203.538C67.9701 202.226 68.1047 200.92 67.4915 199.615C66.8748 198.313 65.7464 197.188 64.107 196.24C63.0642 195.64 61.8501 195.148 60.4597 194.764C59.0722 194.384 57.6459 194.151 56.1763 194.069C54.7104 193.987 53.2509 194.072 51.7979 194.328C50.3457 194.584 49.0366 195.046 47.8693 195.722L46.8035 196.338L41.3521 193.191L37.969 195.144L43.4183 198.29L39.3061 200.668L33.854 197.52L30.4716 199.473L35.9209 202.619L29.8837 206.105L37.0658 210.254L37.7841 210.667L47.9348 216.528L48.653 216.945L58.8067 222.805L59.5249 223.222L63.4902 225.511L69.531 222.025L69.5317 222.024L75.1897 225.291L78.5721 223.338L72.9141 220.071L72.9156 220.07L77.0284 217.696ZM65.6679 207.637C65.7895 207.568 65.9104 207.502 66.0349 207.443C66.5078 207.217 67.0259 207.047 67.5829 206.942C68.2587 206.811 68.9575 206.761 69.6757 206.788C69.7117 206.788 69.7512 206.791 69.7872 206.791C69.9902 206.801 70.1902 206.817 70.3939 206.837C70.948 206.896 71.5058 206.997 72.0599 207.145C72.8141 207.345 73.4963 207.62 74.0937 207.965C74.6931 208.313 75.1494 208.703 75.4675 209.139C75.782 209.579 75.9461 210.021 75.9626 210.467C75.9792 210.913 75.8381 211.35 75.5395 211.779C75.3559 212.038 75.1163 212.284 74.8212 212.514C74.6759 212.628 74.5103 212.74 74.3362 212.848C74.2865 212.878 74.2405 212.91 74.1894 212.939L71.5821 214.444L71.4892 214.498L70.3939 215.131L69.6757 215.544L67.3764 216.872L64.4848 218.541L55.6337 213.431L56.5779 212.885L58.5232 211.763L58.5224 211.762L58.8067 211.599L59.5249 211.186L62.6374 209.389L65.6679 207.637ZM47.9348 202.134L48.653 201.717L49.0035 201.514L49.005 201.515L50.9941 200.367C51.1092 200.301 51.2359 200.252 51.3561 200.193C51.7613 199.996 52.188 199.828 52.6543 199.716C53.297 199.562 53.9987 199.493 54.7565 199.507C56.19 199.533 57.5408 199.901 58.8067 200.615C58.8362 200.632 58.8693 200.651 58.8988 200.668C59.1284 200.799 59.3349 200.933 59.5249 201.071C60.4302 201.721 60.8764 202.409 60.8635 203.14C60.8563 203.538 60.7419 203.908 60.5152 204.256C60.2928 204.596 59.961 204.918 59.5249 205.21C59.417 205.282 59.3054 205.354 59.1838 205.423L58.8067 205.64L57.4782 206.407L53.3639 208.784L53.3632 208.783L52.2405 209.432L50.4731 210.451L49.4929 209.886L48.3968 209.253L47.9348 208.985L45.8629 207.789L42.0005 205.56L43.0735 204.94L44.89 203.892L44.8892 203.891L47.9348 202.134Z" fill="var(--fill-0, #FF9D4D)"/>
<path id="Path 259" d="M6.70217 224.429V236.294C6.44957 235.976 6.21352 235.658 5.98395 235.336V223.468C6.21352 223.789 6.45317 224.111 6.70217 224.429Z" fill="var(--fill-0, #FFE840)"/>
<path id="Path 260" d="M16.044 232.297V244.165C15.8015 244.018 15.5618 243.87 15.3258 243.723V231.85C15.5618 232.002 15.8015 232.149 16.044 232.297Z" fill="var(--fill-0, #FFE840)"/>
<path id="Path 261" d="M26.9129 237.505V249.377C26.6732 249.288 26.4307 249.2 26.1947 249.105V237.236C26.4307 237.328 26.6732 237.42 26.9129 237.505Z" fill="var(--fill-0, #FFE840)"/>
<path id="Path 262" d="M37.7848 240.679V252.549C37.5451 252.496 37.3062 252.443 37.0665 252.387V240.515C37.3062 240.571 37.5451 240.627 37.7848 240.679Z" fill="var(--fill-0, #FFE840)"/>
<path id="Path 263" d="M48.6532 242.388V254.258C48.4135 254.237 48.1746 254.212 47.935 254.185V242.316C48.1746 242.342 48.4135 242.369 48.6532 242.388Z" fill="var(--fill-0, #FFE840)"/>
<path id="Path 264" d="M59.5258 242.877V254.746C59.2861 254.749 59.0472 254.753 58.8075 254.753V242.884C59.0472 242.884 59.2861 242.881 59.5258 242.877Z" fill="var(--fill-0, #FFE840)"/>
<path id="Path 265" d="M70.3939 242.198V254.067C70.1543 254.096 69.9154 254.126 69.6757 254.149V242.28C69.9154 242.257 70.1543 242.227 70.3939 242.198Z" fill="var(--fill-0, #FFE840)"/>
<path id="Path 266" d="M81.2658 240.27V252.138C81.0262 252.201 80.7873 252.257 80.5476 252.313V240.44C80.7873 240.385 81.0262 240.329 81.2658 240.27Z" fill="var(--fill-0, #FFE840)"/>
<path id="Path 267" d="M92.1349 236.826V248.695C91.8953 248.79 91.6564 248.885 91.4167 248.977V237.105C91.6564 237.016 91.8953 236.921 92.1349 236.826Z" fill="var(--fill-0, #FFE840)"/>
<path id="Path 268" d="M103.007 231.168V243.038C102.771 243.195 102.531 243.353 102.288 243.51V231.637C102.531 231.483 102.771 231.327 103.007 231.168Z" fill="var(--fill-0, #FFE840)"/>
<path id="Path 269" d="M112.649 221.6V233.47C112.423 233.84 112.179 234.21 111.927 234.578V222.708C112.179 222.341 112.419 221.971 112.649 221.6Z" fill="var(--fill-0, #FFE840)"/>
</g>
</g>
</svg>
