<svg preserveAspectRatio="none" width="100%" height="100%" overflow="visible" style="display: block;" viewBox="0 0 269.904 423.519" fill="none" xmlns="http://www.w3.org/2000/svg">
<g id="Group 77">
<mask id="mask0_0_31" style="mask-type:alpha" maskUnits="userSpaceOnUse" x="0" y="0" width="270" height="424">
<path id="Path 273" d="M244.795 1.18168C208.92 11.5325 171.937 27.7061 134.948 49.0519C97.9591 70.4048 60.9852 96.9444 25.101 128.021C24.3136 128.701 23.5335 129.406 22.7765 130.133C22.0726 130.792 21.3753 131.473 20.6945 132.162C19.8532 133.025 19.0364 133.903 18.2333 134.797C17.5215 135.585 16.8328 136.395 16.1664 137.212C15.8785 137.546 15.5979 137.886 15.333 138.228C14.9092 138.75 14.5004 139.28 14.0916 139.817C13.6829 140.355 13.2892 140.892 12.8956 141.438C12.4177 142.096 11.9564 142.763 11.5095 143.429C11.2065 143.861 10.9187 144.3 10.6387 144.739C10.3055 145.246 9.98024 145.761 9.66934 146.269C9.48796 146.557 9.31383 146.844 9.14686 147.132C8.94247 147.458 8.7532 147.783 8.56393 148.116C8.26887 148.631 7.98102 149.138 7.70105 149.654C7.43624 150.123 7.18581 150.592 6.93607 151.07C6.58775 151.735 6.25456 152.41 5.92855 153.075C5.89113 153.145 5.86091 153.204 5.82997 153.273C2.12014 160.982 0 168.848 0 175.891V344.723C0 345.7 0.0223264 346.662 0.060473 347.608C0.0755856 348.085 0.105811 348.555 0.136743 349.025C0.151125 349.259 0.166238 349.493 0.189272 349.728C0.204385 350.031 0.227419 350.334 0.257644 350.629C0.333229 351.477 0.423882 352.311 0.5304 353.128C0.575738 353.446 0.613154 353.764 0.666413 354.082C0.70456 354.347 0.741976 354.612 0.787313 354.87C0.855685 355.301 0.931248 355.733 1.01473 356.15C1.00681 356.157 1.01473 356.172 1.02263 356.187C1.09822 356.611 1.18097 357.028 1.27238 357.437C1.3328 357.763 1.40839 358.08 1.48395 358.405C1.56744 358.762 1.65811 359.117 1.74949 359.473C1.75671 359.511 1.76388 359.55 1.77972 359.587C1.84738 359.875 1.93158 360.155 2.00641 360.443C2.05177 360.617 2.105 360.783 2.15826 360.957C2.24821 361.283 2.34754 361.609 2.45332 361.927C2.55192 362.238 2.64979 362.548 2.74838 362.851C2.81676 363.04 2.87721 363.222 2.94555 363.403C3.02906 363.638 3.11181 363.873 3.20249 364.1C3.24061 364.207 3.27876 364.312 3.3241 364.418C3.41477 364.661 3.50547 364.902 3.60405 365.138C3.89265 365.834 4.18697 366.515 4.5058 367.182C4.64181 367.469 4.77782 367.757 4.92968 368.045C5.22474 368.636 5.53491 369.211 5.86091 369.779C5.98973 370.021 6.13366 370.257 6.27757 370.491C6.44383 370.771 6.61799 371.051 6.79213 371.324C6.91303 371.513 7.03466 371.702 7.16348 371.884C7.27646 372.066 7.39736 372.239 7.51899 372.414C7.80616 372.823 8.09473 373.217 8.39698 373.61C8.54882 373.807 8.69277 374.004 8.8518 374.194C9.4045 374.882 9.98024 375.542 10.5855 376.177C10.7445 376.359 10.9187 376.533 11.0928 376.708C11.3281 376.949 11.57 377.184 11.8125 377.411C12.0241 377.609 12.2363 377.805 12.4487 377.994C13.046 378.532 13.6598 379.04 14.296 379.524C14.3032 379.532 14.3032 379.532 14.3111 379.532C14.4169 379.623 14.5306 379.706 14.6443 379.789C14.8941 379.979 15.151 380.16 15.4165 380.342C15.4245 380.342 15.4316 380.349 15.4475 380.357C17.2639 381.614 19.2329 382.682 21.3299 383.552C21.3379 383.552 21.3451 383.56 21.353 383.56C21.3832 383.575 21.4134 383.583 21.4444 383.598L26.5172 385.665L116.935 422.556C126.915 426.638 142.974 417.369 152.97 401.755L248.445 252.534C262.173 231.09 269.904 208.162 269.904 188.899V20.0662C269.904 15.3561 268.958 11.3656 267.224 8.21633C266.217 6.39848 264.959 4.86201 263.46 3.64291C262.915 3.18808 262.348 2.77932 261.741 2.41589L261.144 2.06758C261.067 2.02224 260.992 1.9769 260.908 1.93876C260.325 1.62858 259.719 1.35583 259.084 1.12122C257.115 0.379258 254.919 0 252.534 0C250.134 0 247.544 0.386454 244.795 1.18168Z" fill="var(--fill-0, black)"/>
</mask>
<g mask="url(#mask0_0_31)">
<path id="Rectangle 41" d="M0 -2.38545e-05H269.904V426.638H0V-2.38545e-05Z" fill="url(#paint0_linear_0_31)"/>
</g>
</g>
<defs>
<linearGradient id="paint0_linear_0_31" x1="-223.106" y1="482.87" x2="-222.386" y2="482.87" gradientUnits="userSpaceOnUse">
<stop stop-color="#2E256B"/>
<stop offset="1" stop-color="#5A3087"/>
</linearGradient>
</defs>
</svg>
