<svg preserveAspectRatio="none" width="100%" height="100%" overflow="visible" style="display: block;" viewBox="0 0 296.096 181.54" fill="none" xmlns="http://www.w3.org/2000/svg">
<g id="Group 71">
<mask id="mask0_0_22" style="mask-type:alpha" maskUnits="userSpaceOnUse" x="0" y="0" width="297" height="182">
<path id="Path 270" d="M238.867 1.1752C202.982 11.526 166.001 27.6996 129.019 49.0526C92.037 70.4063 55.056 96.9379 19.1717 128.021C11.7362 134.458 5.45933 142.552 1.03701 150.98C0.673604 151.669 0.333184 152.358 0 153.047L34.8005 173.127L49.3692 181.54C53.8066 172.303 60.5383 163.307 68.6402 156.287C75.3187 150.503 82.0424 144.876 88.7892 139.402C91.5829 137.145 94.3774 134.911 97.1783 132.716C107.628 124.485 118.145 116.648 128.701 109.212C130.162 108.183 131.631 107.153 133.093 106.139C143.709 98.786 154.355 91.842 165.017 85.3233H165.024C167.31 83.9222 169.597 82.544 171.884 81.1889C174.087 79.8784 176.284 78.5909 178.487 77.3193C185.938 73.0258 193.381 68.9374 200.817 65.0678C204.475 63.1593 208.124 61.312 211.766 59.5171C221.072 54.9207 230.363 50.6733 239.616 46.7885C243.213 45.2672 246.802 43.8056 250.383 42.4044C257.879 39.4516 265.338 36.7486 272.759 34.2874C277.969 32.5537 283.163 30.941 288.334 29.4491C291.083 28.6539 293.68 28.2682 296.072 28.2682H296.096C294.725 25.7918 292.878 23.8387 290.613 22.4677L290.016 22.1194C289.939 22.0741 289.864 22.0287 289.78 21.9906L255.26 2.08341C252.795 0.718219 249.878 2.38419e-07 246.597 2.38419e-07C244.203 2.38419e-07 241.614 0.382858 238.867 1.1752Z" fill="var(--fill-0, black)"/>
</mask>
<g mask="url(#mask0_0_22)">
<path id="Rectangle 38" d="M-2.93594e-05 0H296.096V181.54H-2.93594e-05V0Z" fill="url(#paint0_linear_0_22)"/>
</g>
</g>
<defs>
<linearGradient id="paint0_linear_0_22" x1="-194.234" y1="502.926" x2="-193.515" y2="502.926" gradientUnits="userSpaceOnUse">
<stop stop-color="#6A5EBF"/>
<stop offset="1" stop-color="#6E3AA5"/>
</linearGradient>
</defs>
</svg>
