<svg preserveAspectRatio="none" width="100%" height="100%" overflow="visible" style="display: block;" viewBox="0 0 493.01 502.926" fill="none" xmlns="http://www.w3.org/2000/svg">
<g id="Group 75">
<mask id="mask0_0_19" style="mask-type:alpha" maskUnits="userSpaceOnUse" x="0" y="0" width="494" height="503">
<path id="Rectangle 40" d="M0 0H493.01V502.926H0V0Z" fill="var(--fill-0, black)"/>
</mask>
<g mask="url(#mask0_0_19)">
<path id="Path 272" d="M486.563 23.6917L443.531 46.9827V180.674C443.531 199.945 435.807 222.873 422.08 244.317L326.604 393.531C316.609 409.152 300.556 418.42 290.562 414.338L240.321 393.833L238.549 400.406C238.542 400.399 238.534 400.391 238.519 400.391C228.585 393.5 223.102 381.007 223.102 364.772V195.94C223.102 188.898 225.223 181.03 228.933 173.321C233.37 164.084 240.101 155.088 248.203 148.069C284.088 116.994 321.069 90.4536 358.05 69.1006C395.04 47.7556 432.021 31.582 467.898 21.2312C470.646 20.4352 473.243 20.0495 475.636 20.0495C478.021 20.0495 480.217 20.428 482.186 21.17L486.563 23.6917Z" fill="var(--fill-0, #925FC4)"/>
</g>
</g>
</svg>
