<svg preserveAspectRatio="none" width="100%" height="100%" overflow="visible" style="display: block;" viewBox="0 0 63.2308 74.0889" fill="none" xmlns="http://www.w3.org/2000/svg">
<path id="Path 63" d="M31.5091 65.7857L24.4833 61.5278V69.831L31.5091 74.0889L38.7477 69.831V61.5278L31.5091 65.7857ZM12.1351 48.3281L19.1608 52.5861V44.2829L12.1351 40.0252V48.3281ZM43.8573 44.2829V52.5861L50.8828 48.3281V40.0252L43.8573 44.2829ZM0 55.5666L19.1608 66.8503V58.5473L7.02554 51.3086V37.0445L0 32.7865V55.5666ZM55.7795 37.0445V51.3086L43.6442 58.5473V66.8503L63.0181 55.5666V32.7865L55.7795 37.0445ZM31.5091 28.7415L19.3738 21.5028L12.1351 25.7608V34.0638L24.6962 41.3024V55.7795L31.7218 60.0374L38.7477 55.7795V41.3024L50.8828 34.0638V25.7608L43.6442 21.5028L31.5091 28.7415ZM0 18.5221V26.8253L7.02554 31.0833V22.7801L14.2644 18.5221L7.02554 14.2644L0 18.5221ZM24.4833 18.5221L31.5091 22.7801L38.7477 18.5221L31.5091 14.2644L24.4833 18.5221ZM48.9668 18.5221L55.9924 22.7801V31.0833L63.2308 26.8253V18.5221L55.9924 14.2644L48.9668 18.5221ZM31.5091 0L12.3482 11.2837L19.3738 15.5416L31.722 8.30299L43.8573 15.5416L50.8828 11.2837L31.5091 0Z" fill="var(--fill-0, #231F20)"/>
</svg>
