<svg preserveAspectRatio="none" width="100%" height="100%" overflow="visible" style="display: block;" viewBox="0 0 92.6112 98.3962" fill="none" xmlns="http://www.w3.org/2000/svg">
<g id="Group 772">
<mask id="mask0_0_18" style="mask-type:alpha" maskUnits="userSpaceOnUse" x="0" y="0" width="93" height="99">
<path id="Rectangle 651" d="M0 0H92.6112V98.3962H0V0Z" fill="var(--fill-0, black)"/>
</mask>
<g mask="url(#mask0_0_18)">
<path id="Path 593" d="M54.3817 37.7767C54.4553 33.5142 50.5013 29.6016 46.3978 29.9873C42.2831 29.7126 38.5106 33.4084 38.4941 37.735C38.4777 42.0593 42.1146 45.8429 46.3509 45.8118C50.8222 45.7792 54.3046 42.2565 54.3817 37.7767Z" fill="var(--fill-0, #231F20)"/>
<path id="Path 594" d="M46.4384 62.6063C32.721 62.6063 21.6012 51.4861 21.6012 37.769C21.6012 31.3969 24.0046 25.5902 27.9505 21.1948V23.8586C28.1081 28.152 28.1022 32.3564 28.1264 36.5598C28.1348 38.002 28.173 39.4586 28.3768 40.8826C29.8072 50.8587 39.9507 57.8722 49.9352 55.8299C62.6427 53.2306 68.8435 39.131 61.9949 28.16C57.7615 21.3781 51.3883 18.8751 43.5165 19.6174V13.1066C44.4749 12.9931 45.4491 12.9314 46.4384 12.9314C58.8141 12.9314 69.0722 21.9837 70.9611 33.8273H76.2336C74.6502 21.7452 65.896 11.9246 54.3827 8.77534V0.000102213H49.449V7.86069C48.4586 7.76225 47.455 7.7083 46.4384 7.7083C45.4141 7.7083 44.4024 7.76085 43.4054 7.86209V0.000102213H38.4717V8.7834V10.2421V14.2447L38.4741 14.244C38.4752 18.1016 38.4748 21.9596 38.4769 25.8175C38.4769 26.13 38.5368 26.4425 38.5792 26.8562C38.8956 26.7014 39.0886 26.6243 39.2641 26.5178C42.1909 24.7428 45.301 23.9339 48.7333 24.5988C55.3047 25.8715 59.4965 30.884 59.8223 37.1031C60.291 46.0384 52.4063 52.4189 44.2031 51.0296C37.9329 49.9678 33.0244 44.4291 32.9925 38.0734C32.9498 29.5403 32.9662 21.0067 32.9533 12.4736C32.9529 12.2707 32.9389 12.0647 32.9175 11.7845V10.9224C23.1089 15.8726 16.3777 26.0316 16.3777 37.769C16.3777 51.6118 25.7376 63.2617 38.4717 66.7543V75.5379H43.4054V67.6777C44.4028 67.7775 45.4145 67.8297 46.4384 67.8297C47.455 67.8297 48.4586 67.7754 49.449 67.677V75.5379H54.3827V66.7627C65.8746 63.6194 74.618 53.8293 76.2252 41.7783H70.9492C69.0316 53.5883 58.7903 62.6063 46.4384 62.6063Z" fill="var(--fill-0, #231F20)"/>
<path id="Path 595" d="M14.9828 93.6591C14.9828 96.4829 12.7426 98.1164 8.44817 98.1164H0.000121716V81.7798H7.98156C12.0655 81.7798 14.1659 83.4837 14.1659 86.0276C14.1659 87.6611 13.3259 88.9215 11.9958 89.6214C13.816 90.205 14.9828 91.6052 14.9828 93.6591V93.6591ZM3.75719 84.6274V88.478H7.51495C9.35863 88.478 10.3619 87.8247 10.3619 86.5412C10.3619 85.2576 9.35863 84.6274 7.51495 84.6274H3.75719ZM11.1788 93.2622C11.1788 91.8855 10.1286 91.2318 8.16828 91.2318H3.75719V95.2695H8.16828C10.1286 95.2695 11.1788 94.6627 11.1788 93.2622Z" fill="var(--fill-0, #231F20)"/>
<path id="Path 596" d="M18.1587 81.7798C18.1587 80.6364 19.0688 79.7494 20.4224 79.7494C21.776 79.7494 22.6865 80.5898 22.6865 81.7098C22.6865 82.9236 21.776 83.8103 20.4224 83.8103C19.0688 83.8103 18.1587 82.9236 18.1587 81.7798V81.7798ZM18.6022 85.5607H22.243V98.1165H18.6022V85.5607Z" fill="var(--fill-0, #231F20)"/>
<path id="Path 597" d="M34.7295 97.5096C33.9826 98.0467 32.8858 98.3031 31.7655 98.3031C28.8016 98.3031 27.0745 96.7863 27.0745 93.7992V88.6416H25.1377V85.8405H27.0745V82.7834H30.7153V85.8405H33.8425V88.6416H30.7153V93.7526C30.7153 94.8259 31.2989 95.4092 32.2791 95.4092C32.8157 95.4092 33.3524 95.246 33.7493 94.9426L34.7295 97.5096Z" fill="var(--fill-0, #231F20)"/>
<path id="Path 598" d="M37.0173 89.9483C37.0173 85.024 40.7979 81.4999 45.8854 81.4999C48.7096 81.4999 51.0668 82.5266 52.6071 84.3938L50.1795 86.634C49.0827 85.3739 47.706 84.7206 46.0721 84.7206C43.015 84.7206 40.8444 86.8677 40.8444 89.9483C40.8444 93.0289 43.015 95.1759 46.0721 95.1759C47.706 95.1759 49.0827 94.5223 50.1795 93.2387L52.6071 95.4793C51.0668 97.3696 48.7096 98.3963 45.8623 98.3963C40.7979 98.3963 37.0173 94.8726 37.0173 89.9483Z" fill="var(--fill-0, #231F20)"/>
<path id="Path 599" d="M54.5222 91.8385C54.5222 88.0576 57.4393 85.3735 61.43 85.3735C65.4207 85.3735 68.3146 88.0576 68.3146 91.8385C68.3146 95.619 65.4207 98.3031 61.43 98.3031C57.4393 98.3031 54.5222 95.619 54.5222 91.8385V91.8385ZM64.6272 91.8385C64.6272 89.668 63.2502 88.361 61.43 88.361C59.6094 88.361 58.2092 89.668 58.2092 91.8385C58.2092 94.009 59.6094 95.3156 61.43 95.3156C63.2502 95.3156 64.6272 94.009 64.6272 91.8385Z" fill="var(--fill-0, #231F20)"/>
<path id="Path 600" d="M71.3039 81.7798C71.3039 80.6364 72.214 79.7494 73.5673 79.7494C74.9212 79.7494 75.8313 80.5898 75.8313 81.7098C75.8313 82.9236 74.9212 83.8103 73.5673 83.8103C72.214 83.8103 71.3039 82.9236 71.3039 81.7798V81.7798ZM71.7474 85.5607H75.3882V98.1165H71.7474V85.5607Z" fill="var(--fill-0, #231F20)"/>
<path id="Path 601" d="M92.6115 90.928V98.116H88.9708V91.4882C88.9708 89.4578 88.0376 88.5242 86.4272 88.5242C84.6767 88.5242 83.4166 89.5979 83.4166 91.9082V98.116H79.7759V85.5602H83.2531V87.0308C84.2332 85.9571 85.7038 85.3735 87.4074 85.3735C90.3713 85.3735 92.6115 87.1006 92.6115 90.928Z" fill="var(--fill-0, #231F20)"/>
</g>
</g>
</svg>
