<svg preserveAspectRatio="none" width="100%" height="100%" overflow="visible" style="display: block;" viewBox="0 0 66.2307 66.2306" fill="none" xmlns="http://www.w3.org/2000/svg">
<g id="Group 768">
<mask id="mask0_0_14" style="mask-type:alpha" maskUnits="userSpaceOnUse" x="0" y="0" width="67" height="67">
<path id="Rectangle 648" d="M0 0H66.2307V66.2306H0V0Z" fill="var(--fill-0, black)"/>
</mask>
<g mask="url(#mask0_0_14)">
<path id="Path 581" d="M56.5325 56.5327C69.4634 43.6018 69.4634 22.6283 56.5325 9.69781C43.6021 -3.23264 22.6285 -3.23264 9.69805 9.69781C-3.23272 22.6283 -3.23272 43.6018 9.69805 56.5327C22.6285 69.4633 43.6021 69.4633 56.5325 56.5327V56.5327ZM30.6508 61.1925V56.2255C32.2887 56.3989 33.9418 56.4005 35.5798 56.2295V61.1925C33.9402 61.3352 32.2904 61.3352 30.6508 61.1925V61.1925ZM25.7217 5.91096V11.0721C22.4109 12.1739 19.3033 14.0363 16.6799 16.6599C11.9634 21.3761 9.94996 27.8762 11.6885 34.507C12.8437 38.9142 15.5705 42.6582 19.2443 45.1147C20.9166 46.2335 22.7857 47.085 24.7921 47.6106C29.1892 48.7634 33.777 48.2284 37.7136 46.2435L41.2457 49.7759C32.3191 54.7821 20.7159 53.2439 13.4033 45.4502C14.3169 46.916 15.4092 48.3002 16.6799 49.5707C19.3033 52.1943 22.4109 54.0566 25.7217 55.1585V60.3193C21.1288 59.0759 16.7894 56.6521 13.1837 53.0467C2.17737 42.0401 2.17737 24.1901 13.1837 13.1839C16.7894 9.57847 21.1288 7.15363 25.7217 5.91096V5.91096ZM35.5798 5.03804V10.001C33.9418 9.83006 32.2887 9.83165 30.6508 10.0051V5.03804C32.2904 4.89496 33.9402 4.89496 35.5798 5.03804V5.03804ZM45.2939 46.8725L41.828 43.4069L38.3456 39.9238C35.0113 42.8461 30.4223 43.9524 26.086 42.8186C24.7851 42.4784 23.563 41.9514 22.4496 41.2674C19.5379 39.4785 17.3701 36.6155 16.4806 33.2131C15.2494 28.504 16.6617 23.5032 20.1557 20.1357C25.7922 14.4988 34.2783 13.3179 41.11 16.5908L37.3359 20.3646C32.6691 18.8495 27.3111 19.9311 23.6311 23.6114C19.1678 28.0743 19.9627 36.0544 26.6353 38.6316C24.4723 36.4686 24.1664 32.3801 25.353 29.6614C25.7624 28.7232 26.3466 27.8474 27.1065 27.0869C30.1313 24.0621 34.9851 23.814 38.3104 26.3416L45.291 19.3607L46.1844 18.4673L48.7715 15.8804C46.3189 13.6547 43.4961 12.0484 40.5088 11.0593V5.91096C45.1018 7.15427 49.4415 9.57847 53.0469 13.1839C64.0532 24.1901 64.0532 42.0401 53.0469 53.0467C49.4415 56.6521 45.1018 59.0766 40.5088 60.3193V55.1713C43.4961 54.1822 46.3189 52.5759 48.7715 50.3502L46.1844 47.7633L45.2939 46.8725Z" fill="var(--fill-0, #231F20)"/>
</g>
</g>
</svg>
