<svg preserveAspectRatio="none" width="100%" height="100%" overflow="visible" style="display: block;" viewBox="0 0 143.29 70.4578" fill="none" xmlns="http://www.w3.org/2000/svg">
<g id="Group 771">
<mask id="mask0_0_29" style="mask-type:alpha" maskUnits="userSpaceOnUse" x="0" y="0" width="144" height="71">
<path id="Rectangle 650" d="M0 0H143.29V70.4578H0V0Z" fill="var(--fill-0, black)"/>
</mask>
<g mask="url(#mask0_0_29)">
<path id="Path 584" d="M136.732 23.1345C136.42 24.9935 136.132 26.7673 135.821 28.5371C134.993 33.2546 134.163 37.9719 133.319 42.6866C132.491 47.3095 131.779 51.9584 130.771 56.5421C129.664 61.5715 124.733 65.3099 119.611 65.3099C95.559 65.3107 71.5063 65.2438 47.4544 65.3669C42.7075 65.391 38.6516 63.396 38.0428 57.1155H33.1445C28.5789 57.1155 24.013 57.1163 19.4475 57.1152C17.3164 57.1149 16.391 56.5209 15.9192 54.8562C15.5424 53.5259 16.4266 51.6225 17.9059 50.8782C18.6757 50.4909 19.563 50.1205 20.3992 50.116C30.2834 50.0635 40.1679 50.0813 50.0522 50.0855C50.1864 50.0855 50.3203 50.1508 50.5858 50.22C49.8463 53.7042 49.1087 57.1788 48.3564 60.7229H55.8211C56.5065 57.5706 57.2776 54.3819 57.8537 51.1584C58.0262 50.1914 58.3729 50.0508 59.1958 50.0446C61.6342 50.0256 64.1684 50.3434 66.491 49.7934C71.9543 48.4999 75.3012 44.8312 76.556 39.3453C77.5846 34.8478 75.71 30.4862 71.9633 28.6424C71.2328 28.2828 70.3627 28.0464 69.5532 28.0354C65.1766 27.9749 60.7983 28.0255 56.4214 27.9828C55.5333 27.9744 55.2316 28.2874 55.0593 29.1405C54.166 33.5589 53.1686 37.9563 52.283 42.3761C52.0957 43.3106 51.7214 43.5784 50.8056 43.5705C46.1462 43.5304 41.486 43.5552 36.8261 43.5507C34.0809 43.5482 32.6317 41.1634 34.0464 38.8318C34.7555 37.6628 35.771 36.7309 37.3227 36.7312C39.9578 36.7312 42.5931 36.7351 45.2276 36.6826C47.7731 36.6318 49.4372 35.3642 49.7335 33.3428C50.0403 31.2506 48.9872 29.9947 46.8892 29.991C41.8999 29.9826 36.9083 29.9023 31.9224 30.0295C29.8509 30.0823 28.53 28.9492 28.3535 27.2797C28.1713 25.558 29.9566 23.4094 31.7193 23.213C32.3716 23.1404 33.034 23.1368 33.6919 23.1368C66.9698 23.1336 100.248 23.1342 133.526 23.1345H136.732V23.1345ZM95.7819 28.0009C93.5722 28.0009 91.5533 27.969 89.5369 28.0306C89.1773 28.0416 88.6877 28.3571 88.4999 28.6749C87.5041 30.36 86.5914 32.0939 85.6397 33.8052C81.5148 41.2213 77.3809 48.6321 73.2645 56.0531C72.4263 57.5641 71.6498 59.1096 70.7661 60.789C73.2416 60.789 75.4526 60.8251 77.6606 60.7551C78.0507 60.7426 78.588 60.3745 78.782 60.02C79.7897 58.1776 80.7363 56.2997 81.6419 54.4042C81.9572 53.7443 82.2727 53.3968 83.09 53.4183C85.5824 53.4844 88.0787 53.4912 90.5708 53.4194C91.6279 53.3889 91.7762 53.8398 91.8273 54.7497C91.9392 56.7409 92.1943 58.7243 92.3897 60.6972H100.028C98.6062 49.751 97.198 38.9069 95.7819 28.0009V28.0009ZM131.973 28.0015C129.289 28.0015 126.895 27.9735 124.502 28.0311C124.136 28.0399 123.653 28.3588 123.438 28.6786C122.055 30.7261 120.735 32.8151 119.39 34.888C117.654 37.5637 115.914 40.2371 114.025 43.1442C112.928 37.9487 111.889 33.0292 110.849 28.1054H102.717C104.402 33.8885 105.975 39.562 107.725 45.1804C108.583 47.9332 109.099 50.5655 108.178 53.4378C107.425 55.7889 107.068 58.2675 106.524 60.7384H114.025C114.538 58.2576 115.005 55.8048 115.562 53.3723C115.902 51.8867 116.076 50.2429 116.854 49.0022C118.66 46.1228 120.785 43.444 122.782 40.6855C125.788 36.5357 128.795 32.3871 131.973 28.0015Z" fill="var(--fill-0, #231F20)"/>
<path id="Path 585" d="M46.7419 8.23251C48.3702 4.15283 51.11 1.34716 55.3956 0.261559C56.0668 0.091501 56.7849 0.0468679 57.4812 0.0465854C82.0983 0.0361334 106.716 0.0802014 131.332 -2.50405e-05C135.939 -0.0149969 140.061 3.81695 139.176 9.56162C138.942 11.0817 138.616 12.5873 138.381 14.1071C138.275 14.7955 137.984 15.119 137.268 15.0187C136.991 14.9797 136.704 15.0091 136.422 15.0091C102.72 15.0091 69.0189 15.0088 35.3175 15.0097C32.6684 15.0097 31.3186 14.1464 31.411 12.2752C31.5127 10.2136 33.1243 8.17601 35.5947 8.2181C38.9825 8.27601 42.3721 8.23251 45.7611 8.23251H46.7419Z" fill="var(--fill-0, #231F20)"/>
<path id="Path 586" d="M141.445 9.87067C143.383 12.182 143.517 14.8196 143.09 17.4611C142.08 23.7078 140.926 29.9315 139.816 36.1618C138.715 42.3426 137.608 48.5223 136.48 54.6981C136.012 57.2588 135.719 59.884 134.931 62.3467C133.521 66.7541 128.236 70.4875 123.249 70.4578C99.9025 70.3182 76.5546 70.3942 53.2076 70.3979C50.8768 70.3984 49.0197 69.3668 47.1061 67.6764C47.7638 67.6343 48.1497 67.5883 48.5355 67.5883C72.8713 67.5832 97.207 67.5775 121.543 67.5835C126.565 67.5849 132.324 62.8998 133.326 56.9707C133.923 53.4379 134.559 49.9116 135.172 46.3813C136.159 40.698 137.133 35.0123 138.13 29.3307C138.91 24.8866 139.731 20.4501 140.503 16.0049C140.846 14.034 141.113 12.0498 141.445 9.87067Z" fill="var(--fill-0, #231F20)"/>
<path id="Path 587" d="M15.3403 36.6867C18.9589 36.6867 22.5773 36.6819 26.196 36.6887C28.1169 36.6924 29.2341 37.3805 29.5997 38.7557C29.9596 40.1107 29.1163 42.1077 27.7166 42.8051C26.9163 43.204 25.9734 43.5136 25.092 43.5204C17.9493 43.5769 10.8058 43.5523 3.6625 43.552C1.31927 43.552 0.0910124 42.6396 0.0037237 40.8362C-0.0889322 38.9192 1.57972 36.8503 3.50262 36.7901C7.16394 36.676 10.8303 36.7161 14.4945 36.6927C14.7764 36.691 15.0583 36.6924 15.3403 36.6924V36.6867Z" fill="var(--fill-0, #231F20)"/>
<path id="Path 588" d="M20.4832 15.0108C19.2154 15.0108 17.9476 15.0213 16.68 15.0086C14.6871 14.9885 13.4071 13.3122 13.8981 11.3831C14.3512 9.60401 16.0515 8.24835 17.9001 8.23649C20.4351 8.2201 22.9708 8.21841 25.5061 8.23677C27.6691 8.25259 28.8835 9.97774 28.2473 12.0526C27.7106 13.8035 25.803 15.2447 24.1419 15.0396C22.9394 14.8913 21.7038 15.0108 20.4832 15.0108Z" fill="var(--fill-0, #231F20)"/>
<path id="Path 589" d="M59.5034 43.5869C60.1504 40.5172 60.7667 37.5931 61.4156 34.5168C63.2998 34.5168 65.2207 34.4002 67.119 34.5561C68.475 34.6677 69.0032 35.8572 69.1671 37.055C69.3953 38.7234 68.9801 40.2977 68.0693 41.7217C67.258 42.9903 66.1554 43.6757 64.5792 43.6031C62.9927 43.5299 61.4003 43.5869 59.5034 43.5869Z" fill="var(--fill-0, #231F20)"/>
<path id="Path 590" d="M11.7013 23.1428C13.4312 23.1578 14.712 24.386 14.668 25.9877C14.6123 28.0157 12.4555 30.0245 10.3727 29.988C8.63997 29.9578 7.59703 28.8318 7.61652 27.0126C7.63968 24.8202 9.43122 23.123 11.7013 23.1428Z" fill="var(--fill-0, #231F20)"/>
<path id="Path 591" d="M25.9888 26.0163C25.9832 28.181 24.1272 30.0065 21.9506 29.9884C20.2648 29.9743 19.03 28.7212 19.0642 27.0596C19.1094 24.8714 20.9345 23.135 23.1823 23.1415C25.0235 23.1466 25.9939 24.1406 25.9888 26.0163Z" fill="var(--fill-0, #231F20)"/>
<path id="Path 592" d="M90.5933 36.787C90.9072 40.5698 91.221 44.3529 91.5439 48.2453H84.4204C86.4179 44.3687 88.3862 40.5489 90.3546 36.7291C90.4343 36.7483 90.5137 36.7678 90.5933 36.787Z" fill="var(--fill-0, #231F20)"/>
</g>
</g>
</svg>
