<svg preserveAspectRatio="none" width="100%" height="100%" overflow="visible" style="display: block;" viewBox="0 0 119.45 78.3776" fill="none" xmlns="http://www.w3.org/2000/svg">
<g id="Group 776">
<mask id="mask0_0_4" style="mask-type:alpha" maskUnits="userSpaceOnUse" x="0" y="0" width="120" height="79">
<path id="Rectangle 655" d="M0 0H119.45V78.3776H0V0Z" fill="var(--fill-0, black)"/>
</mask>
<g mask="url(#mask0_0_4)">
<path id="Path 604" d="M32.2208 40.2256C32.2285 35.8657 32.2091 31.5064 32.2433 27.1471C32.2658 24.2805 32.0711 21.3716 32.489 18.5582C33.2906 13.1658 38.6446 9.08441 44.1892 9.1922C47.5523 9.2576 50.918 9.23001 54.2821 9.20855C54.9871 9.20395 55.1884 9.45633 55.1823 10.1394C55.1547 13.4713 55.1818 16.8038 55.1613 20.1358C55.1567 20.8678 55.0449 21.5999 54.9662 22.3305C54.4155 27.4521 49.7072 31.6638 44.8472 32.002C43.3457 32.1067 41.831 32.0183 40.2682 32.0183V41.3061C43.43 41.2315 46.458 41.3878 49.4916 40.5306C57.9134 38.1509 64.465 29.7812 64.3388 20.7601C64.2448 14.0272 64.3459 7.29122 64.3541 0.556805C64.3541 0.394856 64.2759 0.232907 64.231 0.0566537C64.0072 0.0433708 63.8335 0.0244683 63.6598 0.0244683C56.7476 0.0234465 49.8349 0.0152724 42.9227 0.0372403C42.0098 0.0403055 41.0779 0.11234 40.1875 0.303919C36.8581 1.01966 33.7774 2.25599 31.058 4.40884C25.9574 8.44734 23.2191 13.6864 23.0807 20.149C22.9371 26.8456 23.0474 33.5479 23.05 40.2476C23.05 40.5863 23.0807 40.925 23.0996 41.3122C23.0996 41.3122 32.2203 40.5704 32.2208 40.2256ZM56.2505 40.9945L56.3502 41.3929C58.6879 41.2821 61.061 41.3878 63.3564 41.0149C67.9946 40.2624 71.8947 38.0211 75.0683 34.5221C78.3532 30.9 80.1945 26.6331 80.3125 21.7849C80.4831 14.7725 80.3865 7.75459 80.4187 0.738678C80.4218 0.0745345 80.0703 0.0137398 79.541 0.017316C77.1307 0.0336641 74.7188 0.067893 72.31 0.00147869C71.3562 -0.0245762 71.1263 0.272245 71.1314 1.2046C71.1682 7.727 71.1795 14.2499 71.1263 20.7723C71.0946 24.6555 69.373 27.7121 66.3006 30.0621C65.7365 30.4938 65.2017 31.0665 64.8767 31.6903C63.0595 35.1817 60.5225 38.0171 57.3121 40.269C56.9612 40.5153 56.6046 40.7528 56.2505 40.9945V40.9945ZM72.3713 41.0108C72.3994 41.1416 72.427 41.2724 72.4551 41.4032C74.8328 41.2851 77.2508 41.4057 79.5809 41.0083C89.1762 39.3729 96.4231 30.6532 96.4384 20.9184C96.4491 14.2913 96.4414 7.66365 96.4384 1.03652C96.4384 0.728971 96.4001 0.421933 96.3786 0.098035H87.2763V1.5382C87.2814 7.8818 87.3376 14.2259 87.2727 20.569C87.2334 24.4435 85.5832 27.5665 82.4801 29.9375C81.8369 30.4295 81.2377 31.0921 80.8657 31.8048C79.4562 34.5078 77.5552 36.7955 75.2629 38.7691C74.3398 39.5635 73.3374 40.2665 72.3713 41.0108Z" fill="var(--fill-0, #231F20)"/>
<path id="Path 608" d="M18.2808 58.862C18.2808 63.5605 14.7567 66.4812 9.1253 66.4812H4.87887V72.294H-2.71156e-05V51.2126H9.1253C14.7567 51.2126 18.2808 54.1338 18.2808 58.862V58.862ZM13.3416 58.862C13.3416 56.5431 11.8355 55.1877 8.85403 55.1877H4.87887V62.5061H8.85403C11.8355 62.5061 13.3416 61.1507 13.3416 58.862Z" fill="var(--fill-0, #231F20)"/>
<path id="Path 609" d="M35.308 63.0475V72.2939H30.9108V70.276C30.0378 71.7519 28.3508 72.5346 25.9717 72.5346C22.1774 72.5346 19.9182 70.4267 19.9182 67.6255C19.9182 64.7646 21.9362 62.7768 26.8754 62.7768H30.6099C30.6099 60.7593 29.4053 59.5848 26.8754 59.5848C25.1589 59.5848 23.382 60.157 22.2075 61.0903L20.5206 57.8079C22.2979 56.543 24.9177 55.8503 27.5074 55.8503C32.4471 55.8503 35.308 58.139 35.308 63.0475V63.0475ZM30.6099 67.1739V65.5176H27.3873C25.189 65.5176 24.4962 66.3304 24.4962 67.415C24.4962 68.5895 25.4899 69.3727 27.1462 69.3727C28.7125 69.3727 30.0674 68.6498 30.6099 67.1739Z" fill="var(--fill-0, #231F20)"/>
<path id="Path 610" d="M54.6299 56.091L47.3115 73.2872C45.7452 77.2026 43.5167 78.3776 40.595 78.3776C38.9392 78.3776 37.1322 77.8351 36.0778 76.9017L37.7948 73.5585C38.5172 74.191 39.5109 74.5823 40.4448 74.5823C41.7399 74.5823 42.4627 74.0101 43.0952 72.5649L43.155 72.4141L36.1381 56.091H40.9868L45.5347 67.0836L50.1122 56.091H54.6299Z" fill="var(--fill-0, #231F20)"/>
<path id="Path 611" d="M88.8792 51.2124L81.9824 72.2938H76.7417L72.1045 58.0183L67.3155 72.2938H62.1056L55.1785 51.2124H60.2383L64.9966 66.0299L69.9659 51.2124H74.4831L79.3018 66.1505L84.2108 51.2124H88.8792Z" fill="var(--fill-0, #231F20)"/>
<path id="Path 612" d="M104.71 65.5181H92.4529C92.9045 67.5355 94.6216 68.7704 97.0912 68.7704C98.8072 68.7704 100.042 68.2584 101.157 67.2045L103.657 69.9147C102.15 71.6313 99.8919 72.535 96.9706 72.535C91.3688 72.535 87.7242 69.011 87.7242 64.1929C87.7242 59.3436 91.4291 55.8507 96.3683 55.8507C101.127 55.8507 104.801 59.0427 104.801 64.2532C104.801 64.6143 104.741 65.1262 104.71 65.5181V65.5181ZM92.3926 62.7772H100.374C100.042 60.7291 98.5063 59.4039 96.3985 59.4039C94.2599 59.4039 92.7242 60.699 92.3926 62.7772Z" fill="var(--fill-0, #231F20)"/>
<path id="Rectangle 653" d="M107.227 49.9476H111.925V72.294H107.227V49.9476Z" fill="var(--fill-0, #231F20)"/>
<path id="Rectangle 654" d="M114.752 49.9476H119.45V72.294H114.752V49.9476Z" fill="var(--fill-0, #231F20)"/>
</g>
</g>
</svg>
